<?xml version="1.0" standalone="no"?>
<!DOCTYPE svg PUBLIC "-//W3C//DTD SVG 20010904//EN"
 "http://www.w3.org/TR/2001/REC-SVG-20010904/DTD/svg10.dtd">
<svg version="1.0" xmlns="http://www.w3.org/2000/svg"
 width="832.000000pt" height="576.000000pt" viewBox="0 0 832.000000 576.000000"
 preserveAspectRatio="xMidYMid meet">

<g transform="translate(0.000000,576.000000) scale(0.100000,-0.100000)"
fill="#000000" stroke="none">
<path d="M4445 5027 c-176 -32 -258 -121 -315 -342 -16 -66 -36 -138 -44 -160
-19 -57 -36 -131 -36 -161 0 -14 -4 -33 -9 -43 -6 -10 -11 -46 -12 -81 -1 -34
-10 -86 -20 -114 -17 -47 -52 -313 -44 -326 2 -4 9 -61 14 -127 12 -139 20
-165 55 -189 40 -26 313 -114 354 -114 20 0 52 -9 70 -20 l34 -21 -7 -72 c-4
-40 -13 -83 -20 -97 -35 -72 -49 -130 -52 -229 -5 -116 0 -146 22 -155 20 -7
100 79 148 162 21 36 51 82 67 102 16 21 41 60 55 88 14 28 32 57 39 64 7 8
25 32 39 54 22 35 32 42 69 48 60 8 229 -2 275 -17 38 -12 38 -12 41 -73 2
-44 -3 -73 -18 -108 -11 -26 -20 -62 -20 -79 0 -18 -13 -70 -29 -117 -49 -146
-52 -210 -8 -210 16 0 33 17 60 58 21 31 60 82 88 112 28 30 63 73 78 95 15
22 39 57 54 78 14 21 50 64 80 97 l55 59 102 12 c82 10 109 10 137 0 25 -9 63
-11 127 -7 65 5 114 3 171 -8 44 -9 102 -16 129 -16 37 0 47 -3 43 -14 -14
-36 -27 -99 -37 -181 -6 -49 -22 -138 -36 -196 -40 -171 -20 -181 92 -44 84
103 106 127 204 225 52 52 104 108 116 123 19 28 24 29 145 38 68 5 165 14
215 20 50 6 109 8 131 4 39 -6 135 13 175 35 10 6 24 10 31 10 13 0 52 38 72
70 5 8 15 53 22 100 6 47 16 105 21 130 25 121 46 281 62 485 4 61 14 130 20
155 6 25 10 90 9 145 -1 59 3 112 10 129 19 48 25 170 11 223 -23 83 -57 141
-111 183 -28 22 -61 42 -72 44 -40 8 -131 17 -222 22 -49 2 -97 7 -105 11 -38
15 -186 24 -430 27 -158 1 -279 7 -300 13 -19 6 -150 16 -290 23 -140 6 -282
15 -315 20 -61 10 -331 36 -530 51 -215 16 -586 19 -660 6z m475 -62 c52 -3
167 -12 255 -21 88 -8 219 -19 290 -24 72 -5 148 -13 170 -19 22 -5 69 -10
105 -10 83 -1 384 -19 447 -26 132 -17 391 -24 543 -15 25 1 108 -7 185 -19
77 -12 183 -26 235 -31 52 -5 106 -12 120 -15 38 -8 106 -77 130 -131 30 -65
39 -200 17 -235 -12 -19 -16 -53 -16 -152 0 -70 -3 -132 -6 -137 -3 -5 -12
-78 -21 -162 -34 -342 -40 -390 -68 -503 -9 -33 -18 -81 -21 -108 -9 -68 -37
-96 -105 -106 -30 -4 -66 -14 -80 -23 -24 -15 -172 -27 -432 -33 -97 -3 -116
-12 -157 -73 -30 -45 -253 -262 -270 -262 -15 0 -14 51 4 145 15 79 31 114 66
148 25 24 24 63 -1 77 -11 6 -65 11 -119 11 -54 0 -114 4 -132 10 -19 6 -155
13 -304 15 l-270 5 -35 -47 c-19 -25 -44 -56 -56 -68 -11 -11 -37 -42 -56 -67
-19 -26 -40 -53 -47 -60 -6 -8 -25 -32 -42 -54 -30 -39 -57 -61 -64 -53 -8 7
14 127 28 160 9 19 18 79 21 139 5 95 4 108 -12 114 -28 12 -148 25 -287 31
-117 6 -132 4 -153 -12 -26 -23 -82 -108 -117 -183 -14 -29 -46 -78 -70 -107
-24 -30 -46 -62 -49 -72 -9 -28 -45 -46 -63 -31 -18 15 -15 27 30 144 25 65
36 114 41 177 l7 87 -38 25 c-43 29 -115 56 -147 56 -19 0 -160 40 -211 61
-11 4 -30 10 -42 14 -44 12 -73 45 -73 81 0 19 -7 76 -15 128 -8 51 -13 115
-10 142 10 100 27 209 35 224 4 8 11 46 15 84 4 38 13 87 21 109 8 22 14 60
14 86 0 25 11 75 23 111 13 36 32 99 42 140 10 41 21 79 26 85 5 5 9 18 9 30
0 30 63 118 112 157 56 44 113 57 278 64 74 3 137 7 140 10 3 3 23 3 45 0 22
-4 83 -9 135 -11z"/>
<path d="M4582 4768 c-18 -18 -15 -183 4 -237 24 -71 43 -100 65 -101 11 0 44
34 69 72 21 32 50 56 54 46 11 -29 66 -125 83 -146 l23 -27 28 30 c35 38 117
228 108 250 -12 33 -41 10 -76 -62 -47 -96 -56 -105 -79 -74 -10 13 -28 56
-40 96 -18 62 -34 85 -56 85 -2 0 -13 -19 -25 -42 -33 -68 -46 -88 -68 -104
-30 -21 -36 -5 -42 103 -6 98 -23 136 -48 111z"/>
<path d="M5152 4660 c-75 -54 -112 -170 -77 -244 15 -31 25 -38 72 -52 73 -21
112 -13 161 36 42 43 78 132 66 166 -9 26 -55 74 -70 74 -7 0 -26 11 -42 25
-39 32 -60 32 -110 -5z m159 -101 c23 -34 -39 -133 -91 -144 -35 -8 -88 17
-99 48 -8 21 7 76 28 101 14 17 150 13 162 -5z"/>
<path d="M5425 4609 c-4 -11 -4 -66 0 -121 5 -77 11 -109 29 -141 46 -81 63
-76 126 39 22 41 45 72 50 69 4 -3 25 -36 46 -73 43 -77 62 -102 80 -102 20 0
73 122 98 225 24 96 24 125 -3 125 -25 0 -41 -20 -41 -53 0 -37 -26 -128 -44
-153 -12 -16 -16 -16 -31 -4 -9 8 -35 49 -56 93 -34 66 -43 78 -62 75 -16 -2
-23 -12 -27 -38 -6 -35 -19 -64 -56 -127 -22 -38 -29 -40 -43 -15 -11 21 -18
178 -8 188 10 11 -13 34 -34 34 -10 0 -21 -9 -24 -21z"/>
<path d="M7011 4320 c-16 -22 -32 -60 -36 -83 -4 -23 -11 -47 -15 -52 -5 -6
-23 -55 -41 -110 -18 -55 -41 -113 -51 -130 -10 -16 -18 -44 -18 -61 0 -16 -5
-35 -12 -42 -13 -13 5 -42 27 -42 15 0 45 54 45 80 0 10 15 64 34 121 31 97
52 147 104 259 29 60 32 93 10 98 -11 2 -28 -12 -47 -38z"/>
<path d="M4632 4237 c-23 -28 -42 -134 -42 -237 -1 -125 -10 -146 -63 -136
-49 9 -99 46 -116 83 -16 36 -40 50 -53 31 -13 -21 -9 -48 10 -76 9 -15 22
-36 28 -47 14 -24 62 -53 91 -54 12 -1 25 -5 28 -11 3 -5 21 -10 40 -10 64 0
87 59 90 230 1 69 8 124 19 158 14 42 15 56 6 67 -15 18 -24 19 -38 2z"/>
<path d="M4879 4197 c-17 -14 -77 -197 -109 -336 -20 -85 -20 -95 -6 -109 14
-15 17 -14 30 3 14 19 25 53 43 125 8 32 12 35 47 38 74 6 82 0 90 -70 7 -66
27 -101 47 -81 17 17 12 318 -6 353 -18 35 -81 90 -103 90 -9 0 -24 -6 -33
-13z m68 -99 c26 -25 31 -79 9 -97 -8 -7 -30 -11 -48 -9 -29 3 -33 6 -31 29 2
31 29 99 39 99 4 0 18 -10 31 -22z"/>
<path d="M5218 4143 c-38 -40 -77 -123 -89 -189 -26 -139 72 -230 186 -173 48
24 81 69 71 95 -8 20 -36 17 -61 -6 -12 -12 -38 -23 -58 -27 -29 -4 -40 -1
-62 21 -23 23 -25 31 -19 78 7 57 42 122 80 151 30 23 40 17 49 -30 4 -21 11
-46 17 -57 10 -19 11 -19 30 3 10 13 17 31 14 40 -2 9 -7 33 -11 53 -8 51 -28
68 -79 68 -33 0 -48 -6 -68 -27z"/>
<path d="M5508 4133 c-8 -10 -18 -27 -22 -38 -10 -26 -26 -165 -33 -288 l-5
-99 23 4 c35 5 50 43 43 113 -3 36 -1 66 6 75 16 23 79 -52 126 -150 37 -79
64 -103 93 -85 13 8 14 38 2 51 -5 5 -28 44 -51 88 -23 43 -55 97 -71 119 -21
28 -26 44 -19 52 9 11 95 52 143 68 18 7 24 51 8 62 -6 3 -53 -13 -107 -35
-53 -22 -98 -40 -100 -40 -9 0 -3 42 8 60 9 15 10 25 2 37 -15 24 -28 26 -46
6z"/>
<path d="M5923 4087 c-53 -8 -63 -13 -72 -36 -15 -37 -32 -141 -41 -241 -4
-47 -15 -104 -24 -127 -22 -53 -18 -98 9 -98 14 0 24 11 33 40 23 68 42 145
42 170 0 27 27 34 47 14 13 -13 118 -17 154 -6 26 8 27 8 27 -35 -1 -58 18
-121 42 -143 40 -36 158 -32 203 8 62 54 125 226 98 269 -6 10 -11 26 -11 35
0 15 8 17 50 15 l50 -4 0 -40 c0 -22 -18 -93 -40 -158 -22 -65 -40 -129 -40
-141 0 -43 12 -69 31 -69 25 0 41 34 44 96 3 49 16 101 36 149 5 11 18 49 30
85 24 76 40 93 77 79 14 -5 38 -7 54 -3 24 5 29 10 26 32 -4 38 -49 51 -176
51 -110 1 -142 -8 -142 -39 0 -27 -15 -25 -37 4 -24 30 -74 56 -109 56 -20 0
-43 -17 -90 -66 l-63 -67 -11 27 c-5 15 -10 31 -10 36 0 5 -9 29 -20 54 -19
45 -26 50 -90 60 -8 2 -43 -1 -77 -7z m91 -67 c49 -18 60 -148 13 -152 -38 -2
-60 2 -99 19 -35 16 -38 20 -38 58 0 44 18 69 55 78 33 8 42 7 69 -3z m314
-58 c28 -19 62 -77 62 -110 0 -47 -49 -141 -85 -164 -16 -10 -49 -18 -72 -18
-51 0 -83 34 -83 88 0 37 54 148 93 190 20 22 61 29 85 14z"/>
<path d="M6846 3628 c-20 -28 -20 -42 -2 -57 25 -21 46 -2 46 40 0 45 -20 52
-44 17z"/>
<path d="M2055 4288 c-234 -45 -411 -108 -452 -162 -30 -40 -55 -88 -74 -141
-14 -41 -15 -53 -5 -65 23 -26 25 -48 14 -107 -16 -89 -21 -97 -89 -132 -114
-60 -209 -148 -209 -194 0 -16 -9 -34 -22 -45 -45 -36 -68 -66 -69 -91 -1 -14
-2 -42 -3 -62 -1 -23 -11 -47 -28 -67 -15 -18 -29 -47 -32 -65 -13 -85 -14
-115 -6 -156 4 -25 4 -71 0 -103 -9 -64 4 -114 42 -155 12 -13 23 -45 29 -85
5 -34 13 -88 18 -118 13 -74 13 -337 1 -360 -5 -10 -21 -21 -35 -24 -32 -8
-32 -26 -1 -54 41 -35 49 -89 41 -257 -10 -205 -10 -234 -7 -445 2 -102 1
-199 -3 -216 -4 -20 -2 -36 7 -45 7 -8 26 -33 41 -57 32 -50 126 -152 140
-152 5 0 23 -6 40 -14 104 -45 147 -57 249 -71 62 -8 139 -15 170 -15 31 0 88
-7 126 -14 161 -35 400 -18 727 50 39 8 81 14 96 14 14 0 29 4 35 8 5 5 29 15
54 22 47 14 177 70 220 95 59 34 90 48 95 44 2 -3 6 -35 7 -71 3 -65 2 -67
-44 -127 -40 -51 -70 -113 -95 -193 -3 -10 3 -20 15 -27 27 -14 57 16 66 66 3
21 15 49 26 62 l21 24 28 -29 29 -29 -24 -47 c-39 -77 -28 -111 29 -89 22 9
27 17 27 44 0 38 18 67 60 97 l29 21 15 -30 c13 -24 14 -42 4 -115 -9 -64 -9
-89 -1 -97 20 -20 42 -2 48 38 8 55 30 116 42 120 21 7 43 -28 43 -71 0 -23 6
-51 14 -61 22 -31 46 -3 46 54 0 45 2 49 40 70 76 43 74 82 -9 137 -50 34 -64
38 -124 40 -66 2 -68 3 -107 45 -21 24 -39 48 -40 53 0 4 16 41 36 81 20 40
34 81 32 91 -6 35 -32 19 -66 -41 -18 -33 -40 -67 -48 -75 -27 -27 -43 11 -39
88 4 69 -5 92 -35 92 -27 0 -31 63 -20 305 10 240 28 426 40 439 5 5 31 17 57
26 35 12 48 22 48 36 0 15 -8 20 -43 22 -37 3 -43 6 -37 20 4 9 11 57 16 106
11 112 26 197 38 209 5 5 17 3 29 -4 17 -11 27 -10 61 6 34 15 46 28 69 79 28
60 29 63 22 181 -4 75 -3 131 3 150 6 17 13 91 17 165 6 137 23 218 60 296 11
22 20 52 20 66 0 33 -41 83 -89 107 -25 14 -45 35 -66 76 -16 31 -38 61 -48
67 -10 5 -35 24 -55 42 -24 22 -56 38 -92 46 -59 14 -106 34 -128 56 -7 8 -19
14 -27 14 -7 0 -20 3 -28 6 -22 8 -42 -32 -26 -52 6 -8 19 -14 28 -14 9 -1 28
-11 43 -23 l28 -22 -35 -28 c-50 -40 -79 -50 -119 -43 -30 6 -36 12 -42 41 -5
29 -2 37 26 62 38 34 64 114 62 188 0 28 -1 66 -1 86 -1 19 -8 57 -16 85 -8
27 -15 64 -15 82 0 24 -8 41 -32 63 -18 16 -37 29 -42 29 -5 0 -17 6 -25 14
-19 16 -169 68 -279 96 -176 46 -411 62 -537 38z m400 -79 c105 -22 272 -71
330 -98 58 -27 115 -73 115 -93 0 -13 -42 -47 -57 -48 -7 0 -27 -8 -45 -18
-18 -10 -53 -24 -78 -31 -25 -8 -65 -21 -90 -29 -61 -20 -365 -29 -468 -13
-275 42 -449 99 -495 163 -18 24 -18 29 -6 44 18 22 127 74 154 74 12 0 25 4
30 8 17 15 159 44 256 51 111 9 284 4 354 -10z m-810 -257 c58 -35 257 -101
365 -121 143 -26 199 -31 351 -30 200 1 308 18 406 64 17 8 34 15 38 15 3 0
31 12 61 26 31 14 58 23 61 20 7 -6 15 -83 16 -146 1 -43 -29 -107 -57 -122
-11 -6 -59 -20 -106 -30 -47 -10 -97 -21 -111 -24 -22 -5 -32 0 -55 25 -40 45
-83 41 -103 -10 -8 -21 -18 -27 -57 -33 -84 -11 -267 -6 -339 9 -39 9 -119 24
-180 34 -126 22 -169 36 -243 80 -29 17 -57 31 -62 31 -5 0 -12 6 -17 13 -9
14 -13 217 -4 217 3 0 20 -8 36 -18z m-6 -308 c7 -7 -30 -32 -84 -58 -88 -42
-144 -66 -155 -66 -38 0 -114 -169 -127 -285 -4 -27 -24 -86 -45 -131 -21 -45
-38 -89 -38 -97 0 -15 -27 -43 -34 -36 -2 2 -8 24 -13 49 -13 64 7 140 46 182
28 29 31 39 29 86 -1 52 0 55 44 95 31 30 47 53 52 79 4 24 20 50 45 74 51 48
154 104 191 104 16 0 32 5 35 10 6 9 42 5 54 -6z m250 -89 c9 -10 -24 -35 -57
-41 -27 -6 -32 -4 -32 13 0 30 21 45 54 39 16 -4 32 -9 35 -11z m-181 -30 c5
-59 13 -75 42 -90 43 -22 67 -19 149 22 63 31 76 34 85 22 6 -8 26 -25 44 -38
31 -22 37 -23 74 -12 22 7 42 10 44 8 9 -8 -49 -68 -103 -109 -72 -53 -89 -90
-75 -160 6 -29 6 -54 2 -56 -5 -2 -20 -12 -34 -23 -23 -18 -26 -28 -27 -82 0
-34 -6 -100 -13 -147 l-11 -85 -50 -3 c-50 -3 -75 2 -190 39 -33 10 -71 19
-84 19 -25 0 -83 16 -113 31 -10 5 -27 9 -37 9 -11 0 -22 4 -25 9 -3 5 -18 12
-33 16 -41 9 -103 74 -103 105 1 14 9 43 20 65 11 22 19 45 20 51 0 6 7 17 15
24 7 6 17 33 20 58 8 61 54 203 72 223 23 27 267 141 293 136 9 -1 16 -15 18
-32z m1543 1 c67 -46 119 -115 119 -156 0 -21 13 -32 60 -51 74 -29 88 -60 44
-98 -32 -28 -46 -23 -68 23 -9 19 -22 39 -29 43 -7 4 -21 27 -31 50 -23 53
-42 70 -114 104 -55 27 -57 29 -57 68 0 39 1 39 30 34 17 -3 37 -11 46 -17z
m-577 -10 c-9 -23 -79 -36 -72 -13 3 6 20 15 39 18 19 4 35 7 36 8 1 0 0 -5
-3 -13z m-346 -21 c2 -2 -5 -16 -14 -31 -30 -45 -64 -165 -64 -227 0 -88 -36
-143 -69 -104 -14 18 -16 155 -2 191 6 16 20 41 31 56 11 16 20 42 20 60 0 17
5 40 11 52 9 17 17 19 47 13 21 -4 38 -8 40 -10z m537 -38 c14 -22 32 -35 60
-42 22 -5 47 -14 54 -19 8 -5 53 -10 100 -10 111 -1 176 -30 206 -92 11 -22
30 -53 42 -68 22 -27 22 -28 4 -69 -21 -47 -41 -144 -41 -199 0 -41 -12 -53
-95 -96 -88 -46 -200 -82 -285 -92 -237 -30 -318 -35 -552 -35 -297 0 -289 -2
-290 86 -1 76 12 142 29 155 21 14 8 54 -17 54 -38 0 -70 -93 -70 -203 0 -60
-10 -80 -33 -71 -23 9 -32 68 -18 126 6 27 11 72 11 99 0 46 2 50 34 63 18 8
37 20 42 27 10 17 6 71 -6 83 -6 6 -10 25 -10 43 0 26 6 36 29 48 l29 15 7
-39 c3 -21 3 -54 0 -74 -12 -64 38 -107 125 -107 21 0 43 7 50 15 13 15 27 70
36 135 11 77 12 80 47 80 45 0 70 20 100 82 14 29 35 64 46 78 l20 25 34 -34
c30 -28 40 -32 65 -26 17 3 50 20 73 37 92 66 144 74 174 25z m-464 -59 c-20
-47 -51 -64 -51 -28 0 24 37 70 57 70 9 0 7 -13 -6 -42z m1023 -533 c0 -22 -6
-67 -13 -99 -7 -33 -11 -77 -8 -98 8 -60 -9 -53 -22 9 -15 77 -14 134 4 176 8
20 15 49 15 65 0 16 3 32 7 36 10 9 18 -36 17 -89z m-2135 -9 c19 -17 188 -71
251 -81 25 -3 70 -15 100 -25 30 -10 89 -23 130 -30 114 -19 124 -23 131 -56
4 -16 7 -70 8 -120 1 -69 -3 -95 -14 -104 -12 -10 -17 -5 -32 27 -16 34 -25
40 -88 60 -94 31 -135 24 -174 -29 -18 -24 -32 -58 -36 -88 -8 -58 -27 -69
-56 -32 -20 25 -21 34 -14 127 12 155 12 160 -5 160 -20 0 -35 -49 -51 -164
-14 -100 -22 -112 -66 -92 l-26 12 7 130 c6 116 5 130 -10 136 -30 11 -41 -24
-54 -171 -15 -161 -11 -246 15 -326 28 -86 51 -103 73 -55 17 37 15 63 -8 92
-13 17 -20 41 -20 70 l0 44 38 -3 c41 -3 41 -1 58 -170 8 -74 24 -99 50 -77
13 10 15 28 12 89 -3 41 -8 82 -11 90 -9 19 3 37 27 42 20 3 23 -4 45 -105 21
-98 152 -148 252 -97 35 18 40 19 46 5 7 -20 -2 -106 -17 -158 -11 -38 -12
-38 -53 -32 -23 3 -55 10 -72 15 -16 4 -64 14 -105 21 -41 7 -100 23 -130 37
-30 13 -81 32 -112 42 -68 22 -110 43 -127 64 -9 11 -14 78 -16 243 -1 134 -7
242 -14 263 -6 19 -11 56 -11 82 0 42 3 48 21 48 18 0 20 4 14 28 -3 15 -9 44
-12 65 -5 33 -3 37 18 37 12 0 30 -6 38 -14z m1986 -119 c-2 -45 -11 -113 -20
-152 -16 -69 -34 -184 -35 -217 0 -11 -8 -18 -19 -18 -31 0 -35 -19 -11 -46
22 -22 23 -29 16 -124 -5 -83 -31 -199 -49 -216 -3 -4 -94 -20 -352 -65 -153
-27 -592 -39 -687 -19 -74 16 -82 32 -68 133 6 40 13 108 15 152 7 99 13 131
25 119 14 -14 140 -266 140 -280 0 -6 6 -17 14 -23 20 -17 49 14 42 44 -3 12
-2 102 3 201 10 216 4 307 -21 312 -31 6 -43 -39 -31 -111 12 -64 11 -84 -1
-174 -11 -78 -14 -76 -92 68 -11 21 -33 56 -48 78 -27 38 -29 47 -30 158 l-1
118 210 -2 c132 -2 266 3 360 13 83 8 179 17 215 20 116 9 277 54 374 104 22
10 43 17 47 14 4 -2 6 -42 4 -87z m-1281 -113 c10 -76 8 -100 -6 -85 -13 12
-19 131 -7 131 4 0 9 -21 13 -46z m1408 -150 c-2 -13 -8 -24 -13 -24 -10 0
-12 31 -3 55 10 24 22 0 16 -31z m-1633 -20 c35 -6 42 -11 50 -38 5 -17 18
-54 29 -82 12 -30 18 -61 15 -75 -10 -38 -52 -87 -85 -98 -42 -15 -61 -14
-108 6 -35 16 -40 23 -50 66 -13 60 -13 75 1 155 7 38 19 72 30 83 18 18 22
18 48 4 16 -8 47 -17 70 -21z m214 -475 c-1 -19 -2 -42 -2 -52 -1 -14 -8 -18
-33 -15 -32 3 -33 4 -33 53 1 28 4 58 8 68 7 18 8 18 34 -1 22 -16 28 -27 26
-53z m-679 21 c17 -5 63 -19 101 -31 39 -12 75 -25 80 -29 12 -8 79 -25 160
-40 33 -7 91 -21 128 -32 l69 -20 -7 -111 c-3 -62 -11 -138 -17 -169 -11 -62
-5 -120 16 -137 7 -6 40 -14 73 -17 57 -6 61 -5 81 21 33 42 42 91 45 239 2
84 7 140 14 147 9 9 29 8 79 -1 79 -15 507 -8 589 9 28 6 86 15 130 21 44 5
100 15 125 21 25 6 73 13 108 16 l62 5 0 -54 c0 -29 -4 -91 -10 -138 -5 -47
-12 -188 -15 -315 -7 -254 -10 -284 -34 -303 -73 -58 -348 -162 -429 -162 -15
0 -95 -13 -177 -30 -130 -26 -173 -30 -330 -31 -110 0 -191 4 -209 10 -15 6
-80 16 -144 21 -263 21 -376 56 -463 142 -27 27 -49 55 -49 62 0 7 -6 19 -13
25 -30 24 -63 346 -53 514 5 91 24 365 26 375 1 5 36 1 64 -8z m669 -232 c8
-100 -2 -240 -18 -257 -38 -39 -57 16 -59 174 -3 124 6 155 44 155 26 0 27 -2
33 -72z m1300 -933 c-4 -15 -36 -12 -41 3 -3 9 3 13 19 10 13 -1 23 -7 22 -13z
m247 -87 c23 -15 30 -23 20 -25 -21 -5 -93 21 -98 35 -6 20 40 14 78 -10z"/>
<path d="M3091 2602 c-12 -17 -21 -33 -21 -36 0 -9 -91 -129 -112 -148 -24
-22 -42 -14 -112 49 -58 52 -93 64 -112 38 -15 -21 -2 -45 24 -45 8 0 38 -21
66 -48 28 -26 62 -54 76 -63 24 -16 25 -20 22 -115 -1 -54 -4 -106 -7 -115 -6
-19 21 -52 38 -46 15 5 24 44 32 135 3 42 10 95 16 117 13 50 55 132 84 165
54 62 69 103 45 125 -17 15 -19 14 -39 -13z"/>
<path d="M2463 2488 c-26 -36 -32 -72 -26 -160 3 -51 6 -136 7 -189 1 -119 8
-129 84 -129 31 0 69 4 86 9 17 5 54 14 81 21 62 14 84 32 65 54 -14 17 -60
21 -75 7 -15 -14 -125 -29 -154 -22 -27 8 -37 35 -27 75 4 17 17 24 71 34 77
14 135 37 135 51 0 26 -39 30 -114 14 -89 -19 -96 -16 -103 50 -4 34 -1 49 13
66 11 12 21 31 24 44 5 20 14 23 82 27 80 5 105 17 95 44 -5 13 -26 16 -120
16 -80 0 -117 -4 -124 -12z"/>
<path d="M5165 2554 c-8 -20 -15 -53 -15 -73 0 -38 24 -163 34 -179 3 -6 -5
-24 -19 -40 -60 -72 -32 -140 63 -150 46 -4 51 -7 47 -26 -19 -91 -25 -132
-25 -161 0 -30 3 -35 23 -35 37 0 44 12 50 94 6 85 25 122 49 98 12 -12 13
-40 5 -152 -2 -29 2 -36 20 -38 28 -4 48 39 58 126 5 43 11 62 21 62 10 0 14
-15 14 -59 0 -72 6 -91 30 -91 32 0 50 28 50 77 0 79 37 37 39 -45 1 -34 24
-53 42 -35 6 6 12 44 13 84 2 66 6 78 29 101 36 36 35 77 -1 116 -24 25 -39
31 -98 38 -38 5 -105 8 -149 8 -61 -1 -83 3 -97 16 -18 16 -18 19 1 62 11 25
24 49 29 52 6 3 20 25 32 48 11 24 33 53 47 65 27 22 26 48 -2 59 -21 8 -52
-21 -81 -76 -40 -74 -104 -155 -122 -155 -34 0 -57 148 -31 196 7 15 7 24 -2
35 -19 23 -38 16 -54 -22z m125 -333 c0 -12 -25 -21 -58 -21 -31 0 -19 16 18
23 14 2 28 5 33 6 4 0 7 -3 7 -8z m355 -41 c0 -18 -72 -27 -87 -12 -19 19 3
33 45 30 29 -2 42 -8 42 -18z"/>
<path d="M4022 2208 c-47 -51 -77 -210 -60 -314 10 -59 14 -67 38 -76 25 -8
27 -12 20 -41 -4 -18 -17 -51 -29 -74 -25 -47 -24 -76 2 -81 21 -4 77 34 77
54 0 25 19 15 26 -13 10 -48 13 -53 31 -53 18 0 43 41 43 70 0 8 7 26 16 38
12 18 25 22 63 22 57 0 61 -6 61 -86 0 -41 4 -56 16 -61 25 -9 42 18 46 72 4
52 13 75 28 75 13 0 50 -79 50 -106 0 -30 18 -40 37 -21 17 17 20 45 9 104 -7
41 -7 42 33 68 46 31 85 102 75 139 -11 43 -35 56 -105 55 -35 -1 -82 2 -105
6 -33 6 -51 2 -92 -19 -28 -14 -67 -26 -87 -26 -29 0 -39 6 -55 32 -23 38 -20
51 23 121 23 38 28 53 20 66 -17 27 -41 24 -57 -6 -8 -15 -28 -41 -44 -56 -25
-24 -33 -27 -51 -18 -28 15 -26 38 5 84 39 58 12 94 -34 45z m36 -271 c2 -10
-3 -17 -12 -17 -10 0 -16 9 -16 21 0 24 23 21 28 -4z m342 -32 c16 -9 40 -12
68 -8 34 5 42 3 42 -10 0 -21 -29 -36 -66 -36 -47 0 -147 -9 -179 -16 -34 -7
-89 10 -80 25 3 5 27 10 52 10 34 0 53 6 75 25 33 28 52 30 88 10z"/>
<path d="M6203 1938 c-19 -23 -26 -61 -27 -148 l-1 -85 -37 -3 c-34 -3 -38 0
-44 25 -3 15 -12 42 -20 60 -8 17 -14 42 -14 55 0 33 -14 51 -36 46 -25 -4
-30 -57 -10 -100 32 -67 54 -151 49 -183 -5 -28 -1 -36 27 -56 29 -22 31 -28
26 -63 -8 -46 7 -70 34 -56 10 5 21 21 24 35 7 27 18 30 63 15 45 -16 68 -96
41 -140 -11 -16 -10 -23 5 -37 17 -17 19 -17 44 11 22 26 24 36 21 95 -2 54 0
66 13 69 22 4 41 -45 37 -93 -2 -27 2 -40 15 -49 30 -20 52 4 53 60 2 70 2 74
19 74 20 0 41 -45 50 -103 8 -53 19 -65 42 -46 12 11 14 27 9 85 -6 68 -5 73
14 79 12 4 32 29 47 60 25 50 26 56 12 91 -20 53 -85 86 -154 79 -27 -3 -87
-8 -131 -11 -75 -5 -83 -4 -109 19 -26 22 -28 29 -27 93 1 38 3 82 4 99 3 32
-21 46 -39 23z m27 -303 c0 -20 -6 -25 -35 -31 -47 -8 -72 1 -55 21 7 8 21 15
31 15 10 0 21 5 24 10 12 20 35 10 35 -15z m335 15 c36 -13 51 -57 29 -81 -20
-22 -61 -24 -86 -6 -13 10 -15 23 -11 55 6 45 18 51 68 32z m-185 -24 l35 -13
-42 -26 c-44 -28 -60 -32 -80 -19 -8 5 -8 15 2 40 15 35 29 38 85 18z"/>
<path d="M4565 1750 c-8 -16 -15 -38 -15 -49 0 -11 -8 -36 -17 -56 -13 -28
-14 -38 -4 -48 10 -9 17 -6 37 16 13 15 24 36 24 46 0 10 7 35 16 56 8 21 13
44 10 51 -9 24 -35 16 -51 -16z"/>
<path d="M4729 1737 c-199 -197 -208 -212 -209 -313 0 -25 -6 -47 -15 -54 -19
-16 -19 -59 1 -98 27 -55 54 -39 75 41 6 27 18 51 25 54 7 2 29 -8 49 -24 38
-30 38 -28 19 -120 -5 -26 -2 -34 11 -39 9 -4 22 -1 28 5 17 17 37 90 37 139
0 46 5 49 60 29 53 -18 58 -24 65 -68 7 -42 31 -62 46 -38 5 8 8 43 7 79 -3
54 0 64 12 61 13 -3 78 -4 119 -2 20 1 8 74 -18 107 -58 74 -150 95 -231 54
-61 -31 -120 -21 -120 21 0 24 40 89 76 122 28 26 30 60 3 65 -8 1 -26 -8 -40
-21z m148 -265 c-19 -21 -47 -25 -47 -6 0 14 16 22 44 23 18 1 18 0 3 -17z"/>
<path d="M5561 1443 c-12 -14 -24 -38 -28 -52 -10 -41 -54 -100 -75 -101 -4 0
-10 27 -14 60 -4 33 -10 63 -15 66 -15 9 -36 -50 -43 -121 -4 -38 -12 -89 -18
-112 -17 -68 -6 -88 57 -112 31 -12 65 -21 77 -21 19 0 20 -4 15 -67 -2 -38
-12 -81 -21 -98 -20 -37 -20 -49 -1 -65 22 -18 37 -1 60 67 23 69 40 99 50 84
3 -6 15 -11 26 -11 25 0 62 -80 53 -116 -6 -24 9 -54 27 -54 21 0 41 75 35
130 l-7 54 24 -23 c24 -21 37 -74 41 -156 1 -20 7 -31 19 -33 34 -7 47 17 47
84 l0 64 37 15 c20 9 52 27 70 41 31 23 33 29 33 83 0 31 -6 64 -12 73 -17 20
-72 38 -120 38 -21 0 -55 9 -75 20 -26 14 -57 20 -98 20 -53 0 -65 4 -98 31
-26 21 -37 38 -37 57 0 32 24 104 46 137 31 47 -20 64 -55 18z m-66 -273 c11
-18 -5 -30 -25 -18 -10 7 -16 16 -14 20 7 11 32 10 39 -2z m238 -47 c10 -10
-13 -33 -34 -33 -21 0 -33 15 -24 30 7 11 48 14 58 3z m198 -43 c28 -16 24
-47 -11 -65 -16 -8 -36 -15 -44 -15 -20 0 -68 49 -60 61 15 26 82 36 115 19z"/>
<path d="M3813 1413 c-3 -10 -27 -49 -52 -87 -69 -102 -71 -107 -71 -159 0
-51 10 -78 42 -114 15 -16 17 -26 10 -40 -17 -33 -24 -113 -11 -129 21 -26 36
-14 49 41 14 57 36 89 44 64 28 -82 34 -177 14 -197 -10 -9 -8 -16 5 -29 15
-15 19 -15 31 -3 24 25 32 80 23 153 -5 37 -7 70 -5 72 1 1 22 6 45 10 41 6
42 6 58 -30 8 -21 15 -57 15 -80 0 -45 19 -71 45 -61 11 4 15 23 15 79 0 73 0
74 25 70 43 -9 80 -88 51 -112 -9 -8 -16 -25 -16 -38 0 -23 3 -25 32 -19 18 3
37 11 42 16 6 6 10 47 10 92 l1 82 32 7 c56 11 61 20 79 126 9 47 -28 68 -106
60 -32 -4 -61 -3 -64 2 -8 13 -93 23 -173 21 l-71 -1 -7 29 c-9 41 11 69 63
92 33 15 42 24 42 44 0 13 -5 26 -12 28 -11 4 -114 -45 -132 -63 -18 -17 -22
-9 -22 38 1 48 -18 71 -31 36z m-19 -209 c11 -29 6 -44 -14 -44 -25 0 -36 25
-20 45 16 19 26 19 34 -1z m162 -120 c-24 -17 -28 -17 -50 -1 -20 15 -13 44
12 50 10 2 26 -5 37 -15 20 -19 20 -19 1 -34z m159 21 c0 -14 -8 -21 -27 -23
-24 -3 -28 0 -28 23 0 23 4 26 28 23 19 -2 27 -9 27 -23z"/>
</g>
</svg>
