<?xml version="1.0" standalone="no"?>
<!DOCTYPE svg PUBLIC "-//W3C//DTD SVG 20010904//EN"
 "http://www.w3.org/TR/2001/REC-SVG-20010904/DTD/svg10.dtd">
<svg version="1.0" xmlns="http://www.w3.org/2000/svg"
 width="1216.000000pt" height="1189.000000pt" viewBox="0 0 1216.000000 1189.000000"
 preserveAspectRatio="xMidYMid meet">

<g transform="translate(0.000000,1189.000000) scale(0.100000,-0.100000)"
fill="#000000" stroke="none">
<path d="M9236 11222 c-3 -6 -12 -38 -20 -73 -8 -35 -22 -89 -30 -119 -9 -30
-16 -67 -16 -82 0 -15 -4 -30 -10 -33 -5 -3 -10 -15 -10 -25 0 -11 -9 -35 -20
-55 -11 -20 -20 -42 -20 -50 0 -9 -4 -23 -9 -33 -23 -42 -66 -142 -88 -207
-46 -133 -46 -139 -4 -143 39 -4 51 9 51 57 0 19 6 42 13 50 13 15 20 36 49
144 7 26 16 47 20 47 4 0 8 5 8 10 0 6 9 32 21 58 34 76 37 84 55 157 9 39 20
75 24 80 4 6 8 24 8 42 0 18 9 57 18 88 13 41 15 61 7 73 -12 20 -39 27 -47
14z"/>
<path d="M8446 11168 c-37 -81 -52 -124 -82 -233 -14 -55 -33 -112 -40 -127
-8 -15 -14 -35 -14 -46 0 -10 -6 -27 -14 -38 -14 -18 -16 -16 -35 27 -12 26
-28 50 -37 53 -26 10 -147 5 -181 -7 -27 -10 -93 -66 -130 -111 -6 -7 -30 -49
-52 -92 -51 -99 -63 -180 -33 -234 27 -49 56 -62 120 -55 84 9 141 44 223 137
40 46 74 85 77 88 3 3 2 -11 -3 -30 -4 -19 -7 -39 -6 -45 0 -5 2 -38 3 -73 4
-75 21 -98 61 -83 17 7 29 21 35 43 8 29 6 35 -16 46 -22 13 -24 18 -18 60 4
26 7 59 6 74 0 15 4 29 10 33 5 3 10 21 10 40 0 19 5 37 10 40 6 3 10 16 10
28 0 18 59 209 91 292 4 11 12 34 17 50 6 17 22 61 36 99 28 76 26 116 -5 116
-13 0 -27 -16 -43 -52z m-229 -440 c33 -36 38 -88 14 -132 -27 -48 -34 -57
-106 -131 -72 -76 -121 -105 -177 -105 -56 0 -78 22 -78 75 0 73 86 230 150
275 12 8 29 20 38 27 10 7 44 13 78 13 50 0 64 -4 81 -22z"/>
<path d="M6233 11068 c-26 -44 -83 -166 -83 -177 0 -5 -7 -22 -15 -37 -8 -16
-15 -36 -15 -44 0 -31 -31 -59 -83 -75 -80 -27 -163 -74 -210 -120 -55 -55
-109 -120 -126 -153 -7 -15 -19 -34 -26 -42 -19 -23 -41 -102 -37 -133 5 -40
52 -67 98 -57 43 10 144 60 144 72 0 4 6 8 13 8 7 0 33 20 57 45 24 24 47 42
52 39 4 -3 8 -36 8 -73 0 -69 10 -91 41 -91 21 0 38 46 31 80 -3 14 -6 57 -6
95 0 63 4 78 40 145 62 114 71 133 82 160 5 14 22 51 36 83 15 32 34 93 42
135 8 42 19 90 24 106 8 23 6 34 -7 48 -23 26 -38 22 -60 -14z m-167 -411 c3
-8 -4 -35 -16 -61 -11 -26 -20 -58 -20 -71 0 -13 -6 -28 -12 -32 -7 -4 -33
-30 -57 -58 -51 -57 -145 -125 -172 -125 -11 0 -28 -5 -38 -12 -10 -6 -26 -8
-35 -5 -52 20 74 228 188 313 83 61 150 82 162 51z"/>
<path d="M4266 11015 c-9 -13 -16 -27 -16 -30 0 -3 -9 -24 -19 -48 -11 -23
-22 -55 -26 -72 -3 -16 -15 -48 -26 -72 -10 -23 -19 -48 -19 -56 0 -8 -11 -35
-25 -61 -14 -26 -37 -84 -51 -129 -30 -94 -31 -97 -42 -117 -23 -40 -30 -59
-36 -97 -5 -25 -3 -43 3 -47 14 -9 61 4 61 17 0 6 7 18 15 27 9 10 16 35 17
56 0 21 4 44 8 49 4 6 13 28 19 50 7 22 18 56 26 75 27 72 78 196 86 212 5 10
9 26 9 36 0 10 4 22 10 28 5 5 11 18 13 29 5 25 13 48 40 108 18 41 19 50 7
58 -24 14 -37 11 -54 -16z"/>
<path d="M2837 10883 c-4 -3 -7 -23 -7 -43 0 -20 -4 -50 -9 -66 -5 -16 -19
-62 -31 -101 -12 -40 -26 -75 -31 -78 -5 -4 -9 -15 -9 -25 0 -10 -7 -31 -15
-47 -59 -114 -76 -182 -59 -227 16 -42 69 -4 123 88 14 23 28 43 31 46 4 3 24
37 45 75 58 107 130 195 161 195 13 0 17 -57 5 -85 -5 -11 -14 -40 -21 -65 -7
-25 -26 -82 -42 -127 -44 -124 -28 -188 33 -130 30 29 71 77 84 98 6 10 26 41
47 70 20 30 46 73 57 95 12 23 31 50 41 59 11 10 20 22 20 27 0 4 19 26 43 48
l42 40 3 -36 c2 -19 -6 -63 -17 -97 -12 -33 -21 -68 -21 -78 0 -18 -62 -143
-83 -168 -19 -21 -29 -68 -22 -92 10 -31 50 -23 95 18 41 38 53 79 26 89 -10
4 -6 22 20 82 41 97 74 222 74 281 -1 49 -25 91 -54 91 -30 0 -156 -151 -240
-287 -49 -79 -70 -99 -60 -57 4 16 15 48 25 71 13 29 19 68 20 128 2 74 -1 88
-17 100 -37 28 -59 18 -135 -63 -41 -42 -83 -94 -94 -115 -11 -20 -23 -37 -27
-37 -5 0 -8 -8 -8 -17 0 -10 -14 -34 -31 -53 -17 -19 -29 -30 -27 -25 10 25
39 92 48 107 6 10 10 25 10 34 0 9 7 31 15 48 9 18 24 68 35 112 17 70 17 82
4 102 -14 22 -34 28 -47 15z"/>
<path d="M9473 10833 c-31 -6 -153 -148 -153 -178 0 -7 -9 -23 -20 -37 -10
-14 -28 -49 -40 -79 -11 -30 -25 -64 -32 -76 -15 -30 -1 -92 25 -114 25 -21
92 -25 134 -7 15 6 35 12 44 14 48 10 141 78 180 132 32 44 34 52 37 142 2 80
0 100 -17 126 -18 30 -102 85 -125 83 -6 -1 -21 -4 -33 -6z m125 -140 c20 -49
8 -119 -29 -174 -27 -39 -49 -56 -104 -84 -40 -19 -89 -35 -114 -37 -44 -3
-45 -2 -52 31 -6 29 -1 46 34 110 22 42 48 91 56 108 8 18 24 36 36 39 11 4
30 17 43 30 13 12 33 24 45 26 33 6 73 -17 85 -49z"/>
<path d="M6750 10795 c-12 -19 -23 -45 -24 -58 -4 -31 -30 -83 -76 -152 -22
-33 -43 -67 -46 -75 -4 -8 -13 -22 -20 -30 -22 -26 -44 -100 -38 -126 5 -18
13 -24 34 -24 20 0 41 15 84 63 76 83 92 102 154 179 61 77 148 158 169 158
11 0 13 -7 9 -27 -3 -16 -8 -46 -12 -68 -4 -22 -11 -46 -17 -53 -6 -8 -12 -23
-14 -33 -2 -11 -14 -37 -28 -59 -14 -22 -25 -44 -25 -48 0 -5 -14 -27 -31 -48
-84 -104 -98 -219 -24 -198 51 15 85 77 50 90 -13 5 -10 16 16 63 17 31 35 58
39 61 8 6 53 91 78 150 30 67 37 162 16 205 -22 46 -28 49 -68 30 -36 -17
-216 -199 -264 -266 -41 -59 -45 -46 -7 24 137 250 144 269 94 275 -21 2 -31
-4 -49 -33z"/>
<path d="M5020 10814 c-44 -16 -79 -35 -90 -49 -7 -8 -22 -15 -34 -15 -33 0
-46 -19 -46 -66 0 -48 -25 -156 -45 -194 -8 -14 -26 -38 -40 -53 -20 -21 -25
-34 -20 -55 4 -20 0 -36 -13 -53 -11 -13 -23 -35 -27 -49 -4 -14 -18 -41 -30
-60 -83 -133 -155 -276 -155 -306 0 -11 -21 -14 -91 -14 -56 0 -110 -6 -142
-16 -198 -63 -211 -68 -234 -103 -21 -31 -21 -35 -7 -63 16 -31 96 -88 124
-88 9 0 21 -5 28 -12 6 -6 18 -13 26 -14 33 -5 92 -27 101 -38 6 -7 18 -15 28
-19 30 -11 20 -45 -18 -63 -20 -9 -37 -15 -38 -13 -2 2 -8 16 -15 32 l-12 27
-48 -24 c-26 -13 -66 -27 -88 -31 -50 -9 -92 -27 -98 -41 -3 -7 3 -22 11 -34
15 -21 21 -22 102 -17 124 8 229 46 281 102 l25 26 -21 37 c-22 39 -117 111
-147 111 -9 1 -25 5 -35 10 -9 5 -36 14 -59 20 -81 22 -103 64 -47 90 75 34
154 52 246 57 78 5 103 3 116 -9 27 -22 50 -27 62 -12 6 7 10 17 9 21 -1 5 0
16 4 24 3 8 8 29 12 45 3 17 10 49 15 72 5 23 39 88 75 145 75 118 76 120 101
171 16 31 25 39 56 43 20 4 45 15 54 25 9 11 25 19 34 19 17 0 66 34 125 87
66 59 129 171 121 215 -3 12 -5 32 -5 43 -2 37 -52 84 -96 89 -22 3 -47 3 -55
0z m85 -93 c21 -42 10 -86 -41 -155 -39 -53 -134 -135 -158 -136 -5 0 -17 -7
-25 -14 -9 -9 -22 -12 -29 -7 -10 6 -7 20 12 62 13 30 29 81 36 114 20 98 29
114 79 140 66 34 106 33 126 -4z"/>
<path d="M8840 10780 c-15 -16 -35 -30 -44 -30 -14 0 -16 -7 -11 -37 4 -21 8
-44 10 -50 6 -18 45 -16 45 2 0 8 4 15 9 15 13 0 2 -37 -15 -51 -8 -6 -14 -17
-14 -23 0 -16 -42 -56 -58 -56 -7 0 -12 -7 -12 -15 0 -8 -27 -37 -60 -65 -58
-48 -104 -70 -117 -56 -8 7 9 60 37 121 45 99 81 206 78 232 -5 44 -40 43 -61
-2 -9 -20 -17 -42 -17 -50 0 -8 -18 -53 -40 -100 -22 -47 -40 -91 -40 -98 0
-7 -4 -17 -8 -22 -11 -13 -32 -87 -32 -112 0 -11 8 -27 18 -36 40 -36 158 13
242 102 16 16 35 33 42 38 36 22 128 205 128 255 0 35 -20 68 -42 68 -5 0 -23
-13 -38 -30z"/>
<path d="M5475 10782 c-16 -9 -34 -23 -38 -29 -4 -7 -12 -13 -17 -13 -4 0 -32
-22 -61 -50 -29 -27 -61 -52 -71 -56 -10 -3 -18 -9 -18 -14 0 -5 -21 -39 -47
-77 -81 -118 -98 -203 -51 -253 18 -19 28 -21 65 -16 51 7 87 25 156 79 27 20
52 37 56 37 5 0 11 -32 14 -71 7 -83 17 -99 63 -99 31 0 34 2 34 31 0 23 -5
32 -20 36 -19 5 -20 11 -14 67 6 64 19 127 33 161 6 16 58 125 68 145 2 3 -6
16 -18 29 -20 21 -22 21 -39 6 -11 -10 -22 -31 -25 -49 -11 -51 -79 -157 -141
-218 -61 -61 -103 -86 -160 -95 -33 -5 -34 -5 -34 28 0 47 19 109 35 115 7 3
31 31 53 62 70 99 200 198 246 186 14 -3 27 1 36 10 11 14 9 20 -14 41 -32 29
-50 31 -91 7z"/>
<path d="M4546 10768 c-22 -11 -45 -26 -52 -32 -7 -6 -27 -22 -45 -36 -97 -73
-179 -197 -179 -269 0 -20 9 -51 20 -68 18 -30 25 -33 65 -33 26 0 63 9 85 20
22 11 42 20 45 20 3 0 5 -16 5 -36 0 -39 27 -94 46 -94 25 0 36 29 29 80 -5
36 -2 66 11 107 17 55 86 197 105 218 13 14 11 41 -5 54 -7 6 -11 22 -8 36 10
55 -50 72 -122 33z m39 -145 c-25 -50 -45 -94 -45 -99 0 -18 -86 -103 -115
-115 -78 -31 -102 -15 -84 54 6 25 20 53 30 63 10 9 19 23 19 29 0 7 32 42 71
79 52 47 82 67 108 72 20 3 41 7 46 8 6 2 11 2 13 1 1 -1 -18 -43 -43 -92z"/>
<path d="M7380 10746 c-67 -23 -104 -40 -127 -60 -43 -35 -109 -108 -141 -156
-20 -30 -40 -58 -45 -61 -28 -20 -14 -140 18 -153 28 -10 111 25 160 69 27 25
53 45 57 45 11 0 10 -48 -1 -85 -11 -41 3 -75 31 -75 34 0 100 57 96 84 -2 13
-11 22 -25 24 -20 3 -21 7 -16 55 3 29 9 57 13 62 4 6 11 26 15 45 4 19 21 62
39 95 33 64 35 93 8 118 -16 15 -23 14 -82 -7z m15 -78 c-4 -13 -15 -31 -26
-40 -11 -9 -19 -20 -18 -25 4 -26 -7 -46 -58 -102 -31 -35 -66 -67 -77 -72
-12 -5 -36 -18 -55 -30 -42 -25 -54 -15 -37 34 23 68 143 198 213 233 60 29
66 29 58 2z"/>
<path d="M3821 10753 c-13 -3 -37 -13 -55 -24 -17 -10 -39 -19 -48 -19 -10 0
-18 -4 -18 -9 0 -4 -25 -25 -55 -45 -30 -20 -55 -40 -55 -45 0 -6 -9 -13 -20
-16 -11 -3 -20 -13 -20 -20 0 -8 -8 -20 -18 -27 -25 -18 -62 -98 -62 -135 0
-17 7 -47 15 -67 14 -33 18 -36 58 -36 43 0 147 43 147 61 0 5 5 9 10 9 6 0
21 9 33 21 41 38 54 41 52 11 -1 -15 -5 -37 -9 -49 -4 -12 -9 -31 -11 -43 -2
-12 -7 -31 -10 -41 -8 -24 19 -84 40 -93 22 -8 65 11 65 29 0 8 -9 24 -21 36
-12 12 -18 27 -14 36 3 9 8 32 11 52 2 20 11 52 18 71 77 198 96 296 64 326
-16 15 -64 23 -97 17z m49 -84 c0 -26 -12 -49 -66 -119 -113 -149 -263 -224
-272 -137 -3 31 7 51 59 111 59 69 100 104 149 128 95 45 130 50 130 17z"/>
<path d="M6063 10158 c-64 -101 -108 -194 -147 -313 -8 -22 -33 -80 -56 -130
-23 -49 -51 -110 -62 -135 -11 -25 -24 -53 -29 -62 -5 -10 -9 -23 -9 -28 0
-12 -30 -84 -57 -136 -12 -24 -13 -35 -4 -52 6 -12 19 -22 28 -22 24 0 214 96
247 125 16 14 33 25 37 25 16 0 127 116 143 149 26 55 21 115 -14 167 -44 63
-79 59 -168 -21 -28 -26 -52 -43 -52 -38 0 5 3 12 6 16 4 3 17 34 29 69 76
210 125 308 152 308 18 0 27 45 13 69 -12 23 -44 28 -57 9z m35 -460 c29 -29
0 -115 -59 -170 -47 -44 -132 -93 -176 -101 l-32 -6 31 57 c17 31 38 71 46 87
23 45 49 77 94 113 43 33 76 40 96 20z"/>
<path d="M6870 10073 c-12 -43 -27 -82 -31 -87 -5 -6 -9 -19 -9 -31 0 -12 -4
-25 -8 -30 -5 -6 -15 -26 -22 -45 -7 -19 -31 -73 -53 -120 -42 -88 -74 -161
-87 -195 -4 -11 -15 -36 -24 -57 -9 -20 -16 -43 -16 -52 0 -9 -7 -27 -16 -40
-10 -16 -14 -41 -12 -73 2 -40 7 -49 24 -51 11 -2 28 6 39 18 10 11 25 20 33
20 18 0 74 34 128 77 23 18 44 33 47 33 5 0 14 7 88 69 20 17 39 31 41 31 3 0
0 -22 -5 -49 -13 -59 4 -108 40 -122 27 -10 95 10 161 48 l42 25 -10 -27 c-13
-34 -13 -104 0 -141 7 -19 22 -34 42 -42 28 -10 33 -9 50 10 14 16 15 24 7 35
-6 7 -17 13 -24 13 -20 0 -27 46 -14 93 24 94 33 122 40 132 4 6 13 30 20 55
7 25 18 52 24 60 7 8 18 32 25 53 6 20 16 37 22 37 7 0 8 13 5 34 -4 22 -1 36
6 39 9 3 9 10 0 30 -15 33 -51 35 -124 7 -64 -24 -120 -61 -180 -117 l-45 -43
-1 36 c-1 39 -29 100 -50 108 -24 10 -162 -64 -204 -109 -22 -24 -28 -26 -29
-12 0 9 5 17 11 17 5 0 8 4 5 8 -6 10 12 62 37 112 10 19 25 55 34 80 8 25 23
63 34 86 10 22 19 47 19 55 0 8 7 24 15 37 20 28 4 62 -29 62 -19 0 -25 -10
-46 -77z m471 -326 c-5 -12 -23 -52 -40 -90 -17 -37 -31 -72 -31 -77 0 -6 -4
-10 -9 -10 -5 0 -12 -8 -15 -17 -3 -10 -21 -28 -38 -40 -18 -13 -46 -34 -62
-48 -33 -28 -68 -40 -92 -31 -12 5 -14 14 -9 38 4 18 11 37 16 43 5 5 9 16 9
25 0 9 9 25 20 35 11 10 20 22 20 27 0 10 111 118 122 118 4 0 13 7 21 14 17
18 79 45 89 39 4 -2 3 -14 -1 -26z m-334 -13 c8 -22 -13 -79 -47 -125 -30 -42
-130 -131 -170 -151 -14 -7 -36 -20 -49 -30 -44 -33 -52 -22 -26 34 13 29 30
60 37 68 7 9 18 23 23 32 66 100 92 129 135 148 14 6 36 17 50 25 32 19 39 19
47 -1z"/>
<path d="M5584 10053 c-13 -22 -7 -53 11 -53 7 0 15 -9 18 -20 3 -12 14 -20
25 -20 56 0 67 30 30 80 -25 34 -67 40 -84 13z"/>
<path d="M8300 9907 c-9 -7 -24 -32 -35 -56 -11 -24 -25 -50 -33 -57 -7 -8
-41 -55 -76 -106 -57 -86 -188 -259 -193 -255 0 1 3 36 8 77 19 153 20 204 7
230 -24 44 -43 36 -95 -41 -26 -39 -58 -86 -69 -103 -12 -17 -29 -37 -38 -45
-9 -7 -16 -19 -16 -25 -1 -6 -19 -31 -41 -55 -30 -33 -43 -41 -51 -33 -9 9 -8
21 0 49 14 43 32 187 32 250 0 31 -5 45 -19 52 -33 18 -48 -14 -50 -109 -1
-84 -8 -136 -20 -155 -6 -11 -13 -83 -15 -159 -1 -36 3 -51 17 -60 25 -16 44
-1 105 85 29 41 61 83 70 94 9 11 40 51 67 88 28 36 54 67 59 67 7 0 4 -42
-10 -130 -14 -81 -16 -192 -4 -200 25 -15 60 6 92 55 37 57 88 125 104 140 16
14 47 62 79 120 16 28 45 70 67 94 21 24 38 48 38 53 0 17 55 57 80 58 18 0
21 3 12 9 -8 4 -12 19 -11 32 6 45 -27 64 -61 36z"/>
<path d="M4682 9843 c-83 -29 -178 -154 -197 -259 -11 -56 -10 -66 6 -93 10
-17 31 -34 46 -37 31 -8 96 7 156 36 22 11 42 19 43 17 1 -1 -4 -28 -11 -60
-19 -82 -5 -127 41 -127 32 0 44 25 32 69 -13 47 4 128 66 297 23 64 27 126
10 149 -19 26 -130 30 -192 8z m125 -70 c-19 -102 -37 -139 -90 -189 -82 -77
-178 -96 -177 -35 1 40 39 121 79 168 49 59 89 79 165 82 26 1 28 -2 23 -26z"/>
<path d="M6405 9789 c-66 -33 -123 -83 -164 -143 -65 -96 -77 -120 -98 -183
-11 -33 1 -91 24 -114 29 -29 117 -2 177 53 11 10 23 18 26 18 4 0 6 -45 6
-100 -1 -110 6 -126 50 -106 19 8 23 16 18 31 -7 23 -7 92 1 150 20 152 28
186 55 248 9 20 30 117 30 138 0 7 -53 40 -62 39 -2 -1 -30 -14 -63 -31z m24
-115 c-11 -32 -19 -67 -19 -79 0 -22 -26 -60 -93 -137 -37 -44 -94 -68 -108
-47 -12 18 -3 58 21 91 11 15 20 32 20 37 0 11 54 93 83 125 21 25 100 75 108
70 4 -2 -2 -29 -12 -60z"/>
<path d="M5646 9767 c-8 -12 -22 -45 -31 -74 -9 -29 -23 -57 -31 -64 -8 -6
-14 -17 -14 -24 0 -6 -27 -64 -60 -128 -64 -126 -68 -159 -19 -165 30 -4 59
40 59 90 0 18 9 44 20 58 11 14 20 29 20 34 0 4 14 28 30 53 17 24 30 48 30
54 0 5 9 26 20 46 11 21 20 46 20 56 0 10 4 26 9 36 20 36 -31 63 -53 28z"/>
<path d="M3257 8964 c-8 -8 -20 -10 -117 -17 -36 -3 -92 -10 -125 -16 -34 -6
-72 -11 -85 -11 -38 1 -82 -11 -110 -31 -14 -9 -43 -20 -64 -24 -22 -4 -49
-13 -60 -21 -11 -8 -36 -14 -56 -14 -20 0 -53 -9 -75 -20 -22 -11 -44 -20 -51
-20 -6 0 -32 -11 -58 -25 -91 -48 -161 -88 -166 -94 -8 -9 -149 -101 -155
-101 -7 0 -68 -42 -75 -52 -3 -3 -31 -23 -62 -45 -31 -21 -86 -66 -122 -100
-36 -35 -70 -63 -75 -63 -18 0 -131 -116 -171 -175 -23 -33 -58 -85 -78 -115
-20 -30 -40 -56 -44 -58 -5 -2 -8 -8 -8 -14 0 -5 -21 -33 -46 -62 -60 -66
-154 -210 -166 -254 -5 -18 -19 -43 -31 -55 -26 -26 -67 -100 -67 -122 0 -17
-17 -50 -41 -80 -9 -11 -20 -40 -24 -64 -4 -24 -14 -60 -23 -80 -9 -20 -17
-72 -18 -118 -2 -44 -10 -98 -18 -118 -9 -21 -16 -54 -16 -75 0 -20 -5 -62
-10 -91 -28 -144 -28 -152 -35 -554 -4 -244 -2 -376 6 -410 6 -27 14 -72 19
-100 26 -146 39 -178 178 -438 23 -42 42 -84 42 -92 0 -8 3 -15 8 -15 9 0 41
-72 49 -111 3 -16 9 -29 14 -29 5 0 9 -8 9 -17 1 -28 114 -244 132 -251 4 -2
8 -12 8 -21 0 -10 9 -26 20 -36 24 -22 130 -179 130 -192 0 -6 6 -16 14 -22 8
-7 17 -24 21 -38 3 -14 17 -40 31 -58 13 -17 24 -39 24 -48 0 -8 4 -17 9 -19
10 -3 105 -157 139 -224 11 -22 27 -46 36 -53 8 -7 17 -25 21 -40 3 -16 17
-39 31 -51 13 -13 24 -29 24 -36 0 -6 7 -14 15 -17 13 -6 42 -44 90 -121 27
-45 76 -105 107 -133 7 -6 35 -35 63 -64 27 -28 72 -70 100 -93 27 -22 51 -44
53 -48 2 -3 29 -18 60 -34 31 -15 66 -35 77 -45 26 -23 112 -69 129 -69 8 0
19 -6 25 -14 7 -8 26 -21 44 -30 38 -19 46 -25 150 -93 43 -29 82 -53 86 -53
3 0 23 -11 43 -25 20 -14 43 -25 51 -25 8 0 26 -9 40 -20 14 -11 32 -20 41
-20 9 0 19 -7 23 -16 3 -8 11 -13 19 -10 7 3 18 -2 24 -10 7 -8 16 -14 21 -14
4 0 20 -5 36 -12 15 -6 32 -10 37 -9 4 1 13 -5 20 -12 18 -24 96 -36 239 -37
37 0 88 -7 113 -16 48 -16 74 -8 74 22 0 8 12 16 28 20 32 7 180 78 225 108
69 46 85 51 113 36 33 -18 58 -3 62 37 5 52 172 201 172 154 0 -12 28 -41 40
-41 4 0 15 11 24 24 14 22 14 27 1 40 -8 8 -15 18 -15 23 0 10 70 92 148 173
30 30 58 64 63 75 20 44 82 120 102 125 15 4 24 18 32 46 10 41 42 88 108 157
20 22 37 43 37 47 0 5 27 41 59 81 33 40 76 105 97 143 59 115 76 139 85 125
6 -10 10 -10 23 0 11 9 14 24 11 52 -5 37 14 94 56 171 5 10 9 25 9 33 0 9 14
45 30 82 17 37 32 83 34 102 2 20 9 50 16 66 32 79 73 216 80 269 5 32 15 65
23 75 8 9 20 45 26 81 7 36 18 72 25 80 7 8 19 35 25 60 13 47 30 108 35 125
2 6 6 24 10 40 15 62 39 140 46 150 5 6 17 53 29 105 11 52 29 133 40 180 20
91 29 162 40 305 6 86 3 152 -18 358 -6 50 -12 144 -16 207 -10 219 -42 436
-67 468 -6 7 -8 15 -5 19 4 3 2 12 -3 19 -6 6 -10 16 -9 20 2 9 1 15 -20 74
-7 19 -15 46 -18 60 -3 14 -13 34 -23 45 -9 11 -27 45 -39 75 -13 30 -34 69
-47 87 -13 17 -24 36 -24 41 0 5 -9 17 -21 28 -12 10 -28 32 -36 49 -23 44
-111 152 -187 227 -36 36 -66 73 -66 81 0 9 -10 19 -22 23 -13 4 -50 33 -83
64 -33 31 -68 61 -77 66 -10 6 -55 46 -101 89 -139 133 -169 159 -240 203 -38
23 -72 42 -76 42 -4 0 -23 12 -42 26 -19 14 -56 37 -84 50 -27 13 -66 34 -85
46 -19 12 -46 23 -60 24 -43 5 -93 20 -157 48 -34 14 -74 26 -88 26 -15 0 -35
5 -46 11 -11 5 -39 12 -62 14 -113 10 -173 17 -187 22 -29 10 -155 41 -170 41
-8 1 -67 4 -130 7 -63 4 -119 3 -123 -1z m216 -109 c30 -11 64 -15 87 -12 21
3 41 2 45 -1 17 -17 88 -33 146 -33 74 1 206 -28 246 -54 19 -13 51 -18 117
-20 95 -2 134 -14 170 -54 11 -12 26 -21 35 -22 9 0 37 -13 63 -27 183 -104
254 -153 262 -180 3 -10 19 -26 36 -35 25 -15 61 -47 175 -154 8 -7 17 -13 20
-13 4 0 16 -11 27 -25 11 -14 24 -25 29 -25 5 0 24 -15 42 -32 18 -18 51 -50
73 -70 90 -84 256 -286 269 -327 3 -11 10 -21 15 -21 15 0 100 -152 100 -180
0 -10 6 -23 13 -27 8 -4 17 -21 21 -37 l7 -29 -28 34 c-15 19 -47 54 -70 78
-24 24 -43 47 -43 52 0 5 -5 9 -11 9 -7 0 -25 13 -40 30 -55 57 -165 95 -157
54 2 -9 12 -22 23 -28 11 -6 24 -17 28 -23 4 -7 15 -13 24 -13 31 0 253 -237
253 -269 0 -6 6 -12 13 -12 6 -1 18 -2 26 -3 14 -1 50 -94 51 -131 0 -12 6
-45 14 -75 7 -30 17 -106 20 -169 3 -62 9 -117 11 -121 3 -5 2 -11 -3 -14 -9
-6 -42 29 -42 44 0 6 -4 10 -9 10 -5 0 -13 10 -17 23 -3 12 -28 52 -55 89 -27
37 -49 71 -49 74 0 4 -16 23 -35 43 -20 20 -53 53 -73 74 -20 21 -50 45 -67
54 -16 9 -38 24 -48 34 -21 22 -53 25 -60 5 -3 -8 12 -26 41 -47 44 -31 117
-94 150 -129 29 -32 92 -124 92 -136 0 -7 6 -17 14 -21 7 -4 23 -30 36 -57 28
-62 77 -116 105 -116 20 0 23 -6 29 -82 4 -46 9 -96 11 -113 10 -86 15 -274 8
-278 -5 -3 -18 8 -28 24 -11 16 -23 29 -27 29 -5 0 -8 8 -8 19 0 10 -7 24 -15
31 -14 11 -32 45 -89 160 -15 30 -31 62 -36 70 -11 18 -27 51 -92 190 -27 58
-53 113 -58 122 -6 10 -10 25 -10 33 0 8 -4 15 -9 15 -5 0 -13 9 -16 20 -7 22
-40 27 -48 7 -2 -7 13 -50 34 -96 22 -46 39 -89 39 -97 0 -8 3 -14 8 -14 8 0
32 -49 32 -67 0 -7 5 -13 10 -13 6 0 10 -7 10 -15 0 -8 4 -23 9 -33 5 -9 32
-65 60 -124 29 -60 56 -108 61 -108 6 0 10 -5 10 -11 0 -6 16 -34 35 -63 19
-29 35 -58 35 -63 0 -22 32 -72 50 -78 39 -12 42 -28 29 -137 -6 -57 -16 -107
-20 -112 -5 -6 -9 -24 -9 -40 0 -36 -40 -207 -51 -220 -9 -10 -59 33 -59 52 0
6 -6 12 -12 12 -7 0 -25 24 -39 53 -45 89 -89 187 -89 196 0 6 -13 39 -30 74
-16 36 -30 69 -30 74 0 4 -9 25 -20 45 -11 21 -36 79 -56 130 -20 51 -42 100
-49 108 -6 8 -22 34 -35 57 -23 42 -59 60 -79 40 -17 -17 -13 -33 12 -50 23
-15 41 -48 109 -197 17 -36 34 -73 39 -82 5 -10 9 -25 9 -33 0 -8 4 -23 9 -33
6 -9 19 -37 29 -62 34 -77 64 -142 99 -220 19 -41 41 -90 49 -107 8 -18 19
-33 23 -33 5 0 18 -19 29 -42 11 -24 29 -51 39 -61 18 -15 19 -24 11 -70 -5
-28 -14 -56 -19 -62 -5 -5 -9 -21 -9 -36 0 -15 -4 -31 -10 -34 -5 -3 -10 -16
-10 -29 0 -35 -29 -86 -45 -80 -7 3 -16 12 -19 20 -3 8 -12 14 -20 14 -9 0
-18 11 -22 25 -3 14 -10 25 -14 25 -5 0 -18 20 -30 45 -12 25 -25 45 -29 45
-4 0 -15 25 -26 55 -10 30 -22 55 -26 55 -4 0 -10 12 -14 28 -4 15 -35 86 -71
159 -35 73 -64 135 -64 139 0 16 -55 120 -67 127 -7 4 -13 23 -13 41 0 19 -7
39 -15 46 -8 7 -15 21 -15 32 0 32 -28 88 -45 88 -34 0 -29 -60 15 -155 46
-101 90 -205 90 -213 0 -5 7 -15 14 -22 8 -6 20 -28 27 -48 12 -36 29 -78 74
-177 13 -27 31 -68 41 -90 17 -38 29 -57 74 -125 11 -16 20 -36 20 -44 0 -9 9
-20 20 -26 11 -6 20 -19 20 -30 0 -10 10 -27 23 -37 34 -28 59 -72 52 -91 -4
-9 -9 -30 -11 -45 -2 -16 -13 -49 -24 -74 -11 -25 -20 -53 -20 -62 0 -16 -35
-119 -43 -127 -6 -6 -33 27 -54 66 -72 130 -163 323 -163 346 0 8 -4 14 -8 14
-4 0 -16 24 -26 53 -11 28 -24 59 -30 67 -24 33 -36 61 -36 85 0 14 -6 28 -14
31 -8 3 -38 53 -66 110 -44 90 -55 105 -73 102 -19 -3 -22 -9 -20 -41 1 -21 9
-45 18 -53 8 -9 15 -21 15 -28 0 -6 6 -18 13 -24 6 -7 12 -16 12 -20 0 -4 12
-27 27 -52 40 -70 113 -217 202 -410 9 -19 23 -46 30 -60 8 -14 22 -44 32 -67
9 -24 23 -43 31 -43 7 0 13 -10 13 -21 0 -25 36 -87 63 -110 15 -12 17 -19 9
-35 -5 -10 -18 -54 -27 -96 -9 -42 -22 -82 -30 -88 -7 -6 -15 -23 -18 -38 -2
-15 -10 -40 -16 -57 -6 -16 -13 -43 -16 -58 -11 -56 -23 -37 -110 168 -7 17
-17 41 -22 55 -17 40 -32 74 -42 90 -5 8 -13 26 -19 40 -24 59 -77 165 -84
168 -4 2 -8 12 -8 22 0 9 -7 23 -15 30 -8 7 -15 18 -15 25 0 7 -20 52 -45 99
-25 48 -45 94 -45 101 0 8 -9 19 -21 26 -32 17 -45 -2 -29 -43 30 -79 82 -191
91 -198 7 -5 59 -104 78 -150 6 -14 15 -32 20 -40 9 -15 44 -91 75 -162 9 -21
22 -53 30 -70 8 -18 19 -53 26 -77 6 -24 15 -51 20 -60 5 -9 11 -23 14 -31 4
-8 15 -28 25 -45 24 -37 25 -52 5 -90 -9 -16 -33 -61 -53 -98 -56 -106 -58
-109 -90 -144 -30 -33 -32 -33 -50 -16 -11 10 -20 34 -22 53 -2 19 -14 54 -27
78 -13 23 -21 42 -17 42 3 0 -2 17 -13 38 -24 47 -35 73 -57 142 -9 30 -33 89
-52 130 -40 84 -41 87 -78 185 -14 39 -32 84 -39 100 -8 17 -17 43 -21 58 -4
22 -11 28 -28 25 -36 -5 -33 -47 12 -141 23 -46 41 -88 41 -94 0 -6 16 -45 35
-86 19 -41 35 -80 35 -86 0 -6 14 -40 30 -74 17 -35 30 -71 30 -80 0 -9 4 -18
9 -21 5 -3 16 -29 26 -58 9 -28 25 -70 35 -92 33 -74 60 -157 55 -167 -9 -13
19 -11 33 3 9 9 12 9 12 -3 0 -9 -13 -29 -30 -45 -16 -16 -30 -34 -30 -40 0
-7 -20 -32 -45 -57 -25 -26 -45 -50 -45 -55 0 -21 -28 -19 -39 1 -17 34 -35
81 -36 93 0 6 -5 18 -11 25 -12 16 -104 261 -104 278 0 6 -4 11 -8 11 -5 0
-14 25 -21 55 -7 30 -17 57 -22 60 -5 4 -9 17 -9 30 0 13 -4 27 -10 30 -5 3
-10 15 -10 26 0 26 -36 60 -55 53 -18 -7 -17 -63 1 -79 7 -5 14 -21 17 -35 7
-39 51 -155 60 -158 4 -2 7 -14 7 -27 0 -13 5 -27 10 -30 6 -3 10 -17 10 -29
0 -13 7 -29 15 -36 8 -7 15 -20 15 -29 0 -10 11 -41 25 -69 14 -29 25 -57 25
-63 0 -6 14 -40 31 -75 48 -101 48 -120 1 -179 -22 -28 -43 -60 -47 -73 -10
-33 -38 -24 -51 16 -5 17 -15 37 -22 44 -7 7 -12 18 -12 25 0 11 -100 227
-140 304 -5 9 -19 60 -32 113 -20 84 -26 96 -44 96 -21 0 -21 -4 -17 -67 5
-71 39 -166 108 -301 19 -37 35 -73 35 -80 0 -8 9 -25 20 -39 11 -14 20 -35
20 -45 0 -11 9 -31 20 -45 11 -14 20 -38 20 -54 0 -16 7 -32 18 -38 15 -9 11
-16 -33 -58 -27 -27 -60 -61 -71 -77 l-21 -30 -18 60 c-9 32 -20 64 -25 69 -4
6 -11 25 -15 43 -3 17 -10 32 -15 32 -4 0 -10 10 -13 22 -3 13 -15 48 -27 78
-46 117 -62 178 -67 244 -5 60 -18 96 -36 96 -19 0 -26 -172 -9 -193 5 -7 13
-27 17 -46 4 -18 16 -54 27 -80 10 -25 23 -55 27 -66 5 -11 16 -37 25 -59 9
-21 26 -66 38 -100 11 -33 24 -65 29 -71 18 -19 7 -95 -13 -95 -6 0 -19 -11
-30 -25 -11 -14 -25 -25 -31 -25 -7 0 -30 -14 -51 -30 l-40 -30 -23 62 c-12
35 -23 71 -23 80 0 9 -4 19 -9 22 -4 3 -11 21 -14 40 -3 19 -12 50 -20 68 -9
18 -19 51 -23 73 -4 22 -8 43 -9 48 -2 4 -3 30 -4 57 -1 42 -4 50 -20 50 -16
0 -21 -9 -26 -44 -7 -46 16 -176 40 -231 7 -16 17 -43 20 -60 12 -52 48 -160
58 -173 17 -22 -61 -83 -205 -160 -42 -22 -94 -42 -115 -44 l-38 -3 -3 68 c-2
55 -6 67 -20 67 -41 -1 -47 -19 -40 -120 l3 -35 -80 -3 c-86 -3 -187 12 -220
32 -11 7 -38 18 -60 25 -59 18 -107 43 -132 69 -12 12 -30 22 -41 22 -25 0
-102 38 -102 50 0 6 -9 10 -20 10 -23 0 -62 23 -100 58 -14 13 -41 31 -60 41
-19 10 -91 46 -160 81 -69 34 -129 69 -133 76 -4 8 -14 14 -22 14 -8 0 -20 8
-27 19 -7 10 -38 33 -68 52 -114 69 -208 162 -270 266 -8 14 -43 55 -77 92
-35 36 -65 74 -68 84 -4 9 -11 17 -16 17 -5 0 -9 10 -9 21 0 17 -78 150 -100
169 -3 3 -18 31 -34 63 -16 31 -33 60 -38 63 -11 7 -56 76 -81 124 -31 60 -61
115 -79 143 -10 14 -18 33 -18 40 0 8 -9 22 -20 32 -26 23 -110 148 -110 163
0 7 -3 12 -7 12 -10 0 -43 58 -43 74 0 8 -8 24 -18 37 -10 13 -28 49 -41 79
-42 96 -72 164 -86 195 -24 54 -78 160 -84 165 -14 12 -102 203 -107 232 -3
18 -9 42 -14 53 -29 68 -42 203 -42 410 1 110 1 254 0 320 0 66 0 131 0 144 0
13 6 27 14 32 10 7 10 9 0 9 -9 0 -11 12 -7 48 4 26 8 63 10 82 6 61 23 148
34 168 5 10 7 29 4 40 -3 12 -1 28 4 35 6 6 13 53 17 102 8 123 18 158 74 275
18 36 32 69 32 74 0 5 25 46 55 91 30 46 55 89 55 97 0 32 124 208 146 208 8
0 13 4 10 9 -4 5 5 23 19 39 14 16 25 34 25 40 0 5 7 15 16 23 9 7 23 30 31
51 8 21 25 46 38 56 12 10 29 32 38 49 22 41 122 142 183 183 27 18 60 45 74
60 24 25 156 130 163 130 13 0 197 115 246 154 51 40 115 71 212 101 46 15 93
31 104 35 11 4 36 13 55 20 19 7 44 16 55 21 59 25 157 50 210 52 33 1 63 6
67 11 4 6 13 5 22 -3 9 -8 24 -10 38 -5 81 26 275 25 351 -1z"/>
<path d="M3842 3538 c-13 -14 -21 -37 -22 -58 -1 -67 9 -146 24 -189 8 -24 12
-49 10 -56 -5 -13 21 -45 37 -45 19 0 21 31 4 112 -24 117 -26 158 -14 197 9
26 8 36 -3 47 -12 12 -17 11 -36 -8z"/>
<path d="M8429 8865 c-2 -1 -69 -6 -149 -10 -80 -3 -158 -10 -175 -15 -25 -7
-114 -19 -185 -24 -96 -8 -301 -69 -438 -132 -29 -13 -55 -24 -58 -24 -3 0
-17 -9 -31 -20 -14 -11 -32 -20 -41 -20 -15 0 -89 -50 -153 -104 -73 -61 -95
-77 -131 -97 -21 -11 -38 -24 -38 -29 0 -6 -5 -10 -12 -10 -18 0 -270 -261
-293 -303 -11 -20 -23 -37 -27 -37 -4 0 -22 -28 -39 -62 -17 -35 -41 -74 -54
-88 -13 -14 -33 -43 -45 -65 -11 -22 -25 -47 -30 -55 -21 -34 -109 -228 -120
-265 -7 -22 -23 -61 -35 -87 -12 -26 -25 -62 -29 -81 -7 -38 -70 -239 -85
-272 -5 -11 -12 -32 -15 -47 -15 -69 -20 -84 -33 -100 -21 -23 -46 -226 -40
-323 6 -101 25 -223 40 -250 6 -11 14 -38 18 -60 6 -36 19 -93 50 -210 6 -22
15 -53 21 -70 6 -16 15 -52 20 -80 16 -87 31 -150 38 -165 4 -8 15 -49 25 -90
10 -41 25 -93 35 -115 10 -22 27 -69 39 -105 24 -72 71 -189 82 -205 19 -28
70 -132 88 -179 11 -30 30 -76 42 -103 11 -26 24 -57 28 -68 7 -19 23 -50 106
-210 20 -38 52 -91 71 -118 19 -26 34 -54 34 -62 0 -8 11 -22 25 -31 14 -9 25
-22 25 -28 0 -7 11 -23 25 -36 14 -13 25 -30 25 -37 0 -20 46 -96 71 -119 12
-10 41 -48 64 -84 24 -36 63 -83 87 -105 24 -22 56 -57 71 -77 15 -21 50 -60
77 -86 28 -27 50 -54 50 -59 0 -5 24 -34 53 -64 28 -31 63 -69 77 -84 14 -16
51 -50 82 -76 32 -26 72 -64 90 -83 18 -20 40 -36 49 -36 9 0 28 -9 42 -20 14
-12 41 -26 59 -32 18 -6 35 -14 38 -17 17 -20 90 -62 99 -57 5 4 15 -3 21 -14
6 -11 15 -18 21 -14 5 3 19 -5 29 -19 14 -17 34 -27 67 -32 30 -4 58 -16 74
-31 17 -17 36 -24 60 -23 19 0 54 -2 79 -6 77 -11 224 -14 255 -6 17 5 60 19
97 31 37 12 75 21 85 20 40 -5 63 1 63 14 0 19 61 66 86 66 11 0 40 20 64 45
25 25 58 49 75 53 23 7 31 15 35 39 3 18 17 41 33 53 15 12 27 26 27 32 0 12
65 76 264 262 81 76 124 110 142 111 25 1 44 19 44 43 0 19 29 63 64 97 17 17
50 52 73 77 23 25 51 49 62 53 12 3 21 11 21 17 0 21 73 164 107 207 19 25 48
75 64 111 17 36 37 72 44 80 7 8 22 38 33 65 11 28 34 80 51 118 17 37 31 71
31 76 0 5 17 23 38 39 l37 31 -17 31 -18 31 50 98 c28 55 50 105 50 113 0 8 3
18 7 22 4 4 8 13 8 19 1 16 19 57 61 140 53 106 104 243 104 283 0 20 6 48 14
62 78 147 98 272 97 607 -1 221 -11 373 -30 475 -34 178 -55 267 -91 390 -12
41 -25 91 -30 110 -28 114 -71 233 -112 309 -33 61 -73 111 -165 207 -35 35
-63 70 -63 77 0 20 -24 67 -34 67 -9 0 -14 4 -69 54 -15 14 -31 26 -36 26 -7
0 -148 149 -161 170 -3 5 -24 19 -46 32 -22 13 -58 38 -80 56 -21 18 -70 53
-109 79 -38 26 -76 53 -83 60 -7 7 -32 21 -55 31 -57 26 -177 104 -206 136
-14 14 -35 26 -49 26 -14 0 -57 15 -96 34 -39 18 -89 36 -112 40 -45 6 -146
37 -154 46 -3 3 -34 11 -70 17 -84 15 -96 18 -150 37 -24 8 -49 12 -55 7 -16
-12 -78 -13 -107 -2 -14 5 -28 8 -29 6z m-416 -114 c27 -17 30 -17 84 0 30 10
59 17 62 14 12 -7 209 -6 278 1 48 5 66 3 84 -10 30 -20 63 -20 94 0 16 10 32
13 47 8 13 -4 28 -9 33 -9 6 -1 12 -3 15 -4 3 -1 19 -4 36 -5 17 -2 46 -11 65
-19 45 -21 115 -44 162 -52 20 -4 37 -12 37 -17 0 -6 7 -8 15 -4 8 3 34 -4 57
-14 24 -11 51 -20 61 -20 17 0 108 -65 115 -82 2 -5 11 -8 21 -8 9 0 32 -11
51 -25 19 -14 38 -25 43 -25 5 0 42 -23 81 -50 74 -53 155 -108 184 -125 9 -6
33 -25 52 -43 19 -17 40 -32 46 -32 12 0 94 -87 94 -100 0 -5 -8 -13 -17 -19
-30 -16 0 -55 55 -70 26 -7 61 -19 77 -26 24 -11 100 -88 150 -153 28 -37 75
-82 84 -82 6 0 11 -7 11 -15 0 -8 5 -15 10 -15 6 0 10 -7 10 -15 0 -8 -5 -15
-11 -15 -13 0 -87 39 -111 58 -12 10 -21 11 -37 2 -12 -6 -21 -14 -21 -19 0
-13 102 -75 152 -92 64 -21 128 -67 128 -91 0 -11 7 -26 15 -34 8 -9 15 -25
15 -38 0 -12 6 -28 12 -34 15 -15 48 -120 55 -175 9 -66 -8 -63 -88 12 -41 39
-78 71 -84 71 -5 0 -21 12 -34 25 -13 14 -28 25 -35 25 -6 0 -28 9 -49 20 -20
11 -46 20 -58 20 -35 0 -18 -33 30 -57 24 -12 51 -29 60 -36 9 -8 30 -22 47
-30 17 -9 71 -55 119 -102 48 -47 93 -85 99 -84 26 3 34 -3 39 -28 12 -60 39
-182 57 -259 23 -96 24 -104 8 -104 -26 1 -208 200 -208 227 0 5 -9 18 -20 28
-11 10 -20 22 -20 27 0 18 -106 117 -133 123 -39 10 -59 -9 -46 -43 12 -31 26
-42 55 -42 12 0 30 -12 40 -26 10 -15 34 -44 52 -66 17 -22 32 -44 32 -50 0
-6 11 -19 25 -30 14 -11 25 -24 25 -30 0 -6 47 -58 105 -116 98 -98 110 -116
106 -151 -2 -7 1 -20 5 -30 4 -9 9 -43 10 -76 2 -33 6 -66 9 -74 3 -8 3 -41
-1 -73 -9 -80 -28 -77 -95 15 -29 39 -78 99 -108 132 -31 33 -65 73 -76 89
-11 16 -43 55 -72 87 -28 31 -56 66 -62 78 -11 20 -50 29 -64 15 -11 -11 14
-58 56 -104 23 -25 58 -65 77 -89 19 -25 66 -76 103 -115 37 -39 75 -84 84
-100 8 -16 28 -40 44 -54 17 -13 36 -37 44 -52 9 -18 26 -31 45 -35 29 -6 30
-9 24 -43 -3 -21 -10 -53 -15 -72 -5 -19 -9 -56 -9 -82 0 -25 -12 -79 -26
-120 -14 -40 -28 -86 -31 -103 -3 -16 -9 -34 -12 -40 -10 -13 -29 -81 -36
-125 -3 -20 -14 -52 -25 -73 -11 -20 -20 -42 -20 -47 0 -16 -49 -90 -59 -90
-12 0 -94 153 -111 205 -13 42 -31 86 -58 145 -9 19 -17 44 -17 55 -1 11 -14
46 -28 78 -58 124 -77 168 -77 177 0 14 -41 23 -52 12 -13 -13 -1 -67 18 -82
7 -7 19 -30 25 -53 6 -22 23 -66 39 -99 16 -32 38 -89 51 -126 12 -37 25 -71
30 -76 5 -6 9 -19 9 -29 0 -11 18 -55 40 -99 22 -44 40 -85 40 -91 0 -5 7 -15
16 -21 20 -15 35 -95 23 -118 -5 -9 -9 -28 -9 -43 0 -31 -77 -188 -89 -181 -4
3 -16 27 -26 53 -10 26 -25 59 -34 73 -9 14 -23 43 -30 65 -7 22 -24 62 -37
88 -13 27 -24 53 -24 58 0 5 -20 52 -45 105 -25 52 -45 102 -45 109 0 8 -8 29
-18 47 -10 18 -24 53 -32 77 -15 46 -36 63 -51 40 -9 -15 -2 -77 11 -94 7 -9
26 -58 67 -172 8 -24 19 -43 24 -43 5 0 9 -10 9 -23 0 -13 4 -27 8 -32 5 -6
25 -50 46 -100 20 -49 51 -119 68 -155 17 -36 38 -81 46 -100 8 -19 21 -48 28
-64 16 -32 11 -57 -38 -162 -15 -34 -28 -67 -28 -72 0 -17 -22 -62 -31 -62 -8
0 -18 17 -60 102 -26 52 -38 79 -105 248 -19 47 -40 99 -47 115 -15 32 -42
106 -60 165 -6 19 -14 37 -17 40 -4 3 -19 39 -34 80 -15 41 -32 84 -37 95 -5
11 -11 31 -14 44 -8 41 -52 55 -48 15 6 -48 16 -92 28 -119 44 -101 80 -205
77 -222 -2 -7 2 -13 7 -13 6 0 16 -19 22 -42 6 -24 20 -61 30 -84 11 -22 19
-44 19 -49 0 -4 11 -31 24 -59 27 -55 37 -82 42 -107 2 -8 10 -28 18 -44 8
-16 13 -32 11 -35 -3 -4 4 -15 15 -25 11 -10 20 -26 20 -35 0 -10 14 -34 30
-55 53 -66 54 -61 -45 -246 -5 -11 -13 -19 -17 -19 -5 0 -8 -4 -8 -10 0 -5
-21 -41 -46 -80 -37 -58 -48 -69 -60 -59 -8 6 -14 22 -14 34 0 12 -7 28 -14
35 -8 6 -23 33 -32 58 -10 26 -21 51 -26 57 -4 5 -8 20 -8 35 0 14 -7 34 -16
45 -8 11 -19 38 -25 60 -6 22 -21 63 -33 90 -12 28 -35 88 -50 135 -16 47 -38
105 -49 130 -12 25 -21 50 -22 55 0 6 -7 24 -16 40 -9 17 -26 64 -39 105 -12
41 -26 79 -31 85 -5 5 -9 17 -9 27 0 19 -34 26 -45 8 -6 -10 27 -135 50 -185
7 -16 21 -52 30 -80 10 -27 29 -75 42 -105 25 -54 99 -255 129 -354 9 -27 21
-59 28 -70 7 -12 19 -41 26 -66 8 -25 19 -52 26 -60 6 -8 15 -26 19 -40 4 -14
14 -32 21 -41 8 -8 16 -29 20 -46 5 -24 1 -34 -20 -50 -14 -12 -26 -24 -26
-28 0 -4 -22 -32 -50 -62 -27 -30 -50 -59 -50 -64 0 -5 -6 -9 -13 -9 -15 0
-57 69 -57 94 0 8 -9 30 -20 48 -11 18 -20 40 -20 48 0 9 -9 33 -20 55 -11 22
-20 47 -20 57 0 9 -4 20 -10 23 -5 3 -10 17 -10 30 0 13 -4 27 -10 30 -5 3
-10 16 -10 27 0 12 -6 29 -13 37 -7 9 -19 41 -26 71 -7 30 -21 73 -31 95 -10
22 -33 81 -51 130 -53 147 -97 235 -114 229 -19 -8 -30 -43 -16 -57 6 -6 11
-20 11 -31 0 -11 7 -28 17 -38 9 -10 25 -44 35 -76 18 -55 60 -165 78 -207 4
-11 18 -54 31 -95 12 -41 26 -79 31 -85 4 -5 8 -19 8 -31 0 -13 5 -26 10 -29
6 -3 10 -15 10 -25 0 -10 14 -45 30 -77 17 -31 30 -64 30 -72 0 -8 16 -47 35
-88 54 -115 55 -109 -18 -181 -36 -34 -68 -62 -73 -62 -4 0 -16 -7 -26 -17
-17 -15 -20 -15 -43 7 -14 13 -25 28 -25 33 0 6 -13 39 -30 74 -16 34 -29 66
-28 71 1 4 -10 30 -25 59 -15 29 -27 59 -27 68 0 9 -16 50 -35 91 -19 41 -35
80 -35 87 0 6 -11 35 -25 62 -13 28 -25 62 -25 76 0 14 -3 29 -7 33 -10 10
-32 96 -33 127 0 14 -11 36 -24 48 l-24 22 -4 -35 c-2 -20 2 -60 10 -89 7 -28
15 -59 17 -67 20 -88 58 -202 84 -250 10 -19 22 -48 26 -65 3 -16 12 -36 18
-43 11 -14 68 -168 69 -189 1 -7 5 -13 10 -13 4 0 8 -5 8 -11 0 -12 40 -99 50
-109 3 -3 10 -15 17 -26 10 -19 5 -28 -55 -87 -37 -36 -87 -89 -111 -116 -24
-28 -49 -51 -55 -51 -14 0 -61 100 -83 175 -8 28 -23 68 -34 91 -10 22 -19 47
-19 55 0 8 -4 19 -8 24 -15 18 -61 182 -84 300 -12 58 -17 70 -34 70 -15 0
-19 -7 -20 -35 0 -19 3 -48 8 -65 12 -40 30 -125 32 -150 2 -11 8 -30 14 -42
7 -12 12 -31 12 -42 0 -11 5 -23 10 -26 6 -3 10 -14 10 -24 0 -9 9 -36 20 -59
11 -22 20 -47 20 -54 0 -17 21 -75 43 -117 9 -19 17 -40 17 -48 0 -7 4 -21 9
-31 39 -72 40 -80 16 -107 -13 -14 -30 -25 -38 -25 -8 0 -19 -11 -25 -25 -7
-14 -20 -25 -31 -25 -11 0 -23 -4 -26 -10 -39 -63 -107 11 -175 190 -7 19 -16
40 -20 45 -13 20 -46 161 -52 225 -2 17 -9 25 -23 25 -17 0 -20 -7 -20 -50 1
-53 21 -158 36 -187 5 -10 9 -25 9 -33 0 -8 5 -15 10 -15 6 0 10 -9 10 -20 0
-23 54 -146 75 -170 17 -20 24 -78 11 -89 -34 -26 -297 -44 -311 -21 -4 6 -12
10 -18 9 -37 -4 -87 3 -99 14 -7 7 -20 16 -29 19 -9 4 -19 23 -23 42 -4 20
-10 36 -14 36 -4 0 -18 25 -32 55 -21 46 -29 55 -51 55 -30 0 -57 -24 -39 -35
10 -6 60 -98 60 -110 0 -21 -147 46 -157 72 -3 7 -15 13 -27 13 -19 0 -41 11
-167 83 -25 14 -62 41 -81 59 -60 57 -96 88 -103 88 -9 0 -65 60 -65 70 0 4
-20 28 -44 54 -24 26 -57 63 -72 83 -33 41 -59 70 -152 169 -37 39 -75 82 -85
95 -9 13 -37 49 -61 80 -25 31 -61 87 -81 125 -20 38 -44 77 -53 86 -49 48
-132 171 -132 194 0 6 -9 19 -20 29 -11 10 -20 25 -20 33 0 12 -60 142 -89
192 -16 27 -61 129 -61 136 0 5 -25 60 -56 124 -30 63 -68 142 -84 175 -15 33
-34 80 -40 105 -7 25 -15 50 -20 55 -4 6 -11 26 -15 45 -7 32 -11 41 -35 90
-5 11 -10 33 -10 49 0 17 -4 32 -9 35 -5 3 -9 16 -9 28 0 13 -6 43 -15 68 -8
25 -18 68 -22 95 -4 28 -11 57 -16 66 -5 9 -11 32 -14 50 -3 19 -14 66 -25
104 -99 355 -92 316 -93 496 -1 144 1 170 16 193 10 15 16 33 14 39 -2 7 9 48
25 92 65 175 95 268 127 390 4 17 15 44 24 62 10 18 17 39 17 47 0 8 27 73 61
143 80 169 86 179 131 240 20 28 47 70 58 92 12 22 28 45 36 52 8 6 14 16 14
22 0 18 71 99 186 215 62 61 115 112 118 112 11 0 168 109 215 150 61 52 235
146 308 165 28 7 63 21 77 30 14 9 30 14 36 10 6 -4 21 0 33 8 12 7 40 17 62
20 74 12 136 27 153 36 23 14 23 14 55 -8z"/>
<path d="M10031 6562 c-13 -25 18 -164 42 -188 4 -4 7 -20 7 -36 0 -16 6 -31
15 -34 8 -4 15 -11 15 -16 0 -9 87 -157 100 -168 16 -15 70 -90 70 -97 0 -5
22 -34 50 -64 27 -29 52 -62 56 -71 7 -24 84 -26 84 -2 0 14 -65 84 -78 84 -8
0 -52 55 -52 66 0 5 -16 25 -35 44 -19 19 -35 38 -35 43 0 4 -13 28 -30 52
-16 24 -30 48 -30 54 0 5 -6 14 -13 18 -16 10 -80 145 -97 203 -7 25 -17 57
-22 72 -6 15 -7 31 -4 36 3 6 -1 13 -10 16 -22 8 -22 8 -33 -12z"/>
<path d="M8387 3712 c-12 -13 -14 -26 -7 -63 8 -44 29 -99 40 -109 4 -3 12
-21 19 -40 7 -19 27 -67 44 -107 28 -64 35 -72 59 -73 41 0 42 44 1 93 -17 21
-34 49 -37 62 -3 13 -19 52 -36 88 -16 35 -32 82 -36 105 -8 52 -25 68 -47 44z"/>
<path d="M11494 5949 c-3 -5 -22 -9 -42 -10 -65 -1 -106 -22 -119 -60 -10 -30
-9 -35 8 -43 14 -7 25 -4 40 10 17 15 37 19 105 20 52 0 89 6 99 14 20 17 19
56 -2 66 -25 11 -83 13 -89 3z"/>
<path d="M10702 5921 c-18 -16 -20 -24 -12 -45 l9 -25 114 6 c94 5 116 3 128
-9 11 -12 20 -13 44 -5 51 17 60 30 44 67 -13 29 -17 31 -49 25 -45 -9 -197
-9 -230 -1 -17 4 -32 0 -48 -13z"/>
<path d="M5983 5889 c-4 -4 -46 -11 -93 -14 -46 -4 -88 -9 -92 -11 -9 -6 -10
-46 -2 -68 7 -18 35 -21 50 -6 14 14 111 15 128 1 36 -30 89 27 68 73 -11 25
-45 39 -59 25z"/>
<path d="M440 5777 c-129 -13 -137 -14 -149 -21 -6 -4 -11 -20 -11 -37 0 -38
9 -39 145 -16 43 7 93 9 130 4 78 -10 116 -10 127 1 4 4 -1 23 -11 42 -18 35
-19 35 -87 35 -38 0 -103 -3 -144 -8z"/>
<path d="M4853 2802 c-15 -10 -63 -80 -63 -93 0 -5 -11 -26 -24 -47 -13 -20
-32 -59 -42 -87 -9 -27 -22 -57 -29 -65 -6 -8 -23 -40 -37 -70 -14 -30 -42
-90 -62 -132 -20 -42 -36 -83 -36 -90 0 -8 -7 -23 -15 -34 -8 -10 -15 -31 -15
-45 0 -14 -7 -34 -15 -45 -8 -10 -15 -28 -15 -39 0 -11 -6 -29 -13 -40 -7 -11
-19 -40 -26 -65 -7 -25 -16 -49 -21 -55 -12 -17 -21 -66 -15 -85 13 -40 75
-30 75 13 0 12 6 33 13 47 7 14 14 39 15 55 1 17 6 39 11 50 5 11 14 40 21 65
7 25 28 77 46 116 19 40 37 87 40 105 4 19 22 60 40 92 19 32 37 69 40 82 3
13 12 29 20 36 8 6 14 18 14 26 0 19 96 212 117 235 9 10 19 16 22 13 17 -10
33 14 27 39 -5 20 -13 26 -34 26 -15 0 -32 -4 -39 -8z"/>
<path d="M5796 2758 c-8 -13 -31 -72 -52 -133 -35 -104 -73 -197 -112 -275
-19 -39 -19 -39 -162 -29 -59 4 -65 2 -68 -16 -5 -40 19 -52 121 -62 41 -4 47
-8 47 -28 0 -12 -16 -55 -35 -94 -19 -39 -35 -75 -35 -80 0 -11 -56 -121 -70
-138 -16 -20 6 -63 32 -63 43 1 64 32 74 110 8 66 46 154 83 197 6 7 11 16 11
21 0 5 7 23 16 40 16 32 32 40 50 23 5 -5 31 -16 58 -25 45 -16 50 -16 67 0
11 10 19 20 19 24 0 18 -52 64 -72 65 -58 3 -69 6 -74 20 -3 8 3 34 14 57 10
24 27 60 36 80 9 20 21 40 25 43 5 3 12 24 16 48 4 23 21 70 37 104 19 40 28
73 26 95 -4 40 -31 49 -52 16z"/>
<path d="M9066 2505 c-9 -13 -16 -34 -16 -45 0 -11 -8 -37 -17 -58 -9 -20 -18
-47 -19 -60 -2 -12 -12 -39 -23 -60 -11 -20 -25 -48 -31 -62 -5 -14 -23 -47
-40 -75 -16 -27 -34 -61 -41 -75 -14 -31 -24 -51 -55 -105 -12 -23 -30 -62
-39 -86 -10 -24 -30 -72 -47 -107 -36 -77 -33 -112 11 -112 32 0 55 27 64 75
12 67 37 138 66 190 17 30 31 60 31 66 0 6 8 23 18 37 11 15 32 52 48 82 16
30 32 57 35 60 3 3 23 48 44 100 21 52 41 97 45 100 4 3 12 33 17 67 8 54 7
65 -7 78 -22 20 -25 19 -44 -10z"/>
<path d="M5288 2501 c-17 -14 -25 -31 -26 -59 -2 -22 2 -43 7 -46 16 -10 63
13 68 34 3 11 9 20 14 20 4 0 13 9 19 19 7 15 6 23 -6 35 -21 21 -46 20 -76
-3z"/>
<path d="M8261 2494 c-6 -14 -11 -35 -11 -48 0 -31 -20 -86 -31 -86 -5 0 -9
-8 -9 -18 0 -22 -47 -119 -62 -128 -6 -4 -38 -8 -72 -9 -61 -3 -140 -28 -164
-52 -7 -7 -17 -13 -21 -13 -8 0 -14 -5 -107 -86 -57 -49 -125 -169 -130 -226
-7 -93 57 -166 132 -152 55 10 91 27 149 68 l50 36 3 -50 c3 -43 6 -51 27 -56
38 -9 52 0 75 53 20 45 20 48 4 60 -24 18 -34 16 -34 -4 0 -11 -3 -13 -9 -7
-19 18 30 166 64 194 8 7 15 20 15 29 0 10 9 27 20 39 11 12 20 25 20 30 0 6
11 13 24 16 21 5 24 11 23 52 0 29 5 51 14 58 8 6 15 25 17 41 2 17 9 39 17
51 7 12 21 48 30 80 9 32 21 69 27 81 12 24 1 45 -32 63 -13 7 -20 3 -29 -16z
m-148 -371 c-3 -10 -10 -23 -14 -28 -4 -6 -30 -56 -58 -110 -88 -176 -205
-271 -291 -235 -22 9 -30 20 -35 48 -5 30 1 49 30 105 20 37 41 67 46 67 5 0
9 7 9 15 0 8 5 15 10 15 6 0 26 17 45 39 19 21 50 45 68 52 17 7 34 15 37 19
12 13 69 28 112 29 41 1 47 -1 41 -16z"/>
<path d="M4935 2443 c-9 -21 -23 -45 -32 -55 -20 -22 -10 -64 18 -71 22 -6 69
27 69 49 0 8 8 30 17 50 17 35 17 36 -2 50 -32 24 -54 17 -70 -23z"/>
<path d="M6542 2348 c-11 -18 -25 -57 -31 -86 -12 -59 -62 -171 -96 -217 -12
-16 -24 -37 -27 -45 -3 -8 -27 -46 -52 -85 -38 -55 -46 -76 -44 -105 3 -31 6
-35 31 -35 28 -1 43 16 97 110 31 53 128 178 182 235 51 54 107 98 166 131 37
21 44 22 52 9 6 -8 8 -28 5 -45 -9 -51 -65 -180 -89 -207 -13 -13 -32 -40 -41
-59 -10 -19 -31 -53 -47 -76 -15 -23 -40 -65 -54 -92 -31 -62 -22 -91 29 -91
29 0 36 7 70 64 21 36 39 76 41 90 1 14 6 29 9 33 4 3 7 14 7 22 0 9 13 32 28
51 33 40 72 121 72 148 0 10 4 22 9 28 12 14 31 97 26 119 -2 11 -6 32 -9 47
-4 16 -17 32 -35 41 -26 13 -32 12 -87 -21 -32 -19 -92 -63 -131 -99 -40 -36
-73 -61 -73 -56 0 4 14 46 30 93 25 71 28 89 18 108 -16 31 -33 28 -56 -10z"/>
<path d="M3214 2359 c-4 -7 -8 -37 -9 -68 -1 -31 -12 -85 -24 -121 -12 -36
-24 -75 -25 -88 -2 -13 -13 -37 -25 -52 -11 -16 -21 -33 -21 -39 0 -5 -22 -53
-50 -106 -36 -69 -50 -109 -50 -137 0 -39 1 -40 27 -33 16 4 29 7 29 8 19 24
73 119 79 136 4 14 26 59 48 100 21 42 46 90 55 106 27 54 153 195 174 195 5
0 8 -30 8 -67 0 -63 -20 -143 -41 -169 -5 -6 -6 -13 -4 -16 7 -7 -60 -143 -90
-183 -42 -56 -57 -93 -45 -115 14 -26 40 -25 67 3 51 51 69 73 76 90 3 9 11
17 17 17 5 0 10 6 10 14 0 8 15 33 34 55 19 23 38 51 42 64 4 12 18 36 31 52
14 17 34 43 46 58 12 15 39 47 59 70 48 54 58 42 58 -68 0 -79 -17 -147 -45
-189 -8 -11 -15 -26 -15 -33 0 -7 -21 -46 -46 -87 -52 -85 -56 -119 -12 -124
24 -3 30 3 49 42 12 25 25 46 29 46 4 0 13 15 20 33 7 17 16 41 20 52 18 45
23 60 21 69 -1 4 3 14 9 21 19 23 38 150 29 202 -16 100 -20 119 -35 141 -26
40 -47 27 -144 -88 -25 -30 -54 -65 -66 -79 l-21 -25 5 101 c6 139 -17 204
-68 188 -12 -4 -53 -39 -92 -78 -51 -53 -68 -65 -63 -47 10 30 10 134 0 149
-8 14 -42 14 -51 0z"/>
<path d="M5215 2280 c-11 -5 -17 -9 -13 -9 19 -2 -117 -272 -153 -301 -12 -10
-20 -36 -25 -77 -7 -63 -7 -63 20 -63 19 0 32 10 51 40 14 23 24 44 21 48 -2
4 9 30 25 57 16 28 38 70 50 95 11 25 34 73 51 107 42 87 31 128 -27 103z"/>
<path d="M7215 2285 c-5 -2 -27 -6 -47 -10 -71 -11 -215 -125 -273 -215 -12
-19 -30 -42 -39 -49 -46 -39 -88 -199 -64 -245 16 -30 48 -56 72 -57 107 -8
171 27 275 151 l21 25 -6 -82 c-8 -98 0 -113 57 -113 37 0 39 1 39 33 0 22 -7
36 -21 45 -16 11 -20 21 -16 50 2 21 9 48 16 60 11 22 19 52 40 172 11 58 21
82 42 97 20 15 30 69 18 100 -10 27 -79 50 -114 38z m25 -77 c0 -6 -10 -46
-21 -87 -58 -209 -261 -408 -354 -347 -18 12 -25 26 -25 47 0 33 46 139 61
139 5 0 9 4 9 10 0 28 149 190 175 190 7 0 20 7 29 15 16 16 80 42 109 44 9 0
17 -4 17 -11z"/>
<path d="M8660 2206 c-5 -14 -11 -47 -14 -74 -2 -27 -12 -64 -21 -82 -9 -17
-14 -34 -11 -37 7 -8 -41 -101 -77 -148 -78 -101 -173 -175 -227 -175 -16 0
-20 6 -20 35 0 42 21 125 32 125 4 0 8 11 8 24 0 13 3 26 8 28 4 2 18 26 31
53 52 109 71 140 88 143 29 6 35 17 22 45 -13 29 -44 36 -71 15 -16 -13 -98
-150 -98 -164 0 -4 -10 -28 -21 -53 -21 -45 -26 -56 -48 -116 -18 -46 -17
-163 0 -181 19 -18 77 -35 84 -24 3 4 17 11 31 14 47 12 116 65 159 121 11 14
32 40 46 58 14 18 43 66 63 107 21 41 44 80 52 86 8 6 14 18 14 27 0 9 5 19
11 22 6 4 8 14 5 22 -3 8 -1 35 5 59 9 33 9 52 1 70 -15 31 -40 31 -52 0z"/>
<path d="M4155 2205 c-16 -7 -54 -23 -84 -36 -38 -17 -81 -50 -140 -109 -90
-89 -98 -100 -131 -167 -24 -49 -25 -81 -6 -127 16 -40 22 -44 69 -51 44 -7
96 13 154 61 57 47 67 37 47 -44 -9 -36 -13 -77 -10 -96 6 -29 10 -33 34 -30
31 3 92 64 92 92 0 28 -11 34 -32 15 -17 -15 -18 -14 -18 31 0 26 7 63 16 84
9 20 22 63 30 94 7 32 22 77 33 100 11 24 23 54 26 68 4 14 16 35 27 46 19 21
19 22 -7 53 -29 34 -52 38 -100 16z m1 -92 c-3 -10 -10 -40 -16 -68 -14 -65
-47 -119 -107 -176 -58 -54 -104 -79 -150 -79 -31 0 -33 2 -33 34 0 19 5 38
10 41 6 3 10 13 10 21 0 28 134 167 209 215 52 33 85 38 77 12z"/>
<path d="M4816 2211 c-4 -5 -16 -40 -27 -77 -12 -38 -34 -93 -51 -124 -33 -61
-35 -113 -5 -118 24 -5 53 22 62 56 4 15 13 43 22 62 8 19 19 44 23 55 4 11
13 33 19 48 16 41 14 94 -5 101 -22 8 -32 8 -38 -3z"/>
<path d="M9247 2095 c-22 -7 -49 -22 -60 -33 -12 -10 -30 -22 -39 -25 -10 -4
-18 -16 -18 -27 0 -11 -15 -41 -34 -67 -34 -48 -86 -186 -86 -227 0 -34 29
-110 47 -123 34 -26 161 -9 238 31 53 28 123 92 157 146 31 47 36 65 38 120 4
104 1 117 -25 148 -19 23 -35 30 -75 35 -28 3 -60 13 -72 22 -26 18 -23 18
-71 0z m177 -106 c64 -76 -2 -233 -124 -294 -30 -15 -62 -31 -71 -35 -9 -5
-37 -11 -62 -15 -36 -6 -50 -4 -63 9 -25 26 -35 85 -19 115 7 15 21 46 31 71
22 54 54 99 72 99 7 1 15 8 19 16 8 23 53 43 108 50 27 3 51 8 54 10 11 12 31
3 55 -26z"/>
<path d="M6013 1548 c-4 -7 -9 -22 -10 -33 -4 -43 -21 -108 -38 -143 -33 -69
-84 -164 -139 -260 -40 -70 -116 -228 -116 -240 0 -5 -9 -27 -20 -50 -11 -22
-20 -46 -20 -51 0 -6 -12 -36 -26 -66 -32 -71 -29 -109 8 -113 22 -3 29 3 43
35 9 21 21 46 26 55 4 9 13 43 18 75 5 32 19 81 31 108 38 89 82 180 88 185 8
6 34 54 75 135 16 33 33 67 38 75 5 8 15 26 21 40 7 14 18 31 25 38 7 7 13 19
13 25 0 7 6 24 14 38 7 14 16 39 20 55 4 16 9 37 12 46 3 9 -5 25 -17 37 -26
24 -35 26 -46 9z"/>
<path d="M6803 1398 c-24 -27 -83 -137 -83 -156 0 -7 -11 -33 -25 -58 -14 -25
-25 -49 -25 -54 0 -5 -21 -47 -47 -93 -27 -46 -57 -101 -68 -123 -11 -21 -26
-45 -32 -52 -7 -7 -13 -22 -13 -32 0 -10 -4 -22 -10 -25 -5 -3 -10 -17 -10
-30 0 -13 -4 -26 -8 -29 -5 -3 -9 -23 -10 -45 -2 -38 0 -39 25 -37 29 3 65 48
61 76 -1 8 2 26 6 40 7 20 196 407 226 460 4 8 16 35 26 60 10 25 23 52 30 60
15 18 8 60 -10 60 -7 0 -22 -10 -33 -22z"/>
<path d="M7030 1321 c0 -10 -9 -30 -20 -44 -22 -28 -18 -53 11 -62 37 -12 89
66 73 109 -9 24 -64 21 -64 -3z"/>
<path d="M5544 1323 c-22 -4 -54 -51 -54 -80 0 -18 32 -53 49 -53 5 0 14 13
21 29 7 17 22 32 36 35 17 5 24 13 24 29 0 40 -20 51 -76 40z"/>
<path d="M4150 1284 c-54 -11 -143 -51 -178 -79 -9 -8 -27 -22 -38 -32 -33
-28 -38 -77 -11 -108 21 -25 30 -27 157 -36 154 -11 173 -20 185 -95 5 -36 2
-45 -27 -80 -47 -57 -122 -114 -150 -114 -13 0 -28 -4 -33 -9 -10 -10 -51 -15
-97 -13 -25 2 -28 6 -28 37 l0 35 -46 -4 c-51 -5 -49 -3 -58 -33 -5 -17 0 -27
26 -46 64 -47 181 -61 256 -30 17 7 32 9 32 5 0 -10 48 30 121 100 27 27 50
48 52 48 1 0 3 -10 4 -22 3 -37 23 -75 46 -85 67 -31 225 20 289 92 15 18 17
18 18 3 0 -26 -21 -108 -38 -147 -17 -40 -18 -107 -2 -126 25 -30 89 31 70 66
-5 8 -2 45 6 84 8 39 19 90 24 115 5 25 19 81 30 125 12 44 26 99 32 122 17
65 -1 114 -50 136 -50 22 -77 21 -136 -7 -46 -22 -194 -142 -195 -159 -1 -13
-63 -87 -73 -87 -4 0 -8 7 -8 16 0 17 -35 71 -60 92 -35 30 -80 41 -172 43
-55 1 -101 6 -111 14 -30 22 29 64 163 116 21 8 70 14 119 13 75 -1 86 -3 99
-22 17 -25 50 -29 58 -7 12 31 -15 72 -57 84 -46 14 -140 12 -219 -5z m563
-174 c-14 -163 -12 -157 -71 -223 -75 -83 -113 -105 -199 -114 -49 -5 -52 -4
-58 20 -13 50 20 127 87 204 92 105 154 145 218 140 20 -2 25 -7 23 -27z"/>
<path d="M6235 1156 c-112 -35 -211 -122 -265 -232 -41 -83 -41 -144 -1 -184
24 -24 35 -28 70 -25 45 4 111 36 153 74 l27 24 -5 -39 c-3 -21 -12 -58 -21
-82 -13 -39 -13 -45 1 -67 30 -46 69 2 80 100 14 122 40 224 77 300 26 55 24
82 -10 116 -32 32 -46 34 -106 15z m55 -76 c0 -11 -4 -28 -9 -38 -5 -9 -17
-42 -27 -72 -10 -30 -23 -60 -28 -66 -6 -6 -20 -22 -32 -35 -51 -57 -107 -89
-160 -89 l-37 0 6 40 c3 22 15 61 28 87 24 52 114 153 135 153 7 0 19 6 26 13
16 17 32 22 69 25 23 2 29 -2 29 -18z"/>
<path d="M7257 1149 c-25 -14 -53 -74 -67 -144 -11 -54 -22 -84 -66 -180 -31
-67 -62 -167 -57 -181 3 -8 17 -14 32 -14 21 0 39 14 82 66 30 36 62 80 71 97
27 52 160 185 192 193 26 6 28 5 21 -17 -4 -13 -14 -36 -21 -51 -8 -15 -14
-34 -14 -43 0 -19 -69 -148 -82 -153 -4 -2 -8 -8 -8 -14 0 -9 -32 -52 -74 -98
-21 -23 -3 -60 28 -60 26 0 49 21 117 107 150 187 282 328 317 338 20 6 22 3
22 -34 0 -40 -3 -50 -43 -146 -22 -53 -75 -133 -117 -177 -46 -49 -51 -57 -44
-82 7 -28 32 -40 59 -30 16 6 75 119 75 142 0 6 8 13 18 17 34 12 112 212 112
287 0 22 -4 48 -10 58 -12 22 -61 41 -81 30 -21 -12 -115 -106 -181 -180 -43
-49 -58 -60 -58 -45 0 11 9 37 20 57 11 21 23 61 26 90 5 45 3 56 -14 72 -16
14 -27 16 -47 9 -34 -11 -113 -77 -153 -128 -60 -75 -132 -150 -126 -130 3 11
14 38 24 60 10 22 24 63 30 90 7 28 23 74 37 104 34 75 25 116 -20 90z"/>
<path d="M5454 1113 c-9 -16 -24 -39 -34 -53 -9 -14 -32 -56 -51 -95 -19 -38
-37 -71 -41 -73 -5 -2 -8 -7 -8 -12 0 -4 -18 -34 -40 -67 -41 -62 -68 -139
-57 -166 20 -54 133 19 147 94 7 39 7 40 -16 35 -30 -8 -30 -3 1 38 14 18 25
38 25 44 0 6 4 12 8 14 4 2 27 39 51 83 23 44 49 84 57 88 27 15 12 97 -18 97
-4 0 -15 -12 -24 -27z"/>
<path d="M6827 1027 c-9 -13 -18 -46 -20 -73 -3 -27 -6 -50 -7 -51 -2 -2 -3
-6 -4 -10 -1 -5 -6 -23 -10 -41 -4 -18 -14 -46 -22 -62 -9 -16 -14 -44 -12
-62 2 -28 7 -33 28 -33 21 0 27 7 37 47 6 26 15 53 20 60 4 7 13 38 19 68 6
30 17 76 24 101 7 25 10 53 7 62 -9 25 -42 21 -60 -6z"/>
</g>
</svg>
