<?xml version="1.0" standalone="no"?>
<!DOCTYPE svg PUBLIC "-//W3C//DTD SVG 20010904//EN"
 "http://www.w3.org/TR/2001/REC-SVG-20010904/DTD/svg10.dtd">
<svg version="1.0" xmlns="http://www.w3.org/2000/svg"
 width="2320.000000pt" height="1941.000000pt" viewBox="0 0 2320.000000 1941.000000"
 preserveAspectRatio="xMidYMid meet">

<g transform="translate(0.000000,1941.000000) scale(0.100000,-0.100000)"
fill="#000000" stroke="none">
<path d="M5389 18589 c-19 -19 -21 -30 -16 -80 3 -31 12 -70 20 -86 9 -15 22
-48 31 -73 8 -25 29 -83 47 -130 46 -126 79 -232 79 -257 0 -24 0 -25 60 -272
28 -116 37 -168 30 -175 -6 -6 -68 -12 -140 -14 l-130 -4 0 44 c0 31 -7 54
-23 76 -15 19 -30 64 -40 114 -44 224 -58 288 -75 353 -11 39 -27 111 -37 160
-9 50 -22 110 -27 135 -6 25 -11 59 -12 75 -1 28 2 30 37 33 26 2 39 -1 43
-12 8 -21 40 -20 48 0 8 20 -16 59 -44 74 -10 6 -37 8 -58 4 -29 -4 -43 -2
-55 11 -56 56 -75 -49 -27 -150 28 -59 90 -276 90 -316 0 -11 9 -48 20 -82 10
-34 24 -87 29 -117 5 -30 14 -84 21 -120 16 -99 31 -160 52 -219 10 -29 17
-55 16 -56 -7 -7 -132 -35 -154 -35 -17 0 -28 8 -36 28 -7 15 -22 38 -33 52
-26 29 -47 89 -75 215 -25 110 -32 141 -58 230 -12 39 -28 99 -36 135 -9 36
-25 99 -37 140 -56 202 -54 191 -28 211 34 26 99 43 112 30 19 -19 47 -12 59
14 23 52 -32 63 -141 30 -53 -16 -65 -16 -86 -5 -30 16 -44 6 -61 -43 -7 -22
-18 -33 -35 -35 -27 -4 -129 -42 -144 -54 -18 -15 -60 -8 -73 12 -17 28 -39
25 -54 -7 -11 -23 -22 -29 -61 -35 -50 -7 -118 -37 -152 -68 -11 -10 -29 -20
-40 -22 -13 -2 -21 -12 -23 -31 -3 -22 -8 -27 -30 -27 -35 0 -147 -41 -219
-80 -61 -33 -112 -84 -113 -112 0 -9 -5 -20 -10 -23 -17 -11 -12 -508 6 -558
8 -23 17 -62 20 -87 9 -88 26 -175 40 -197 17 -28 44 -103 44 -125 0 -9 7 -21
16 -26 13 -7 10 -14 -21 -40 -19 -18 -44 -32 -53 -32 -32 0 -42 -22 -42 -94 0
-77 25 -222 46 -273 8 -17 14 -55 14 -85 1 -29 7 -78 15 -108 7 -30 23 -93 35
-140 24 -97 40 -121 65 -100 19 16 15 38 -27 164 -17 49 -36 132 -44 185 -8
53 -19 121 -25 151 -5 30 -12 90 -15 132 l-6 78 33 33 c56 54 121 103 184 137
33 18 80 47 105 64 67 48 210 123 250 131 36 8 104 39 129 58 19 16 82 37 111
37 14 0 52 9 84 20 33 11 71 20 86 20 14 0 30 4 36 9 5 5 43 12 84 15 41 4 93
9 115 11 22 2 53 8 68 14 27 11 99 16 362 28 61 2 153 13 205 24 76 15 246 27
400 29 67 1 256 -21 300 -34 63 -19 71 -21 160 -36 36 -5 81 -13 100 -16 60
-10 118 -42 173 -97 l53 -52 13 -120 c7 -66 19 -143 26 -172 8 -29 14 -85 15
-125 3 -130 7 -121 -47 -115 -27 2 -102 19 -168 36 -113 30 -133 32 -350 38
-145 3 -274 1 -350 -6 -66 -7 -150 -14 -187 -16 -37 -2 -75 -8 -85 -13 -10 -5
-62 -13 -117 -17 -54 -4 -132 -13 -175 -21 -42 -8 -125 -21 -186 -29 -223 -31
-588 -125 -660 -170 -11 -7 -49 -25 -84 -40 -72 -30 -244 -124 -249 -137 -2
-4 -39 -33 -83 -64 -44 -31 -95 -70 -112 -86 -46 -42 -117 -82 -148 -83 -16 0
-43 -15 -68 -38 -23 -20 -51 -37 -64 -37 -12 0 -40 -9 -62 -20 -22 -11 -45
-20 -52 -20 -6 0 -16 -6 -20 -14 -4 -8 -25 -24 -47 -37 -79 -46 -209 -204
-246 -299 -7 -19 -28 -66 -47 -103 -44 -92 -57 -171 -44 -272 13 -101 44 -238
65 -290 19 -45 57 -118 65 -125 3 -3 32 -40 64 -83 63 -84 154 -177 175 -177
7 0 23 -7 36 -15 21 -14 44 -18 198 -29 31 -3 87 2 125 10 37 8 89 14 115 14
26 0 49 4 52 9 3 4 27 11 54 14 82 10 130 35 153 78 20 41 38 48 62 25 8 -8
22 -14 32 -13 14 2 20 -10 30 -59 14 -65 39 -144 57 -177 9 -18 25 -74 58
-207 5 -19 14 -55 21 -80 6 -25 13 -70 15 -100 8 -116 26 -256 36 -280 11 -27
20 -234 20 -440 -1 -207 -3 -225 -37 -261 -29 -30 -83 -70 -131 -97 -15 -8
-24 -22 -24 -36 0 -32 -60 -57 -118 -49 -32 4 -42 2 -42 -8 0 -8 -34 -31 -75
-52 -75 -37 -109 -41 -142 -15 -7 5 -22 8 -35 6 -18 -2 -22 -8 -20 -30 2 -24
-2 -28 -40 -38 -24 -6 -71 -20 -105 -30 -34 -11 -82 -20 -106 -20 -61 0 -253
-92 -407 -194 -30 -20 -59 -36 -64 -36 -18 0 -273 -229 -275 -247 -1 -6 -10
-15 -22 -18 -11 -4 -25 -18 -31 -31 -6 -13 -18 -24 -26 -24 -24 0 -120 -82
-137 -117 -9 -18 -22 -33 -29 -33 -7 0 -38 -26 -68 -57 -31 -32 -66 -65 -79
-73 -44 -30 -219 -216 -219 -234 0 -5 -28 -39 -61 -75 -34 -36 -69 -75 -79
-86 -9 -11 -45 -53 -79 -93 -57 -66 -62 -77 -57 -105 4 -18 8 -51 10 -75 3
-42 2 -44 -73 -109 -328 -284 -489 -444 -551 -548 -43 -73 -113 -179 -148
-225 -19 -24 -38 -53 -42 -65 -5 -11 -40 -63 -79 -115 -38 -52 -80 -108 -91
-125 -11 -16 -39 -55 -61 -85 -23 -30 -45 -64 -49 -75 -5 -11 -20 -35 -34 -54
-14 -19 -26 -40 -26 -47 0 -6 -7 -15 -15 -18 -19 -7 -70 -117 -78 -170 -3 -21
-16 -49 -28 -62 -18 -19 -20 -30 -14 -61 4 -21 10 -56 13 -78 6 -37 10 -40 38
-40 34 -1 71 -34 103 -95 10 -19 28 -44 40 -54 12 -11 31 -36 44 -55 31 -52
106 -149 121 -158 7 -5 21 -21 32 -38 10 -16 33 -44 51 -60 18 -17 33 -33 33
-37 0 -5 27 -35 139 -150 14 -16 32 -28 39 -28 6 0 12 -6 12 -14 0 -7 21 -33
47 -58 27 -25 72 -70 101 -102 29 -31 58 -56 63 -56 5 0 29 -20 53 -45 25 -25
48 -45 53 -45 4 -1 39 -30 77 -65 39 -36 73 -65 78 -65 4 0 8 -6 8 -14 0 -8
17 -24 37 -37 21 -12 48 -33 59 -46 12 -13 38 -35 59 -49 36 -24 135 -108 263
-222 35 -32 75 -64 88 -72 13 -8 24 -20 24 -27 0 -7 16 -19 35 -27 19 -8 54
-33 77 -54 123 -114 156 -142 171 -142 10 0 17 -4 17 -10 0 -5 6 -10 13 -10 7
0 22 -12 34 -27 11 -16 33 -35 49 -43 35 -17 41 -22 124 -101 36 -34 74 -65
85 -70 11 -5 38 -20 60 -32 22 -13 67 -38 100 -57 32 -18 83 -48 112 -66 28
-19 57 -34 63 -34 12 0 74 -44 100 -70 8 -8 34 -28 56 -43 50 -34 103 -97 114
-137 8 -26 6 -30 -12 -30 -11 0 -66 14 -121 32 -78 24 -118 31 -172 30 -65 -1
-72 -4 -99 -33 -28 -31 -28 -34 -22 -111 4 -44 12 -88 18 -98 7 -10 39 -30 73
-44 33 -15 73 -37 89 -51 16 -13 32 -22 37 -19 5 2 26 -7 48 -21 23 -14 43
-25 46 -25 2 0 29 -16 60 -35 53 -35 55 -37 56 -83 1 -26 2 -54 3 -63 1 -23
27 -51 42 -45 7 3 18 -2 24 -10 10 -11 9 -14 -9 -14 -12 0 -24 -6 -26 -13 -2
-6 -6 -142 -9 -302 -2 -159 -7 -303 -10 -320 -3 -16 -6 -190 -6 -385 -1 -229
-6 -392 -15 -460 -7 -58 -13 -114 -12 -125 0 -11 -2 -42 -6 -70 -4 -27 -11
-86 -17 -130 -6 -44 -10 -169 -10 -277 1 -109 -3 -205 -8 -215 -10 -20 -29
-133 -29 -173 0 -14 -4 -126 -10 -250 -5 -124 -8 -250 -7 -280 1 -30 2 -80 2
-110 -2 -688 2 -1657 7 -1793 7 -175 7 -178 29 -175 20 3 21 8 19 78 -13 519
-16 959 -10 1585 0 39 0 95 -1 125 0 30 1 118 3 195 2 77 5 223 5 325 1 205
14 385 31 427 6 16 15 143 20 283 5 140 14 274 19 297 6 23 10 84 10 135 0 51
4 109 9 128 9 32 23 333 22 475 -1 230 1 346 8 460 13 196 25 444 25 498 -1
43 1 46 15 33 9 -7 31 -21 49 -30 31 -16 35 -16 58 -1 25 16 26 15 74 -29 47
-44 57 -49 132 -61 27 -4 50 -20 90 -61 49 -51 56 -55 88 -50 28 4 44 0 73
-19 21 -15 48 -24 65 -23 15 1 41 -3 58 -10 51 -21 150 -30 175 -16 13 7 38
10 56 7 35 -6 62 13 64 44 0 10 3 13 5 6 3 -7 11 -10 18 -7 11 4 82 -29 176
-82 19 -11 51 -26 70 -34 19 -8 51 -23 70 -35 19 -12 89 -45 155 -75 66 -29
125 -56 130 -60 6 -3 33 -15 60 -25 28 -10 68 -26 90 -35 22 -10 49 -20 60
-23 11 -3 45 -15 75 -27 60 -24 218 -85 265 -102 17 -6 42 -19 57 -30 14 -10
30 -18 36 -18 5 0 30 -11 55 -25 25 -14 56 -28 69 -30 24 -5 102 -37 150 -61
14 -8 31 -14 37 -14 6 0 34 -11 63 -24 73 -33 159 -66 170 -66 12 0 270 -128
282 -141 6 -5 18 -9 28 -9 10 0 32 -13 50 -29 32 -29 32 -30 21 -74 -13 -49
-8 -82 25 -144 11 -21 23 -51 27 -66 6 -32 83 -119 124 -142 79 -43 152 -72
197 -78 48 -5 212 -56 264 -82 14 -7 65 -22 115 -35 95 -24 178 -24 355 -1
145 19 173 33 239 121 31 41 35 52 38 125 3 44 9 90 15 102 25 52 -31 141
-171 271 -54 51 -117 106 -138 122 -21 16 -55 44 -76 61 -21 17 -57 45 -80 62
-23 17 -44 33 -47 37 -16 21 -170 81 -246 96 -49 9 -93 21 -98 25 -24 22 -117
9 -311 -43 -22 -5 -47 -11 -55 -12 -8 -1 -29 -9 -46 -18 -42 -23 -75 -16 -251
53 -46 17 -83 35 -83 40 0 5 -7 9 -16 9 -9 0 -28 8 -42 18 -15 11 -36 21 -47
25 -63 18 -155 57 -274 117 -174 87 -308 150 -321 150 -6 0 -18 5 -28 10 -22
13 -162 70 -172 70 -13 0 -250 110 -320 149 -19 10 -62 29 -95 42 -33 12 -98
40 -145 61 -47 22 -119 53 -160 69 -89 34 -272 127 -282 142 -4 6 -3 16 1 22
5 5 12 40 15 76 8 70 -8 139 -52 225 -11 21 -34 75 -52 120 -23 58 -52 107
-107 175 -41 52 -83 102 -93 112 -23 21 -78 23 -86 2 -8 -20 -35 -5 -94 51
-25 23 -85 78 -135 122 -190 168 -309 302 -330 372 -4 14 -16 36 -26 49 -11
13 -19 30 -19 38 0 25 57 89 128 144 66 52 110 89 207 175 51 46 198 169 241
203 13 10 24 24 24 29 0 6 8 17 18 24 10 7 45 51 79 98 34 47 72 98 85 114 25
33 67 111 153 286 31 63 63 126 71 140 78 133 106 223 161 515 3 17 11 36 17
44 7 9 11 93 12 255 1 213 15 413 30 437 2 5 6 64 8 131 11 343 18 478 27 523
17 80 -6 440 -30 469 -7 9 -21 62 -31 118 -10 57 -30 136 -44 175 -14 40 -26
79 -26 88 0 8 -21 58 -46 112 -25 54 -54 118 -65 143 -40 91 -100 210 -110
216 -5 3 -43 56 -83 117 -49 74 -105 143 -168 204 -51 50 -107 106 -124 125
-17 18 -81 80 -142 138 -62 57 -112 107 -112 110 0 6 55 40 85 53 28 12 57 2
103 -35 22 -18 75 -58 118 -88 71 -51 147 -124 314 -302 73 -79 129 -179 235
-423 26 -60 65 -146 85 -190 32 -68 57 -126 84 -195 3 -8 10 -22 15 -30 12
-21 66 -135 91 -194 12 -26 29 -77 38 -112 17 -64 17 -64 -6 -80 -21 -14 -31
-53 -14 -55 82 -5 139 -13 148 -20 24 -20 133 -17 224 6 34 9 97 13 285 19
184 6 351 19 515 41 63 8 141 15 172 15 31 0 59 4 62 9 9 14 98 23 126 13 34
-12 74 0 78 23 2 11 11 28 19 37 13 14 15 54 15 236 -1 187 -3 226 -20 277
-25 77 -42 150 -42 177 0 28 -69 241 -81 249 -5 3 -21 50 -35 105 -14 54 -31
113 -39 129 -7 17 -17 52 -20 79 -4 27 -16 72 -26 100 -11 28 -19 61 -19 73 0
13 -5 43 -12 67 -9 35 -9 53 2 85 9 27 10 44 3 53 -6 7 -15 28 -21 46 -11 31
-10 32 16 32 39 0 71 -25 65 -50 -3 -12 1 -22 11 -26 9 -3 16 -11 16 -16 0 -6
18 -39 40 -74 46 -73 80 -153 80 -189 0 -14 17 -62 39 -108 60 -132 129 -353
137 -443 3 -32 9 -72 14 -89 5 -16 14 -88 19 -160 6 -71 15 -143 20 -160 6
-16 15 -57 22 -90 6 -33 15 -73 20 -89 5 -16 9 -47 10 -70 0 -23 7 -79 15
-126 8 -47 19 -112 24 -145 26 -185 43 -259 59 -269 12 -8 58 -179 71 -266 7
-41 18 -91 25 -110 7 -19 18 -66 25 -105 14 -79 30 -128 66 -197 13 -25 27
-68 30 -95 3 -26 9 -57 13 -68 4 -11 18 -51 31 -90 12 -38 26 -74 30 -80 4 -5
13 -39 20 -75 14 -70 32 -105 126 -250 34 -52 65 -106 69 -120 4 -14 17 -36
30 -50 12 -14 30 -39 39 -57 9 -17 29 -46 46 -65 26 -28 28 -34 15 -44 -17
-13 -20 -50 -5 -59 6 -3 10 -16 10 -29 0 -12 11 -46 25 -74 14 -29 25 -56 25
-61 0 -5 15 -31 33 -57 37 -53 62 -117 54 -137 -3 -7 1 -53 8 -103 18 -125 25
-204 35 -399 7 -142 22 -266 46 -370 2 -11 8 -47 13 -80 5 -33 14 -82 21 -110
6 -27 20 -120 31 -205 10 -85 24 -177 30 -205 6 -27 13 -67 16 -88 3 -20 9
-40 14 -43 5 -3 9 -14 9 -25 0 -12 9 -53 20 -92 38 -140 60 -238 60 -265 0
-15 11 -65 25 -111 14 -46 22 -88 19 -92 -3 -5 4 -66 16 -137 12 -70 23 -143
25 -162 3 -19 9 -62 14 -95 13 -75 30 -215 41 -325 11 -120 28 -229 42 -270 6
-19 15 -62 19 -95 4 -33 10 -71 13 -85 2 -14 10 -72 17 -130 7 -58 15 -109 20
-115 4 -5 9 -32 12 -60 3 -27 8 -57 11 -65 3 -8 8 -31 10 -50 2 -19 11 -60 20
-90 9 -30 28 -107 42 -170 14 -63 30 -133 36 -155 5 -22 13 -65 18 -95 4 -30
10 -62 14 -70 9 -25 16 -97 26 -295 12 -235 14 -254 56 -585 4 -30 11 -63 16
-74 9 -16 17 -62 34 -176 2 -19 9 -64 15 -100 6 -36 15 -99 20 -140 5 -41 13
-100 18 -130 9 -52 16 -87 61 -310 10 -52 24 -124 30 -160 6 -36 17 -96 25
-135 8 -38 17 -95 20 -125 4 -30 10 -68 15 -85 5 -16 11 -64 15 -105 3 -41 9
-129 14 -195 5 -66 16 -160 25 -210 9 -49 16 -105 16 -123 0 -41 25 -92 45
-92 8 0 15 3 15 8 0 4 2 37 4 74 2 45 0 68 -8 71 -19 7 -49 171 -61 322 -14
192 -17 221 -35 335 -29 177 -52 306 -70 385 -12 50 -25 113 -30 140 -4 28
-15 84 -24 125 -23 114 -37 197 -40 243 -4 50 -38 258 -66 407 -42 215 -67
462 -71 700 -2 90 -36 315 -63 413 -9 32 -16 69 -16 83 0 26 -30 143 -53 209
-8 22 -18 65 -22 95 -4 30 -11 61 -16 70 -9 18 -39 219 -45 305 -3 33 -11 93
-19 133 -43 210 -58 311 -70 457 -7 77 -50 384 -65 455 -6 25 -13 83 -16 130
-4 47 -12 103 -19 125 -7 22 -18 72 -25 110 -20 121 -51 257 -80 350 -15 50
-33 119 -40 155 -6 36 -16 88 -21 115 -6 28 -14 86 -19 130 -11 98 -16 133
-41 260 -11 55 -24 129 -29 165 -5 36 -14 88 -19 115 -6 28 -15 142 -21 255
-6 113 -14 259 -18 325 -7 111 -7 122 12 148 l20 28 -24 44 c-23 42 -23 45 -7
63 28 31 21 73 -24 133 -76 101 -87 139 -92 312 -3 83 -9 166 -15 182 -6 17
-13 59 -15 95 -5 74 -23 230 -39 340 -6 41 -12 91 -14 110 -10 117 -27 269
-31 290 -9 49 -15 229 -9 264 7 35 26 51 26 21 0 -19 29 -19 50 0 15 14 20 14
46 0 16 -8 37 -15 46 -15 22 0 106 -45 134 -71 12 -11 35 -28 52 -37 31 -17
66 -44 131 -97 45 -38 42 -35 131 -100 104 -76 146 -111 210 -176 31 -30 64
-58 73 -62 10 -4 25 -20 34 -35 18 -31 90 -82 115 -82 9 0 30 14 48 30 32 30
32 31 15 56 -17 26 -16 27 12 56 l30 30 51 -69 c28 -38 82 -97 119 -130 37
-34 111 -103 163 -153 96 -93 184 -166 230 -190 13 -7 30 -18 36 -24 52 -49
162 -144 183 -158 14 -9 49 -35 76 -57 28 -23 65 -51 83 -62 19 -12 37 -32 42
-44 9 -24 77 -66 145 -91 51 -19 232 -72 265 -78 14 -2 39 -9 55 -16 17 -6 50
-13 75 -16 60 -6 94 -11 117 -18 10 -3 46 -8 81 -11 35 -3 72 -10 82 -15 10
-6 29 -10 42 -10 13 0 28 -4 33 -9 6 -5 28 -11 50 -13 22 -3 85 -16 140 -31
128 -33 227 -54 290 -63 28 -3 75 -13 105 -21 30 -7 73 -18 95 -23 22 -5 69
-16 105 -25 36 -9 88 -21 115 -27 28 -6 59 -14 70 -19 30 -12 183 -47 240 -54
28 -3 66 -10 85 -15 82 -21 188 -39 220 -38 37 2 233 -16 340 -31 116 -16 214
-42 279 -73 62 -30 151 -107 151 -131 0 -6 12 -23 26 -36 40 -39 186 -131 206
-131 10 0 29 -6 41 -14 15 -10 40 -13 77 -10 30 2 71 4 90 4 33 0 131 17 157
27 6 3 19 -9 27 -26 9 -17 30 -37 46 -46 34 -18 119 -20 155 -3 22 10 28 8 48
-11 20 -18 36 -22 105 -23 45 0 82 -5 82 -9 0 -5 6 -9 14 -9 7 0 19 -7 27 -16
29 -35 85 -53 170 -55 68 -2 91 1 117 16 30 18 34 18 79 2 59 -21 148 -22 187
-2 15 8 34 15 42 15 7 0 33 11 56 24 35 19 44 31 49 59 3 22 24 55 55 91 l49
56 205 -1 c113 -1 306 0 430 1 124 1 244 -3 268 -8 24 -6 87 -8 141 -5 62 4
100 2 104 -4 4 -6 11 -43 17 -83 6 -39 14 -79 19 -88 5 -9 11 -66 14 -127 5
-114 27 -285 53 -415 9 -41 20 -95 25 -120 12 -58 58 -228 70 -258 5 -13 9
-44 9 -69 0 -57 28 -125 49 -121 9 2 22 16 30 32 l13 29 117 -6 c64 -4 119 -7
123 -7 6 0 -12 -50 -28 -78 -1 -2 -30 11 -64 28 -79 40 -114 38 -118 -8 -2
-18 4 -46 12 -64 24 -47 20 -58 -19 -60 -72 -3 -92 -5 -125 -11 -19 -4 -98 -7
-175 -8 -77 -1 -174 -7 -214 -13 l-75 -11 -14 -75 c-7 -41 -19 -78 -25 -83 -7
-4 -77 -5 -157 -1 -80 4 -149 6 -155 6 -5 -1 -86 -5 -180 -10 -140 -7 -178
-13 -216 -30 -52 -24 -69 -50 -44 -68 9 -7 16 -15 16 -18 0 -3 1 -11 4 -18 17
-53 36 -932 21 -957 -10 -15 -18 -167 -18 -328 1 -95 -3 -187 -8 -204 -7 -23
-4 -44 10 -82 17 -44 20 -77 20 -212 0 -179 -7 -207 -55 -215 -24 -4 -30 -10
-30 -30 0 -18 6 -26 23 -28 24 -4 29 -21 11 -39 -14 -14 -4 -44 13 -41 16 4
16 -51 4 -317 -12 -254 -13 -298 -20 -745 -9 -564 -9 -565 2 -601 6 -19 13
-86 16 -149 3 -63 10 -158 16 -210 7 -52 12 -147 12 -210 0 -63 1 -160 1 -215
3 -434 0 -746 -6 -830 -7 -79 -6 -104 5 -119 13 -16 16 -16 29 -4 12 12 14 86
14 454 0 241 -4 462 -9 490 -6 35 -4 64 4 88 6 20 11 76 10 124 -3 93 -4 114
-19 262 -6 52 -13 142 -16 200 -4 58 -11 122 -16 142 -9 37 -10 118 -5 523 3
236 15 599 22 660 3 22 7 135 10 250 2 116 10 229 16 252 15 51 26 54 198 45
112 -6 236 -6 675 -3 72 0 333 0 580 -1 248 0 488 3 535 7 189 16 759 20 1015
6 446 -24 570 -32 701 -41 78 -5 216 -10 305 -10 90 0 193 -5 229 -10 36 -6
121 -10 190 -9 69 1 157 0 195 -1 148 -6 535 -1 865 10 190 7 434 14 543 15
206 3 244 10 204 40 -15 11 -66 13 -255 9 -131 -2 -255 -7 -277 -11 -22 -4
-123 -8 -225 -8 -102 -1 -293 -7 -425 -14 -132 -6 -265 -9 -295 -6 -30 4 -183
8 -340 10 -354 5 -584 12 -675 19 -38 3 -119 8 -180 11 -60 2 -141 7 -180 10
-484 37 -625 44 -915 40 -168 -3 -368 -10 -445 -17 -92 -8 -299 -11 -600 -9
-637 5 -627 5 -847 -4 -133 -5 -216 -4 -255 3 -32 6 -106 12 -164 13 -58 1
-115 6 -125 10 -18 6 -20 19 -22 185 -1 99 -8 197 -14 219 -17 61 -11 487 9
605 11 65 14 125 10 193 -4 65 -3 97 4 97 8 0 9 16 4 48 -4 26 -9 144 -10 262
-1 118 -6 226 -12 239 -12 30 3 137 23 169 15 23 18 23 156 20 135 -3 140 -2
158 20 18 21 24 22 179 22 150 0 162 -1 173 -20 16 -24 36 -25 68 -3 21 15 55
17 294 15 149 -1 305 -4 346 -6 113 -8 348 -7 410 0 66 8 168 8 430 1 107 -3
224 -1 260 4 36 6 135 12 220 14 85 2 200 5 254 7 97 3 126 -4 126 -33 0 -17
38 -9 51 12 13 19 24 20 174 21 88 1 243 -6 345 -14 135 -12 287 -15 560 -14
206 2 384 4 395 5 11 2 151 2 310 1 266 -1 349 1 595 16 47 2 216 7 377 10
304 6 325 9 309 49 -5 14 -37 15 -255 11 -138 -2 -254 -7 -259 -10 -5 -3 -100
-7 -210 -10 -110 -2 -206 -7 -213 -12 -11 -6 -238 -11 -804 -17 -168 -2 -544
11 -557 19 -12 8 -10 68 4 119 19 70 6 78 -128 74 -60 -1 -219 -3 -354 -3
l-245 -1 -3 24 c-3 20 55 123 80 141 4 3 16 26 28 52 11 25 27 49 36 52 9 3
14 15 12 28 -3 21 -7 23 -63 20 -33 -2 -73 -7 -90 -12 -16 -5 -77 -12 -135
-15 -58 -3 -141 -12 -185 -20 -44 -7 -165 -14 -268 -15 -103 -1 -210 -5 -237
-9 -37 -6 -62 -4 -98 9 -36 13 -54 15 -68 7 -34 -19 -884 -12 -937 8 -8 4 -20
21 -27 38 -6 18 -16 40 -21 49 -5 10 -9 27 -9 37 0 11 -4 30 -9 43 -26 69 -89
320 -93 372 -1 20 -6 40 -10 42 -5 3 -6 9 -3 14 3 5 0 39 -5 77 -6 37 -14 124
-17 193 -3 69 -9 130 -13 135 -5 6 -11 33 -15 60 -3 28 -8 60 -10 71 -4 17 1
23 19 28 19 5 23 11 19 28 -3 13 -13 31 -21 40 -13 15 -14 33 -6 105 l9 87 33
10 c35 10 49 38 37 76 -6 20 -4 21 47 14 29 -4 63 -11 76 -15 13 -5 53 -9 90
-9 37 0 85 -5 107 -11 83 -21 130 -29 219 -35 101 -7 349 -10 466 -6 41 1 172
3 290 3 226 1 248 1 560 -2 107 -1 215 1 240 4 59 8 129 16 215 23 39 3 82 13
98 22 21 13 32 14 45 6 15 -10 17 -29 14 -165 -1 -85 -6 -176 -11 -204 -5 -27
-19 -115 -31 -195 -24 -167 -36 -223 -61 -300 -19 -61 -24 -100 -39 -370 -5
-102 -15 -209 -22 -238 -19 -88 22 -99 51 -13 6 19 11 82 11 140 0 59 4 111
10 117 6 6 6 22 0 43 -5 19 -7 38 -3 44 3 5 9 64 14 131 6 91 15 137 34 185
14 36 25 83 25 105 0 23 5 61 11 86 34 145 61 341 64 465 1 44 7 104 13 134
10 45 9 59 -4 87 -13 28 -22 34 -48 34 -50 0 -97 17 -156 55 -63 41 -264 141
-360 179 -36 14 -128 43 -205 64 -194 55 -187 51 -208 110 -10 28 -16 55 -13
60 3 5 0 17 -7 26 -15 20 -77 23 -435 17 l-234 -4 -16 -26 c-9 -14 -20 -29
-25 -32 -4 -3 -9 -18 -11 -33 -4 -36 -10 -41 -82 -65 -65 -22 -79 -25 -199
-45 -44 -8 -116 -25 -160 -39 -44 -13 -105 -32 -135 -41 -30 -9 -67 -24 -81
-34 -70 -46 -88 -59 -136 -104 -58 -54 -78 -58 -133 -27 -21 12 -45 19 -54 16
-21 -8 -20 -57 1 -72 17 -12 17 -14 -2 -35 -18 -20 -27 -21 -100 -17 -44 3
-172 10 -285 16 -230 13 -363 25 -430 40 -25 5 -109 13 -186 17 l-141 7 -14
34 c-7 19 -27 46 -43 60 -47 39 -246 130 -311 142 -110 19 -219 30 -308 31
-49 0 -93 2 -97 5 -16 10 -285 6 -320 -5 -143 -43 -245 -49 -336 -20 -34 10
-90 22 -125 26 -35 3 -98 19 -139 34 -41 16 -127 47 -190 70 -141 52 -298 128
-365 179 -27 21 -86 55 -130 76 -74 35 -122 59 -185 92 -14 7 -72 35 -130 63
-58 27 -112 54 -120 60 -20 13 -139 66 -170 75 -14 4 -38 20 -55 36 -33 31
-200 119 -227 119 -9 0 -19 4 -22 9 -3 5 -18 12 -33 16 -16 3 -41 13 -58 20
-65 29 -234 88 -300 104 -22 6 -69 18 -105 27 -36 9 -101 25 -145 36 -125 31
-304 78 -370 98 -33 9 -82 23 -108 30 -26 7 -52 21 -58 31 -12 22 -20 31 -185
200 -72 74 -157 166 -189 204 -201 240 -441 477 -570 563 -55 37 -71 53 -73
75 -3 27 -43 57 -76 57 -8 0 -34 23 -58 51 -24 28 -85 94 -135 146 -51 53 -93
100 -93 104 0 4 -26 28 -57 53 -32 25 -66 58 -77 73 -10 15 -59 62 -109 103
-165 138 -192 160 -221 188 -28 25 -120 87 -233 156 -60 37 -93 61 -146 107
-23 20 -71 53 -107 74 -36 20 -79 50 -96 65 -39 34 -135 80 -240 115 -43 14
-155 64 -249 110 -217 108 -478 194 -590 195 -16 1 -41 7 -55 15 -14 8 -38 15
-55 15 -16 0 -57 9 -89 20 -33 11 -72 20 -88 20 -21 0 -31 6 -35 19 -7 29 -66
51 -137 51 -48 0 -65 4 -70 15 -3 9 -18 15 -40 15 -28 0 -38 6 -54 33 -28 44
-68 170 -77 237 -4 30 -9 70 -11 88 -2 18 -12 51 -21 75 -19 50 -29 178 -15
204 6 10 34 31 64 47 29 15 62 37 73 47 11 10 52 45 91 77 69 57 164 151 164
164 0 4 6 13 13 20 7 7 27 35 45 62 18 27 47 66 66 86 19 20 42 52 51 70 10
19 23 40 31 47 22 23 100 185 122 253 91 293 129 513 109 635 -4 22 -9 106
-12 188 -3 81 -12 189 -21 240 -9 50 -20 119 -24 152 -30 223 -34 238 -70 285
-15 19 -36 62 -47 95 -11 33 -25 74 -31 90 -53 147 -66 211 -47 238 19 27 19
51 0 67 -13 11 -12 15 5 37 27 34 25 46 -10 80 -36 33 -62 111 -59 175 2 39
-6 91 -32 203 -5 22 -11 88 -13 146 -4 117 -14 139 -72 163 -36 16 -64 67 -65
123 0 21 -9 52 -19 68 -66 105 -103 196 -123 305 -3 14 -19 75 -36 135 -36
129 -35 125 -16 125 23 0 18 29 -7 41 -22 10 -58 71 -58 100 0 8 -20 35 -45
62 -34 35 -52 47 -74 47 -16 0 -41 4 -55 10 -22 8 -26 16 -26 48 0 39 -23 72
-48 72 -7 0 -25 14 -40 31 -27 30 -33 32 -109 35 -63 2 -91 8 -121 25 -35 20
-42 21 -57 9 -14 -11 -15 -25 -9 -89 4 -42 15 -100 25 -130 11 -30 19 -61 19
-69 0 -7 6 -28 14 -45 18 -43 54 -190 61 -252 3 -27 10 -63 15 -80 5 -16 12
-68 14 -115 3 -47 11 -107 17 -135 6 -27 12 -70 13 -95 l1 -45 -81 -3 -82 -3
-22 36 c-12 19 -28 35 -36 35 -8 0 -15 5 -15 10 -1 6 -3 22 -4 38 -7 72 -35
221 -49 253 -14 32 -18 65 -32 224 -12 149 -23 233 -34 276 -6 25 -10 61 -8
80 4 43 32 49 87 18 22 -12 47 -19 56 -15 51 19 -59 100 -126 92 -20 -2 -43 0
-51 5 -26 14 -48 0 -48 -31 0 -16 4 -31 9 -34 5 -3 12 -23 15 -43 4 -21 13
-65 21 -98 26 -113 44 -220 49 -295 3 -41 13 -104 21 -140 38 -157 70 -392 56
-406 -2 -2 -44 -4 -93 -4 l-88 0 0 29 c0 16 -11 42 -23 58 -13 15 -31 48 -40
73 -18 48 -67 279 -73 343 -2 20 -15 65 -28 100 -14 34 -28 76 -32 92 -4 17
-15 48 -24 70 -20 47 -40 115 -40 139 0 9 7 16 15 16 8 0 15 6 15 13 0 8 11
19 25 25 15 7 25 20 25 32 0 30 75 29 100 -2 18 -22 18 -23 39 -4 26 24 27 40
1 66 -18 18 -33 20 -140 20 -109 0 -122 -2 -141 -21z m852 -100 c5 -8 9 -19 9
-25 0 -6 9 -19 20 -29 11 -10 20 -28 20 -40 0 -11 4 -25 9 -30 4 -6 18 -48 30
-95 12 -47 34 -130 50 -185 37 -129 48 -170 71 -284 11 -51 24 -98 29 -105 13
-15 30 -169 20 -180 -4 -5 -43 -2 -91 8 -46 9 -101 17 -122 19 -42 2 -42 1
-80 96 -20 46 -28 88 -32 155 -3 50 -9 102 -13 116 -14 40 -33 141 -28 146 2
3 -4 37 -15 77 -11 40 -24 90 -28 112 -5 22 -15 65 -24 95 -14 49 -14 55 0 63
12 7 14 18 9 48 -4 21 -4 43 0 48 9 16 155 7 166 -10z m-1504 -99 c12 0 27 -9
33 -20 12 -22 36 -27 43 -7 9 25 68 -147 117 -343 12 -47 25 -98 29 -115 12
-43 27 -105 52 -220 11 -55 28 -124 36 -154 18 -66 12 -74 -71 -90 -107 -20
-137 -16 -171 27 -36 44 -48 69 -68 142 -9 30 -27 93 -40 140 -54 186 -79 276
-83 305 -2 17 -6 46 -9 66 -3 20 -16 76 -30 124 -22 75 -24 90 -12 102 23 23
131 63 142 52 5 -5 19 -9 32 -9z m-277 -85 c10 -9 23 -14 29 -11 13 8 54 -85
70 -159 33 -159 81 -341 106 -400 7 -16 20 -64 30 -105 9 -41 25 -102 36 -135
27 -86 26 -92 -23 -106 -24 -6 -80 -23 -124 -37 -85 -26 -114 -25 -114 5 0 10
-11 31 -25 47 -13 16 -27 45 -30 65 -4 20 -15 79 -25 131 -35 183 -44 220 -79
340 -17 58 -39 137 -47 175 -9 39 -20 76 -24 84 -15 27 47 97 111 124 24 11
90 0 109 -18z m2033 -37 c31 -43 79 -153 106 -248 32 -111 61 -221 68 -255 3
-16 8 -32 11 -35 15 -11 65 -169 69 -217 l5 -51 -44 5 c-75 9 -122 36 -146 82
-12 23 -22 48 -22 55 0 18 -29 116 -41 138 -5 10 -9 28 -9 41 0 12 -7 47 -16
77 -8 30 -24 93 -34 140 -32 146 -57 247 -64 259 -11 17 3 34 19 21 9 -7 16
-6 25 5 20 24 47 18 73 -17z m-2282 -133 c6 -22 22 -72 35 -112 13 -39 24 -81
24 -93 0 -11 9 -38 19 -59 11 -20 27 -73 35 -117 9 -43 25 -122 36 -174 11
-52 24 -118 29 -146 5 -28 15 -70 21 -93 11 -43 7 -61 -14 -61 -6 0 -34 -14
-60 -31 -27 -16 -67 -37 -89 -46 -38 -16 -41 -16 -51 2 -6 10 -23 32 -37 49
-33 39 -44 89 -59 251 -6 72 -22 180 -35 240 -28 125 -55 291 -55 334 0 15 9
40 20 54 17 21 31 27 73 29 43 2 54 7 62 26 9 21 11 21 23 5 7 -10 17 -36 23
-58z m-240 -121 c3 -32 11 -77 18 -99 32 -114 72 -327 77 -418 6 -109 25 -222
49 -290 17 -48 19 -77 6 -77 -5 0 -32 -15 -60 -34 -82 -55 -85 -55 -105 11
-10 32 -29 71 -41 88 -12 16 -25 46 -28 65 -3 19 -11 62 -17 95 -6 33 -13 74
-16 90 -3 17 -8 37 -11 45 -3 8 -7 109 -9 224 -2 181 0 217 16 269 22 69 61
110 95 97 16 -6 21 -19 26 -66z m2614 -1270 c44 -8 103 -19 130 -23 59 -9 198
-51 206 -63 3 -5 12 -6 20 -3 21 8 42 -55 33 -100 -3 -20 -2 -46 4 -58 25 -52
72 -181 72 -198 0 -10 5 -21 10 -24 6 -3 10 -14 10 -24 0 -9 9 -36 20 -59 11
-22 20 -49 20 -59 0 -10 6 -28 14 -39 8 -11 28 -47 44 -79 26 -52 32 -76 38
-170 3 -60 10 -114 14 -120 17 -23 39 -207 46 -390 3 -71 9 -144 13 -161 8
-30 2 -89 -19 -182 -6 -23 -10 -66 -10 -95 0 -29 -4 -57 -9 -63 -5 -5 -12 -25
-14 -44 -3 -19 -13 -53 -21 -75 -8 -22 -15 -49 -16 -59 -1 -80 -127 -319 -241
-460 -27 -34 -53 -65 -57 -71 -70 -93 -107 -137 -143 -168 -151 -128 -168
-138 -228 -141 -28 -1 -58 -9 -68 -18 -20 -16 -53 -29 -123 -48 -25 -6 -58
-15 -75 -20 -16 -5 -95 -10 -175 -12 -151 -3 -144 -4 -326 52 -17 6 -38 10
-47 10 -24 0 -130 52 -212 104 -38 24 -94 59 -123 77 -63 40 -142 122 -179
187 -14 26 -41 66 -60 89 -18 23 -33 45 -33 49 0 4 -11 21 -23 38 -13 17 -45
72 -71 121 -26 50 -54 97 -61 105 -7 8 -20 33 -30 55 -9 22 -28 54 -44 70 -15
17 -34 43 -41 59 -8 16 -41 56 -72 89 -32 33 -58 68 -58 77 0 22 -25 44 -40
35 -5 -3 -10 -15 -10 -27 0 -37 -31 -86 -65 -102 -75 -36 -155 -9 -241 84 -32
33 -62 69 -68 79 -6 11 -23 34 -37 52 -14 19 -37 60 -49 91 -21 50 -22 61 -10
82 12 23 10 28 -19 61 -33 38 -38 68 -33 182 6 102 96 213 160 196 32 -8 27
-33 -6 -33 -41 0 -57 -18 -77 -81 -14 -47 -15 -66 -6 -108 6 -29 11 -73 11
-98 0 -124 165 -332 225 -283 23 19 18 38 -17 56 -29 15 -30 18 -15 29 22 16
21 27 -3 67 -11 18 -20 45 -20 60 0 23 4 27 23 25 19 -2 22 2 21 30 -2 33 -23
63 -44 63 -29 0 -60 -58 -60 -113 l-1 -32 -24 28 c-17 19 -25 40 -25 66 0 20
-5 63 -10 94 -9 46 -8 62 5 87 8 16 19 30 23 30 13 0 72 -61 72 -74 0 -8 6
-19 14 -25 23 -19 38 12 34 72 -2 35 2 59 10 66 14 14 16 57 2 66 -24 15 -8
60 40 119 28 33 85 106 127 161 42 55 113 140 157 188 45 49 83 94 86 101 8
20 52 74 88 110 18 18 41 44 51 59 10 15 43 54 74 86 42 45 54 64 50 80 -6 25
-35 28 -53 6 -7 -9 -15 -13 -18 -10 -3 3 -24 -27 -47 -65 -23 -39 -62 -93 -86
-120 -24 -27 -55 -66 -69 -86 -14 -20 -63 -80 -110 -133 -172 -197 -195 -224
-199 -235 -8 -21 -79 -111 -117 -148 -37 -36 -42 -37 -102 -35 -34 1 -62 5
-62 9 0 4 12 15 28 25 25 16 78 59 115 93 15 14 53 56 158 175 62 69 119 142
119 151 0 13 154 214 208 271 28 31 52 62 52 69 0 17 -27 37 -40 29 -19 -12
-223 -289 -311 -421 -8 -12 -43 -54 -78 -92 -34 -39 -74 -86 -89 -106 -23 -31
-139 -116 -158 -116 -3 0 -22 -13 -41 -30 -18 -16 -38 -30 -43 -30 -15 0 -12
-21 6 -41 14 -15 13 -19 -10 -45 -21 -23 -27 -26 -35 -15 -6 10 -20 12 -47 8
-62 -10 -281 -125 -358 -188 -78 -63 -162 -146 -180 -177 -6 -11 -26 -45 -44
-76 -38 -64 -39 -92 -2 -88 43 5 69 38 67 89 -2 44 -1 47 85 128 48 46 111 99
140 118 107 69 317 164 332 150 3 -3 -4 -24 -16 -47 -17 -33 -21 -58 -20 -124
1 -79 0 -84 -19 -79 -25 7 -64 -9 -107 -43 -55 -42 -196 -182 -243 -240 -54
-66 -109 -177 -109 -219 0 -28 3 -31 34 -31 18 0 39 7 46 15 7 8 18 15 25 15
7 0 15 8 19 18 3 9 11 25 18 34 17 23 -5 49 -24 30 -7 -7 -20 -12 -31 -12 -44
0 22 101 144 220 101 99 144 134 185 151 16 7 36 19 45 26 15 12 18 10 28 -18
20 -57 14 -71 -65 -149 -41 -41 -99 -104 -127 -139 -29 -35 -75 -89 -103 -120
-50 -56 -94 -132 -94 -164 0 -10 7 -21 17 -24 34 -13 183 87 183 123 0 23 -26
17 -75 -18 -24 -17 -48 -29 -51 -25 -3 3 4 23 17 44 21 34 44 62 145 174 46
52 174 169 184 169 5 0 14 -19 20 -41 10 -38 9 -44 -12 -68 -13 -14 -39 -46
-57 -71 -17 -25 -61 -85 -97 -135 -35 -49 -78 -118 -94 -152 -27 -57 -33 -63
-61 -63 -43 0 -109 33 -155 77 -45 45 -174 207 -174 221 0 11 54 60 93 85 34
22 45 46 27 57 -11 7 -8 17 14 49 32 45 134 147 183 183 18 13 47 35 66 50 18
16 65 39 102 53 66 24 89 40 79 57 -20 32 -153 -25 -257 -111 -93 -76 -226
-221 -300 -325 -10 -14 -24 -26 -31 -26 -18 0 -52 67 -65 127 -5 26 -15 70
-21 97 -10 52 -5 91 11 81 10 -7 89 35 89 47 0 4 7 8 15 8 20 0 30 27 16 43
-14 17 25 54 129 123 104 70 168 102 290 144 84 29 105 41 105 56 0 28 -49 23
-148 -17 -75 -30 -236 -119 -276 -151 -9 -8 -29 -20 -46 -28 -42 -21 -185
-170 -186 -195 0 -15 -3 -12 -9 8 -12 40 4 75 53 119 39 33 41 38 29 58 -13
21 -9 26 50 82 35 32 72 64 83 69 11 5 43 23 70 39 47 29 80 45 183 92 23 11
67 22 98 25 52 6 55 7 52 32 -2 20 -9 27 -32 29 -28 4 -108 -21 -191 -57 -22
-10 -55 -24 -72 -32 -18 -8 -33 -17 -33 -22 0 -4 -10 -12 -22 -17 -13 -5 -47
-26 -75 -45 -32 -21 -53 -30 -53 -22 0 17 46 59 85 77 17 8 50 29 75 46 73 51
171 93 243 103 36 5 71 12 77 16 16 10 12 62 -6 69 -15 6 -171 -40 -188 -56
-6 -4 -17 -8 -25 -8 -9 0 -29 -7 -45 -15 -16 -9 -32 -12 -35 -9 -3 4 -1 9 5
11 7 2 43 28 81 57 108 83 130 90 187 61 15 -8 31 -15 35 -15 4 0 43 35 87 78
44 42 101 93 128 112 26 19 66 52 89 72 23 21 56 43 72 50 17 6 32 15 35 19
12 17 195 98 199 87 2 -5 -1 -13 -5 -17 -5 -3 -39 -44 -76 -91 -37 -47 -78
-98 -91 -115 -13 -16 -30 -41 -37 -54 -24 -46 -190 -257 -265 -336 -72 -76
-91 -114 -64 -130 13 -8 51 25 91 80 16 22 44 56 62 75 18 19 41 49 52 65 10
17 23 35 29 41 10 12 64 83 163 215 102 136 146 187 184 211 39 24 71 78 62
102 -4 11 13 20 68 37 40 12 87 28 105 36 29 12 62 20 183 44 125 25 353 58
361 53 4 -2 20 1 36 7 15 6 64 15 108 20 44 4 118 15 165 23 47 8 135 18 195
22 61 4 121 10 135 15 50 14 440 10 525 -7z m-2370 -1811 c-3 -13 -39 -68 -80
-123 -42 -55 -81 -117 -88 -138 -10 -30 -18 -38 -41 -40 -21 -3 -27 0 -24 10
19 48 19 58 3 58 -9 0 -25 -5 -37 -11 -11 -6 -22 -8 -25 -5 -9 9 16 67 35 85
11 9 25 28 33 43 8 16 48 68 89 118 l74 90 33 -32 c25 -24 33 -39 28 -55z m66
-83 c54 -56 23 -159 -56 -186 -53 -18 -85 -18 -85 1 0 8 4 15 9 15 15 0 21 31
10 52 -8 16 -6 27 15 59 15 21 30 39 35 39 4 0 13 11 19 25 15 32 19 31 53 -5z
m519 -181 c10 -19 25 -41 34 -48 8 -7 25 -34 37 -59 12 -26 35 -66 51 -89 15
-23 28 -44 28 -48 0 -3 35 -58 78 -121 42 -63 96 -145 118 -181 47 -74 141
-183 159 -183 7 0 20 -9 31 -21 10 -12 44 -34 76 -50 31 -16 81 -46 112 -68
63 -44 203 -101 247 -101 9 0 42 -11 75 -24 61 -25 75 -26 274 -27 74 0 117 5
143 16 21 9 42 13 47 10 5 -3 11 -1 14 4 9 15 86 25 98 13 6 -6 12 -44 13 -85
2 -44 9 -87 19 -105 9 -18 21 -69 27 -114 6 -46 19 -110 29 -143 10 -33 22
-78 26 -100 4 -22 18 -64 31 -93 25 -58 22 -73 -22 -94 -11 -5 -47 -25 -80
-44 -33 -19 -80 -44 -105 -55 -25 -11 -54 -24 -65 -30 -11 -5 -60 -22 -110
-39 -49 -16 -117 -39 -150 -52 -55 -21 -76 -22 -265 -22 -187 0 -209 2 -250
21 -25 11 -56 24 -70 28 -14 4 -43 15 -65 25 -98 42 -146 60 -228 85 -48 15
-98 35 -110 45 -12 9 -41 27 -65 39 -79 40 -160 148 -148 197 5 18 2 32 -10
45 -19 21 -29 105 -39 334 -9 190 -11 205 -29 325 -8 58 -18 149 -21 204 -2
54 -9 113 -14 130 -5 17 -19 78 -31 136 -12 58 -29 121 -37 140 -21 48 -43
156 -43 211 0 36 5 50 28 71 43 41 62 40 105 -6 22 -23 47 -57 57 -77z m11
-1631 c48 -62 88 -96 139 -119 25 -12 59 -32 77 -45 17 -13 55 -30 85 -38 80
-21 87 -24 198 -74 36 -16 90 -38 120 -50 30 -11 64 -24 75 -28 27 -10 22 -9
90 -18 65 -9 302 -9 349 0 32 5 133 30 181 44 81 23 205 74 345 142 139 68
157 74 175 62 11 -8 30 -14 42 -14 16 0 27 -8 34 -26 13 -35 -5 -62 -79 -117
-31 -23 -70 -55 -86 -70 -85 -80 -366 -178 -566 -197 -125 -12 -485 -13 -547
-1 -26 6 -86 15 -132 21 -46 6 -97 18 -115 25 -17 8 -65 24 -106 36 -78 22
-116 46 -174 105 -18 18 -37 34 -43 34 -5 0 -20 12 -34 26 -13 14 -39 35 -59
47 -72 44 -111 94 -123 155 -6 30 -2 37 51 87 31 30 60 55 64 55 3 0 21 -19
39 -42z m-220 -190 c6 -12 25 -32 41 -46 33 -28 32 -37 -5 -23 -29 11 -77 60
-77 78 0 21 28 15 41 -9z m2579 3 c25 -7 74 -14 110 -17 36 -2 82 -11 103 -19
20 -8 51 -15 67 -15 16 0 31 -4 34 -9 3 -5 43 -21 87 -35 45 -15 107 -39 138
-55 201 -103 306 -152 339 -160 60 -13 202 -82 262 -126 30 -22 67 -45 82 -52
15 -6 47 -30 71 -52 24 -23 49 -41 54 -41 5 0 17 -8 26 -18 9 -10 37 -28 61
-40 24 -12 50 -29 57 -38 7 -9 38 -28 69 -44 31 -16 62 -35 69 -44 8 -9 18
-16 23 -16 12 0 80 -56 168 -138 37 -35 78 -70 91 -79 20 -14 301 -285 329
-318 5 -5 37 -42 72 -81 35 -39 69 -83 77 -97 14 -26 13 -29 -10 -44 -65 -44
-240 -240 -274 -306 -11 -21 -34 -55 -51 -75 -29 -34 -134 -241 -134 -264 0
-5 -8 -22 -18 -36 -10 -15 -33 -63 -51 -107 -47 -113 -106 -236 -124 -260 -15
-19 -17 -19 -84 28 -120 84 -166 118 -251 186 -46 36 -107 82 -136 101 -29 19
-75 52 -102 72 -41 31 -187 100 -256 122 -13 4 -18 16 -18 41 0 49 -26 58 -57
19 -21 -27 -23 -38 -23 -164 0 -122 20 -369 34 -431 4 -13 8 -58 10 -99 1 -41
8 -109 14 -150 18 -119 33 -240 38 -300 2 -30 11 -104 19 -165 18 -131 16
-230 -4 -230 -17 0 -63 61 -123 160 -54 91 -115 187 -127 201 -20 24 -61 110
-61 129 0 11 -20 76 -44 145 -24 69 -47 153 -51 188 -4 36 -15 72 -26 86 -28
36 -59 114 -59 150 0 17 -13 70 -30 118 -17 49 -34 124 -39 175 -10 95 -40
200 -77 273 -19 37 -25 67 -30 165 -4 74 -11 126 -19 135 -13 16 -30 108 -46
245 -5 44 -15 103 -23 130 -32 111 -36 135 -36 191 0 33 -9 109 -19 169 -11
61 -25 143 -31 182 -7 40 -16 75 -21 79 -5 3 -9 13 -9 23 0 26 -47 185 -69
235 -52 117 -63 145 -68 186 -3 25 -21 73 -39 107 -19 34 -34 71 -34 83 0 20
4 21 63 17 34 -3 82 -10 107 -16z m-406 -118 c3 -10 8 -36 12 -58 4 -22 12
-51 19 -65 6 -14 17 -52 25 -85 7 -33 23 -88 36 -122 13 -34 24 -69 24 -77 0
-20 38 -133 56 -166 18 -33 62 -170 69 -217 14 -92 28 -161 41 -201 13 -39 16
-96 16 -267 0 -83 -12 -188 -23 -200 -5 -5 -38 -12 -72 -16 -34 -3 -96 -13
-137 -22 -41 -8 -129 -20 -195 -26 -66 -6 -142 -14 -170 -17 -27 -2 -129 -10
-225 -15 -269 -16 -419 -27 -490 -36 -49 -6 -78 -4 -119 8 -59 18 -56 12 -102
154 -12 39 -30 81 -41 94 -10 13 -18 31 -18 40 0 9 -9 27 -20 41 -11 14 -20
29 -20 34 0 9 -34 84 -77 171 -13 28 -35 77 -47 110 -13 33 -40 94 -59 135
-20 41 -58 128 -86 193 -28 65 -64 138 -81 162 -16 24 -30 46 -30 49 0 15
-207 251 -305 348 -4 3 -3 14 2 22 8 14 14 13 53 -8 25 -13 46 -31 48 -40 2
-9 7 -16 11 -16 4 0 31 -21 60 -47 56 -50 75 -59 216 -99 236 -66 448 -81 840
-59 82 5 150 15 184 27 30 10 63 18 74 18 75 0 295 106 402 194 49 41 99 74
112 75 6 1 14 -7 17 -16z m-2476 -20 c45 -33 37 -26 208 -194 77 -74 150 -144
164 -155 23 -17 54 -52 117 -127 12 -14 29 -39 37 -56 22 -42 74 -118 101
-147 22 -24 95 -164 95 -183 0 -6 27 -65 60 -133 33 -67 60 -134 60 -149 0
-14 11 -52 25 -83 14 -31 23 -56 21 -56 -2 0 2 -21 10 -46 9 -30 12 -75 9
-134 -4 -79 -3 -90 18 -116 36 -45 67 -300 46 -379 -4 -16 -10 -104 -13 -195
-9 -281 -17 -403 -26 -445 -17 -70 -22 -153 -27 -420 -3 -221 -7 -268 -23
-315 -10 -30 -24 -84 -30 -120 -7 -36 -21 -94 -31 -130 -10 -36 -19 -72 -19
-79 0 -14 -151 -322 -191 -389 -10 -18 -37 -67 -60 -109 -22 -42 -52 -91 -67
-109 -47 -58 -72 -92 -85 -117 -14 -27 -83 -112 -111 -136 -10 -9 -53 -49 -94
-88 -42 -40 -80 -73 -84 -73 -4 0 -29 -19 -55 -42 -27 -24 -68 -59 -92 -78
-24 -19 -55 -45 -70 -56 -73 -60 -176 -134 -185 -134 -13 0 -66 51 -66 64 0 6
-16 28 -35 49 -19 21 -42 51 -50 67 -8 15 -20 34 -27 42 -7 7 -21 26 -31 41
-10 16 -25 36 -33 45 -21 24 -135 178 -157 212 -10 16 -41 53 -69 82 -28 29
-71 78 -96 108 -26 30 -76 87 -112 126 -36 39 -74 85 -85 102 -60 93 -238 284
-350 374 -38 32 -99 84 -133 117 -99 94 -157 141 -284 225 -115 75 -137 100
-100 113 19 7 79 50 102 73 8 8 45 35 82 60 38 25 75 58 85 77 10 18 21 33 25
33 17 0 76 62 82 86 8 30 23 47 69 78 73 50 88 40 27 -19 -58 -56 -85 -125
-50 -125 10 0 270 260 270 270 0 4 11 12 24 19 21 12 29 9 74 -22 39 -28 66
-38 116 -45 41 -5 66 -5 66 1 0 14 48 -1 70 -23 11 -11 29 -20 39 -20 15 0 19
7 19 30 -1 23 9 39 39 68 23 20 85 78 139 129 55 50 121 112 148 137 28 26 53
43 57 39 4 -5 3 -44 -2 -88 -10 -72 -9 -126 7 -395 4 -84 4 -87 0 -225 -2 -55
1 -114 6 -132 5 -18 11 -96 13 -175 3 -128 17 -309 30 -378 2 -14 5 -63 7
-110 1 -47 7 -123 14 -170 6 -47 15 -143 19 -215 3 -71 14 -179 22 -240 9 -60
19 -171 22 -245 6 -126 7 -135 26 -135 19 0 20 7 20 125 0 127 -4 169 -29 274
-8 34 -11 69 -6 80 4 12 3 48 -1 81 -20 145 -40 326 -44 390 -13 251 -17 303
-26 349 -6 28 -12 103 -14 166 -2 63 -9 146 -15 185 -18 114 -8 720 14 820 9
44 19 89 21 100 5 25 89 111 128 131 15 8 37 24 48 35 18 18 241 130 286 143
29 9 35 31 14 50 -17 16 -24 14 -107 -24 -49 -23 -98 -46 -109 -52 -144 -81
-158 -90 -260 -187 -33 -31 -77 -69 -98 -85 -22 -16 -81 -72 -132 -125 -51
-53 -108 -111 -126 -130 -27 -27 -104 -71 -125 -71 -2 0 -4 11 -4 24 0 14 -4
27 -9 30 -4 3 -11 21 -14 40 -3 20 -17 48 -31 63 -14 15 -26 33 -26 38 0 6 -9
29 -20 50 -12 22 -19 48 -16 57 8 35 -33 145 -69 181 -19 19 -43 58 -54 87
-11 29 -29 58 -39 66 -11 7 -37 40 -58 73 -22 35 -51 65 -66 72 -29 12 -105
96 -128 139 -7 14 -20 34 -30 45 -9 11 -23 36 -30 55 -8 19 -26 50 -42 68 -15
18 -28 37 -28 41 0 13 -52 91 -61 91 -4 0 -14 7 -22 15 -24 23 -150 85 -174
85 -12 0 -24 4 -28 9 -3 5 -30 13 -60 16 -30 4 -55 9 -55 12 0 11 41 63 85
109 28 28 66 76 85 107 18 32 48 67 66 79 17 12 46 43 64 70 18 26 37 48 41
48 10 0 57 43 172 155 128 125 322 295 336 295 4 0 12 9 17 19 8 17 92 91 133
116 75 47 123 75 129 75 4 0 18 9 32 20 14 11 33 20 43 20 9 0 17 5 17 10 0 6
7 10 15 10 8 0 15 3 15 8 0 8 37 27 93 48 21 7 50 22 65 32 16 11 40 18 60 17
17 -2 53 4 80 12 29 9 65 12 94 8 28 -3 49 -1 53 5 4 6 23 10 43 9 20 -2 51 5
67 14 41 22 51 21 93 -10z m-1713 -1391 c18 -5 77 -40 102 -62 7 -5 16 -10 21
-10 5 0 17 -17 28 -37 10 -20 36 -62 57 -92 20 -30 37 -59 37 -65 0 -11 45
-81 80 -126 42 -54 88 -99 118 -114 28 -14 92 -95 92 -115 0 -5 7 -11 15 -15
8 -3 29 -35 45 -70 17 -36 41 -73 53 -83 32 -25 59 -107 70 -210 5 -42 5 -42
-47 -71 -28 -17 -58 -37 -65 -46 -7 -9 -21 -16 -31 -16 -9 0 -33 -10 -52 -22
-18 -13 -55 -34 -82 -48 -26 -14 -82 -58 -124 -97 -42 -40 -81 -73 -87 -73
-15 0 -77 -67 -104 -113 -13 -20 -31 -42 -42 -47 -10 -6 -19 -15 -19 -20 0
-16 -78 -88 -137 -126 -32 -21 -74 -50 -93 -64 -19 -15 -54 -34 -78 -43 -41
-17 -44 -16 -85 4 -23 12 -53 30 -66 40 -21 17 -61 26 -61 15 0 -2 -3 -11 -6
-19 -6 -16 47 -77 67 -77 7 0 3 -10 -9 -23 -43 -45 -20 -70 50 -56 45 10 50 9
104 -26 31 -20 66 -41 78 -46 32 -14 175 -109 202 -134 6 -5 41 -38 77 -72 36
-35 70 -63 75 -63 6 0 12 -4 14 -9 2 -5 44 -45 93 -88 82 -71 158 -147 240
-242 17 -19 42 -45 57 -59 15 -13 36 -43 47 -66 10 -22 37 -59 58 -81 38 -39
82 -88 195 -216 31 -35 72 -85 90 -110 80 -111 194 -264 211 -281 9 -10 17
-21 17 -24 0 -3 26 -44 58 -91 31 -47 67 -102 78 -122 12 -19 27 -37 33 -39 6
-2 18 -18 26 -35 17 -37 37 -70 47 -77 4 -3 12 -17 17 -30 13 -30 69 -109 102
-143 13 -13 50 -54 82 -91 33 -36 63 -66 67 -66 5 0 39 -29 77 -65 180 -170
288 -263 364 -312 57 -35 139 -116 139 -136 0 -8 8 -25 19 -38 10 -13 22 -35
26 -49 4 -14 23 -58 42 -99 l35 -74 -23 -58 c-13 -32 -30 -60 -39 -62 -8 -2
-35 7 -61 19 -41 21 -69 55 -69 87 0 31 -109 63 -125 37 -3 -5 -17 -10 -30
-10 -13 0 -30 -7 -39 -15 -8 -8 -22 -15 -30 -15 -29 0 -45 -52 -76 -235 -22
-130 -49 -165 -98 -128 -14 10 -30 28 -36 38 -6 11 -19 32 -29 47 -18 28 -19
35 -18 273 1 114 -4 137 -27 133 -18 -3 -17 11 -25 -313 l-2 -90 -37 -3 c-31
-3 -40 2 -61 30 -36 49 -57 112 -57 169 0 28 -4 58 -9 68 -6 10 -6 33 -1 57 5
21 11 78 15 127 6 90 -4 131 -29 121 -10 -4 -14 -30 -15 -96 -1 -50 -6 -99
-11 -108 -11 -20 -13 -67 -7 -160 2 -36 0 -77 -5 -92 -16 -47 -32 -39 -117 56
-20 23 -22 31 -13 51 7 15 8 35 2 55 -5 17 -5 41 -1 53 5 13 7 43 5 67 -3 25
-6 101 -8 170 -3 101 -8 133 -24 165 -29 59 -139 165 -212 206 -14 8 -34 21
-45 30 -11 9 -36 22 -55 29 -19 8 -51 26 -70 42 -19 15 -39 28 -45 28 -12 0
-98 42 -105 52 -3 3 -39 25 -80 48 -41 23 -92 59 -112 79 -38 38 -139 120
-273 223 -44 33 -91 73 -105 88 -14 15 -41 37 -60 50 -39 27 -129 99 -175 142
-16 15 -61 53 -100 83 -61 49 -154 128 -189 160 -6 6 -36 29 -67 53 -31 23
-80 66 -110 95 -30 28 -68 62 -84 75 -17 12 -43 32 -58 45 -16 12 -123 117
-237 232 -229 230 -242 243 -283 295 -15 19 -54 62 -85 96 -82 88 -232 307
-232 340 0 6 -11 24 -25 40 -40 46 -56 115 -40 172 16 63 67 165 110 222 18
25 34 48 34 52 1 7 49 76 80 114 4 5 14 21 21 35 7 13 16 26 19 29 9 7 74 90
86 110 6 9 19 31 30 48 11 17 32 50 48 74 25 39 66 99 84 123 5 6 20 29 36 53
15 23 39 60 55 82 15 22 32 50 39 62 26 48 216 248 284 300 50 37 183 158 192
174 4 8 14 14 20 14 7 0 28 15 47 33 19 19 48 42 63 52 15 10 35 31 43 46 9
19 26 32 53 39 22 6 59 30 87 55 31 30 54 43 64 39 8 -3 24 -9 35 -12z m7061
-82 c20 -20 35 -28 49 -24 21 5 99 -36 173 -92 49 -38 391 -382 411 -415 20
-33 106 -131 196 -223 146 -151 255 -269 255 -277 0 -16 55 -36 170 -63 63
-15 149 -38 190 -53 41 -14 109 -31 150 -38 41 -7 89 -17 105 -23 17 -6 89
-25 160 -43 72 -17 142 -38 156 -45 14 -7 56 -23 95 -37 38 -13 92 -34 119
-47 28 -12 68 -31 90 -41 120 -53 128 -58 185 -100 19 -14 60 -36 90 -49 126
-53 210 -94 210 -100 0 -4 19 -15 43 -25 61 -27 178 -83 207 -100 14 -8 63
-32 110 -54 47 -22 109 -56 138 -76 30 -19 57 -35 60 -35 4 0 25 -14 46 -30
22 -17 44 -30 50 -30 6 0 43 -15 81 -34 104 -50 134 -62 205 -87 36 -12 69
-26 75 -31 5 -4 18 -8 30 -8 11 -1 38 -9 60 -20 22 -11 52 -19 67 -20 15 0 45
-6 65 -14 79 -30 194 -41 266 -27 29 6 66 12 82 15 58 9 100 19 110 26 19 14
90 17 215 8 69 -5 178 -10 242 -13 173 -6 263 -27 397 -93 77 -39 119 -66 129
-84 9 -15 14 -30 11 -33 -17 -17 -104 -21 -176 -8 -43 7 -99 13 -124 11 -28
-1 -56 4 -70 13 -62 39 -127 49 -137 22 -2 -7 11 -21 29 -30 48 -26 99 -78 99
-101 0 -11 11 -27 24 -35 23 -16 76 -108 76 -134 0 -7 18 -43 40 -79 22 -36
40 -72 40 -80 0 -8 13 -17 29 -20 16 -4 38 -16 49 -28 23 -26 47 -99 39 -119
-8 -20 -91 -47 -147 -47 -34 0 -66 10 -124 40 -51 26 -86 38 -100 34 -17 -4
-34 6 -72 41 -27 25 -73 62 -101 80 -29 19 -53 39 -53 45 0 5 -14 17 -31 26
-58 30 -214 10 -439 -56 -45 -14 -111 -24 -167 -26 -80 -3 -101 0 -160 22 -98
38 -154 54 -185 54 -21 0 -41 15 -80 57 -85 93 -140 143 -172 158 -110 50
-253 75 -561 95 -93 7 -192 18 -220 25 -51 15 -127 30 -200 41 -53 8 -111 20
-160 34 -22 6 -63 15 -92 20 -28 4 -56 11 -62 14 -5 4 -29 11 -53 16 -103 22
-216 49 -248 60 -19 6 -64 15 -100 19 -69 9 -258 49 -375 81 -124 33 -298 70
-380 80 -172 23 -358 74 -400 110 -11 9 -60 36 -110 60 -80 38 -165 93 -206
132 -8 7 -37 30 -64 50 -82 61 -106 82 -134 111 -14 15 -31 27 -37 27 -7 0
-14 3 -16 8 -1 4 -37 33 -79 64 -78 59 -90 69 -251 221 -148 140 -208 201
-208 210 0 5 -9 20 -20 34 -11 14 -23 43 -26 65 -5 29 -12 40 -30 44 -13 3
-37 21 -54 40 -30 34 -30 34 -14 75 19 46 10 65 -28 56 -29 -8 -54 -49 -61
-102 -8 -59 -18 -86 -42 -123 l-23 -33 0 43 c-1 40 41 148 61 156 4 2 7 12 7
22 0 22 34 123 55 160 47 87 75 146 75 156 0 6 7 17 15 24 8 7 15 22 15 34 0
11 9 32 20 46 11 14 20 30 20 37 0 7 6 16 13 20 11 7 56 69 82 113 30 51 80
114 153 195 39 43 97 84 119 85 6 0 24 -13 39 -30z m-6287 -1046 c6 -15 14
-45 18 -69 5 -37 2 -44 -22 -63 -35 -28 -98 -30 -122 -4 -49 51 -55 63 -41 79
23 28 112 83 134 83 13 0 25 -10 33 -26z m5761 15 c0 -14 -55 -69 -69 -69 -7
0 -7 8 -2 23 5 12 12 30 15 40 6 19 56 25 56 6z m-6179 -238 c-14 -16 -28 -25
-29 -20 -2 5 7 18 20 29 34 29 39 24 9 -9z m15071 -757 c4 -3 8 -18 8 -34 0
-23 -7 -30 -40 -44 -23 -9 -71 -16 -113 -17 -39 0 -92 -4 -117 -7 -55 -9 -257
10 -288 27 -26 14 -29 43 -6 62 8 7 45 16 82 19 71 7 461 2 474 -6z m-9843
-161 c16 -35 -1 -52 -23 -22 -9 13 -16 29 -16 36 0 23 26 14 39 -14z m9879 17
c9 -5 43 -12 74 -15 32 -4 60 -11 63 -16 4 -5 23 -9 44 -9 20 0 41 -4 47 -8 5
-5 36 -15 69 -22 61 -13 108 -30 157 -56 14 -8 34 -14 43 -14 9 0 40 -13 68
-28 29 -16 73 -37 100 -47 26 -10 47 -22 47 -26 0 -5 4 -9 10 -9 11 0 103 -68
108 -79 4 -13 -111 -41 -203 -51 -50 -5 -286 -10 -525 -10 -1105 -2 -1074 -3
-1215 25 -38 7 -106 18 -150 25 -211 30 -236 42 -189 91 49 53 166 127 201
128 12 1 57 14 100 30 43 15 107 33 143 39 36 6 122 21 192 33 91 16 130 19
140 12 16 -13 480 -8 573 5 85 13 83 13 103 2z m-2583 -340 c44 -5 107 -13
140 -19 33 -7 116 -12 185 -12 69 0 163 -4 210 -9 47 -5 126 -12 175 -15 105
-8 177 -20 205 -35 18 -10 20 -21 20 -115 0 -57 -4 -106 -10 -110 -11 -7 -139
-17 -190 -16 -67 3 -976 19 -1060 19 -99 1 -128 10 -168 51 -28 30 -38 46 -86
152 -45 98 -35 109 79 96 130 -15 246 -12 280 6 33 19 95 21 220 7z m-1095
-350 c13 0 32 -56 28 -86 -3 -29 -3 -29 -72 -28 -67 1 -70 2 -102 38 -19 21
-34 42 -34 46 0 5 24 13 53 19 28 5 61 12 72 14 11 3 26 3 33 1 8 -2 17 -4 22
-4z m-252 -42 c7 -7 12 -22 12 -35 0 -20 -5 -23 -39 -23 -22 0 -44 6 -51 15
-15 18 -15 17 25 38 37 20 38 20 53 5z m445 -103 c21 -20 37 -40 37 -45 0 -34
-87 -11 -96 26 -7 26 0 54 14 54 5 0 25 -16 45 -35z m3977 -1082 c-1 -22 -83
-93 -108 -93 -11 0 -13 9 -9 41 3 23 11 46 19 50 16 11 98 12 98 2z m-467 -32
c32 -3 -32 -71 -67 -71 -24 0 -56 32 -56 57 0 12 55 21 95 17 11 -1 23 -3 28
-3z m277 5 c0 -14 -50 -56 -65 -56 -19 0 -55 27 -55 41 0 4 10 10 23 12 32 6
97 8 97 3z m275 -18 c-4 -13 -15 -36 -26 -53 -10 -16 -41 -75 -70 -130 -41
-80 -49 -103 -40 -117 15 -24 14 -58 -2 -63 -6 -3 -116 -7 -242 -9 -127 -3
-274 -8 -327 -12 -67 -4 -98 -3 -98 4 0 6 5 14 10 17 6 4 8 11 5 16 -11 18
-17 55 -18 126 -1 40 -6 76 -12 81 -5 6 -55 13 -110 16 -99 7 -100 7 -147 -23
l-48 -31 0 -59 c0 -40 5 -63 15 -71 19 -16 20 -69 1 -76 -7 -3 -89 -6 -182 -8
-93 -2 -227 -6 -299 -10 -146 -8 -227 5 -233 37 -3 15 1 17 22 11 21 -5 26 -2
31 18 3 13 -1 40 -10 60 -8 21 -15 47 -15 59 0 12 -11 42 -25 66 -23 38 -24
44 -10 49 9 4 21 2 28 -5 6 -6 18 -11 27 -11 9 0 25 -9 35 -20 27 -30 44 -25
62 18 25 61 28 62 86 38 63 -27 117 -58 117 -68 0 -21 33 -3 78 44 l50 52 46
-42 c70 -65 122 -57 231 32 28 23 52 44 53 49 6 11 32 8 32 -4 0 -18 68 -78
96 -85 21 -5 32 0 59 29 19 20 45 43 59 52 23 15 27 15 41 2 8 -9 15 -20 15
-25 0 -5 14 -24 32 -41 51 -50 92 -41 167 37 l43 45 24 -31 c13 -17 45 -38 70
-48 39 -15 51 -16 81 -5 34 13 37 12 58 -15 20 -25 25 -27 48 -17 28 13 59 37
127 100 51 48 75 56 65 21z m-1096 -3 c7 -7 -31 -45 -61 -61 -29 -15 -76 -18
-94 -6 -17 11 -44 69 -36 77 7 7 182 -2 191 -10z m-306 -12 c-10 -29 -44 -73
-55 -73 -6 0 -35 16 -64 35 -29 19 -57 35 -63 35 -5 0 -13 5 -16 10 -4 6 31
10 99 10 96 0 105 -2 99 -17z m552 -3 c-20 -22 -40 -26 -50 -10 -11 17 5 30
37 30 30 0 31 0 13 -20z m-54 -186 c25 -5 27 -10 34 -77 3 -39 11 -79 16 -88
13 -25 -46 -43 -112 -34 -55 8 -57 10 -63 75 -2 25 -7 62 -11 82 -7 34 -5 39
16 48 22 9 54 7 120 -6z m-981 -110 c0 -34 -4 -65 -9 -69 -6 -3 -125 -5 -265
-5 -299 0 -311 2 -303 64 9 63 19 66 211 66 153 1 316 8 324 15 2 2 12 1 23
-2 16 -5 19 -14 19 -69z m2534 67 c10 -16 -17 -110 -36 -128 -16 -14 -37 -17
-121 -15 -56 1 -129 7 -162 12 -33 5 -128 10 -211 10 -137 0 -153 2 -169 20
-23 26 -13 68 21 80 14 6 89 11 167 11 78 1 171 5 207 9 97 11 298 11 304 1z
m-15577 -87 c130 -44 156 -62 165 -117 3 -23 10 -61 14 -85 7 -44 -8 -92 -30
-92 -24 0 -325 170 -346 195 -19 23 -25 99 -9 112 39 31 84 28 206 -13z m1016
-465 c4 -14 14 -19 42 -19 20 0 51 -6 68 -14 18 -8 84 -38 147 -66 63 -28 117
-55 120 -59 3 -4 28 -13 55 -21 28 -7 66 -25 85 -39 73 -54 124 -74 132 -50 4
11 26 3 143 -51 22 -10 72 -31 110 -45 39 -14 86 -36 105 -48 44 -29 110 -60
174 -81 28 -10 77 -30 110 -46 34 -15 81 -36 106 -45 25 -9 68 -28 96 -41 28
-13 55 -24 59 -24 4 0 33 -12 64 -26 68 -32 131 -60 151 -68 8 -4 29 -15 45
-26 17 -11 46 -27 65 -36 19 -9 68 -31 108 -50 41 -19 78 -34 83 -34 9 0 141
-70 149 -80 3 -3 32 -16 65 -29 33 -12 80 -31 105 -41 90 -36 94 -36 275 20
93 28 222 47 265 39 19 -4 72 -14 118 -23 79 -15 114 -28 210 -81 47 -25 148
-101 160 -119 4 -6 41 -37 82 -68 104 -79 206 -177 239 -230 25 -39 28 -52 26
-118 -4 -103 -11 -127 -61 -186 -48 -56 -60 -61 -214 -83 -176 -25 -268 -20
-374 19 -28 10 -81 29 -117 43 -36 13 -108 34 -160 47 -52 13 -108 29 -126 36
-76 32 -183 125 -183 159 0 9 -4 23 -9 33 -44 80 -53 111 -46 149 5 21 7 49 6
63 -4 40 -65 94 -126 114 -30 9 -55 20 -55 24 0 10 -101 56 -215 97 -111 40
-259 101 -290 119 -11 6 -45 21 -75 33 -30 11 -82 31 -115 44 -33 13 -88 38
-122 56 -34 19 -85 40 -111 48 -27 8 -96 35 -153 60 -57 25 -108 45 -112 45
-5 0 -39 12 -75 26 -235 92 -445 191 -483 227 -14 14 -36 28 -50 32 -33 10
-192 95 -204 109 -5 6 -21 12 -35 14 -14 2 -54 17 -90 33 -183 84 -216 110
-231 189 -7 39 -7 63 0 82 9 25 13 27 35 17 13 -6 27 -20 29 -30z m66 -282
c36 -12 66 -27 68 -33 4 -13 -35 -30 -89 -40 -67 -11 -125 45 -86 84 16 16 32
15 107 -11z"/>
<path d="M4374 16313 c-17 -15 -47 -54 -68 -86 -21 -31 -47 -63 -57 -71 -10
-7 -61 -53 -112 -103 -51 -49 -105 -98 -120 -108 -32 -20 -34 -58 -4 -63 17
-3 140 109 289 263 110 115 126 131 142 143 24 19 16 46 -15 50 -17 2 -35 -6
-55 -25z"/>
<path d="M5541 16199 c-138 -13 -280 -94 -353 -202 -33 -47 -34 -53 -11 -61
11 -4 32 4 57 24 107 81 151 104 211 111 116 14 264 -9 302 -46 11 -12 19 -12
35 -4 51 27 -20 163 -91 174 -64 10 -75 11 -150 4z"/>
<path d="M6584 16154 c-56 -20 -123 -91 -131 -137 -5 -31 -3 -37 12 -37 10 0
27 10 39 23 48 49 77 64 137 70 42 5 72 2 102 -9 23 -8 50 -18 60 -21 9 -3 17
-9 17 -14 0 -4 17 -13 38 -19 25 -6 44 -19 52 -36 16 -29 45 -48 61 -39 17 11
-2 97 -28 132 -33 43 -113 80 -188 87 -33 3 -76 7 -95 10 -19 3 -53 -1 -76
-10z"/>
<path d="M6326 15938 c-40 -23 -67 -54 -91 -103 -63 -134 -64 -139 -50 -270 7
-71 21 -91 98 -153 9 -6 21 -30 27 -52 6 -22 14 -40 19 -40 13 0 61 -106 61
-135 0 -24 -17 -47 -69 -88 -30 -24 -23 -51 14 -55 17 -2 35 -8 41 -13 7 -6
26 -5 50 3 29 10 40 19 42 37 2 13 -1 28 -7 34 -6 6 -11 34 -11 62 0 53 -15
104 -40 145 -9 14 -27 47 -40 73 -14 27 -48 73 -77 102 -56 58 -52 46 -56 195
-2 47 36 123 90 179 54 58 54 111 -1 79z"/>
<path d="M5440 15854 c-25 -18 -54 -38 -65 -43 -32 -14 -91 -85 -105 -125 -17
-54 -11 -82 20 -78 41 4 43 4 85 -9 22 -6 63 -13 90 -14 28 -1 66 -5 85 -8 35
-7 81 5 130 33 14 7 37 13 52 12 14 -1 33 5 42 14 35 35 10 108 -61 178 -55
55 -106 76 -178 75 -41 0 -58 -6 -95 -35z m32 -111 c-5 -57 -26 -86 -56 -77
-24 7 -56 33 -56 45 0 8 99 79 110 79 3 0 4 -21 2 -47z m176 21 c18 -5 20 -9
11 -20 -15 -18 -59 -18 -59 -1 0 26 11 30 48 21z"/>
<path d="M6733 15834 c-56 -28 -227 -189 -238 -225 -9 -28 21 -59 61 -61 16 0
64 3 106 7 52 5 82 4 91 -3 15 -13 113 -18 172 -9 22 3 46 6 53 6 14 1 16 34
3 59 -13 24 -31 105 -31 140 0 31 -36 70 -83 90 -39 17 -96 15 -134 -4z m-23
-109 c0 -3 -4 -13 -9 -23 -6 -9 -12 -29 -15 -44 -6 -28 -32 -43 -60 -32 -24 9
-20 24 21 66 32 33 63 49 63 33z"/>
<path d="M6019 15202 c-65 -34 -108 -91 -109 -144 0 -43 6 -49 38 -37 16 6 22
16 22 40 0 48 52 94 123 109 38 7 57 16 57 26 0 8 -6 16 -12 18 -51 16 -69 14
-119 -12z"/>
<path d="M6091 15114 c-25 -32 -26 -38 -5 -59 22 -21 42 -16 68 18 16 21 18
32 10 45 -18 28 -49 26 -73 -4z"/>
<path d="M7051 15042 c-11 -20 -8 -39 16 -115 12 -40 19 -48 36 -45 19 3 22 9
21 49 0 82 -49 156 -73 111z"/>
<path d="M6803 14944 c-3 -9 -1 -38 6 -66 15 -68 15 -71 -16 -106 -16 -17 -39
-43 -53 -59 -37 -42 -105 -93 -169 -126 -31 -16 -63 -34 -71 -41 -21 -17 -96
-53 -149 -71 -60 -21 -117 -19 -187 6 -32 11 -70 23 -84 26 -14 3 -44 18 -67
34 -23 15 -79 45 -125 67 -46 23 -103 58 -128 80 -45 40 -45 40 -31 73 19 47
20 93 1 97 -9 1 -29 -15 -45 -37 -17 -22 -42 -45 -57 -52 -20 -8 -28 -19 -28
-36 0 -13 -16 -45 -35 -70 -19 -25 -35 -52 -35 -59 0 -19 45 -18 60 1 7 9 26
25 42 36 l29 21 48 -44 c26 -23 69 -62 95 -85 26 -24 60 -46 74 -49 15 -4 36
-14 47 -24 40 -34 177 -81 255 -87 41 -3 82 -9 90 -13 8 -4 49 -5 90 -1 128
13 181 45 356 218 83 81 155 156 161 167 10 17 11 18 36 1 14 -9 31 -14 37
-10 16 10 12 61 -7 76 -9 8 -36 44 -60 82 -44 66 -68 82 -80 51z"/>
<path d="M5452 14920 c-26 -28 -62 -98 -62 -121 0 -40 30 -33 75 17 49 55 58
96 25 114 -15 8 -23 6 -38 -10z"/>
<path d="M4925 14640 c-3 -5 -1 -10 4 -10 6 0 11 5 11 10 0 6 -2 10 -4 10 -3
0 -8 -4 -11 -10z"/>
<path d="M9332 10969 c-15 -24 -13 -32 7 -20 7 5 11 16 9 25 -2 14 -5 13 -16
-5z"/>
<path d="M7442 5217 c-59 -24 -152 -109 -152 -137 0 -38 31 -31 72 15 52 59
108 89 163 87 140 -5 190 -13 247 -39 35 -15 74 -35 88 -44 14 -9 58 -38 98
-63 39 -26 72 -53 72 -61 0 -10 10 -15 30 -15 25 0 30 4 30 23 0 12 -8 32 -18
44 -29 36 -191 143 -246 162 -114 40 -134 44 -230 47 -87 3 -108 1 -154 -19z"/>
<path d="M6107 8106 c-15 -23 -16 -26 -2 -26 17 0 29 22 23 41 -2 6 -12 0 -21
-15z"/>
<path d="M17825 6064 c-195 -31 -227 -46 -350 -158 -91 -83 -144 -221 -162
-420 -5 -54 -3 -61 31 -110 20 -29 36 -58 36 -64 0 -7 5 -12 10 -12 6 0 10 -6
10 -12 1 -20 154 -200 185 -216 15 -8 51 -18 79 -23 28 -4 76 -13 106 -19 60
-11 81 -9 215 22 85 20 134 38 159 59 6 6 26 20 44 34 55 39 112 95 112 110 0
8 8 20 19 27 60 42 99 225 68 318 -8 25 -20 69 -26 99 -8 35 -23 69 -45 95
-18 23 -37 52 -41 66 -10 31 -47 91 -66 106 -8 6 -38 17 -67 24 -29 7 -58 20
-65 30 -6 9 -28 20 -47 24 -19 3 -48 13 -64 21 -32 17 -32 17 -141 -1z m121
-59 c11 -3 31 -14 45 -26 13 -12 41 -32 62 -45 33 -22 36 -26 25 -44 -16 -25
-19 -25 -65 3 -76 45 -248 22 -366 -50 -110 -66 -128 -85 -156 -163 -27 -75
-31 -147 -11 -205 26 -76 55 -110 119 -142 31 -15 79 -41 106 -58 47 -28 56
-30 155 -30 89 0 112 3 151 23 83 40 159 134 159 195 0 12 5 28 11 34 15 15
19 108 5 131 -30 52 -96 183 -96 191 0 5 17 11 38 13 34 3 37 6 40 36 2 17 5
32 7 32 12 0 35 -14 35 -21 0 -8 54 -91 85 -129 6 -8 17 -46 25 -85 7 -38 17
-76 23 -83 19 -24 0 -157 -33 -221 -67 -134 -187 -216 -387 -266 l-112 -28
-63 21 c-36 12 -77 22 -92 22 -29 0 -82 24 -88 39 -1 6 -18 27 -36 48 -51 58
-172 249 -172 271 0 49 52 257 72 290 53 87 229 222 288 222 17 0 30 5 30 10
0 6 22 10 49 10 28 0 53 4 56 10 5 8 27 7 91 -5z m7 -151 c20 -4 37 -12 37
-18 0 -6 18 -30 40 -53 22 -24 54 -67 71 -98 17 -30 35 -58 40 -61 16 -10 10
-92 -12 -150 -24 -63 -74 -119 -137 -152 -33 -17 -59 -22 -120 -22 -90 0 -134
14 -233 72 -59 35 -79 53 -97 88 -32 62 -25 148 19 230 26 49 40 63 87 88 32
16 73 33 92 37 19 4 37 11 40 14 7 9 78 28 110 30 14 0 42 -2 63 -5z"/>
<path d="M9624 6019 c-15 -17 -16 -19 -1 -19 10 0 18 -6 19 -12 0 -7 2 -17 3
-23 2 -5 3 -17 4 -27 1 -13 7 -15 29 -9 22 6 28 14 30 44 3 29 -1 38 -15 43
-10 3 -25 9 -34 14 -12 6 -22 3 -35 -11z"/>
<path d="M20941 6000 c-24 -11 -48 -20 -55 -20 -6 0 -28 -9 -49 -20 -20 -11
-45 -20 -54 -20 -10 0 -29 -12 -42 -25 -12 -14 -26 -23 -31 -20 -4 2 -34 -24
-67 -58 -56 -58 -101 -131 -137 -221 -17 -40 -20 -155 -8 -233 12 -75 124
-194 217 -231 65 -26 231 -62 285 -62 34 0 101 19 144 42 37 18 126 81 126 88
0 4 12 25 27 46 14 21 34 65 44 97 10 32 23 67 29 78 19 34 15 237 -4 289 -10
25 -22 68 -26 95 -11 61 -53 103 -160 158 -60 31 -82 37 -134 37 -39 0 -77 -8
-105 -20z m133 -129 c16 -9 38 -21 49 -28 27 -15 47 -6 47 22 0 21 17 35 41
35 5 0 9 -9 9 -20 0 -11 5 -20 11 -20 6 0 8 8 5 18 -4 12 -1 11 13 -5 11 -13
24 -23 30 -23 6 0 11 -15 11 -32 0 -18 10 -49 22 -68 21 -32 23 -47 22 -155
-1 -116 -14 -196 -37 -224 -6 -7 -12 -18 -13 -25 -3 -20 -54 -90 -83 -113 -15
-11 -55 -36 -90 -53 -60 -31 -67 -32 -150 -27 -180 12 -233 31 -327 119 -86
81 -94 102 -91 231 2 94 5 109 25 130 12 13 22 28 22 34 0 5 17 36 38 69 28
43 50 65 83 80 24 12 69 33 98 48 61 29 81 32 81 14 0 -10 2 -10 8 -1 16 26
126 22 176 -6z"/>
<path d="M20980 5830 c-168 -16 -308 -151 -325 -315 -6 -54 -4 -70 11 -92 39
-60 92 -107 150 -134 52 -24 77 -29 160 -31 103 -3 152 11 210 59 32 26 62 92
70 151 6 46 3 59 -26 114 -20 40 -35 87 -40 128 -8 58 -13 69 -45 97 -38 33
-46 34 -165 23z m105 -70 c3 -5 15 -10 25 -10 25 0 30 -10 37 -71 3 -28 12
-56 19 -64 18 -18 44 -94 44 -130 0 -45 -40 -106 -90 -140 -41 -27 -52 -30
-120 -29 -41 1 -101 6 -133 13 -48 11 -65 21 -107 63 l-50 51 0 67 c0 65 2 71
44 127 35 46 59 65 118 95 62 32 83 37 140 38 37 0 70 -4 73 -10z"/>
</g>
</svg>
