<?xml version="1.0" standalone="no"?>
<!DOCTYPE svg PUBLIC "-//W3C//DTD SVG 20010904//EN"
 "http://www.w3.org/TR/2001/REC-SVG-20010904/DTD/svg10.dtd">
<svg version="1.0" xmlns="http://www.w3.org/2000/svg"
 width="1973.000000pt" height="1482.000000pt" viewBox="0 0 1973.000000 1482.000000"
 preserveAspectRatio="xMidYMid meet">

<g transform="translate(0.000000,1482.000000) scale(0.100000,-0.100000)"
fill="#000000" stroke="none">
<path d="M4990 13631 c-65 -10 -161 -63 -217 -119 -93 -93 -124 -241 -73 -347
13 -27 26 -52 30 -55 3 -3 16 -21 27 -40 32 -52 157 -160 292 -252 18 -13 57
-43 86 -68 29 -25 83 -65 120 -90 37 -25 72 -49 78 -55 7 -5 35 -25 62 -44 57
-40 98 -71 158 -122 23 -19 69 -53 102 -74 33 -21 76 -51 95 -67 19 -15 40
-28 47 -28 7 0 13 -9 13 -21 0 -24 60 -82 124 -121 24 -14 63 -50 85 -80 23
-29 60 -73 82 -98 61 -68 87 -114 139 -243 31 -78 31 -78 12 -105 -28 -39 -60
-137 -71 -213 -5 -37 -14 -76 -20 -86 -9 -17 -25 -178 -23 -227 1 -10 8 -26
16 -35 27 -29 48 -93 53 -161 3 -36 12 -80 19 -99 10 -25 13 -55 8 -105 -5
-56 -1 -87 15 -146 12 -41 21 -82 21 -90 0 -10 -30 -30 -81 -54 -73 -34 -80
-40 -75 -61 7 -27 -9 -40 -114 -95 -36 -18 -92 -50 -125 -69 -33 -20 -76 -43
-95 -51 -19 -7 -66 -32 -105 -55 -38 -23 -99 -58 -135 -78 -67 -36 -194 -116
-317 -198 -37 -25 -88 -56 -113 -69 -25 -12 -52 -28 -60 -34 -8 -7 -33 -21
-55 -31 -22 -11 -41 -23 -43 -27 -6 -13 -138 -105 -183 -128 -24 -13 -46 -26
-49 -29 -11 -16 -101 -62 -109 -56 -5 3 -17 2 -26 -1 -14 -6 -16 -16 -12 -63
3 -31 13 -87 21 -126 9 -38 21 -158 27 -265 5 -107 13 -211 16 -230 2 -19 8
-100 13 -180 8 -142 22 -247 39 -293 13 -33 38 -180 45 -257 6 -60 12 -109 32
-230 3 -25 11 -50 15 -56 12 -15 15 -165 7 -345 -4 -94 -2 -181 6 -242 6 -53
11 -115 10 -139 -2 -79 -16 -322 -21 -368 -2 -25 -6 -132 -8 -239 -2 -106 -7
-201 -10 -210 -28 -67 -32 -181 -25 -746 1 -159 -1 -318 -5 -352 -4 -37 -3
-95 4 -140 6 -43 13 -161 16 -263 4 -102 10 -203 15 -225 5 -22 6 -67 2 -100
-9 -94 -4 -183 14 -270 10 -44 19 -129 21 -190 3 -140 7 -157 36 -153 19 3 22
9 21 48 -3 134 -8 185 -26 290 -28 161 -32 213 -18 239 8 17 9 45 1 114 -6 51
-13 166 -15 257 -2 91 -9 212 -16 270 -9 79 -9 122 -1 172 11 69 7 448 -8 653
-8 111 3 305 19 345 13 33 28 267 20 322 -3 24 -3 66 1 93 25 186 32 312 26
528 l-5 232 37 42 37 41 41 -26 c22 -15 116 -78 208 -139 92 -62 173 -113 180
-113 6 0 20 -9 30 -20 25 -27 61 -26 68 2 6 20 11 18 64 -35 76 -74 137 -117
167 -117 21 0 58 -22 95 -58 7 -7 30 -21 51 -32 21 -11 44 -25 51 -32 20 -19
199 -152 234 -174 17 -10 64 -43 105 -74 72 -53 162 -110 207 -129 11 -6 24
-15 28 -20 3 -6 25 -20 48 -31 23 -11 51 -26 62 -33 85 -52 125 -77 160 -98
62 -37 70 -43 101 -63 114 -76 203 -130 270 -164 95 -48 123 -72 153 -134 21
-45 112 -138 133 -138 6 0 27 -10 47 -22 56 -35 112 -46 175 -35 60 11 63 10
211 -59 39 -18 93 -40 120 -49 52 -18 117 -45 290 -122 55 -24 109 -48 120
-53 91 -36 339 -167 423 -222 56 -37 104 -68 107 -68 2 0 23 -13 47 -29 24
-16 62 -39 86 -51 23 -12 44 -26 47 -30 3 -4 24 -18 46 -30 37 -18 74 -43 213
-136 33 -23 239 -140 313 -179 23 -13 54 -31 70 -43 15 -11 51 -32 78 -47 28
-16 66 -37 85 -48 95 -53 182 -105 245 -147 67 -45 117 -74 215 -127 24 -13
51 -30 60 -37 14 -12 48 -32 195 -111 64 -34 95 -52 190 -108 33 -20 92 -52
130 -72 39 -20 84 -48 102 -61 17 -13 35 -24 38 -24 4 0 41 -21 83 -47 104
-63 172 -101 202 -115 14 -6 115 -55 225 -110 195 -96 235 -118 407 -224 83
-52 146 -86 313 -172 50 -26 92 -50 95 -53 3 -3 25 -16 50 -28 55 -26 100 -52
117 -68 7 -6 30 -17 50 -24 21 -7 78 -39 127 -71 49 -32 107 -69 130 -82 105
-59 124 -70 163 -98 24 -16 43 -26 43 -22 0 4 10 -2 23 -13 61 -57 266 -154
452 -214 55 -17 142 -54 194 -80 52 -27 101 -49 110 -49 22 -1 51 -24 51 -41
0 -8 -9 -39 -20 -69 -24 -65 -25 -93 -5 -110 11 -10 14 -35 10 -131 -2 -65 -6
-123 -10 -129 -4 -7 -9 -91 -11 -188 -1 -97 -6 -195 -9 -217 -7 -49 -33 -169
-46 -212 -5 -17 -14 -105 -19 -195 -5 -90 -16 -221 -25 -293 -19 -165 -19
-227 1 -312 12 -51 14 -91 9 -163 -3 -52 -8 -141 -11 -197 -4 -95 -3 -103 15
-103 25 0 30 29 41 220 10 159 5 255 -13 278 -12 15 -3 277 14 397 6 44 12
132 13 195 2 107 7 139 36 260 27 110 31 146 35 323 2 104 8 203 14 220 5 18
12 100 16 182 7 174 27 263 59 270 117 23 184 42 214 62 19 14 58 34 86 46 28
12 80 37 116 56 36 19 83 43 105 53 22 11 47 24 55 29 8 5 31 17 50 25 19 9
42 21 50 28 8 7 35 21 60 31 25 10 104 57 175 104 72 47 135 88 140 90 37 14
265 132 340 176 49 29 117 67 150 84 33 18 67 36 75 41 8 5 87 44 175 86 166
80 248 128 300 173 17 15 57 39 89 55 60 29 77 49 58 68 -19 19 -101 -27 -188
-102 -56 -49 -114 -82 -303 -172 -91 -43 -169 -82 -175 -87 -6 -5 -49 -28 -96
-52 -46 -24 -107 -58 -135 -77 -27 -18 -115 -65 -194 -103 -80 -39 -176 -92
-215 -118 -138 -92 -433 -250 -564 -301 -31 -13 -94 -40 -139 -61 -45 -21 -97
-39 -114 -41 -31 -3 -33 -1 -41 36 -7 31 -5 41 9 51 14 11 15 15 4 29 -15 18
-8 91 15 166 32 107 52 285 59 535 2 101 10 181 24 244 12 52 21 114 21 139 0
24 9 78 19 120 10 43 22 125 25 184 11 202 38 251 152 278 69 17 158 58 199
93 33 26 162 102 193 111 11 4 27 15 37 26 10 11 27 20 37 20 19 0 85 57 76
65 -6 6 -65 -12 -93 -27 -11 -6 -63 -33 -115 -59 -52 -27 -117 -64 -145 -83
-108 -77 -209 -110 -370 -122 -127 -9 -227 18 -448 120 -42 20 -79 36 -82 36
-3 0 -24 8 -48 18 -23 10 -82 32 -132 48 -97 31 -375 164 -502 240 -43 26 -98
58 -123 72 -25 13 -67 37 -95 52 -27 16 -129 68 -225 117 -213 109 -247 129
-415 245 -44 31 -96 62 -115 71 -38 16 -236 109 -340 159 -36 18 -79 42 -97
55 -38 28 -228 128 -263 138 -14 4 -52 24 -85 44 -33 20 -107 58 -165 85 -240
111 -358 171 -406 207 -50 37 -343 184 -518 260 -49 21 -103 50 -122 64 -18
14 -35 25 -38 25 -3 0 -40 20 -83 45 -43 25 -85 49 -93 54 -30 17 -21 37 27
60 26 12 73 39 103 59 30 20 71 45 91 56 119 68 175 96 185 96 7 0 26 11 42
25 17 14 32 25 35 25 3 0 31 15 64 33 69 40 156 60 237 55 l59 -3 47 -88 c26
-48 57 -99 70 -114 12 -14 38 -46 57 -72 36 -47 84 -98 252 -270 52 -53 124
-127 159 -166 36 -38 81 -82 101 -97 20 -15 44 -40 55 -55 37 -57 164 -128
361 -202 33 -12 76 -29 95 -38 46 -20 383 -79 510 -89 30 -3 98 -9 150 -15 52
-6 120 -12 150 -15 109 -10 120 -13 120 -37 0 -12 -7 -35 -15 -51 -17 -33 -19
-62 -5 -71 7 -4 8 -38 4 -94 -8 -110 0 -121 76 -96 40 13 57 15 82 6 18 -6 35
-8 39 -4 11 11 29 119 29 171 0 29 7 53 20 69 15 19 17 30 10 43 -6 10 -10 29
-10 41 0 22 0 22 138 14 213 -11 432 -13 487 -4 28 4 91 13 140 20 96 13 154
24 330 63 61 14 130 25 155 25 25 1 78 10 118 21 39 11 83 20 96 20 14 0 37 5
53 12 15 6 32 10 37 9 24 -6 260 83 291 109 37 31 90 57 128 63 20 3 50 15 66
26 16 12 36 21 44 21 8 0 20 7 27 15 7 8 23 15 36 15 13 0 33 9 45 21 12 12
27 22 35 23 16 2 102 71 120 96 51 67 61 73 118 72 30 0 79 -5 109 -12 30 -6
69 -11 88 -11 108 1 249 -25 257 -47 6 -18 40 -14 50 6 5 9 12 37 16 61 4 24
22 89 41 145 38 110 45 170 19 180 -9 3 -54 6 -101 6 -77 0 -157 13 -175 29
-3 3 -8 45 -11 93 -5 91 -10 108 -31 108 -9 0 -15 -26 -20 -86 -3 -48 -9 -90
-11 -95 -4 -6 -60 6 -73 17 -2 1 2 11 9 22 30 48 -24 71 -63 27 -11 -13 -37
-30 -56 -36 -19 -6 -48 -26 -64 -45 -36 -40 -108 -84 -140 -84 -14 0 -37 -13
-53 -30 -16 -17 -34 -30 -40 -30 -7 0 -39 -13 -71 -29 -102 -50 -136 -63 -178
-68 -25 -4 -53 -16 -71 -32 -37 -34 -93 -51 -315 -95 -209 -41 -392 -65 -620
-81 -98 -6 -687 -7 -858 -1 -123 5 -134 7 -153 28 -18 22 -20 22 -33 6 -16
-22 -81 -24 -116 -3 -47 27 -51 27 -69 11 -18 -16 -23 -16 -88 2 -76 21 -179
42 -209 42 -22 0 -186 51 -284 88 -76 28 -154 67 -192 94 -15 10 -42 24 -61
31 -39 14 -245 127 -362 198 -44 27 -89 53 -100 58 -11 5 -37 21 -58 35 -21
14 -42 26 -47 26 -12 0 -190 191 -190 205 0 6 -13 52 -30 102 -25 79 -28 100
-23 163 l6 72 73 35 c40 19 99 41 131 49 32 8 74 19 93 25 30 8 87 17 276 45
62 9 114 -21 145 -85 26 -56 41 -67 63 -46 11 12 13 52 10 220 -3 170 -2 205
10 205 16 0 27 23 18 36 -4 5 -24 18 -45 29 l-38 20 -17 -22 c-11 -15 -43 -30
-91 -44 -83 -22 -186 -64 -334 -133 -55 -25 -101 -46 -103 -46 -2 0 -32 -13
-67 -29 -35 -16 -102 -43 -148 -59 -46 -17 -124 -47 -174 -67 -105 -44 -313
-115 -335 -115 -9 0 -24 14 -34 30 -30 51 -125 158 -146 165 -28 9 -25 32 6
39 14 4 86 36 160 71 74 36 137 65 141 65 4 0 38 15 77 34 39 19 113 51 163
71 77 30 380 174 470 224 23 12 28 11 52 -8 126 -101 304 -200 336 -188 33 13
11 36 -80 80 -52 26 -97 52 -100 57 -3 5 -22 17 -42 27 -44 20 -190 163 -203
198 -12 32 -33 32 -54 -1 -22 -33 -17 -57 13 -64 32 -7 49 -34 33 -53 -15 -18
-275 -148 -442 -220 -69 -30 -210 -94 -315 -142 -275 -125 -320 -141 -359
-127 -18 7 -49 12 -69 12 -31 0 -39 -5 -47 -25 -7 -18 -29 -34 -77 -56 -38
-17 -90 -41 -118 -54 -27 -13 -84 -35 -125 -48 -41 -14 -97 -34 -125 -46 -102
-42 -412 -158 -455 -171 -25 -7 -67 -20 -95 -30 -27 -10 -127 -41 -222 -69
-94 -28 -178 -54 -187 -57 -12 -5 -16 0 -16 19 0 23 -43 67 -65 67 -3 0 -26
14 -50 30 -24 17 -47 30 -51 30 -4 0 -15 6 -23 14 -26 23 -386 196 -408 196
-3 0 -45 19 -92 42 -47 22 -106 49 -131 59 -25 9 -112 47 -195 84 -82 37 -177
78 -210 91 -33 14 -68 29 -77 34 -10 6 -23 10 -29 10 -6 0 -39 14 -73 31 -33
17 -111 53 -173 80 -62 26 -141 65 -177 86 -78 46 -152 88 -226 128 -30 17
-64 36 -75 42 -11 7 -78 40 -150 74 -71 34 -175 91 -230 127 -229 149 -320
205 -420 257 -121 65 -159 86 -192 111 -18 14 -63 41 -100 60 -37 20 -92 53
-122 74 -31 20 -90 54 -130 75 -41 20 -93 49 -115 63 -23 14 -77 44 -121 67
-126 67 -235 143 -302 212 -67 70 -104 143 -86 171 12 20 84 74 133 101 34 18
112 73 175 123 16 12 86 57 156 98 70 41 181 111 246 155 65 44 142 92 172
108 30 15 77 43 105 62 28 18 74 43 101 55 73 33 104 48 160 80 28 16 106 57
175 90 69 34 136 72 150 84 39 36 59 39 69 13 15 -39 43 -227 48 -322 3 -49
12 -119 20 -155 8 -36 18 -112 22 -170 5 -66 14 -117 24 -137 9 -18 17 -50 17
-71 0 -38 -1 -40 -37 -45 -21 -2 -42 -2 -47 1 -13 7 1 101 19 129 17 25 13 43
-9 43 -21 0 -43 -32 -62 -90 -20 -65 -49 -100 -81 -100 -43 0 -41 26 13 186
17 48 79 111 114 116 29 4 39 35 15 44 -23 9 -93 -28 -131 -68 -17 -18 -39
-58 -49 -88 -9 -30 -26 -74 -36 -98 -11 -23 -19 -53 -19 -67 0 -38 -23 -51
-122 -69 -51 -10 -111 -22 -133 -27 -22 -6 -81 -11 -130 -12 -85 -2 -90 -3
-93 -24 -2 -13 2 -23 8 -23 7 0 9 -7 6 -16 -3 -8 2 -30 11 -47 9 -18 18 -57
20 -87 2 -30 8 -59 14 -65 5 -5 9 -20 9 -35 0 -14 9 -40 20 -57 19 -32 21 -33
90 -33 39 0 101 6 138 14 37 8 116 22 176 31 l109 17 61 -60 c33 -32 77 -70
96 -83 19 -12 37 -26 40 -29 6 -7 82 -55 150 -95 28 -16 70 -45 93 -62 23 -18
46 -33 50 -33 11 0 65 -24 137 -60 30 -15 73 -33 95 -40 22 -7 53 -21 70 -31
16 -11 38 -19 48 -19 9 0 25 -4 35 -9 9 -5 44 -15 77 -21 68 -13 191 -48 217
-61 10 -5 31 -9 48 -9 17 0 72 -9 123 -19 127 -27 168 -34 197 -36 14 -1 81
-10 150 -20 127 -19 141 -19 314 -16 71 2 102 -2 111 -11 24 -26 37 -161 25
-250 -6 -45 -16 -91 -22 -101 -16 -30 -2 -50 30 -43 15 4 63 11 107 17 197 23
195 22 196 78 1 70 24 162 43 173 16 9 18 21 15 87 l-4 76 90 7 c99 8 299 48
385 78 30 10 72 22 93 26 20 3 48 15 61 25 29 23 146 79 164 79 15 0 102 43
152 76 19 12 49 26 65 30 43 10 152 67 211 111 128 94 152 115 197 168 26 32
47 61 47 66 0 5 23 42 50 82 28 41 50 79 50 86 0 7 10 27 23 44 24 34 47 92
47 120 0 22 64 23 189 1 108 -19 123 -13 166 61 20 34 26 56 25 92 -2 27 -2
76 -1 110 l1 62 50 -2 c27 -1 52 2 56 5 17 18 -9 36 -68 47 -34 7 -73 17 -84
23 -14 6 -28 7 -40 0 -24 -12 -237 -24 -287 -16 -30 5 -39 12 -43 33 -8 33
-73 151 -83 151 -4 0 -25 17 -47 38 -61 61 -173 152 -186 152 -6 0 -28 7 -49
16 -45 21 -48 33 -43 199 1 66 5 253 9 415 7 348 27 550 62 627 22 50 23 59
18 210 -3 96 -11 174 -20 198 -7 22 -16 51 -19 65 -7 32 -63 90 -112 114 -22
11 -64 34 -94 52 -64 38 -94 50 -253 99 -72 23 -117 41 -114 48 2 7 19 22 38
34 53 35 99 67 112 79 13 11 146 94 152 94 2 0 26 16 55 35 28 19 108 62 178
95 70 33 138 67 152 75 14 8 57 31 95 51 39 20 81 47 95 59 14 13 51 36 82 50
66 30 75 40 57 61 -19 23 -51 10 -168 -68 -58 -39 -187 -110 -286 -158 -157
-76 -409 -223 -456 -266 -8 -8 -18 -14 -22 -14 -3 0 -43 -23 -88 -50 -94 -57
-75 -57 -279 -8 -150 35 -215 48 -295 58 -98 12 -296 40 -350 50 -101 19 -416
25 -635 13 -228 -13 -319 -23 -548 -59 -52 -8 -112 -12 -136 -9 -33 5 -47 3
-60 -10 -28 -29 -90 -15 -191 44 -49 29 -112 70 -140 92 -27 22 -94 69 -147
104 -54 36 -128 93 -165 128 -38 35 -90 79 -118 98 -77 52 -108 79 -282 246
-166 158 -256 236 -328 281 -22 14 -71 55 -110 92 -108 104 -239 198 -360 262
-130 69 -187 83 -275 69z m157 -77 c113 -44 169 -75 278 -156 57 -43 108 -78
114 -78 6 0 11 -4 11 -9 0 -9 175 -164 193 -170 17 -6 144 -111 187 -154 19
-19 40 -40 45 -45 6 -5 70 -67 143 -138 l133 -129 -42 -17 c-71 -31 -221 -170
-285 -265 -50 -76 -62 -80 -131 -43 -97 51 -173 103 -373 255 -19 15 -76 57
-127 93 -156 114 -327 244 -343 261 -8 9 -37 34 -64 55 -94 76 -176 218 -163
284 22 111 81 190 178 239 99 50 151 54 246 17z m1232 -969 c15 -14 13 -18
-18 -43 -19 -15 -49 -36 -67 -47 -17 -11 -55 -36 -85 -56 -50 -33 -101 -54
-191 -77 -30 -8 -38 -7 -38 3 0 41 196 230 248 238 49 9 135 -1 151 -18z m99
-86 c36 -27 259 -192 297 -219 94 -66 155 -114 155 -120 0 -9 -193 -100 -212
-100 -13 0 -103 -62 -118 -80 -3 -4 -33 -25 -66 -48 -34 -22 -72 -54 -86 -69
-13 -15 -35 -34 -48 -42 -21 -12 -25 -11 -37 5 -7 10 -13 22 -13 27 0 19 -78
116 -198 247 -69 74 -132 146 -140 159 -15 22 -14 24 3 37 10 8 25 14 33 14
28 0 148 54 196 87 27 19 69 46 95 60 25 15 57 34 70 45 30 23 37 23 69 -3z
m2022 -272 c63 -10 158 -25 210 -33 52 -9 127 -20 165 -25 67 -7 145 -24 230
-49 43 -12 98 -25 168 -38 23 -4 58 -16 77 -26 19 -10 58 -24 85 -32 237 -64
224 -58 379 -145 84 -47 100 -64 129 -143 28 -74 31 -95 19 -119 -6 -12 -21
-50 -33 -85 -19 -54 -20 -68 -10 -101 20 -68 14 -144 -14 -182 -14 -19 -31
-48 -39 -64 -15 -31 -160 -179 -225 -228 -55 -42 -163 -91 -300 -136 -68 -23
-126 -41 -130 -41 -3 0 -11 10 -16 22 -12 27 -133 71 -237 88 -37 5 -104 19
-150 30 -46 12 -141 28 -213 36 -164 19 -540 27 -654 13 -47 -6 -104 -13 -126
-15 -76 -9 -285 -45 -380 -64 -101 -21 -148 -41 -225 -96 -26 -19 -52 -34 -59
-34 -6 0 -42 -29 -80 -65 -49 -47 -76 -65 -95 -65 -15 0 -80 24 -144 53 -64
30 -133 60 -152 67 -19 8 -56 27 -81 42 -25 15 -52 28 -60 29 -42 2 -278 145
-290 176 -5 13 -20 48 -34 77 -30 63 -33 147 -9 216 9 25 20 74 25 110 10 68
30 110 53 110 7 0 19 15 26 33 7 17 19 46 28 63 15 31 14 33 -11 63 -25 31
-63 138 -52 149 3 3 12 -4 21 -16 8 -12 24 -22 36 -22 15 0 18 -3 10 -12 -12
-15 -5 -65 11 -75 6 -3 21 7 34 23 83 99 135 151 193 190 36 24 81 57 100 74
19 16 59 37 88 45 29 9 68 24 87 35 71 40 157 62 243 61 64 0 82 3 82 14 0 22
39 43 90 50 141 18 200 27 245 36 103 21 229 27 545 25 243 -2 354 -7 440 -19z
m-2251 -338 c18 -22 30 -43 27 -46 -8 -9 -46 27 -46 44 0 7 -4 13 -9 13 -5 0
-11 7 -15 15 -10 28 10 15 43 -26z m3654 -951 c-3 -112 -7 -243 -9 -293 -1
-49 -5 -211 -8 -358 -5 -217 -9 -272 -21 -290 -19 -28 -20 -77 -1 -77 20 0 25
-19 14 -55 -4 -16 -8 -50 -8 -74 0 -24 -4 -60 -10 -80 -5 -20 -14 -62 -20 -93
-10 -51 -14 -58 -34 -58 -13 0 -29 -6 -35 -14 -10 -12 -8 -19 8 -35 l21 -21
-36 -40 c-23 -25 -51 -44 -75 -50 -29 -8 -39 -16 -39 -31 0 -26 -75 -101 -120
-121 -19 -9 -82 -34 -140 -56 -116 -43 -230 -90 -330 -133 -85 -37 -494 -141
-524 -133 -17 4 -30 -1 -44 -16 -24 -26 -116 -49 -194 -50 -32 0 -77 -4 -100
-10 -89 -19 -268 -31 -326 -21 -162 29 -262 44 -302 48 -25 2 -81 12 -125 23
-44 10 -107 24 -140 30 -33 7 -82 21 -110 31 -27 10 -84 25 -125 34 -41 9
-102 29 -135 44 -33 15 -76 34 -95 40 -68 25 -100 45 -100 64 0 47 -48 75 -77
46 -19 -19 -100 27 -144 83 -39 49 -39 50 -39 139 0 52 -6 106 -15 132 -8 24
-19 87 -25 138 -5 52 -17 117 -25 144 -9 28 -18 97 -21 155 -3 58 -14 150 -24
205 -10 55 -21 129 -25 164 -3 35 -12 80 -19 100 -33 91 -39 121 -42 215 -3
56 -9 126 -14 155 -6 32 -6 59 -1 64 10 10 78 -22 128 -60 18 -13 63 -35 100
-49 38 -14 88 -38 113 -53 25 -16 66 -34 93 -41 26 -7 50 -17 53 -21 3 -5 11
-9 19 -9 8 0 30 -11 50 -24 43 -29 128 -56 178 -56 20 0 48 -5 62 -10 43 -16
256 -25 600 -25 308 0 693 11 745 20 14 3 78 12 144 20 65 8 153 25 195 36 42
12 112 32 156 44 44 13 107 28 140 35 33 7 98 24 145 38 47 13 99 28 115 32
17 4 62 20 100 33 193 71 193 70 383 232 33 28 69 65 82 83 12 17 26 32 30 32
5 0 6 -91 3 -202z m-1438 -19 c39 -4 113 -14 165 -20 52 -6 136 -20 185 -31
50 -10 112 -23 138 -28 84 -17 187 -55 187 -69 0 -4 -28 -15 -62 -24 -35 -10
-100 -29 -145 -43 -46 -13 -102 -29 -125 -34 -24 -4 -68 -16 -99 -24 -187 -53
-851 -86 -1294 -65 -213 9 -319 22 -329 38 -11 17 141 141 172 141 5 0 19 11
31 24 13 14 42 29 65 35 22 5 68 16 101 24 33 9 98 20 145 26 47 7 157 22 245
35 173 25 481 33 620 15z m1573 -941 c26 -18 75 -58 109 -90 34 -32 66 -58 71
-58 8 0 62 -101 62 -116 0 -4 -7 -16 -17 -26 -14 -15 -33 -18 -135 -18 -66 0
-139 5 -164 11 l-44 11 0 52 c0 28 5 69 11 91 18 69 16 67 41 54 39 -20 117
-109 126 -142 6 -22 17 -35 35 -41 40 -15 54 4 35 46 -9 18 -17 38 -19 45 -7
23 -94 120 -141 158 -27 21 -48 42 -48 47 0 17 33 7 78 -24z m638 -352 c3 -14
4 -33 2 -43 -3 -17 -23 -18 -388 -18 -369 0 -385 1 -388 19 -6 29 17 36 93 29
39 -3 126 0 195 6 69 6 172 14 230 17 58 3 107 8 109 10 2 2 35 4 72 4 64 0
69 -2 75 -24z m-326 -116 c80 -1 187 -4 237 -7 l93 -6 9 -35 c8 -26 7 -42 -4
-63 l-15 -28 -357 4 c-353 4 -493 11 -493 24 0 3 19 28 43 54 l42 48 105 8
c58 4 125 6 150 4 25 -1 110 -3 190 -3z m-3949 -191 c20 -32 11 -36 -87 -48
-81 -10 -226 -34 -374 -61 -135 -26 -182 -26 -197 -1 -10 16 -8 20 15 29 66
25 161 51 212 57 30 3 78 10 107 14 44 6 55 4 71 -12 18 -18 20 -18 49 7 19
16 45 26 74 28 75 6 121 1 130 -13z m3667 5 c107 -7 108 -8 66 -101 -60 -135
-91 -187 -140 -231 -75 -70 -145 -125 -184 -146 -19 -10 -44 -26 -55 -36 -26
-24 -178 -98 -280 -137 -104 -39 -162 -56 -320 -93 -71 -17 -146 -35 -165 -40
-71 -17 -218 -49 -256 -56 -52 -8 -68 11 -94 107 -11 41 -25 90 -31 109 -6 19
-14 53 -19 75 -5 22 -12 52 -15 66 -6 25 -4 28 47 44 29 9 62 20 73 25 11 5
38 11 60 15 22 4 60 10 85 14 51 9 209 62 285 96 28 13 79 33 115 46 36 12 83
31 105 42 22 11 68 28 104 38 91 26 138 53 207 119 l60 58 130 -4 c71 -2 171
-7 222 -10z m250 -19 c4 -4 -19 -75 -29 -90 -4 -5 -28 -50 -54 -100 -26 -49
-53 -97 -61 -106 -8 -8 -14 -20 -14 -25 0 -10 -91 -107 -135 -144 -125 -104
-144 -115 -264 -159 -43 -16 -103 -46 -134 -65 -31 -20 -62 -36 -69 -36 -23
-1 -150 -58 -190 -87 -44 -30 -142 -58 -373 -108 -74 -16 -138 -16 -243 -2
-29 4 -49 24 -36 36 12 11 167 47 264 62 41 6 98 19 125 29 28 10 75 24 105
30 168 36 303 80 405 133 11 6 47 24 80 40 33 16 76 41 95 55 19 15 51 35 70
46 40 21 84 56 176 140 54 50 73 76 114 162 28 57 50 107 50 113 0 5 17 27 38
49 27 30 42 39 57 35 11 -3 22 -7 23 -8z m-3843 -85 c3 -6 37 -30 75 -55 83
-54 89 -63 53 -71 -15 -3 -35 -8 -43 -11 -28 -9 -195 -35 -280 -44 -47 -4
-134 -15 -195 -24 -60 -8 -146 -18 -190 -22 -101 -7 -125 7 -128 77 l-2 45 90
23 c124 33 166 41 355 67 184 26 256 30 265 15z m-1737 -128 c55 -46 135 -102
147 -102 4 0 21 -11 38 -24 18 -13 70 -43 117 -66 47 -23 92 -48 100 -55 8 -7
69 -40 135 -74 66 -33 133 -72 149 -86 16 -13 62 -40 102 -59 40 -19 93 -50
118 -70 25 -19 83 -53 128 -76 121 -61 144 -74 182 -104 19 -14 38 -26 42 -26
3 0 33 -18 65 -40 32 -22 61 -40 64 -40 3 0 35 -21 73 -47 63 -45 152 -96 252
-144 43 -21 107 -52 230 -114 30 -15 71 -40 90 -55 19 -14 51 -32 70 -40 19
-7 49 -23 65 -35 33 -23 72 -42 210 -101 50 -21 107 -49 127 -61 21 -13 40
-23 43 -23 13 0 196 -74 260 -105 39 -19 104 -47 145 -63 41 -17 145 -64 230
-105 85 -41 166 -78 180 -82 14 -4 63 -25 110 -47 47 -23 96 -46 110 -52 14
-6 54 -27 89 -48 34 -21 65 -38 67 -38 2 0 42 -25 89 -56 78 -52 96 -74 59
-74 -8 0 -22 -4 -32 -9 -42 -24 -351 -131 -374 -131 -19 0 -41 14 -70 44 -24
23 -63 53 -86 65 -61 31 -172 49 -257 41 -88 -8 -142 -37 -293 -154 -61 -47
-114 -86 -118 -86 -3 0 -24 -15 -44 -32 -117 -101 -128 -108 -164 -108 -29 0
-46 -9 -82 -42 -60 -55 -64 -65 -70 -156 -6 -97 9 -164 52 -225 19 -26 34 -50
34 -53 0 -3 11 -19 25 -36 31 -37 31 -48 2 -48 -30 0 -118 47 -198 104 -35 25
-82 56 -104 67 -22 12 -59 35 -82 50 -23 16 -44 29 -48 29 -4 0 -25 13 -48 28
-47 32 -228 137 -297 172 -24 12 -74 46 -110 74 -36 29 -90 68 -120 87 -139
86 -270 207 -270 249 0 4 32 27 71 51 38 24 85 54 102 66 18 13 46 29 63 38
31 14 201 144 297 226 44 38 47 44 47 87 0 83 -28 218 -54 269 -21 39 -87 140
-123 188 -5 6 -24 35 -44 65 -35 53 -55 68 -139 103 -97 40 -237 58 -280 35
-49 -26 -116 -77 -154 -117 -21 -23 -68 -63 -105 -89 -36 -26 -81 -60 -99 -77
-19 -16 -50 -39 -70 -50 -73 -40 -103 -85 -56 -85 18 0 18 -16 -3 -79 -14 -45
-15 -61 -4 -119 12 -66 38 -133 71 -182 23 -35 42 -92 33 -101 -12 -12 -163
68 -264 137 -182 126 -199 139 -210 170 -7 18 -27 39 -50 52 -22 13 -39 28
-40 35 -1 31 -19 147 -29 192 -16 68 -28 152 -40 262 -5 50 -22 147 -38 215
-17 68 -30 130 -30 138 0 8 -5 40 -12 70 -21 105 -52 730 -35 730 4 0 32 -22
63 -48z m2037 -42 c3 -5 16 -10 28 -10 12 0 54 -16 92 -36 39 -20 84 -38 102
-40 17 -2 44 -9 58 -14 14 -6 37 -10 51 -10 13 0 43 -8 67 -19 52 -23 101 -36
192 -51 39 -6 79 -15 90 -20 11 -5 85 -18 165 -29 80 -12 174 -26 209 -33 63
-11 289 -6 358 8 l31 6 30 -93 c30 -90 62 -216 62 -243 0 -15 -495 -14 -620 3
-166 21 -288 47 -395 82 -33 11 -94 31 -135 45 -41 13 -93 33 -117 44 -23 11
-47 20 -53 20 -6 0 -18 4 -28 9 -9 5 -34 16 -54 25 -21 8 -63 36 -93 61 -31
25 -59 45 -63 45 -4 0 -24 16 -46 35 -21 19 -42 35 -46 35 -4 0 -35 27 -68 61
-62 61 -93 72 -100 36 -5 -26 74 -114 121 -135 23 -11 53 -30 67 -43 14 -14
38 -31 53 -39 33 -17 120 -101 112 -108 -3 -3 -11 0 -17 6 -7 7 -20 12 -29 12
-23 0 -47 14 -169 94 -206 136 -230 154 -255 189 -28 43 -24 48 55 59 30 4 75
12 100 18 25 6 69 14 97 18 29 5 56 12 60 15 10 11 81 8 88 -3z m1739 -219 c7
-10 68 -216 84 -284 18 -71 17 -75 -25 -79 -33 -3 -38 -6 -38 -28 0 -23 4 -25
56 -28 49 -3 58 -6 68 -28 6 -14 11 -33 11 -44 0 -10 5 -22 10 -25 6 -3 10
-26 10 -50 l0 -44 -57 -7 c-32 -5 -91 -8 -132 -9 l-74 0 -28 95 c-15 52 -28
108 -28 124 -1 16 -5 43 -10 60 -25 81 -72 296 -67 305 5 7 67 25 161 44 35 8
54 7 59 -2z m-1576 -217 c30 -6 73 -21 117 -40 17 -7 66 -25 110 -40 44 -15
89 -33 100 -41 18 -12 17 -13 -15 -7 -85 15 -156 37 -219 68 -38 18 -79 36
-92 39 -13 3 -33 13 -44 22 -18 15 -18 16 -2 11 11 -3 31 -9 45 -12z m487
-155 c103 -30 319 -51 553 -55 367 -6 346 -4 350 -36 2 -16 2 -28 0 -29 -2 0
-57 -3 -123 -5 -145 -7 -401 23 -620 72 -38 9 -81 18 -95 20 -58 10 -127 27
-160 40 l-35 14 50 -6 c28 -3 64 -10 80 -15z m1212 -305 c23 -6 23 -16 2 -130
-10 -50 -12 -52 -52 -63 -23 -7 -65 -11 -92 -9 l-50 3 2 84 c2 47 6 88 11 93
5 5 35 12 68 17 78 11 85 12 111 5z m-2599 -202 c30 -14 37 -23 35 -45 -2 -38
66 -92 106 -84 25 5 32 0 67 -49 22 -31 48 -68 60 -82 41 -53 63 -108 79 -193
25 -141 27 -135 -91 -235 -27 -23 -74 -63 -104 -88 -83 -71 -168 -108 -156
-68 15 56 16 102 0 157 -9 33 -19 85 -23 115 -7 65 -22 86 -110 161 -143 123
-199 160 -293 194 -27 10 -48 21 -48 25 0 5 16 21 36 37 19 15 66 55 102 89
77 70 109 91 143 96 42 6 159 -12 197 -30z m-384 -287 c41 -19 118 -75 190
-138 120 -105 124 -110 131 -163 4 -27 12 -76 19 -110 20 -101 3 -153 -73
-225 -68 -64 -100 -76 -179 -65 -49 7 -122 34 -122 46 0 4 -20 21 -45 39 -25
18 -45 37 -45 43 0 5 -11 23 -25 39 -13 16 -28 45 -34 63 -5 19 -24 60 -43 92
-65 111 -73 174 -37 278 25 73 60 113 103 119 47 7 125 -2 160 -18z m6116 16
c27 -7 24 1 45 -162 9 -67 0 -77 -50 -53 -40 19 -125 21 -195 5 -25 -6 -63
-11 -84 -11 -22 0 -72 -8 -110 -19 -39 -10 -93 -23 -121 -30 -27 -7 -75 -24
-105 -38 -32 -16 -70 -26 -92 -25 -27 1 -42 -5 -52 -19 -14 -20 -117 -68 -147
-69 -9 0 -23 -7 -30 -16 -11 -14 -105 -79 -134 -94 -5 -3 -31 -18 -58 -34 -40
-24 -50 -26 -63 -15 -11 9 -14 22 -9 43 3 17 8 45 9 61 4 36 47 61 176 100 57
17 159 57 270 106 36 15 108 45 160 65 95 37 126 49 255 109 39 17 86 37 105
44 19 7 44 17 55 21 40 15 120 38 135 38 8 0 26 -3 40 -7z m-1548 -268 c29
-14 71 -40 93 -58 22 -17 59 -43 81 -58 41 -28 75 -82 90 -142 16 -68 9 -111
-29 -188 -33 -67 -47 -84 -111 -132 -41 -30 -77 -55 -82 -55 -4 0 -15 -6 -23
-14 -20 -17 -115 -68 -161 -86 -19 -8 -53 -26 -75 -41 -140 -94 -205 -132
-299 -178 -58 -29 -106 -56 -106 -60 0 -7 -259 -141 -273 -141 -3 0 -34 -13
-69 -29 -191 -89 -341 -149 -498 -201 -99 -33 -219 -77 -340 -125 -47 -18
-121 -40 -165 -49 -44 -8 -123 -25 -175 -37 -52 -12 -129 -26 -170 -30 -41 -4
-115 -13 -164 -19 -106 -14 -116 -7 -116 70 0 25 -4 50 -9 55 -5 6 -22 46 -36
90 -15 44 -35 96 -45 115 -32 62 -124 173 -157 189 -18 9 -33 18 -33 21 0 3
21 21 46 40 25 19 72 58 106 85 33 28 69 55 79 61 10 6 27 17 36 26 19 16 106
57 163 78 19 7 55 21 80 33 66 29 229 97 274 114 21 7 46 11 56 8 11 -4 23 1
32 13 7 10 22 21 33 24 11 4 45 16 75 28 77 30 186 69 245 87 28 9 95 32 150
50 55 19 132 44 170 55 39 11 93 28 120 38 50 17 156 50 230 70 36 10 220 79
270 101 55 24 237 89 290 104 33 9 77 23 98 32 35 15 38 15 52 -3 14 -19 15
-19 32 2 34 38 93 75 112 69 10 -3 29 -1 42 4 13 5 25 10 26 10 1 1 25 -11 55
-26z m788 -193 c13 -25 -8 -108 -30 -115 -27 -8 -159 -10 -166 -2 -4 4 -4 19
2 33 10 28 61 61 134 87 25 8 46 16 47 16 1 1 7 -8 13 -19z m-105 -189 c9 -16
-5 -19 -155 -26 -120 -6 -143 -5 -132 6 9 10 50 15 134 17 67 1 124 5 127 7 7
8 19 6 26 -4z m125 -6 c0 -10 -10 -15 -29 -15 -34 0 -50 16 -24 23 36 9 53 7
53 -8z m11 -104 c10 -13 19 -32 19 -42 0 -17 -8 -19 -71 -19 -77 0 -112 12
-103 35 4 9 1 21 -5 29 -16 20 -57 -1 -72 -36 -10 -25 -17 -28 -59 -28 -28 0
-61 7 -79 17 -29 17 -32 17 -60 0 -17 -10 -50 -17 -81 -17 l-51 0 21 30 c19
27 27 30 74 30 28 0 56 4 62 9 12 13 98 18 257 17 123 -1 130 -2 148 -25z
m-3091 5 c77 -19 102 -30 125 -56 14 -17 16 -24 7 -27 -25 -9 -44 -35 -33 -46
18 -18 13 -23 -51 -52 -35 -15 -82 -36 -105 -46 -23 -11 -46 -19 -50 -19 -4 0
-20 -6 -35 -14 -14 -8 -43 -19 -65 -26 -57 -19 -122 -51 -178 -87 -57 -38 -78
-41 -97 -14 -16 22 -107 71 -132 71 -9 0 -16 4 -16 8 0 13 72 77 130 116 30
20 75 51 100 70 44 35 151 100 200 123 34 16 133 15 200 -1z m2886 -147 c8
-17 30 -52 48 -78 18 -25 36 -53 39 -63 3 -9 41 -46 84 -83 43 -37 82 -74 87
-83 5 -9 24 -33 42 -52 68 -73 129 -144 145 -169 25 -40 77 -84 149 -126 36
-21 83 -53 105 -70 22 -17 63 -44 90 -60 28 -16 75 -48 105 -73 54 -44 86 -61
225 -120 91 -39 133 -48 295 -66 153 -18 446 -46 473 -46 13 0 17 -6 15 -22
-3 -21 -9 -23 -78 -26 -41 -2 -104 2 -140 8 -36 6 -130 18 -210 25 -80 8 -165
19 -190 25 -25 5 -81 14 -125 19 -97 11 -192 42 -385 123 -101 42 -201 107
-220 143 -7 13 -27 35 -44 47 -17 13 -87 81 -156 151 -69 71 -171 175 -227
232 -56 57 -111 121 -122 142 -10 21 -31 49 -46 63 -37 35 -75 112 -75 155 l0
35 50 0 c45 0 51 -3 66 -31z m352 -6 c63 -59 105 -90 147 -109 22 -10 56 -30
75 -45 19 -15 63 -40 97 -57 34 -18 64 -36 67 -41 4 -5 48 -31 99 -56 50 -26
99 -53 107 -60 8 -8 35 -21 60 -31 25 -10 63 -30 85 -44 22 -15 51 -31 65 -35
14 -4 32 -13 40 -20 23 -19 317 -113 395 -125 114 -19 244 -51 253 -64 5 -6
10 -18 10 -26 0 -8 12 -62 27 -120 14 -58 25 -121 23 -140 l-3 -35 -60 -3
c-33 -2 -152 4 -265 13 -233 19 -370 47 -493 101 -80 35 -180 94 -192 114 -4
6 -25 20 -47 33 -48 26 -59 33 -117 72 -23 17 -62 41 -85 55 -86 52 -113 75
-163 139 -29 36 -80 94 -113 129 -33 34 -60 65 -60 67 0 3 -39 45 -87 94 -81
81 -153 184 -153 217 0 11 26 14 124 14 l124 0 40 -37z m-3797 -246 c19 -12
35 -31 37 -40 4 -20 -54 -79 -135 -138 -44 -32 -52 -45 -74 -110 -14 -41 -30
-74 -36 -74 -5 0 -28 21 -50 47 -38 43 -42 53 -48 121 -7 74 -2 125 17 161 7
13 17 17 36 13 16 -3 52 5 87 18 78 31 123 31 166 2z m8257 -6 c14 -8 23 -8
27 -1 7 12 31 7 80 -15 17 -8 68 -19 114 -24 46 -6 86 -13 89 -16 3 -3 -3 -14
-13 -25 -20 -22 -68 -26 -123 -11 -18 5 -101 11 -184 12 -84 1 -170 7 -191 12
-36 9 -37 11 -21 28 44 49 165 71 222 40z m-81 -137 c108 -2 201 -8 212 -14
11 -5 33 -10 50 -10 24 0 70 -13 90 -26 1 -2 -5 -26 -14 -54 l-17 -51 -177 6
c-97 4 -183 9 -191 12 -26 9 -231 25 -347 27 -61 0 -114 4 -117 7 -9 9 70 59
91 59 10 0 36 10 58 21 59 32 86 39 130 33 22 -4 127 -8 232 -10z m-5852 -35
c5 -5 16 -9 25 -9 21 0 218 -96 258 -127 18 -13 54 -32 80 -40 26 -9 105 -45
175 -80 70 -35 130 -63 133 -63 18 0 197 -93 234 -122 40 -31 325 -178 345
-178 18 0 163 -76 195 -102 19 -15 40 -28 47 -28 28 0 222 -96 303 -150 62
-42 192 -110 325 -170 120 -54 223 -107 235 -121 3 -3 23 -16 45 -29 22 -13
49 -31 60 -40 11 -10 40 -29 65 -42 25 -14 74 -43 110 -65 36 -22 81 -46 100
-53 19 -8 60 -28 90 -45 30 -17 62 -34 70 -38 8 -4 29 -16 45 -27 17 -10 75
-42 130 -71 55 -28 105 -55 111 -60 7 -5 31 -20 55 -32 51 -26 88 -48 109 -63
8 -6 51 -26 95 -45 44 -19 105 -49 135 -67 30 -18 66 -36 80 -39 30 -7 152
-65 198 -95 19 -12 54 -22 82 -23 29 -2 64 -12 84 -24 54 -33 314 -121 358
-121 15 0 36 -10 48 -22 19 -20 20 -31 15 -138 -7 -154 -15 -239 -26 -268 -5
-13 -16 -78 -24 -146 -8 -67 -21 -145 -29 -174 -16 -63 -20 -176 -7 -218 6
-22 5 -53 -5 -97 -7 -36 -13 -78 -12 -94 2 -38 -41 -292 -53 -316 -6 -10 -8
-21 -6 -24 3 -2 1 -18 -5 -35 -9 -26 -15 -29 -47 -27 -50 3 -75 0 -68 -7 9
-10 -12 -46 -24 -39 -5 4 -9 -1 -9 -9 0 -9 -4 -16 -10 -16 -26 0 -5 -38 35
-65 24 -16 45 -32 45 -35 0 -3 -10 -14 -21 -24 -28 -23 -71 -16 -158 29 -73
36 -158 70 -271 108 -198 67 -329 125 -430 193 -30 20 -77 48 -105 63 -27 15
-81 47 -120 73 -38 25 -89 56 -113 69 -24 13 -69 38 -100 56 -31 17 -73 39
-92 49 -19 10 -53 29 -75 43 -22 14 -56 34 -75 44 -19 11 -60 33 -90 50 -30
16 -86 47 -125 67 -83 44 -160 90 -235 140 -30 20 -77 49 -105 65 -45 26 -338
175 -393 200 -51 23 -173 91 -286 159 -67 40 -148 87 -181 106 -33 18 -96 54
-140 80 -44 26 -118 67 -165 92 -76 39 -124 66 -185 105 -11 7 -49 29 -85 48
-113 61 -143 79 -238 143 -52 35 -101 66 -110 69 -10 4 -29 14 -43 24 -14 10
-75 45 -135 79 -60 33 -116 65 -124 70 -8 5 -51 30 -95 56 -44 26 -121 71
-171 100 -50 30 -141 86 -202 126 -119 78 -186 121 -242 153 -40 24 -52 31
-180 112 -53 34 -145 87 -205 118 -61 31 -126 66 -145 77 -32 19 -86 43 -320
142 -41 18 -85 38 -98 44 -12 7 -48 21 -80 31 -64 21 -192 82 -192 92 0 14 89
39 139 39 29 0 92 9 140 21 143 34 204 48 241 54 41 8 148 47 205 75 22 11 49
20 60 20 12 0 25 4 30 8 6 5 51 23 100 41 120 43 135 48 170 56 16 4 54 17 83
31 29 13 55 24 59 24 3 0 36 14 72 31 36 17 82 37 103 44 20 8 60 25 90 38
122 58 167 77 180 77 8 0 18 4 24 9 8 7 64 39 154 87 24 13 66 10 85 -7z
m-2340 -121 c23 -10 95 -110 95 -131 0 -5 -9 -6 -19 -2 -27 8 -68 -4 -75 -22
-8 -21 12 -43 39 -43 34 0 48 -24 42 -71 -11 -81 -47 -78 -76 7 -9 28 -34 74
-54 103 -67 93 -71 143 -13 160 17 5 32 10 33 10 1 1 14 -4 28 -11z m7674 -14
c33 -4 61 -10 61 -13 0 -7 -117 -81 -128 -81 -5 0 -17 -9 -27 -20 -23 -25
-269 -145 -359 -175 -73 -24 -251 -59 -391 -76 -173 -21 -264 -31 -370 -40
-60 -5 -162 -13 -225 -19 -252 -22 -346 -26 -567 -22 l-112 2 -16 30 c-11 22
-13 35 -5 49 5 11 8 32 5 48 -3 15 1 59 8 97 l12 68 125 -3 c483 -12 1031 2
1195 31 28 5 120 21 205 36 85 14 180 33 210 42 30 8 67 14 81 13 15 -1 46 8
70 19 47 21 117 25 228 14z m230 -13 c8 -5 11 -16 7 -29 -8 -23 -102 -112
-118 -112 -14 0 -148 -60 -293 -130 -66 -32 -141 -68 -167 -79 -25 -11 -49
-25 -53 -31 -3 -5 -23 -10 -44 -10 -21 0 -54 -7 -74 -15 -32 -13 -137 -33
-296 -56 -36 -5 -90 -14 -120 -20 -31 -6 -74 -15 -96 -19 -22 -4 -65 -15 -95
-23 -30 -9 -88 -20 -127 -26 -40 -6 -104 -16 -141 -22 -108 -18 -700 3 -714
25 -12 18 -9 53 5 58 6 2 93 3 192 2 99 -1 227 4 285 11 58 7 150 16 205 19
55 4 115 9 135 11 19 3 98 10 175 16 145 11 268 24 320 33 122 21 167 30 217
47 31 11 60 19 65 17 21 -5 122 25 177 54 90 46 95 48 108 48 7 0 24 9 38 20
14 11 34 20 45 20 11 0 36 13 55 28 19 16 62 44 95 62 33 19 80 48 105 65 64
45 84 52 109 36z m-2405 -191 c-1 -30 -4 -98 -8 -151 -6 -77 -4 -104 8 -134
20 -47 20 -84 1 -91 -24 -9 -29 -43 -9 -65 17 -18 16 -19 -13 -19 -36 0 -39 8
-49 170 -3 58 -14 145 -24 194 -17 83 -17 91 -2 123 16 30 20 33 57 31 l40 -3
-1 -55z m-5589 -1 c12 -19 -5 -23 -22 -6 -16 16 -16 17 -1 17 9 0 20 -5 23
-11z m276 -113 c18 -42 16 -86 -5 -86 -6 0 -24 11 -40 23 -23 18 -27 28 -21
43 4 10 9 25 11 32 11 54 27 50 55 -12z m-85 -123 c-8 -9 -46 18 -40 28 4 6
13 4 25 -7 11 -9 17 -19 15 -21z m5432 -368 c-7 -82 -19 -97 -72 -93 l-41 3
-3 64 c-4 89 -2 91 64 91 l57 0 -5 -65z"/>
<path d="M10160 5702 c-42 -12 -97 -39 -155 -77 -49 -32 -127 -83 -173 -113
-45 -29 -92 -67 -104 -83 -13 -17 -40 -35 -69 -44 -38 -13 -55 -26 -79 -61
-29 -44 -37 -74 -23 -88 4 -4 8 -39 10 -79 2 -85 21 -175 40 -198 7 -8 13 -19
13 -22 0 -13 61 -91 83 -107 12 -8 46 -40 75 -71 62 -67 159 -119 246 -135 53
-9 67 -7 106 9 28 12 46 14 48 8 2 -6 14 -11 27 -11 17 0 50 27 112 91 48 51
121 124 162 163 167 160 207 203 224 238 23 49 22 140 -3 218 -11 34 -20 73
-20 85 0 106 -169 248 -326 276 -106 18 -128 18 -194 1z m198 -58 c68 -19 78
-27 57 -44 -8 -7 -15 -21 -15 -31 0 -16 5 -18 25 -13 30 8 85 -13 85 -32 0 -7
18 -19 40 -25 51 -16 66 -33 84 -99 53 -186 51 -173 36 -226 -11 -41 -29 -64
-104 -140 -50 -49 -137 -138 -194 -197 -57 -59 -110 -107 -118 -107 -17 0 -17
-1 2 46 26 61 15 160 -24 221 -17 26 -42 75 -57 108 -14 33 -30 67 -36 75 -5
8 -16 29 -23 45 -34 71 -147 152 -249 179 -65 16 -72 20 -63 34 10 17 284 183
333 202 60 24 147 25 221 4z m-423 -319 c100 -59 138 -99 181 -195 36 -79 55
-118 84 -169 38 -68 39 -120 4 -187 -35 -66 -47 -79 -94 -94 -49 -16 -133 -1
-197 37 -62 36 -231 200 -255 247 -30 59 -48 165 -41 242 6 63 7 65 53 99 26
19 58 39 71 45 39 16 148 2 194 -25z"/>
<path d="M12560 4466 c-19 -8 -78 -42 -130 -77 -52 -35 -107 -71 -121 -79 -15
-8 -56 -41 -91 -73 -65 -58 -86 -73 -143 -100 -38 -18 -63 -60 -47 -80 8 -10
9 -23 1 -48 -27 -90 5 -284 70 -419 18 -38 56 -92 91 -129 33 -35 60 -67 60
-72 0 -9 26 -23 140 -80 25 -12 71 -24 103 -27 89 -7 137 16 233 113 45 46
102 97 128 114 25 17 49 38 53 45 9 17 173 126 189 126 17 0 61 53 70 85 5 17
9 84 9 150 -1 91 -5 133 -19 175 -38 109 -65 158 -123 220 -115 125 -348 202
-473 156z m190 -58 c45 -11 142 -50 170 -68 8 -6 25 -14 38 -20 12 -5 22 -16
22 -24 0 -9 20 -36 44 -61 25 -25 52 -66 61 -93 9 -26 22 -56 28 -67 6 -11 11
-78 12 -155 l1 -135 -36 -35 c-20 -19 -69 -57 -110 -85 -40 -27 -89 -66 -109
-86 -50 -50 -99 -82 -115 -76 -8 3 -17 21 -21 39 -4 18 -18 54 -31 80 -13 26
-24 57 -24 68 0 24 -50 127 -93 190 -17 25 -75 89 -128 142 -93 92 -101 97
-157 108 -94 19 -95 22 -32 85 30 30 58 55 62 55 7 0 59 32 108 67 37 26 110
65 149 79 37 12 88 10 161 -8z m-437 -330 c30 -9 64 -36 133 -108 51 -52 103
-111 116 -130 36 -54 78 -145 78 -169 0 -12 9 -41 20 -64 36 -74 36 -115 1
-185 -40 -78 -71 -96 -155 -89 -88 7 -182 61 -271 155 -82 87 -108 133 -134
239 -41 165 -42 214 -6 298 25 60 33 65 107 65 39 0 89 -5 111 -12z"/>
<path d="M5025 12323 c-74 -22 -82 -43 -36 -95 43 -50 76 -119 60 -129 -7 -4
-53 -10 -103 -13 -252 -17 -1210 -26 -1251 -12 -14 5 -28 0 -43 -15 l-23 -21
20 -22 c14 -15 23 -46 31 -111 6 -49 15 -115 20 -145 5 -30 9 -80 9 -111 1
-30 6 -60 12 -66 15 -15 154 -6 194 12 60 27 521 20 950 -15 179 -14 178 -13
169 -53 -7 -35 -33 -88 -63 -127 -45 -60 -81 -122 -81 -140 0 -12 16 -31 40
-46 l41 -27 30 29 c17 16 49 54 72 84 42 55 73 93 92 114 11 11 48 65 99 143
28 42 116 130 171 170 l30 21 -17 32 c-10 17 -18 38 -18 46 0 23 -29 75 -66
117 -17 21 -48 71 -68 111 -19 40 -50 92 -68 114 -51 63 -72 94 -86 126 -22
50 -36 54 -117 29z m92 -110 c20 -32 54 -74 75 -94 21 -19 38 -40 38 -47 0
-25 82 -153 119 -186 11 -11 21 -26 21 -34 0 -9 5 -30 12 -48 11 -32 10 -34
-64 -116 -41 -45 -94 -112 -118 -148 -24 -36 -64 -88 -89 -117 -25 -29 -61
-70 -80 -93 -65 -79 -67 -28 -2 69 21 31 44 73 51 94 6 21 25 53 41 71 48 55
30 64 -141 70 -80 3 -257 10 -395 15 -298 13 -703 13 -763 2 -23 -5 -44 -6
-46 -2 -13 25 -41 186 -51 294 -5 56 -4 58 22 68 17 6 114 10 253 8 124 -1
434 0 690 4 513 6 486 2 456 69 -21 46 -63 119 -76 132 -13 13 -13 46 0 46 6
0 27 -26 47 -57z"/>
<path d="M1820 11404 c-25 -8 -63 -27 -85 -44 -22 -16 -64 -46 -93 -66 -115
-80 -180 -195 -190 -336 -4 -59 -1 -72 24 -117 31 -54 53 -69 120 -78 77 -10
243 26 322 69 93 53 184 162 156 187 -48 43 -351 38 -395 -6 -20 -20 1 -36 40
-30 166 27 176 27 229 16 29 -7 55 -16 58 -20 7 -11 -45 -68 -85 -93 -89 -56
-310 -94 -370 -63 -62 32 -78 139 -36 246 33 85 60 118 152 187 94 71 140 95
214 113 50 12 62 12 108 -4 28 -9 51 -21 51 -26 0 -5 9 -9 21 -9 35 0 20 41
-26 67 -48 27 -143 30 -215 7z"/>
<path d="M4080 11402 c-14 -9 -29 -22 -33 -30 -5 -7 -28 -22 -51 -33 -108 -50
-187 -167 -206 -301 -8 -57 -1 -162 16 -223 12 -46 59 -127 85 -149 61 -51
266 -73 344 -37 55 25 167 135 218 213 26 41 34 123 20 198 -28 156 -73 242
-148 283 -28 16 -213 98 -218 96 -1 0 -13 -8 -27 -17z m180 -100 c82 -40 143
-107 153 -166 3 -17 11 -56 17 -86 16 -79 14 -124 -8 -172 -23 -50 -118 -153
-181 -194 -39 -25 -54 -29 -115 -29 -151 2 -216 32 -255 120 -37 82 -43 116
-39 214 4 89 7 101 43 170 34 62 49 79 95 107 30 19 79 39 108 46 31 8 52 18
52 26 0 20 38 9 130 -36z"/>
<path d="M2365 11370 c-3 -5 -22 -10 -41 -10 -33 0 -34 -1 -34 -40 0 -29 -13
-61 -49 -122 -26 -46 -69 -126 -95 -178 -26 -52 -63 -128 -83 -168 -25 -49
-34 -75 -27 -82 18 -18 38 -2 67 53 50 95 48 94 172 102 l110 6 13 -53 c6 -30
12 -69 12 -88 1 -23 10 -45 27 -64 23 -28 26 -29 38 -12 11 14 11 24 0 54 -27
75 -45 141 -45 167 0 14 -9 58 -20 97 -11 40 -20 88 -20 108 -1 19 -9 60 -20
90 l-19 55 31 32 c19 19 28 38 25 47 -7 18 -33 21 -42 6z m-15 -272 c23 -107
21 -112 -54 -123 -66 -10 -101 -3 -104 21 -3 23 51 133 93 189 35 45 38 40 65
-87z"/>
<path d="M3008 11348 c-11 -21 -16 -76 -36 -372 -4 -71 -11 -111 -19 -113 -7
-3 -28 18 -48 46 -20 28 -40 51 -44 51 -4 0 -13 10 -20 23 -6 12 -25 45 -41
72 -16 28 -51 92 -77 144 -47 91 -85 134 -103 115 -4 -5 -10 -31 -13 -59 -3
-27 -19 -104 -35 -170 -72 -290 -74 -322 -32 -360 26 -24 40 -11 47 45 5 34 2
46 -12 56 -18 14 -17 25 15 179 24 113 30 135 46 168 l17 36 16 -22 c18 -25
38 -58 62 -104 14 -28 34 -56 114 -163 55 -74 107 -158 112 -183 3 -15 10 -30
15 -33 25 -15 32 25 40 208 12 284 18 359 33 403 7 22 11 43 8 48 -9 14 -33 6
-45 -15z"/>
<path d="M3435 11352 c-17 -18 4 -30 71 -41 70 -12 75 -14 71 -34 -3 -12 -11
-58 -17 -102 -6 -44 -16 -96 -21 -116 -5 -20 -9 -62 -9 -93 0 -32 -4 -76 -9
-99 -12 -51 -30 -153 -33 -186 -3 -26 9 -35 31 -22 12 8 27 94 51 311 5 47 14
108 19 135 5 28 12 68 16 90 4 22 13 55 21 73 14 29 19 32 62 32 85 0 123 10
120 32 -3 18 -14 20 -185 22 -101 2 -185 1 -188 -2z"/>
<path d="M3257 11324 c-4 -4 -7 -23 -7 -43 0 -20 -7 -72 -15 -116 -9 -44 -20
-107 -26 -139 -5 -32 -14 -67 -19 -76 -5 -9 -12 -57 -16 -106 -11 -143 -10
-149 6 -149 27 0 43 54 42 140 -1 44 5 100 12 125 29 95 57 257 54 309 -3 51
-15 71 -31 55z"/>
<path d="M12782 9699 c-244 -9 -513 -27 -587 -40 -68 -12 -215 -57 -230 -70
-5 -5 -16 -9 -24 -9 -26 0 -142 -51 -204 -90 -34 -21 -91 -53 -125 -72 -87
-45 -236 -183 -321 -298 -39 -52 -71 -97 -71 -101 0 -4 -8 -10 -19 -14 -12 -3
-23 -21 -29 -48 -60 -239 -59 -232 -65 -408 -1 -57 -8 -103 -15 -111 -8 -10
-12 -72 -13 -199 -3 -269 -3 -269 21 -269 28 0 31 23 26 215 -3 141 0 183 15
248 12 48 19 115 19 173 0 52 4 94 8 94 5 0 14 -24 21 -52 7 -29 17 -66 23
-83 16 -44 188 -224 273 -285 27 -19 72 -56 101 -83 48 -44 99 -73 429 -240
148 -74 221 -103 308 -121 40 -9 106 -25 147 -36 41 -11 111 -27 155 -35 44
-8 105 -21 135 -29 157 -42 215 -52 410 -75 47 -6 110 -15 140 -20 30 -6 93
-15 140 -21 47 -5 130 -17 185 -26 137 -21 591 -21 720 1 50 9 137 20 195 25
112 10 237 36 258 52 6 6 35 8 62 6 28 -3 53 -1 56 3 6 10 97 54 134 64 27 8
122 46 180 73 19 9 51 27 70 41 19 14 41 31 49 36 8 6 28 24 45 41 17 16 39
33 49 37 11 4 21 16 24 27 3 11 11 20 17 20 19 0 114 98 132 136 19 39 33 44
35 12 1 -13 3 -36 4 -53 2 -16 5 -84 8 -150 3 -66 11 -133 17 -149 8 -21 7
-32 -2 -44 -9 -10 -14 -59 -15 -156 -2 -132 -8 -205 -32 -366 -5 -36 -13 -94
-16 -130 -4 -36 -10 -74 -15 -85 -10 -25 -20 -67 -27 -120 -3 -22 -9 -44 -14
-49 -5 -6 -9 -22 -9 -37 0 -15 -4 -29 -9 -31 -4 -1 -11 -24 -15 -51 -6 -39 -4
-48 9 -53 26 -10 45 18 55 82 5 32 19 97 30 144 11 47 22 103 24 125 2 22 8
58 15 80 6 22 11 67 11 101 0 33 5 65 12 72 23 23 41 657 19 713 -6 16 -5 31
1 43 6 11 6 21 -1 29 -10 13 -9 112 2 124 4 3 7 36 7 72 0 36 4 82 9 101 5 19
11 60 14 90 3 30 12 75 20 99 14 40 14 50 0 105 -8 34 -22 73 -29 88 -8 15
-14 35 -14 45 0 23 -45 110 -74 143 -12 14 -30 38 -40 53 -19 31 -84 94 -133
129 -17 13 -67 50 -110 84 -43 33 -98 72 -123 86 -49 29 -187 83 -235 93 -16
4 -52 15 -80 25 -63 23 -203 67 -275 86 -30 8 -64 18 -75 23 -51 24 -206 54
-390 76 -300 37 -373 46 -522 65 -122 16 -151 18 -371 30 -111 5 -231 9 -265
8 -34 -1 -144 -5 -245 -9z m663 -55 c28 -3 79 -8 115 -10 36 -2 85 -8 110 -13
25 -6 76 -12 114 -16 38 -3 76 -10 85 -14 9 -5 52 -11 96 -15 44 -3 107 -13
140 -22 33 -9 78 -22 101 -28 23 -6 48 -17 56 -24 21 -17 125 -52 176 -59 41
-5 42 -4 48 26 5 25 11 30 25 26 9 -3 27 -8 39 -10 11 -2 35 -8 53 -14 18 -5
61 -18 97 -29 36 -11 88 -25 115 -32 28 -6 59 -16 70 -21 11 -5 47 -17 80 -28
185 -58 280 -107 379 -193 24 -21 52 -38 63 -38 12 0 23 -8 26 -20 3 -11 17
-24 31 -30 14 -5 42 -28 62 -50 39 -43 125 -170 138 -205 11 -27 28 -124 27
-155 -2 -118 -11 -227 -23 -290 -17 -87 -93 -239 -142 -283 -87 -80 -104 -95
-146 -127 -25 -19 -53 -42 -64 -52 -39 -35 -302 -152 -367 -162 -33 -6 -43 -2
-95 42 -82 67 -133 98 -239 142 -37 15 -229 73 -285 86 -73 17 -170 42 -250
65 -36 11 -74 19 -85 19 -11 0 -56 9 -100 21 -82 20 -141 32 -255 49 -36 5
-92 14 -125 19 -241 39 -293 42 -625 42 -247 -1 -364 -5 -445 -16 -60 -9 -157
-20 -215 -25 -111 -10 -182 -25 -319 -66 -52 -16 -94 -23 -110 -19 -38 10
-140 72 -186 115 -22 20 -72 61 -111 92 -38 31 -88 75 -110 99 -21 23 -53 57
-70 74 -43 44 -61 79 -80 155 -23 89 -28 166 -15 235 6 32 13 60 15 62 2 2 16
5 32 7 34 4 43 24 19 42 -21 16 -14 39 24 80 16 17 36 44 44 60 29 55 194 201
271 239 28 14 76 41 106 60 71 45 146 80 201 95 24 7 60 20 79 30 33 17 59 24
195 51 60 12 320 29 545 35 91 2 176 6 190 7 37 5 436 -2 495 -9z m-190 -1463
c61 -5 142 -16 180 -24 39 -8 102 -17 140 -21 39 -3 95 -11 125 -17 30 -6 73
-15 95 -19 103 -20 362 -85 425 -107 25 -9 65 -19 90 -23 85 -13 275 -71 330
-100 127 -67 146 -79 168 -109 l22 -30 -29 -16 c-17 -8 -40 -15 -51 -15 -12 0
-30 -5 -41 -10 -10 -6 -40 -12 -66 -15 -27 -2 -93 -9 -148 -15 -55 -7 -134
-16 -175 -21 -141 -16 -470 -22 -575 -10 -220 25 -285 33 -400 51 -66 10 -163
24 -215 30 -52 7 -129 19 -170 27 -41 9 -93 19 -115 22 -23 4 -46 10 -52 14
-5 4 -48 14 -94 23 -133 25 -440 103 -473 119 -16 8 -34 15 -39 15 -24 0 -257
123 -257 135 0 22 178 70 295 80 33 3 98 9 145 15 116 14 283 29 355 32 97 5
411 -2 530 -11z"/>
<path d="M18352 6868 c-7 -7 -12 -17 -13 -22 0 -15 -83 -74 -114 -82 -14 -3
-25 -10 -25 -15 0 -5 -5 -9 -11 -9 -6 0 -24 -11 -41 -25 -16 -14 -36 -25 -44
-25 -8 0 -14 -4 -14 -8 0 -5 -29 -21 -65 -37 -36 -15 -65 -32 -65 -37 0 -5 -4
-7 -10 -3 -9 5 -39 -8 -70 -31 -8 -7 -26 -15 -39 -19 -12 -4 -39 -18 -60 -32
-20 -14 -45 -29 -56 -34 -25 -11 -50 -27 -95 -59 -19 -14 -79 -52 -133 -85
-55 -32 -101 -64 -104 -71 -2 -6 -16 -14 -31 -17 -15 -3 -42 -20 -61 -37 -18
-17 -39 -29 -46 -26 -7 2 -16 1 -21 -4 -9 -8 -48 -31 -144 -82 -30 -17 -62
-36 -71 -44 -8 -8 -18 -14 -22 -14 -3 0 -26 -14 -49 -30 -24 -17 -67 -47 -95
-66 -37 -24 -53 -41 -53 -57 0 -17 -2 -19 -10 -7 -8 12 -11 12 -27 -2 -10 -8
-30 -18 -44 -22 -15 -3 -41 -22 -58 -41 -17 -19 -35 -35 -41 -35 -21 0 -110
-54 -110 -67 0 -7 -9 -13 -21 -13 -13 0 -23 -8 -26 -20 -3 -11 -10 -20 -17
-19 -25 3 -35 -2 -41 -21 -4 -12 -15 -20 -29 -20 -13 0 -29 -7 -36 -15 -7 -8
-16 -15 -21 -15 -13 0 -99 -63 -99 -72 0 -17 31 -20 48 -6 9 8 24 18 32 22 25
11 117 73 144 98 11 10 25 18 32 18 7 0 17 7 22 16 5 8 18 21 29 27 103 58
123 71 123 79 0 4 7 8 16 8 8 0 49 23 90 50 41 28 76 50 78 50 8 0 141 91 166
114 14 12 47 33 74 47 26 13 50 30 53 37 3 6 15 12 28 12 12 0 28 6 34 14 7 8
33 26 59 39 26 14 72 39 102 56 30 18 65 37 78 43 12 6 22 15 22 20 0 4 5 8
11 8 13 0 196 108 204 120 8 13 84 63 126 83 20 9 42 23 49 32 7 8 17 15 23
15 18 0 97 41 97 51 0 5 10 9 23 9 28 0 88 21 107 37 8 7 40 31 70 52 30 22
60 45 67 51 7 5 19 10 27 10 21 0 146 66 170 90 27 26 14 50 -27 50 -18 0 -38
-5 -45 -12z"/>
<path d="M7265 5730 c-16 -4 -50 -8 -74 -9 -61 -1 -263 -37 -441 -78 -38 -9
-48 -20 -55 -66 -4 -23 -21 -59 -37 -79 -16 -21 -27 -42 -23 -48 8 -12 38 -13
51 -1 19 18 127 38 191 35 36 -2 68 -6 71 -8 4 -4 -25 -50 -55 -86 -7 -8 -44
-55 -83 -105 -92 -118 -121 -152 -219 -260 -58 -64 -96 -116 -132 -180 -18
-33 -63 -100 -99 -150 -104 -141 -147 -203 -213 -305 -112 -172 -207 -291
-239 -297 -70 -14 -44 -39 80 -79 48 -15 104 -36 124 -46 20 -10 58 -25 83
-34 26 -8 60 -27 75 -41 36 -32 77 -53 101 -53 21 0 25 -21 9 -50 -12 -23 -3
-50 17 -50 7 0 22 13 31 30 9 16 20 30 24 30 15 0 38 33 38 54 0 13 41 85 92
162 50 76 105 164 121 194 17 30 42 73 56 95 14 22 38 65 54 95 16 30 34 62
40 70 16 21 48 77 127 225 14 28 52 91 84 140 32 50 66 101 74 115 31 48 69
135 76 175 7 36 32 95 40 95 14 0 101 -95 130 -142 20 -32 43 -58 51 -58 7 0
32 22 55 49 23 27 52 52 65 55 39 10 38 37 -6 132 -79 173 -120 252 -140 270
-43 39 -62 83 -57 134 8 77 -9 90 -87 70z m30 -102 c8 -50 48 -123 74 -137 27
-15 141 -251 141 -293 0 -23 -46 -78 -65 -78 -7 0 -91 85 -166 168 -11 13 -26
21 -32 19 -24 -8 -74 -108 -86 -174 -13 -71 -63 -176 -144 -300 -26 -39 -47
-74 -47 -76 0 -4 -34 -65 -145 -262 -77 -137 -173 -297 -211 -354 -24 -36 -66
-100 -94 -141 -65 -96 -88 -114 -142 -107 -23 3 -53 15 -67 26 -14 12 -48 31
-76 44 -121 54 -245 117 -245 124 0 4 37 62 82 128 94 139 256 378 278 409 8
11 30 41 50 66 53 68 77 104 94 141 23 50 36 68 92 129 90 97 189 213 248 290
32 41 98 116 148 167 125 127 124 128 -69 128 -83 0 -154 3 -157 6 -17 16 11
38 67 52 125 33 313 63 409 66 l56 1 7 -42z"/>
<path d="M16131 5479 c-24 -18 -40 -37 -37 -45 3 -7 0 -11 -7 -9 -19 7 -38
-10 -31 -28 8 -21 23 -22 30 -2 4 8 11 15 17 15 10 0 23 10 71 58 13 12 31 22
40 22 9 0 16 5 16 10 0 21 -58 9 -99 -21z"/>
<path d="M15992 5355 c-7 -14 -18 -25 -24 -24 -28 3 -39 -2 -78 -37 -21 -20
-44 -33 -50 -29 -14 8 -25 -24 -13 -36 11 -11 82 24 135 65 90 69 90 69 76 77
-22 14 -34 10 -46 -16z"/>
<path d="M15760 5204 c-6 -15 -18 -24 -30 -24 -12 0 -43 -22 -70 -49 -27 -27
-64 -54 -83 -60 -19 -7 -45 -23 -58 -37 -13 -14 -40 -34 -59 -44 -19 -10 -57
-39 -84 -64 -28 -25 -55 -46 -61 -46 -20 0 -68 -28 -120 -70 -27 -22 -78 -61
-112 -87 -35 -26 -63 -52 -63 -58 0 -6 -12 -16 -27 -23 -37 -15 -113 -78 -106
-86 19 -18 62 -3 98 35 22 22 60 52 85 66 25 15 74 51 110 80 92 77 100 83
105 83 3 0 27 17 54 38 27 20 64 46 82 57 79 47 93 58 111 81 11 13 26 24 33
24 21 0 94 53 140 100 22 22 55 47 73 55 36 16 42 40 11 48 -15 4 -22 -1 -29
-19z"/>
<path d="M6962 4063 c-6 -16 -32 -91 -57 -168 -53 -157 -70 -195 -89 -195 -7
0 -20 -8 -29 -18 -15 -16 -15 -21 -2 -39 13 -18 13 -27 1 -64 -17 -57 -63
-153 -98 -206 -46 -68 -35 -93 23 -51 33 25 59 70 59 102 0 20 47 142 76 196
12 24 18 25 129 31 117 7 143 15 132 42 -4 11 -25 13 -106 9 -81 -4 -102 -2
-106 9 -3 8 11 59 30 114 61 170 85 248 79 256 -11 18 -32 8 -42 -18z"/>
<path d="M8086 4023 c-7 -16 -19 -55 -25 -88 -19 -96 -112 -375 -125 -375 -30
0 -146 286 -146 361 0 50 -8 69 -31 69 -28 0 -44 -33 -84 -165 -20 -66 -54
-160 -75 -210 -61 -142 -89 -225 -83 -241 14 -36 36 -1 68 107 9 31 22 64 29
75 14 22 69 159 86 219 17 57 34 95 42 95 5 0 8 -6 8 -14 0 -17 96 -253 115
-282 8 -12 23 -47 34 -78 16 -46 18 -67 11 -109 -11 -69 1 -79 43 -36 40 41
52 92 29 127 -16 25 -13 42 28 157 21 58 73 228 90 298 7 26 17 50 21 53 5 3
9 18 9 35 0 38 -25 39 -44 2z"/>
<path d="M8969 4034 c-7 -9 -16 -37 -20 -62 -5 -40 -37 -165 -103 -407 -13
-45 -25 -82 -46 -140 -15 -39 -31 -135 -25 -145 10 -16 29 -12 53 10 18 17 20
25 11 42 -12 22 -9 47 14 123 9 28 27 88 40 135 14 47 35 117 47 155 28 90 70
255 70 276 0 23 -26 31 -41 13z"/>
<path d="M8397 4014 c-41 -13 -48 -18 -45 -37 2 -14 9 -21 21 -20 13 1 17 -4
12 -15 -8 -19 -43 -132 -55 -177 -4 -16 -15 -50 -24 -75 -35 -93 -76 -238 -76
-271 0 -14 -4 -29 -9 -35 -5 -5 -11 -25 -13 -44 l-3 -35 43 2 c60 3 162 72
276 188 115 117 161 179 181 249 31 106 -6 211 -91 263 -46 27 -140 31 -217 7z
m222 -70 c22 -19 42 -47 46 -62 14 -64 12 -109 -6 -156 -21 -53 -145 -204
-212 -259 -59 -48 -154 -100 -168 -92 -27 17 19 207 101 420 4 11 18 49 30 85
28 84 47 100 116 100 48 0 58 -4 93 -36z"/>
<path d="M7247 3960 c-24 -53 -44 -107 -101 -270 -8 -25 -24 -74 -35 -110 -10
-36 -30 -95 -45 -133 -24 -65 -25 -102 -2 -94 15 5 41 61 59 132 16 62 59 188
81 240 8 17 23 59 35 93 12 35 33 86 46 113 30 58 32 89 7 89 -11 0 -26 -20
-45 -60z"/>
<path d="M7478 3973 c-9 -21 -30 -83 -48 -138 -17 -55 -38 -113 -45 -130 -44
-104 -75 -188 -89 -240 -10 -33 -24 -84 -32 -114 -16 -59 -13 -81 10 -81 9 0
18 22 26 68 13 76 50 189 86 268 13 29 24 59 24 68 0 8 4 17 9 20 5 3 11 16
14 28 2 13 26 77 51 143 25 66 44 126 41 132 -9 25 -33 12 -47 -24z"/>
<path d="M6835 3126 c-102 -25 -180 -70 -229 -132 -95 -122 -129 -218 -130
-369 -1 -111 23 -171 84 -211 35 -24 47 -26 98 -21 58 5 67 8 127 40 17 9 51
26 78 38 26 12 47 24 47 28 0 4 15 15 33 25 51 30 113 83 153 132 34 41 36 46
21 61 -13 13 -42 17 -149 19 -73 1 -168 -1 -212 -4 -70 -6 -80 -10 -87 -30 -7
-18 -3 -28 16 -48 30 -30 45 -28 63 9 l13 27 138 0 c76 0 140 -3 144 -6 16
-16 -32 -62 -163 -153 -112 -78 -249 -112 -305 -75 -62 41 -91 163 -60 263 9
31 21 72 27 91 24 82 114 193 186 229 68 34 184 55 252 46 40 -6 58 -15 101
-56 82 -77 118 -46 41 35 -69 73 -162 93 -287 62z"/>
<path d="M7397 3088 c-22 -31 -44 -77 -128 -282 -17 -43 -45 -93 -60 -111 -15
-17 -27 -40 -27 -51 1 -10 -17 -59 -40 -109 -55 -121 -72 -169 -65 -195 9 -35
36 -19 49 30 11 41 31 95 54 145 5 11 18 43 29 70 l19 50 123 7 c67 4 124 6
125 5 6 -6 5 -109 -1 -212 -6 -94 -5 -113 8 -124 36 -29 66 33 41 82 -14 27
-16 51 -10 162 11 201 12 190 -16 410 -19 143 -54 186 -101 123z m41 -95 c12
-31 42 -210 42 -248 0 -14 -8 -29 -20 -35 -21 -11 -176 -18 -186 -7 -4 3 1 22
10 41 9 19 16 38 16 44 0 17 110 232 119 232 5 0 13 -12 19 -27z"/>
<path d="M9200 3109 c-19 -4 -75 -13 -125 -19 -171 -23 -275 -53 -275 -79 0
-17 35 -17 100 0 92 24 130 30 130 20 0 -38 -44 -286 -64 -356 -45 -164 -56
-207 -56 -228 0 -13 -8 -49 -19 -80 -18 -57 -18 -67 4 -67 19 0 36 48 50 140
14 87 16 95 58 240 27 92 37 137 63 273 21 109 21 109 189 111 l120 1 0 25 c0
24 -2 25 -70 26 -38 0 -86 -3 -105 -7z"/>
<path d="M8214 3053 c-3 -10 -10 -27 -14 -38 -47 -107 -56 -138 -76 -240 -21
-106 -60 -255 -71 -266 -19 -19 -53 38 -68 113 -15 79 -57 214 -82 262 -10 19
-14 50 -11 95 2 55 0 66 -14 69 -17 3 -27 -16 -33 -69 -6 -41 -34 -150 -46
-171 -5 -10 -9 -28 -9 -40 0 -23 -31 -119 -59 -183 -10 -22 -21 -67 -24 -100
-4 -33 -8 -69 -9 -80 -2 -11 4 -21 13 -23 12 -2 19 11 28 55 15 69 24 105 51
198 48 162 63 200 80 190 7 -4 59 -158 77 -230 6 -22 23 -72 37 -111 15 -40
30 -91 34 -115 9 -51 27 -61 43 -22 7 15 20 47 30 70 11 25 19 66 19 97 0 30
7 81 16 113 8 32 24 97 34 144 10 47 35 126 54 176 20 50 36 98 36 107 0 22
-29 21 -36 -1z"/>
<path d="M9620 3056 c-106 -28 -187 -96 -306 -256 -85 -113 -124 -204 -124
-285 0 -46 36 -152 62 -181 10 -11 18 -24 18 -30 0 -5 13 -24 28 -42 48 -58
187 -85 300 -58 136 32 261 138 324 275 22 47 49 104 60 125 29 54 30 145 2
183 -11 15 -31 55 -44 88 -27 71 -40 87 -100 129 -101 70 -130 77 -220 52z
m143 -45 c2 -11 23 -29 45 -40 43 -22 70 -55 92 -111 8 -19 25 -53 38 -75 40
-64 40 -108 -2 -192 -20 -40 -36 -77 -36 -82 0 -5 -17 -36 -39 -68 -84 -127
-219 -203 -356 -202 -59 0 -135 19 -159 39 -25 20 -70 89 -85 130 -8 19 -20
49 -27 66 -8 19 -11 46 -8 65 19 102 57 168 187 318 81 95 157 142 232 147 22
1 54 7 70 12 42 14 42 14 48 -7z"/>
<path d="M8586 3012 c-4 -7 -69 -238 -79 -282 -3 -14 -20 -79 -37 -145 -17
-66 -33 -136 -36 -155 -2 -19 -7 -43 -10 -52 -5 -18 11 -58 24 -58 11 0 62 85
62 104 0 9 -7 19 -15 22 -22 9 -13 65 35 234 12 41 25 86 30 100 4 14 13 45
20 70 7 25 21 69 31 99 10 30 16 58 13 63 -6 10 -31 11 -38 0z"/>
</g>
</svg>
