<?xml version="1.0" standalone="no"?>
<!DOCTYPE svg PUBLIC "-//W3C//DTD SVG 20010904//EN"
 "http://www.w3.org/TR/2001/REC-SVG-20010904/DTD/svg10.dtd">
<svg version="1.0" xmlns="http://www.w3.org/2000/svg"
 width="1500.000000pt" height="1074.000000pt" viewBox="0 0 1500.000000 1074.000000"
 preserveAspectRatio="xMidYMid meet">

<g transform="translate(0.000000,1074.000000) scale(0.100000,-0.100000)"
fill="#000000" stroke="none">
<path d="M7075 10250 c-82 -12 -176 -41 -237 -71 -32 -16 -99 -40 -149 -54
-50 -14 -130 -46 -178 -69 -47 -24 -124 -56 -170 -71 -178 -56 -263 -117 -354
-253 -36 -54 -69 -104 -73 -113 -5 -8 -55 -58 -111 -111 -100 -92 -186 -204
-258 -334 -15 -27 -31 -53 -35 -59 -17 -23 -50 -128 -50 -161 0 -19 -4 -42 -9
-52 -11 -22 -40 -107 -52 -152 -5 -19 -10 -75 -10 -125 l-1 -90 -186 -93
c-204 -101 -300 -151 -377 -196 -28 -16 -103 -61 -167 -98 -65 -38 -120 -73
-123 -78 -5 -7 -107 -76 -187 -125 -138 -85 -299 -215 -408 -329 -41 -43 -112
-108 -157 -143 -46 -36 -87 -72 -92 -80 -15 -27 -29 -5 -59 90 -44 137 -164
449 -215 557 -24 52 -50 118 -57 145 -16 64 -101 234 -150 299 -45 60 -93 106
-214 206 -177 146 -211 185 -231 270 -4 19 -22 66 -40 105 -8 16 -23 62 -35
100 -35 117 -42 138 -60 180 -10 22 -30 69 -44 104 -31 76 -80 156 -109 176
-50 35 -115 5 -135 -63 -15 -48 -15 -89 -2 -161 56 -306 77 -461 64 -461 -20
1 -155 96 -211 149 -35 33 -90 122 -106 171 -9 25 -21 79 -28 120 -18 106 -48
168 -118 236 -90 88 -147 99 -208 42 -58 -54 -8 -296 101 -493 21 -38 44 -77
51 -85 23 -26 105 -199 105 -220 0 -29 -27 -20 -110 38 -177 122 -294 230
-349 321 -105 172 -269 261 -359 194 -25 -19 -27 -26 -26 -86 1 -116 85 -252
261 -424 105 -103 117 -124 81 -147 -13 -8 -38 -3 -104 19 -79 27 -90 34 -118
75 -46 67 -132 149 -179 171 -62 28 -114 25 -170 -11 -43 -27 -47 -33 -46 -67
1 -74 28 -116 186 -281 109 -114 169 -168 210 -191 32 -17 92 -53 133 -79 88
-56 188 -102 220 -102 13 0 58 -18 101 -40 43 -22 83 -40 89 -40 5 0 34 -11
65 -25 30 -14 69 -28 87 -32 34 -7 110 -48 165 -89 17 -13 38 -24 46 -24 7 0
57 -23 109 -50 53 -28 137 -63 187 -79 49 -16 105 -38 124 -50 29 -18 97 -91
97 -105 0 -3 20 -48 45 -101 25 -52 46 -103 48 -112 2 -10 20 -72 40 -138 21
-66 46 -147 56 -180 20 -64 34 -129 50 -235 6 -36 15 -96 22 -135 26 -165 25
-173 -13 -213 -46 -50 -89 -109 -235 -322 -35 -52 -98 -142 -138 -200 -41 -58
-95 -140 -120 -182 -25 -43 -57 -94 -71 -115 -39 -57 -241 -477 -264 -548 -7
-22 -23 -56 -35 -75 -22 -36 -32 -63 -114 -320 -27 -85 -62 -189 -76 -230 -14
-41 -33 -97 -40 -125 -8 -27 -23 -81 -33 -120 -18 -63 -48 -195 -72 -315 -5
-25 -14 -85 -20 -135 -6 -49 -19 -135 -30 -190 -10 -55 -26 -158 -34 -230 -9
-71 -18 -139 -20 -150 -33 -169 -27 -692 14 -1095 5 -58 15 -161 20 -230 6
-69 14 -150 20 -180 5 -30 16 -111 24 -180 47 -382 99 -619 171 -775 17 -38
42 -101 54 -140 22 -70 72 -183 81 -184 3 -1 11 13 19 30 12 28 10 38 -30 137
-23 59 -53 123 -66 142 -13 19 -23 41 -23 48 0 7 -8 29 -18 50 -10 20 -24 64
-31 97 -7 33 -16 69 -20 80 -12 27 -31 144 -31 188 0 20 -6 64 -14 99 -14 62
-18 81 -36 208 -5 36 -15 92 -21 125 -16 93 -28 189 -38 325 -6 69 -17 188
-25 265 -12 112 -28 469 -29 630 -1 122 18 318 35 375 15 47 20 89 19 153 -1
48 2 102 8 120 10 34 27 118 36 177 24 165 38 254 50 315 15 77 58 249 85 335
16 52 34 115 40 140 7 25 15 50 19 55 4 6 24 64 45 130 22 66 63 181 91 255
29 74 61 156 70 183 14 37 22 46 35 42 13 -4 24 4 38 27 26 41 70 84 78 75 4
-3 -7 -58 -25 -120 -17 -63 -31 -122 -31 -131 0 -19 30 -21 49 -3 11 10 12 8
6 -10 -4 -17 -2 -23 9 -23 8 0 17 9 21 20 7 21 51 60 68 60 5 0 7 -10 4 -22
-50 -206 -55 -243 -63 -403 -13 -279 -7 -384 29 -480 64 -170 68 -177 106
-173 20 2 27 10 33 42 5 21 37 93 71 160 35 66 70 137 77 156 7 19 21 54 31
77 10 23 23 68 28 100 26 157 137 392 234 493 36 38 98 89 210 172 29 22 14
35 -21 18 -56 -29 -262 -212 -262 -234 0 -5 -7 -18 -16 -28 -59 -64 -174 -350
-174 -431 0 -21 -9 -55 -20 -77 -11 -21 -30 -65 -42 -97 -37 -101 -156 -322
-166 -309 -16 19 -63 139 -72 181 -37 169 -40 196 -30 263 5 37 9 131 9 209
-1 78 4 156 10 175 6 18 22 70 36 115 15 45 33 87 40 93 37 31 -25 36 -91 9
-16 -7 -35 -11 -42 -10 -8 1 -20 -3 -28 -10 -8 -6 -16 -10 -19 -8 -9 9 63 202
78 211 10 5 17 20 17 33 0 13 5 27 10 30 5 3 10 13 10 21 0 11 -7 13 -28 8
-28 -7 -84 -42 -90 -56 -6 -14 -32 -8 -32 7 0 9 11 32 23 53 13 20 45 78 72
127 60 113 114 211 139 250 53 82 76 117 131 195 33 47 72 110 87 140 31 61
108 173 212 310 63 82 86 103 86 83 0 -5 7 -48 16 -98 27 -162 33 -208 39
-335 3 -69 8 -134 10 -146 7 -33 46 -297 47 -314 1 -33 49 -214 68 -257 11
-25 36 -67 54 -93 19 -27 44 -68 56 -92 12 -23 33 -54 46 -68 12 -14 30 -42
39 -64 9 -21 25 -50 34 -65 55 -79 114 -177 157 -259 27 -51 63 -108 79 -126
17 -19 41 -52 54 -74 40 -67 106 -110 197 -126 43 -9 96 -16 117 -18 35 -3 40
-7 52 -40 7 -21 11 -38 9 -38 -3 0 5 -18 16 -40 11 -22 20 -59 20 -84 0 -34 6
-51 26 -73 l26 -28 -7 25 c-4 14 -10 45 -15 70 -5 25 -17 70 -27 100 -33 96
-31 100 67 122 47 10 106 22 131 26 25 5 70 20 100 35 30 14 88 36 129 48 41
12 89 29 105 39 17 10 57 25 90 35 33 9 87 28 120 41 33 14 71 27 85 29 14 3
39 7 55 10 27 6 104 33 239 86 27 10 53 19 59 19 5 0 51 20 103 45 51 25 103
45 116 45 27 0 109 30 179 65 51 26 79 32 79 15 0 -5 8 -10 18 -10 9 0 58 -21
107 -46 111 -56 161 -63 233 -35 29 12 54 21 57 21 5 0 35 -61 35 -72 0 -11
111 -195 159 -263 19 -27 52 -75 73 -106 21 -30 61 -80 88 -111 28 -31 50 -64
50 -73 0 -9 7 -46 16 -83 40 -173 58 -217 139 -338 39 -58 43 -68 34 -97 -5
-17 -9 -82 -9 -143 l0 -112 -37 -23 c-29 -17 -51 -22 -92 -21 -43 1 -68 -5
-125 -32 -39 -19 -96 -46 -126 -60 -30 -14 -102 -52 -160 -86 -58 -33 -143
-79 -190 -102 -123 -61 -168 -111 -265 -293 -177 -335 -185 -357 -142 -399 7
-8 28 -38 46 -67 34 -53 136 -149 219 -204 23 -15 42 -32 42 -37 0 -11 -27
-54 -56 -90 -25 -31 -172 -329 -204 -414 -6 -15 -30 -34 -65 -50 -64 -31 -105
-78 -105 -120 0 -16 13 -48 29 -72 l30 -43 -19 -47 c-10 -26 -23 -74 -30 -107
-6 -33 -16 -78 -20 -100 -8 -37 -22 -243 -24 -345 -1 -85 11 -161 27 -178 30
-29 37 -4 27 93 -5 50 -8 104 -5 120 2 17 7 73 10 125 8 122 12 153 18 176 3
11 9 39 12 64 4 25 11 63 16 85 6 22 13 51 16 65 3 14 12 34 19 45 7 11 36 81
64 155 84 220 260 560 314 605 13 11 31 34 39 50 8 17 51 65 94 107 43 42 105
106 137 142 38 44 62 63 66 55 9 -14 30 -3 30 15 0 8 11 21 25 30 20 13 24 22
19 39 -12 41 -61 65 -51 25 7 -23 1 -29 -246 -290 -51 -53 -99 -97 -108 -98
-45 -1 -299 213 -299 253 0 8 -9 22 -20 32 -11 10 -20 26 -20 37 0 19 122 271
145 298 7 8 27 44 46 80 55 106 110 164 197 206 42 21 88 45 102 54 74 50 433
230 458 230 32 0 20 -27 -45 -97 l-23 -24 25 -73 c13 -40 27 -80 30 -88 4 -10
-14 -28 -54 -56 -32 -23 -62 -42 -66 -42 -4 0 -41 -22 -82 -50 -41 -27 -77
-50 -81 -50 -3 0 -32 -20 -64 -45 -31 -25 -92 -62 -134 -81 -84 -38 -194 -136
-194 -173 0 -23 97 -111 122 -111 10 0 18 4 18 10 0 5 18 13 40 16 73 12 37
36 -42 27 -39 -4 -46 -2 -78 32 l-35 36 60 57 60 57 5 -50 c5 -46 7 -50 34
-53 34 -4 114 16 123 31 4 7 -15 8 -55 5 -55 -6 -61 -4 -66 16 -14 52 -8 64
47 91 50 24 87 26 87 4 0 -5 5 -9 10 -9 6 0 10 7 10 15 0 12 7 14 28 9 82 -20
100 -40 78 -83 -10 -19 -12 -32 -6 -36 6 -3 7 -17 4 -31 -5 -17 -2 -24 9 -24
19 0 88 -76 133 -147 19 -29 40 -56 48 -60 25 -15 121 -98 191 -166 39 -37 87
-78 107 -90 20 -12 88 -57 152 -100 128 -86 292 -168 376 -187 105 -23 130
-33 130 -49 0 -9 11 -37 24 -63 16 -33 20 -50 12 -58 -5 -5 -10 -42 -10 -81 0
-62 3 -73 23 -88 l23 -18 -19 -64 c-23 -74 -18 -102 24 -136 25 -20 25 -23 11
-45 -8 -13 -18 -51 -22 -84 -7 -61 -6 -62 24 -86 30 -24 30 -24 15 -56 -10
-18 -15 -49 -13 -74 2 -35 9 -46 34 -63 28 -18 30 -23 26 -66 -5 -52 10 -89
36 -89 16 0 18 -8 14 -57 -4 -66 16 -109 40 -85 10 10 10 17 0 32 -16 26 -15
59 3 93 14 26 13 28 -11 37 -14 6 -29 10 -34 10 -25 0 -26 75 -1 97 25 21 16
43 -19 43 -62 0 -75 75 -23 131 l25 27 -27 18 c-69 49 -66 45 -56 97 5 27 18
58 30 71 28 30 27 37 -14 63 -19 13 -37 34 -41 48 -6 26 20 109 44 137 17 20
8 38 -18 38 -22 0 -50 36 -50 65 0 28 24 70 39 67 27 -5 23 30 -7 61 -17 18
-33 44 -34 57 -4 32 8 31 140 -6 12 -3 17 -95 13 -234 -2 -39 5 -95 17 -140
22 -86 37 -160 61 -320 20 -128 105 -448 130 -489 5 -7 14 -11 19 -7 7 4 -1
40 -23 104 -19 53 -35 109 -35 123 0 15 -6 42 -14 60 -8 19 -16 48 -19 64 -3
17 -12 64 -20 105 -8 41 -20 107 -27 145 -6 39 -19 104 -27 145 -8 41 -19 95
-24 120 -10 46 -11 170 -2 251 l4 46 123 -4 c96 -2 126 0 142 12 22 17 34 15
-140 15 -59 0 -98 5 -119 15 -16 8 -36 15 -44 15 -14 0 -126 25 -333 75 -75
18 -290 128 -385 196 -38 27 -92 65 -120 83 -27 19 -75 58 -106 87 -31 30 -91
83 -133 119 -73 61 -183 202 -227 288 -17 33 -17 33 28 120 25 48 54 96 63
107 10 11 25 36 35 55 19 37 62 79 83 80 7 0 16 -11 21 -23 16 -42 303 -342
413 -434 57 -46 83 -60 165 -85 89 -27 113 -30 268 -33 94 -2 196 1 227 7 44
8 62 7 85 -4 21 -10 83 -15 248 -16 121 -2 234 -7 250 -12 75 -21 322 -42 480
-40 146 1 151 2 176 27 23 21 30 23 49 13 26 -14 83 -6 100 15 7 8 21 15 31
15 10 0 33 13 51 29 18 15 50 34 70 40 20 7 42 19 49 27 7 9 26 22 42 31 l30
15 -8 -29 c-4 -15 -12 -67 -17 -114 -9 -70 -8 -99 5 -160 45 -212 46 -239 11
-270 -93 -83 -87 -73 -80 -152 16 -167 17 -175 67 -417 29 -138 39 -179 59
-235 23 -61 51 -182 63 -265 1 -8 17 -35 35 -59 37 -51 37 -48 16 -96 -14 -35
-14 -39 8 -71 13 -19 29 -34 36 -34 17 0 15 47 -3 54 -17 6 -20 51 -5 61 19
12 10 62 -19 106 -22 32 -27 47 -19 56 14 17 28 7 28 -19 0 -12 15 -51 33 -87
19 -36 40 -82 47 -101 16 -42 38 -70 57 -70 21 0 16 25 -32 146 -25 62 -45
120 -45 127 0 8 -15 45 -34 83 -35 71 -42 102 -55 240 -5 56 -15 94 -30 120
-18 30 -22 48 -17 80 3 23 0 57 -5 75 -6 19 -13 65 -15 104 -3 50 -10 78 -24
97 -15 21 -19 41 -18 96 0 38 -2 74 -5 79 -4 6 2 31 13 57 19 42 20 54 10 153
-6 60 -15 133 -20 163 -5 30 -12 72 -16 93 -4 25 -1 51 9 75 16 38 47 165 47
191 0 8 8 23 17 33 13 15 15 23 6 36 -6 10 -7 26 -2 38 4 12 10 36 13 55 3 19
10 61 16 94 5 33 10 133 10 223 0 89 4 204 10 255 5 51 14 166 20 257 25 367
35 431 106 638 3 9 20 -1 54 -31 68 -61 98 -71 146 -47 42 22 43 21 139 -45
33 -23 76 -53 95 -66 88 -60 160 -117 220 -173 73 -68 140 -104 392 -210 110
-47 339 -126 364 -126 8 0 22 -4 32 -9 81 -43 364 -79 480 -61 89 13 187 64
204 105 6 17 22 44 35 61 44 59 67 175 78 386 10 208 3 342 -24 453 -6 22 -15
60 -20 85 -6 25 -24 86 -41 135 -17 50 -32 99 -35 110 -9 47 -97 272 -128 329
-18 33 -39 77 -47 96 -7 19 -25 60 -40 90 -14 30 -32 75 -40 100 -7 25 -17 50
-21 55 -22 30 -70 128 -84 171 -10 27 -38 94 -64 149 -71 150 -136 358 -126
405 3 16 29 60 57 97 54 74 78 122 78 160 0 29 33 95 71 143 29 37 59 110 59
147 0 12 26 73 59 135 75 146 131 296 131 351 0 32 -11 62 -45 121 -25 44 -45
83 -45 86 0 4 -12 28 -26 54 -14 25 -24 53 -22 62 3 17 89 -51 239 -190 36
-34 113 -101 171 -149 154 -129 572 -561 680 -702 12 -16 30 -35 39 -42 17
-13 129 -184 216 -333 49 -82 98 -155 133 -197 5 -7 44 -74 86 -150 42 -76 85
-150 96 -165 10 -15 63 -115 118 -222 54 -108 106 -206 114 -218 9 -12 16 -29
16 -37 0 -14 5 -26 75 -175 21 -44 38 -85 39 -92 1 -8 5 -17 9 -20 4 -4 7 -18
7 -30 0 -13 5 -26 10 -29 6 -3 10 -15 10 -26 0 -10 18 -59 40 -107 22 -49 44
-112 51 -140 6 -29 14 -52 19 -52 11 0 31 -58 22 -64 -13 -8 -134 45 -180 78
-76 54 -144 94 -230 136 -94 45 -98 46 -109 26 -16 -27 -170 -133 -248 -171
-44 -21 -97 -54 -118 -74 -23 -22 -47 -35 -65 -36 -17 0 -27 -5 -27 -15 0 -8
-13 -35 -31 -60 -26 -38 -141 -247 -182 -330 -6 -14 -16 -32 -21 -40 -5 -8
-19 -40 -31 -70 -44 -112 -52 -122 -105 -142 -27 -10 -63 -29 -79 -43 l-30
-24 23 -98 c32 -136 39 -150 80 -175 20 -12 55 -38 78 -57 107 -93 141 -119
197 -151 39 -23 74 -54 96 -85 19 -26 59 -74 88 -107 28 -32 52 -62 52 -68 0
-6 12 -16 28 -22 15 -7 38 -20 52 -29 14 -9 32 -18 40 -20 8 -2 52 -24 97 -49
90 -49 97 -59 137 -190 20 -64 26 -79 55 -143 11 -26 21 -54 21 -61 0 -15 -33
-59 -127 -170 -35 -40 -63 -79 -63 -86 0 -7 11 -32 24 -54 13 -23 26 -52 29
-67 5 -21 12 -25 43 -26 36 -1 121 -51 117 -69 -2 -10 -39 -19 -140 -35 -51
-7 -73 -15 -73 -25 0 -8 7 -14 16 -14 13 0 15 -7 9 -36 -3 -20 -10 -44 -15
-53 -5 -9 -17 -52 -25 -96 -14 -73 -21 -105 -39 -188 -4 -16 -13 -46 -20 -68
l-13 -39 51 -31 c103 -64 129 -84 136 -104 22 -61 43 -126 56 -172 7 -29 25
-70 38 -92 26 -41 35 -44 201 -71 28 -5 68 -15 90 -23 22 -8 46 -12 53 -10 16
6 15 -12 -3 -47 -17 -33 -11 -80 11 -80 26 0 62 94 99 260 9 41 28 104 42 139
45 113 123 444 123 521 0 25 9 81 19 125 29 123 31 142 41 420 19 548 24 843
16 940 -2 17 -6 80 -10 140 -4 61 -16 163 -27 228 -10 65 -19 131 -19 147 0
16 -4 32 -10 35 -5 3 -10 18 -10 33 0 15 -7 49 -15 76 -8 27 -17 72 -20 99 -3
27 -7 53 -10 58 -6 8 -18 67 -50 234 -9 44 -24 103 -35 130 -10 28 -24 75 -31
105 -6 30 -18 73 -26 95 -8 22 -16 47 -18 55 -3 13 -61 177 -84 235 -5 11 -26
56 -49 100 -22 44 -47 98 -55 120 -18 50 -101 231 -114 247 -5 7 -20 40 -33
73 -13 33 -34 77 -47 97 -13 21 -23 40 -23 44 0 3 -8 18 -19 32 -10 15 -31 56
-47 92 -15 36 -45 90 -65 120 -20 30 -56 89 -80 130 -23 41 -64 107 -89 145
-88 133 -137 210 -150 235 -23 46 -124 194 -183 270 -53 67 -122 144 -367 404
-163 173 -321 323 -481 457 -73 61 -259 245 -259 257 0 10 113 122 123 122 5
0 20 -9 34 -20 30 -23 46 -25 65 -6 8 7 25 17 38 21 14 4 54 36 90 69 36 34
90 78 121 98 49 32 57 34 74 22 10 -8 28 -14 39 -14 12 0 62 -9 111 -19 195
-42 410 -49 615 -21 41 6 113 15 160 19 47 5 92 11 100 14 8 4 49 11 90 16
170 22 342 69 432 117 14 8 68 30 119 50 90 35 266 121 339 167 56 35 171 132
220 186 107 118 109 122 131 316 5 50 14 117 20 150 16 91 31 234 30 287 -2
96 -62 233 -123 280 -18 14 -64 53 -102 87 -139 123 -309 217 -514 282 -161
52 -227 66 -507 109 -70 11 -513 8 -685 -4 -309 -21 -550 -63 -710 -123 -36
-14 -102 -36 -148 -49 -81 -24 -247 -104 -346 -169 -84 -54 -266 -249 -308
-330 l-36 -70 3 -140 c3 -153 20 -432 29 -480 4 -16 9 -43 12 -60 15 -72 53
-120 144 -179 104 -68 120 -79 120 -83 0 -2 -7 -15 -16 -28 -19 -28 -15 -87 9
-150 l15 -40 -39 -45 c-22 -25 -56 -69 -75 -97 -19 -29 -37 -53 -39 -53 -3 0
-28 17 -56 39 -28 21 -79 53 -113 70 -33 17 -86 47 -116 68 -48 32 -581 303
-597 303 -3 0 -31 11 -62 24 -31 13 -117 48 -191 76 -74 29 -148 58 -165 65
-16 7 -57 20 -90 29 -33 9 -87 26 -120 38 -33 11 -80 28 -105 36 -25 8 -54 19
-65 23 -11 4 -36 10 -55 13 -19 3 -46 8 -60 11 -14 3 -61 12 -105 20 -44 7
-129 26 -190 40 -139 33 -201 43 -295 51 -42 3 -81 8 -86 12 -10 7 -74 159
-74 176 0 5 -13 30 -29 55 -16 25 -37 75 -47 111 -9 36 -23 78 -31 93 -8 16
-23 54 -33 86 -10 31 -30 74 -44 95 -14 22 -26 45 -26 52 0 7 -11 23 -24 36
-13 13 -29 41 -35 63 -7 22 -22 56 -34 77 -48 79 -99 148 -109 148 -5 0 -31
18 -56 40 -25 23 -76 57 -112 76 -37 19 -83 52 -104 74 -44 47 -127 88 -251
126 -87 27 -99 28 -345 30 -140 1 -277 -1 -305 -6z m148 -47 c-7 -2 -19 -2
-25 0 -7 3 -2 5 12 5 14 0 19 -2 13 -5z m159 -2 c2 -5 53 -33 113 -62 72 -35
103 -54 90 -56 -11 -2 -53 12 -93 32 -40 19 -77 35 -82 35 -11 0 -80 37 -94
51 -6 5 4 9 26 9 20 0 38 -4 40 -9z m267 -61 c46 -51 58 -70 44 -70 -10 0 -27
8 -38 18 -28 24 -73 77 -57 68 6 -4 12 -2 12 4 0 7 -7 9 -15 6 -19 -7 -55 14
-55 31 0 7 11 13 24 13 16 0 42 -21 85 -70z m-148 33 c13 -15 12 -15 -8 -4
-24 12 -29 21 -14 21 5 0 15 -7 22 -17z m210 -2 c13 -10 39 -39 57 -64 30 -43
31 -46 11 -44 -22 1 -74 48 -110 98 -20 28 -20 29 -1 29 11 0 30 -8 43 -19z
m-608 -11 c-3 -11 0 -20 6 -20 6 0 11 -9 11 -20 0 -18 -7 -20 -82 -21 -131 -1
-171 -14 -132 -44 23 -17 51 -19 56 -4 5 16 291 16 346 0 23 -6 40 -16 37 -21
-8 -13 -51 -13 -76 0 -14 8 -48 6 -122 -5 -56 -9 -131 -18 -167 -21 -90 -7
-110 -12 -110 -28 0 -9 -26 -20 -67 -31 -125 -33 -204 -60 -201 -70 4 -12 10
-11 65 9 55 20 134 32 113 17 -8 -6 -26 -11 -40 -11 -14 0 -32 -5 -40 -10 -13
-9 -13 -12 3 -24 15 -12 13 -15 -28 -30 -25 -10 -45 -24 -45 -31 0 -7 -16 -19
-36 -25 -22 -8 -34 -17 -30 -25 4 -10 -14 -15 -72 -20 -96 -8 -158 -24 -179
-47 -24 -27 -8 -33 24 -10 36 25 73 37 73 23 0 -13 82 -15 96 -2 17 16 118 27
178 19 65 -8 75 -6 57 16 -9 11 -7 15 11 20 13 3 35 6 51 6 15 0 27 4 27 9 0
15 -60 18 -116 5 -30 -7 -54 -8 -54 -3 0 9 50 24 120 34 25 4 70 13 100 21 90
23 94 15 18 -36 -29 -19 -76 -59 -105 -89 -45 -46 -54 -52 -68 -41 -16 13 -82
10 -195 -11 -30 -5 -88 -13 -127 -16 -56 -4 -73 -9 -73 -20 0 -13 10 -14 58
-9 67 8 112 15 130 21 6 2 12 2 12 0 0 -3 -25 -17 -56 -31 -50 -23 -55 -28
-50 -49 5 -18 1 -27 -14 -35 -26 -14 -25 -27 3 -36 21 -7 21 -8 -8 -16 -16 -4
-36 -6 -42 -3 -7 2 -63 -14 -125 -36 -214 -77 -310 -109 -328 -109 -10 0 -21
-4 -24 -9 -3 -5 -23 -12 -43 -16 -58 -11 -175 -68 -211 -103 -41 -40 -57 -41
-37 -2 20 38 68 76 152 121 48 25 69 42 71 57 4 28 -15 28 -48 1 -68 -54 -80
-61 -80 -45 0 18 94 84 171 121 30 13 68 34 86 44 17 11 51 26 75 34 23 9 67
25 96 36 30 12 77 25 104 29 28 4 49 12 47 17 -10 24 -124 -3 -278 -66 -13 -5
-26 -8 -28 -5 -5 5 103 86 185 138 22 14 30 24 23 31 -5 5 -7 16 -4 23 13 36
-37 10 -159 -79 -15 -12 -31 -17 -35 -13 -13 12 72 69 195 132 29 15 51 32 49
38 -3 6 3 19 11 29 24 28 -2 38 -51 21 -49 -17 -52 -17 -37 1 21 25 113 71
197 99 45 14 85 26 88 26 3 0 -7 -12 -22 -26 -34 -31 -37 -32 118 44 70 34
134 62 142 62 26 0 47 12 47 26 0 7 12 16 28 20 29 6 41 11 112 42 72 33 135
47 222 51 32 1 35 -2 31 -19z m230 -2 c26 -11 47 -24 47 -29 0 -10 -43 -2 -72
12 -9 5 -25 9 -36 9 -11 0 -35 6 -53 14 l-34 14 50 0 c28 0 71 -9 98 -20z m42
-58 c85 -27 97 -36 55 -45 -22 -5 -35 -3 -40 6 -8 12 -57 21 -190 35 -57 7
-74 13 -52 21 6 3 12 10 12 17 0 15 110 -2 215 -34z m502 -2 c17 -18 36 -44
43 -57 12 -23 11 -23 -25 4 -35 27 -74 85 -57 85 4 0 22 -15 39 -32z m-377
-24 c0 -2 -7 -4 -15 -4 -8 0 -15 4 -15 10 0 5 7 7 15 4 8 -4 15 -8 15 -10z
m5430 -21 c106 6 334 0 390 -11 36 -6 90 -16 120 -22 30 -5 82 -14 115 -19 59
-9 191 -49 250 -76 17 -7 55 -23 85 -35 123 -49 260 -125 326 -181 33 -27 85
-70 116 -96 94 -75 145 -187 134 -291 -4 -31 -7 -72 -7 -91 0 -39 -20 -75 -63
-114 -185 -169 -281 -244 -375 -292 -37 -19 -74 -35 -80 -35 -6 0 -34 -11 -61
-25 -27 -14 -57 -25 -66 -25 -9 0 -57 -13 -108 -30 -147 -48 -321 -100 -335
-100 -8 0 -44 -9 -82 -20 -154 -46 -662 -71 -844 -42 -84 14 -106 16 -220 27
-38 4 -102 15 -142 26 -40 11 -116 28 -170 39 -54 10 -120 28 -146 39 -27 12
-60 21 -74 21 -14 0 -51 16 -83 35 -32 19 -62 35 -68 35 -26 0 -263 170 -328
234 -62 62 -73 79 -89 136 -11 38 -19 99 -19 145 -1 113 20 151 169 301 114
114 127 124 258 193 75 40 167 82 205 92 173 50 248 72 257 79 16 10 100 28
240 50 72 12 149 25 172 29 24 4 80 9 125 10 46 2 110 6 143 11 33 4 96 6 140
4 44 -2 96 -2 115 -1z m-5170 -32 c140 -25 266 -62 301 -90 13 -10 39 -26 58
-36 39 -20 131 -103 131 -118 0 -6 8 -19 17 -29 14 -16 15 -21 3 -28 -9 -6
-18 -3 -25 7 -6 8 -19 14 -29 12 -15 -3 -18 -19 -21 -111 -4 -106 -4 -106 21
-112 13 -4 24 -14 24 -23 0 -21 16 -6 23 22 4 15 5 14 6 -7 2 -43 21 -44 22
-1 1 21 5 49 10 63 6 18 8 11 4 -27 -3 -42 -1 -53 10 -53 23 0 18 -45 -9 -77
-23 -28 -55 -79 -100 -163 -13 -25 -37 -57 -53 -71 -30 -28 -122 -84 -127 -78
-2 2 16 33 40 69 23 36 43 68 44 73 1 21 -22 -1 -71 -67 -51 -69 -93 -100
-182 -135 -5 -2 4 16 20 40 17 24 36 62 43 84 7 22 19 57 27 79 8 21 11 41 8
44 -9 9 -43 -29 -63 -71 -23 -47 -88 -127 -104 -127 -7 0 -7 4 -1 13 13 17 14
57 1 57 -6 0 -20 -7 -30 -17 -33 -30 -29 -7 12 71 22 42 40 79 40 81 0 3 -10
5 -22 4 -15 0 -44 -23 -83 -66 -137 -151 -244 -251 -300 -278 -30 -15 -58 -31
-61 -36 -2 -5 -23 -13 -45 -19 -22 -6 -48 -13 -57 -16 -9 -3 -3 6 13 20 17 14
35 26 41 26 5 0 25 11 44 25 19 14 42 25 52 25 18 0 25 24 9 34 -5 3 -26 -6
-47 -20 -21 -15 -50 -28 -64 -29 -14 -2 -45 -10 -70 -19 -25 -8 -67 -18 -93
-21 -62 -8 -59 -31 4 -27 40 3 43 2 28 -12 -8 -9 -33 -19 -55 -23 -39 -6 -64
-19 -64 -34 0 -20 242 2 333 31 19 6 35 5 47 -3 14 -8 25 -8 42 0 36 17 89 33
112 33 12 0 44 20 73 45 49 43 71 56 58 35 -4 -6 -2 -17 5 -25 11 -14 23 -11
175 36 59 19 97 47 90 69 -7 23 16 32 40 14 18 -13 18 -15 -4 -38 -31 -33 -20
-46 38 -46 47 0 134 30 146 50 4 6 16 8 29 4 14 -3 27 1 35 10 44 53 63 -17
56 -211 -4 -140 -3 -152 21 -218 91 -252 87 -234 74 -310 -14 -84 -46 -231
-65 -300 -8 -27 -24 -88 -35 -135 -64 -254 -111 -351 -229 -474 -91 -95 -197
-152 -260 -142 -20 3 -70 10 -111 15 -143 17 -189 31 -258 75 -88 56 -248 132
-295 141 -21 4 -51 18 -67 31 -15 13 -33 24 -39 24 -6 0 -38 28 -72 62 -61 62
-123 170 -118 205 1 10 -3 37 -11 60 -10 32 -10 52 -2 85 13 49 11 53 -16 39
-32 -17 -40 -14 -52 24 -14 43 -55 77 -84 69 -13 -3 -33 4 -52 18 -41 30 -159
173 -181 218 -21 44 -42 214 -32 260 4 19 10 47 14 62 3 15 20 38 38 52 30 23
36 24 73 14 47 -14 74 -37 120 -103 19 -27 52 -74 73 -104 22 -29 49 -72 61
-96 20 -38 65 -74 78 -61 2 3 -2 16 -10 28 -9 13 -19 38 -23 56 -5 23 -15 36
-32 43 -25 9 -25 10 -8 23 18 13 18 14 -5 21 -20 6 -21 9 -7 16 10 6 14 20 13
44 -2 20 1 38 6 41 13 8 -2 26 -18 20 -8 -3 -11 0 -7 10 4 10 -2 14 -21 14
-37 0 -32 13 14 39 50 28 62 46 26 39 -35 -7 -34 9 2 16 21 5 30 16 40 47 11
35 10 42 -4 56 -13 13 -20 14 -35 5 -30 -19 -59 -15 -59 8 0 11 -4 20 -10 20
-18 0 -11 39 9 49 15 9 20 7 24 -10 4 -15 11 -19 25 -14 16 4 19 2 16 -12 -5
-17 2 -18 78 -15 78 3 188 34 188 52 0 4 21 15 47 25 43 17 126 87 149 126 18
31 194 168 194 151 0 -5 -11 -15 -25 -22 -23 -12 -26 -18 -24 -36 0 -4 -27
-22 -61 -41 -59 -34 -80 -56 -66 -71 4 -3 10 -2 14 4 12 19 48 33 71 27 16 -4
34 6 74 43 29 27 68 61 86 76 36 29 37 47 2 29 -30 -16 -17 13 15 34 31 20 32
40 2 24 -31 -17 -67 -18 -61 -2 9 22 -22 14 -47 -12 -13 -14 -33 -25 -45 -25
-12 0 -30 -9 -41 -21 -27 -30 -110 -84 -177 -115 -46 -21 -57 -29 -52 -44 8
-26 -64 -67 -145 -83 -34 -7 -65 -19 -69 -25 -4 -7 -32 -15 -62 -18 l-54 -6
54 31 c30 17 56 31 59 31 2 0 15 9 29 20 14 11 34 20 44 20 11 0 19 7 19 15 0
8 35 48 78 89 43 42 98 101 123 133 24 31 61 75 82 96 40 42 43 47 27 47 -18
0 -90 -72 -106 -106 -9 -19 -21 -34 -26 -34 -7 0 -6 5 1 13 8 11 7 18 -7 30
-17 16 -21 15 -52 -8 -36 -26 -52 -33 -32 -13 7 7 12 20 12 29 0 10 11 26 25
37 24 19 35 47 16 40 -5 -1 -47 -39 -94 -83 -77 -73 -214 -179 -276 -214 -14
-8 -42 -17 -61 -20 -55 -10 -46 -36 12 -36 53 0 87 -20 47 -29 -13 -3 -33 -7
-44 -8 -15 -2 -22 -15 -29 -46 -5 -23 -14 -42 -21 -42 -6 0 -20 -7 -31 -15
-16 -13 -17 -16 -4 -25 8 -5 22 -7 30 -5 13 4 15 -7 12 -73 -2 -42 -8 -82 -13
-88 -10 -12 0 -82 12 -90 5 -3 9 -13 9 -21 0 -10 -19 4 -50 38 -27 30 -47 60
-44 68 2 8 -1 18 -8 22 -10 6 -14 58 -16 201 -4 224 13 333 72 476 47 113 68
146 94 150 13 2 22 11 22 20 0 34 46 83 140 152 164 119 293 190 430 237 125
43 125 43 240 38 63 -2 140 -8 170 -14z m-510 -25 c0 -2 -9 -6 -20 -9 -11 -3
-20 -1 -20 4 0 5 9 9 20 9 11 0 20 -2 20 -4z m-267 -23 c-7 -2 -19 -2 -25 0
-7 3 -2 5 12 5 14 0 19 -2 13 -5z m-13 -32 c0 -5 -9 -11 -20 -14 -11 -3 -20
-1 -20 3 0 5 8 11 18 13 9 3 18 5 20 6 1 0 2 -3 2 -8z m159 -5 c-24 -25 -402
-137 -415 -123 -6 6 158 57 206 64 19 3 40 11 45 17 10 12 55 31 90 39 27 6
79 8 74 3z m-294 -16 c-3 -5 -14 -10 -23 -9 -14 0 -13 2 3 9 27 11 27 11 20 0z
m165 -74 c0 -2 -7 -6 -15 -10 -8 -3 -15 -1 -15 4 0 6 7 10 15 10 8 0 15 -2 15
-4z m-900 -101 c-11 -13 -66 -45 -78 -45 -10 0 25 34 53 51 32 20 45 18 25 -6z
m2230 -49 c0 -3 -4 -8 -10 -11 -5 -3 -10 -1 -10 4 0 6 5 11 10 11 6 0 10 -2
10 -4z m-2262 -69 c-15 -12 -52 -40 -83 -62 -31 -22 -72 -52 -92 -67 -39 -31
-63 -37 -42 -12 24 29 220 162 239 163 3 0 -7 -10 -22 -22z m-4190 -19 c58
-47 77 -75 97 -143 9 -33 21 -70 26 -83 5 -13 9 -32 9 -43 0 -10 4 -27 9 -37
5 -9 14 -35 21 -57 13 -45 68 -133 114 -183 36 -40 157 -132 203 -156 18 -9
49 -16 69 -16 l37 0 -6 83 c-4 45 -13 123 -21 172 -9 50 -15 94 -16 99 0 5 20
6 45 3 35 -5 45 -3 45 8 0 9 -16 16 -46 21 -52 7 -60 20 -70 108 l-6 53 35 7
c44 8 61 28 53 61 -8 30 -36 34 -36 5 0 -11 -3 -20 -7 -20 -5 0 -18 -3 -30 -6
-20 -5 -23 -2 -23 20 0 39 27 86 50 86 10 0 30 -15 44 -33 29 -38 100 -190
112 -238 11 -47 9 -43 47 -149 34 -96 95 -255 123 -320 9 -20 34 -47 60 -65
24 -16 44 -33 44 -37 0 -6 41 -41 180 -153 34 -27 88 -81 119 -120 65 -80 141
-227 148 -288 3 -23 33 -98 65 -167 33 -69 64 -136 68 -150 5 -14 23 -61 40
-105 17 -44 60 -161 95 -260 35 -99 80 -225 101 -280 20 -55 49 -134 64 -175
16 -41 44 -108 64 -147 20 -40 36 -75 36 -78 0 -3 27 -62 60 -131 33 -69 60
-129 60 -132 2 -25 64 -123 160 -250 20 -26 47 -65 60 -87 13 -22 38 -57 56
-79 18 -21 40 -53 48 -71 9 -18 22 -38 31 -45 8 -7 15 -17 15 -22 0 -5 9 -21
20 -36 13 -15 17 -29 11 -35 -5 -5 -4 -19 4 -35 51 -102 77 -174 104 -292 17
-73 31 -308 20 -337 -13 -34 -56 -93 -93 -126 -26 -23 -28 -29 -16 -37 19 -12
51 17 102 95 l40 60 -5 140 c-5 127 -25 251 -48 297 -5 10 -9 29 -9 43 0 14
-7 42 -15 62 -15 36 -15 37 12 60 15 13 69 51 118 84 50 34 101 72 115 84 14
13 59 38 100 56 41 17 110 55 152 84 43 30 105 64 138 77 33 12 60 28 60 35 0
7 -16 20 -35 29 -37 17 -68 51 -59 66 9 15 63 9 72 -9 13 -22 42 -10 35 15 -2
10 3 36 11 57 9 20 16 52 16 69 0 18 7 41 15 52 13 18 14 18 15 1 0 -12 6 -17
18 -15 11 2 16 11 14 25 -2 11 6 47 18 79 16 47 36 75 99 139 44 44 101 105
127 135 26 30 61 64 78 75 17 11 56 39 87 61 77 58 184 110 264 129 37 8 70
13 74 11 3 -2 24 7 46 20 22 14 73 40 114 59 84 40 137 45 266 26 44 -6 91
-10 105 -9 95 7 278 -20 350 -52 65 -28 230 -131 230 -143 0 -9 46 -66 116
-146 48 -54 59 -73 68 -122 9 -51 45 -121 59 -116 14 5 13 14 -12 82 -11 28
-24 68 -31 90 -7 23 -27 52 -47 68 -18 16 -40 42 -49 59 l-15 29 24 -13 c13
-7 44 -35 68 -63 25 -27 72 -76 106 -109 55 -51 61 -62 56 -87 -3 -19 6 -62
26 -122 34 -101 45 -232 28 -329 -6 -32 -5 -48 2 -48 16 0 20 13 32 95 11 83
1 181 -27 265 -15 43 -12 90 5 90 19 0 125 -126 223 -264 104 -148 110 -154
157 -174 55 -24 274 -56 328 -49 79 10 261 -30 328 -73 6 -4 44 -19 86 -34 69
-25 82 -33 125 -87 26 -32 63 -71 82 -86 70 -53 181 -192 218 -270 13 -29 28
-53 33 -53 5 0 11 14 13 32 4 24 -5 52 -33 109 -21 42 -44 95 -52 117 -15 42
-109 188 -150 232 -12 14 -38 48 -57 75 -34 51 -117 151 -181 217 -25 26 -43
59 -58 110 -33 107 -38 119 -107 240 -35 61 -64 114 -64 118 0 11 -130 150
-141 150 -23 0 -4 -37 46 -88 79 -81 230 -347 223 -393 -3 -20 -6 -19 -46 19
-23 22 -70 59 -103 83 -33 24 -78 58 -99 74 -21 17 -50 39 -66 50 -15 11 -37
30 -48 43 -11 13 -43 40 -71 61 -27 21 -94 71 -148 112 -157 119 -195 144
-267 183 -25 13 -54 34 -65 46 l-20 22 75 -7 c41 -4 87 -13 102 -20 56 -27
217 36 293 114 21 23 43 41 47 41 4 0 8 -44 8 -98 0 -115 26 -249 69 -359 13
-32 41 -46 41 -20 0 15 -22 75 -37 102 -6 11 -14 38 -17 60 -4 22 -9 48 -12
57 -16 52 -26 142 -17 164 7 18 36 11 121 -28 73 -33 92 -45 222 -149 106 -86
237 -211 285 -273 39 -52 115 -179 115 -193 0 -6 7 -16 16 -24 37 -31 114
-227 114 -292 0 -27 -5 -36 -25 -45 -14 -7 -32 -12 -39 -12 -19 0 -88 -68 -84
-82 7 -20 29 -21 34 -1 6 23 63 63 91 63 31 0 55 34 55 77 -1 21 -17 82 -36
135 -39 109 -49 130 -83 174 -12 17 -23 35 -23 40 0 5 -29 54 -64 109 -36 55
-63 102 -61 104 8 7 75 -49 92 -77 10 -15 29 -43 44 -62 15 -19 43 -64 62
-100 36 -66 57 -86 57 -54 0 20 -63 139 -89 169 -10 11 -32 43 -49 72 l-31 51
50 7 c94 13 224 -18 260 -61 6 -8 15 -14 20 -14 5 0 31 -15 57 -33 86 -61 141
-87 183 -87 74 0 144 -44 272 -170 69 -69 117 -125 117 -136 0 -10 -12 -41
-25 -69 -19 -38 -25 -66 -25 -115 0 -76 13 -107 55 -130 63 -35 90 -39 152
-25 32 8 60 11 63 7 14 -18 61 -137 89 -227 23 -77 31 -122 33 -196 l3 -97
-35 -12 c-33 -12 -200 -170 -200 -190 0 -4 -12 -5 -27 -1 -22 6 -30 16 -37 44
-16 64 -31 36 -36 -71 -4 -87 -8 -105 -27 -123 l-22 -22 -5 24 c-3 13 -8 49
-11 79 -17 178 -39 319 -58 362 -7 18 -24 58 -37 88 -75 182 -104 243 -147
315 -57 96 -93 145 -148 205 -43 46 -83 107 -84 125 0 6 -7 11 -15 13 -24 5
-20 -33 6 -71 13 -18 43 -54 68 -82 25 -27 67 -84 94 -125 27 -41 62 -93 76
-116 15 -23 33 -59 40 -80 7 -21 28 -72 47 -111 80 -170 103 -270 107 -453 2
-80 7 -173 11 -206 13 -108 -23 -383 -61 -455 -7 -15 -30 -85 -49 -155 -20
-71 -47 -162 -61 -202 -38 -115 -55 -199 -64 -326 -5 -65 -14 -152 -20 -193
-5 -41 -10 -119 -10 -173 0 -54 -5 -132 -10 -172 -6 -40 -12 -161 -14 -268 -4
-237 -29 -385 -80 -462 -17 -27 -34 -48 -38 -48 -4 0 -22 -13 -41 -29 -18 -17
-46 -32 -62 -35 -15 -3 -38 -14 -49 -25 -29 -27 -116 -71 -141 -71 -35 0 -52
17 -39 38 7 10 10 31 7 45 -8 39 16 212 37 279 10 32 33 78 49 102 17 25 31
49 31 55 0 12 36 76 62 110 17 23 16 41 -2 41 -5 0 -28 -33 -51 -72 -23 -40
-55 -93 -72 -117 -17 -24 -34 -62 -39 -85 -23 -103 -28 -134 -33 -181 -11
-108 -16 -133 -30 -151 -8 -11 -15 -28 -15 -40 0 -11 -11 -31 -24 -43 -24 -23
-26 -23 -228 -17 -111 3 -237 10 -278 16 -41 5 -163 14 -270 19 -107 4 -197 9
-200 10 -18 6 77 34 190 57 19 4 58 17 85 30 28 12 62 25 77 29 29 8 55 32 44
42 -3 3 -17 1 -31 -5 -14 -7 -34 -12 -44 -12 -10 0 -38 -11 -62 -24 -24 -13
-82 -32 -129 -41 -46 -10 -96 -22 -110 -28 -57 -25 -583 -41 -665 -21 -107 27
-161 47 -199 72 -40 27 -260 241 -369 360 -77 83 -128 191 -134 287 -5 67 -4
71 23 98 55 53 119 104 151 121 l32 16 42 -61 c23 -34 45 -57 50 -52 10 10 1
53 -12 53 -13 0 -41 59 -33 71 3 6 -5 22 -17 36 -21 22 -24 34 -24 106 0 45 4
95 8 111 8 29 8 29 23 7 17 -24 44 -28 44 -7 0 7 -7 19 -15 26 -8 7 -15 18
-15 25 0 7 -18 34 -39 60 -60 73 -153 262 -159 324 -3 31 -1 51 6 51 11 0 178
-178 203 -218 9 -15 66 -73 126 -129 59 -56 162 -152 228 -214 66 -62 147
-140 181 -173 33 -34 78 -76 100 -93 36 -30 96 -80 151 -127 27 -22 48 -13 33
15 -6 10 -15 19 -21 19 -5 0 -42 26 -80 58 -39 31 -85 68 -104 82 -18 14 -50
45 -70 70 -21 25 -63 67 -94 94 -69 60 -341 318 -387 366 -18 19 -46 53 -62
75 -17 22 -50 61 -74 87 -25 26 -71 76 -104 111 -135 144 -206 235 -308 392
-22 33 -53 80 -69 105 -25 38 -83 162 -90 194 -1 5 18 13 43 18 25 4 83 26
129 49 64 31 89 39 101 31 10 -6 36 -7 69 -1 106 16 142 13 211 -19 36 -17
110 -43 165 -57 55 -14 104 -30 110 -36 12 -12 38 -12 30 1 -3 5 -55 25 -116
45 -115 37 -195 71 -205 86 -8 13 7 11 72 -11 32 -11 65 -20 72 -20 21 0 5 16
-34 35 l-36 17 22 15 c21 15 25 15 49 0 14 -8 32 -27 39 -41 7 -14 21 -26 30
-26 10 0 38 -21 62 -46 44 -44 141 -124 152 -124 3 0 -53 59 -125 130 -124
123 -130 131 -111 145 10 8 23 15 28 15 10 0 91 61 151 114 63 55 26 42 -54
-20 -73 -56 -147 -94 -181 -94 -10 0 -22 -4 -25 -10 -3 -5 -29 -17 -58 -26
-47 -14 -79 -20 -214 -40 -27 -4 -43 -3 -43 4 0 15 103 62 136 62 26 0 27 1
12 16 -14 14 -21 14 -54 4 -21 -7 -60 -26 -86 -41 -27 -16 -52 -29 -57 -29 -4
0 -48 -20 -97 -44 -99 -49 -211 -73 -291 -63 -152 19 -194 27 -246 47 -33 12
-69 19 -85 16 -15 -2 -44 -7 -64 -11 l-38 -6 20 33 c25 43 68 84 98 93 20 6
22 3 22 -27 1 -33 19 -68 36 -68 5 0 21 21 36 46 25 41 29 43 49 32 18 -12 24
-9 51 22 16 19 36 50 44 68 l14 32 73 -1 c39 -1 82 -4 95 -7 26 -8 191 5 237
18 19 5 -35 8 -150 9 -99 1 -190 4 -202 7 -23 6 -32 37 -14 48 5 4 22 34 39
69 16 34 40 78 53 97 l24 36 60 -12 c70 -14 147 -20 161 -12 5 3 29 9 54 13
83 12 174 37 204 56 26 16 28 19 10 19 -11 0 -24 -4 -30 -9 -32 -29 -314 -59
-383 -40 -26 6 -50 16 -55 20 -5 5 -9 33 -7 63 1 30 -3 73 -9 97 -7 24 -13 58
-15 76 -2 18 -15 53 -29 77 -14 25 -26 56 -26 71 0 29 -28 125 -41 139 -4 5
-14 6 -23 3 -13 -5 -12 -12 5 -47 11 -23 24 -66 29 -96 5 -29 18 -66 30 -81
22 -30 36 -95 46 -204 5 -55 4 -68 -12 -84 -25 -24 -45 -65 -38 -76 12 -20
-115 -249 -138 -249 -7 0 -9 16 -5 45 5 35 3 45 -8 45 -7 0 -17 -4 -20 -10
-14 -22 -23 -8 -15 22 13 42 57 108 78 114 51 16 92 39 92 51 0 37 -84 0 -136
-60 -47 -56 -63 -87 -71 -144 -5 -37 -14 -55 -47 -86 -23 -22 -57 -45 -76 -52
-23 -8 -54 -35 -90 -79 -46 -57 -64 -70 -108 -86 -30 -9 -67 -27 -82 -39 -16
-11 -32 -21 -36 -21 -4 0 -21 -11 -38 -24 -17 -12 -44 -30 -61 -38 -31 -16
-200 -80 -245 -93 -14 -4 -38 -13 -55 -20 -52 -22 -89 -33 -130 -40 -22 -4
-65 -17 -95 -30 -30 -12 -80 -28 -110 -35 -30 -7 -80 -25 -110 -40 -30 -15
-93 -40 -140 -54 -46 -15 -97 -34 -112 -42 -57 -30 -298 -76 -358 -69 -25 3
-65 8 -90 11 -24 2 -52 12 -61 20 -9 8 -32 19 -51 25 -49 13 -97 63 -141 149
-21 41 -53 97 -71 124 -81 125 -225 365 -263 436 -16 30 -59 103 -95 161 -36
58 -68 119 -72 135 -9 35 -43 233 -57 324 -5 36 -13 94 -19 130 -5 36 -10 112
-10 170 -1 58 -7 139 -15 180 -16 82 -35 209 -40 280 -2 25 -9 61 -15 80 -5
19 -10 48 -10 64 0 16 -4 43 -9 60 -6 17 -17 78 -26 136 -25 155 -38 218 -60
280 -8 23 -15 53 -15 65 0 20 -11 57 -50 165 -24 65 -28 75 -44 115 -9 22 -17
49 -19 60 -2 11 -11 44 -21 74 -20 57 -14 70 27 71 9 0 17 5 17 10 0 18 -28
22 -65 10 -35 -12 -37 -11 -85 34 -26 25 -61 48 -77 51 -15 4 -37 10 -48 15
-11 5 -45 16 -76 24 -60 17 -276 123 -369 182 -30 19 -82 43 -115 54 -127 41
-179 62 -228 90 -29 16 -74 34 -102 41 -51 12 -105 35 -105 45 0 3 5 15 11 26
18 34 -6 46 -36 18 -29 -27 -40 -23 -127 36 -26 18 -69 44 -96 58 -49 25 -71
51 -50 58 7 3 9 12 5 22 -5 13 -14 16 -35 11 -25 -5 -36 2 -100 67 -39 40 -80
85 -92 100 -20 26 -20 28 -4 53 16 25 16 27 -3 53 -13 17 -30 27 -47 27 -52 1
-53 45 -2 78 27 18 60 12 121 -20 62 -33 175 -174 175 -219 0 -17 5 -17 28 -3
14 9 27 7 60 -10 24 -12 54 -31 68 -43 20 -18 90 -46 154 -63 8 -2 35 -9 60
-15 25 -6 59 -15 75 -18 33 -8 79 -40 159 -113 28 -25 77 -56 109 -69 33 -13
61 -29 64 -37 8 -20 35 -16 31 4 -2 10 -33 33 -74 53 -65 32 -99 58 -238 180
-28 25 -61 52 -73 61 -31 21 -32 41 -3 49 14 3 26 14 28 23 4 21 -10 22 -54 1
-42 -20 -46 -17 -108 76 -26 38 -75 94 -109 124 -50 45 -58 56 -40 56 25 0 40
17 26 31 -6 6 -19 6 -36 0 -23 -9 -29 -6 -61 29 -19 21 -42 50 -51 64 -22 33
-13 73 17 78 14 2 26 13 32 29 7 22 4 33 -18 62 -33 43 -55 53 -75 33 -13 -13
-12 -16 10 -24 28 -11 64 -48 52 -54 -4 -2 -24 -4 -43 -4 -33 1 -36 4 -52 51
-21 65 -11 85 43 85 48 0 121 -36 168 -82 19 -18 62 -76 97 -128 55 -85 76
-105 184 -190 67 -52 137 -108 155 -123 35 -29 125 -69 183 -82 23 -5 33 -3
37 7 8 21 -47 174 -86 239 -19 32 -43 72 -54 90 -61 102 -74 125 -75 132 0 4
16 7 35 7 24 0 35 5 35 15 0 11 -12 15 -45 15 -42 0 -46 2 -60 37 -9 21 -21
57 -27 81 l-11 44 51 47 52 46 -15 33 c-8 17 -18 32 -23 32 -17 0 -20 -12 -10
-36 14 -29 -1 -49 -43 -59 -25 -6 -27 -4 -31 35 -5 53 21 100 55 100 14 0 43
-15 65 -32z m4837 2 c-3 -5 -11 -10 -16 -10 -6 0 -7 5 -4 10 3 6 11 10 16 10
6 0 7 -4 4 -10z m-25 -48 c0 -4 -8 -18 -17 -31 l-16 -24 -8 21 c-5 14 -17 22
-31 23 -22 0 -22 1 -3 9 25 11 75 12 75 2z m-110 -52 c0 -11 -59 -23 -91 -18
-19 3 -14 7 21 15 59 14 70 15 70 3z m60 -30 c0 -5 -5 -10 -11 -10 -5 0 -7 5
-4 10 3 6 8 10 11 10 2 0 4 -4 4 -10z m1724 -47 c-4 -27 -15 -67 -25 -90 -11
-26 -14 -45 -8 -48 8 -6 23 22 53 95 3 8 3 -1 0 -20 -9 -51 -81 -188 -125
-239 -22 -24 -39 -47 -39 -52 0 -9 -106 -59 -127 -59 -19 0 -5 23 52 85 25 28
54 69 65 92 10 23 36 68 58 100 36 53 50 80 80 156 17 41 24 33 16 -20z
m-1899 7 c-3 -5 -12 -10 -18 -10 -7 0 -6 4 3 10 19 12 23 12 15 0z m165 -6 c0
-4 -9 -32 -20 -63 -21 -56 -21 -56 -83 -75 -92 -28 -126 -45 -190 -95 -33 -25
-69 -53 -82 -61 -60 -40 -184 -170 -162 -170 1 0 36 33 77 73 81 78 151 126
132 91 -6 -11 -31 -38 -57 -62 -51 -46 -53 -79 -2 -36 18 15 33 22 35 15 2 -6
12 -11 22 -11 14 0 17 -5 13 -21 -9 -31 14 -16 72 49 26 28 52 52 58 52 6 0
-5 -17 -24 -37 -85 -91 -121 -143 -117 -168 4 -21 -11 -39 -93 -116 -55 -51
-97 -95 -94 -98 3 -2 34 22 68 55 111 108 296 258 305 249 4 -4 0 -12 -9 -18
-43 -32 -279 -250 -279 -258 0 -4 -13 -23 -29 -41 -28 -32 -96 -158 -112 -208
-25 -75 -48 -132 -46 -110 1 17 -4 26 -15 28 -20 4 -23 -11 -19 -88 1 -25 -5
-92 -13 -149 -9 -58 -16 -137 -16 -177 0 -40 -4 -75 -9 -78 -15 -10 -41 68
-42 124 0 30 -1 80 -1 110 -2 105 -1 135 7 215 4 44 14 92 21 107 18 35 18 58
-1 58 -14 0 -13 4 0 38 9 20 28 57 43 81 15 24 38 62 51 85 13 22 42 61 63 86
22 24 47 57 56 73 10 17 22 25 31 22 15 -6 31 11 31 33 0 9 -10 12 -27 10 -21
-2 -39 -20 -79 -77 -29 -41 -57 -77 -62 -80 -5 -3 -17 -22 -27 -41 -10 -19
-33 -54 -51 -78 -18 -24 -47 -78 -64 -120 -18 -42 -35 -81 -39 -87 -19 -26
-71 -206 -71 -245 0 -6 5 -10 10 -10 6 0 10 14 10 31 0 40 26 130 45 155 14
18 14 18 15 -2 0 -12 -7 -41 -15 -65 -27 -75 -65 -228 -65 -258 0 -18 7 -34
17 -39 12 -7 15 -18 10 -46 -3 -20 -2 -36 4 -36 5 0 9 6 10 13 0 6 6 1 12 -13
20 -43 78 -93 63 -54 -3 8 -2 12 4 9 12 -7 13 -35 2 -35 -5 0 -30 11 -58 24
-54 27 -104 75 -152 149 -55 83 -62 103 -62 175 0 48 -4 73 -14 81 -12 10 -15
8 -19 -11 -3 -15 -5 -10 -6 14 0 20 4 50 10 65 30 73 71 151 98 183 34 40 34
41 -9 -88 l-24 -73 26 -24 c16 -15 33 -22 43 -19 11 4 14 2 9 -9 -10 -26 12
-27 36 -2 14 15 20 30 16 41 -6 16 24 110 64 199 23 52 14 66 -18 29 -18 -20
-24 -23 -18 -9 12 32 12 40 -3 40 -7 0 -25 -33 -41 -77 -30 -83 -69 -158 -81
-158 -12 0 20 87 63 170 21 41 38 83 38 92 0 9 5 20 10 23 17 10 11 25 -10 25
-23 0 -26 10 -8 28 9 9 9 15 1 23 -9 9 -24 -8 -59 -62 -103 -163 -128 -198
-136 -193 -20 13 4 66 70 154 49 66 159 178 182 185 24 7 26 23 5 31 -11 5
-12 11 -5 24 13 24 13 30 -2 30 -6 0 -59 -49 -117 -109 -184 -188 -189 -195
-222 -310 -15 -52 -17 -71 -8 -88 13 -24 4 -77 -11 -68 -6 3 -10 14 -10 24 0
11 -9 38 -20 62 -25 57 -29 219 -5 219 8 0 23 16 32 35 42 81 458 477 605 576
22 15 50 43 64 62 16 25 36 40 62 46 20 6 60 17 87 26 93 28 114 15 40 -24
-25 -13 -69 -42 -98 -63 -28 -22 -59 -43 -67 -48 -13 -8 -12 -11 5 -23 24 -18
54 -5 100 43 38 40 151 108 219 131 51 17 126 25 126 13z m-550 -118 c0 -2
-17 -15 -37 -28 -21 -14 -95 -72 -164 -129 -289 -239 -283 -233 -276 -261 3
-10 -13 -37 -37 -66 -22 -27 -59 -72 -81 -100 -21 -28 -41 -49 -44 -46 -3 2 0
9 7 16 6 6 8 23 5 38 -3 15 2 43 10 61 9 19 21 52 28 74 7 22 25 57 41 77 15
20 28 42 28 47 0 6 4 11 9 11 5 0 18 13 28 30 26 41 159 139 248 183 90 45
100 46 49 7 -21 -16 -61 -48 -89 -70 -27 -22 -79 -61 -115 -86 -118 -85 -168
-144 -122 -144 25 0 77 51 62 60 -8 5 12 26 56 62 69 55 206 152 247 175 12 7
45 30 72 52 43 34 75 50 75 37z m2356 -22 c-4 -9 -9 -15 -11 -12 -3 3 -3 13 1
22 4 9 9 15 11 12 3 -3 3 -13 -1 -22z m-1399 -43 c-43 -39 -167 -124 -172
-119 -5 5 103 92 134 108 14 7 34 21 45 31 11 10 21 17 24 15 2 -3 -12 -19
-31 -35z m-1268 -41 c-8 -5 -66 -50 -128 -100 -62 -51 -115 -89 -119 -86 -3 4
1 12 9 19 137 124 233 192 249 179 3 -2 -2 -7 -11 -12z m2695 -35 c-7 -29 -39
-55 -68 -55 -16 0 -17 3 -8 12 7 7 12 19 12 29 0 9 12 28 27 43 22 23 28 24
35 12 5 -8 6 -27 2 -41z m-1975 19 c-37 -40 -79 -68 -79 -52 1 11 85 78 99 78
3 0 -6 -12 -20 -26z m1877 12 c20 -20 19 -21 -27 -66 -41 -40 -59 -49 -59 -30
0 6 6 10 13 10 7 0 21 23 32 50 11 28 21 50 23 50 2 0 10 -6 18 -14z m-1801
-35 c-4 -21 -26 -47 -62 -79 -31 -26 -77 -66 -103 -89 -88 -80 -65 -43 41 65
59 59 109 116 113 126 10 29 19 11 11 -23z m785 14 c-7 -8 -18 -15 -24 -15 -6
0 -2 7 8 15 25 19 32 19 16 0z m1215 -54 c-9 -9 -40 15 -43 34 -2 10 2 21 9
26 9 5 17 -2 26 -23 7 -17 11 -34 8 -37z m-2690 -16 c-39 -35 -79 -64 -90 -64
-16 -1 -14 4 13 26 19 14 57 45 85 68 78 64 72 43 -8 -30z m1205 65 c0 -5 -4
-10 -9 -10 -6 0 -13 5 -16 10 -3 6 1 10 9 10 9 0 16 -4 16 -10z m-714 -35
c-16 -14 -32 -25 -35 -25 -8 1 48 50 57 50 4 0 -6 -11 -22 -25z m904 -20 c-7
-9 -15 -13 -19 -10 -3 3 1 10 9 15 21 14 24 12 10 -5z m372 -17 c-7 -7 -12 -8
-12 -2 0 14 12 26 19 19 2 -3 -1 -11 -7 -17z m746 -28 c13 0 14 -2 4 -9 -8 -5
-24 -4 -37 3 -18 8 -21 14 -12 24 9 11 12 10 19 -2 5 -9 17 -16 26 -16z m6059
17 c-3 -8 -8 -40 -12 -73 -19 -181 -41 -278 -77 -335 -33 -55 -205 -212 -257
-236 -20 -9 -48 -25 -62 -35 -47 -32 -177 -98 -226 -114 -26 -9 -84 -33 -128
-53 -85 -39 -102 -45 -290 -86 -66 -14 -160 -35 -210 -47 -212 -50 -543 -69
-750 -44 -160 20 -189 24 -243 38 -35 9 -40 13 -30 25 8 10 11 65 10 185 -1
94 -3 172 -4 173 -2 1 -34 6 -73 12 -38 6 -106 25 -150 42 -90 36 -132 51
-223 76 -75 22 -109 51 -46 40 21 -4 59 -13 84 -21 25 -8 97 -25 160 -38 63
-13 133 -30 155 -36 22 -7 58 -14 80 -17 22 -2 112 -13 200 -23 204 -24 473
-33 595 -19 199 21 256 29 295 37 134 30 196 46 240 63 28 10 73 24 100 30 28
6 93 24 145 40 52 16 99 29 104 29 4 0 42 16 83 35 41 19 77 35 80 35 12 0
133 63 133 70 0 4 19 20 43 36 23 16 53 40 67 52 14 13 41 34 60 47 19 13 57
46 85 74 48 50 72 64 62 38z m-5840 -19 c-3 -8 -6 -5 -6 6 -1 11 2 17 5 13 3
-3 4 -12 1 -19z m-1737 -3 c0 -8 -7 -15 -15 -15 -26 0 -18 20 13 29 1 1 2 -6
2 -14z m338 -12 c-3 -17 -108 -77 -117 -67 -3 3 1 9 9 14 8 5 33 22 55 39 46
35 58 38 53 14z m551 -2 c-13 -11 -26 -17 -28 -15 -5 5 30 33 43 34 4 0 -2 -9
-15 -19z m-1200 -43 c0 -29 -3 -46 -6 -38 -3 8 -12 19 -19 23 -26 15 -9 63 24
67 1 0 2 -24 1 -52z m2097 -53 c24 -70 27 -96 28 -205 0 -112 -3 -134 -29
-210 -16 -47 -30 -90 -31 -97 -1 -7 -12 -26 -23 -42 -12 -16 -21 -33 -21 -37
0 -8 -110 -154 -116 -154 -15 0 5 41 62 126 63 96 94 165 110 249 8 45 8 44
18 68 10 22 0 50 -17 44 -9 -3 -12 22 -13 102 -1 58 -4 140 -8 181 -8 90 2 84
40 -25z m-267 -23 c1 -38 24 -40 29 -4 3 21 17 27 55 24 9 -1 17 5 17 14 0 8
5 12 11 8 7 -4 10 -34 8 -83 -3 -44 0 -78 6 -81 6 -3 11 20 13 58 5 96 22 74
22 -29 0 -82 2 -91 20 -96 23 -6 25 -28 8 -105 -14 -67 -33 -90 -23 -29 6 34
4 42 -6 39 -14 -5 -38 -85 -39 -128 -1 -24 -21 -60 -33 -60 -3 0 0 19 8 41 16
43 20 89 9 89 -4 0 -13 -8 -20 -17 -9 -12 -13 -14 -14 -5 0 8 -7 11 -19 7 -16
-5 -19 1 -23 47 -3 28 -2 66 3 82 21 74 0 136 -47 136 -17 0 -24 5 -24 19 0
11 5 23 10 26 6 3 11 41 11 83 1 68 2 72 10 37 4 -22 8 -55 8 -73z m2891 -37
c36 -27 67 -52 70 -56 3 -3 10 -8 15 -10 6 -2 42 -25 82 -52 39 -26 76 -47 82
-47 6 0 30 -12 53 -27 l42 -28 -30 -5 c-18 -3 -30 -12 -33 -25 -5 -27 -48 -88
-108 -154 l-49 -54 -41 26 c-23 14 -44 31 -48 36 -3 6 -28 23 -56 38 -41 23
-55 38 -76 83 -14 30 -29 69 -34 85 -15 48 -40 286 -33 307 5 18 11 16 53 -24
25 -25 75 -67 111 -93z m-4730 26 c0 -5 3 -17 7 -27 6 -15 4 -15 -14 2 -20 19
-21 34 -2 34 5 0 9 -4 9 -9z m-5565 -62 c12 -19 -5 -23 -22 -6 -16 16 -16 17
-1 17 9 0 20 -5 23 -11z m8005 -36 c25 -8 65 -19 90 -23 25 -5 81 -16 125 -25
44 -8 96 -18 115 -20 56 -8 130 -25 196 -46 34 -10 68 -19 76 -19 8 0 26 -6
41 -12 24 -12 26 -17 20 -53 -7 -48 -33 -103 -62 -129 -22 -20 -9 -20 -236 3
-44 5 -87 10 -95 12 -12 3 -14 -8 -12 -66 l3 -70 -43 -41 c-24 -22 -72 -63
-108 -89 -36 -27 -82 -65 -102 -84 l-38 -35 -34 33 c-18 17 -44 54 -56 82 -17
34 -28 48 -39 45 -16 -5 -91 86 -91 111 0 10 56 55 148 118 12 9 22 24 22 34
0 16 -11 20 -66 26 -36 4 -69 4 -72 0 -10 -10 29 -35 55 -35 13 0 23 -3 23 -7
0 -5 -34 -33 -75 -63 -42 -31 -75 -63 -75 -72 0 -10 13 -32 29 -50 15 -18 42
-61 59 -95 19 -36 43 -69 60 -78 15 -9 37 -36 48 -58 24 -52 54 -60 75 -21 15
28 125 124 185 160 18 11 55 41 83 67 l49 46 -10 47 c-7 32 -7 49 0 53 14 8
59 6 142 -8 36 -6 91 -10 122 -10 54 1 58 3 82 38 15 21 36 64 47 97 11 32 22
60 23 62 11 10 351 -112 523 -189 24 -11 46 -19 50 -19 16 0 454 -222 553
-281 246 -144 287 -169 319 -197 19 -15 32 -33 28 -39 -3 -5 -27 -18 -53 -28
-45 -17 -48 -17 -113 3 -108 34 -146 42 -198 42 -42 0 -57 -6 -96 -36 -51 -40
-65 -76 -52 -140 10 -55 44 -119 74 -137 20 -13 22 -17 8 -17 -10 0 -35 -9
-56 -20 -49 -24 -68 -69 -80 -181 -1 -4 -20 -9 -44 -11 -63 -7 -99 -28 -109
-63 -8 -28 -5 -105 7 -166 6 -33 -11 -56 -154 -205 -62 -65 -131 -143 -152
-174 -22 -30 -60 -84 -85 -120 -26 -36 -67 -87 -93 -115 -25 -27 -59 -65 -74
-83 -15 -19 -31 -32 -35 -30 -5 2 -51 48 -102 103 -108 116 -200 181 -268 190
-79 11 -117 24 -159 52 -221 155 -219 154 -440 151 l-152 -2 -90 86 c-49 47
-118 108 -153 134 -35 27 -71 56 -81 65 -18 17 -188 104 -219 113 -9 3 -19 18
-23 35 -5 24 -1 38 21 66 51 68 124 260 154 410 16 82 48 193 68 235 8 19 15
38 14 43 -1 4 8 11 21 16 28 11 97 86 135 149 15 23 42 66 60 93 18 28 42 70
52 93 19 46 40 206 40 312 l0 66 103 -7 c56 -4 122 -13 147 -22z m-2420 -59
c0 -34 -1 -35 -33 -29 -28 6 -41 1 -81 -30 -27 -21 -43 -28 -37 -18 20 37 128
124 144 116 4 -2 7 -20 7 -39z m-167 -10 c-86 -104 -92 -110 -93 -92 0 18 106
138 122 138 5 0 -8 -21 -29 -46z m1997 5 c0 -47 -39 -127 -52 -107 -12 20 -9
123 4 136 7 7 20 12 30 12 14 0 18 -8 18 -41z m-2125 -26 c-10 -16 -25 -37
-35 -48 -10 -11 -45 -62 -79 -112 -34 -51 -64 -93 -66 -93 -9 0 71 148 99 184
66 83 119 129 81 69z m-609 -47 c-20 -24 -36 -47 -36 -51 0 -3 -13 -25 -29
-48 -15 -23 -31 -52 -35 -64 -4 -11 -14 -27 -22 -34 -13 -11 -14 -9 -8 17 12
51 45 107 98 166 60 68 85 78 32 14z m-4054 -3 c21 -20 38 -40 38 -44 0 -8
-100 15 -129 30 -17 10 -20 15 -11 26 6 8 21 16 33 18 12 2 24 5 27 6 2 0 21
-16 42 -36z m5137 16 c-14 -8 -29 -3 -29 11 0 4 9 6 21 3 15 -4 17 -8 8 -14z
m1651 -110 c0 -20 -15 -26 -24 -10 -8 13 4 42 15 35 5 -3 9 -14 9 -25z m3415
-43 c28 -8 95 -30 150 -50 55 -19 117 -37 138 -41 l37 -6 1 -62 c0 -34 2 -97
3 -141 4 -78 4 -78 -26 -95 -17 -9 -84 -52 -150 -96 -159 -107 -182 -120 -202
-112 -15 6 -15 9 -1 36 8 17 26 42 40 57 30 33 31 41 3 118 -23 66 -54 106
-108 141 -95 60 -169 56 -243 -14 -47 -44 -50 -45 -63 -26 -9 13 -11 22 -4 29
5 5 10 20 10 32 0 13 5 26 10 29 6 3 10 16 10 29 0 20 17 46 127 189 l41 54
89 -28 c48 -15 111 -34 138 -43z m-5540 2 c-16 -176 -16 -238 0 -238 11 0 15
-12 16 -52 1 -47 3 -44 13 34 7 48 16 91 20 95 9 8 1 -185 -12 -297 -4 -36 -3
-115 2 -176 7 -96 6 -114 -8 -137 -9 -13 -26 -27 -37 -30 -35 -9 -35 8 -6 458
1 21 -3 30 -13 30 -12 0 -16 -28 -22 -160 -9 -197 -8 -187 -30 -193 -15 -3
-18 -14 -18 -58 0 -30 -4 -54 -10 -54 -5 0 -10 6 -10 14 0 19 -13 27 -29 17
-10 -6 -10 -22 -1 -74 7 -37 16 -67 21 -67 5 0 9 7 9 15 0 8 5 15 10 15 6 0
10 -11 10 -25 0 -27 -17 -32 -42 -12 -10 8 -18 35 -21 77 -7 81 -14 100 -37
100 -20 0 -37 18 -38 40 0 8 -4 73 -7 144 -5 88 -4 152 5 200 15 89 21 108 27
84 8 -31 20 -19 26 25 3 23 15 65 27 92 12 28 26 61 31 74 16 39 19 19 4 -24
-16 -46 -20 -125 -5 -125 5 0 7 6 4 13 -5 15 45 182 53 174 6 -6 5 -80 -1
-126 -3 -19 -2 -39 1 -44 4 -6 15 36 24 94 17 98 32 149 44 149 3 0 3 -24 0
-52z m123 -28 c1 -44 6 -109 12 -143 8 -43 8 -71 1 -90 -15 -38 -16 -300 -2
-305 6 -2 11 -13 11 -24 0 -27 23 -48 48 -42 21 6 32 45 32 117 0 20 4 37 10
37 6 0 7 24 3 63 -6 58 -5 61 11 47 16 -12 17 -28 13 -127 -5 -119 3 -145 20
-65 l10 47 2 -52 c0 -29 5 -53 9 -53 13 0 35 98 28 126 l-7 26 35 -27 c24 -18
32 -32 29 -45 -3 -10 2 -33 10 -49 14 -29 14 -32 -4 -41 -17 -10 -19 -7 -19
20 0 18 -5 30 -14 30 -9 0 -13 -18 -14 -67 -1 -66 0 -67 14 -40 19 34 35 26
27 -13 -6 -33 10 -41 26 -13 15 28 22 10 13 -33 -5 -23 -14 -38 -21 -36 -9 2
-12 -11 -10 -45 5 -91 -1 -184 -11 -178 -5 3 -10 28 -10 55 0 27 -4 52 -10 55
-11 7 -13 -6 -14 -69 -1 -24 -6 -41 -15 -44 -11 -4 -13 4 -8 38 3 23 3 49 0
56 -8 21 -23 17 -23 -6 0 -11 -6 -19 -12 -17 -9 1 -14 -20 -18 -73 -6 -92 -22
-77 -19 18 2 66 2 67 -22 64 -32 -5 -31 -3 -33 -66 -1 -57 9 -80 24 -56 8 13
10 12 10 -2 0 -20 -17 -23 -40 -8 -10 6 -15 26 -15 65 0 38 -5 59 -15 65 -8 5
-15 21 -16 37 -3 40 -3 40 -18 14 -12 -21 -12 -31 0 -64 8 -22 14 -54 14 -71
-1 -28 -2 -29 -14 -13 -8 10 -18 48 -24 85 -6 37 -14 78 -17 92 -12 46 -28
214 -29 295 0 44 6 145 13 225 8 80 15 179 17 220 2 61 20 160 29 160 1 0 3
-36 3 -80z m2023 -7 c-8 -15 -10 -15 -11 -2 0 17 10 32 18 25 2 -3 -1 -13 -7
-23z m144 -59 c-13 -27 -24 -43 -24 -36 -1 16 39 96 45 90 2 -3 -7 -27 -21
-54z m-2779 4 c-19 -27 -21 -19 -4 18 7 14 14 21 16 15 2 -6 -4 -21 -12 -33z
m-220 -53 c-18 -43 -21 -81 -6 -90 12 -8 13 -25 1 -44 -8 -12 -12 -12 -25 -2
-20 17 -21 65 -2 94 8 12 17 34 20 50 2 15 8 37 12 50 l8 22 4 -21 c2 -12 -4
-39 -12 -59z m-160 -1 c8 -64 28 -106 119 -243 36 -54 65 -103 65 -109 0 -6
18 -24 39 -41 22 -17 52 -52 68 -77 20 -33 54 -62 124 -108 59 -39 104 -77
118 -99 36 -58 143 -134 210 -148 25 -5 63 -14 83 -18 21 -5 57 -24 80 -42 69
-55 123 -89 141 -89 24 0 21 -12 -10 -42 -26 -24 -36 -26 -140 -30 -61 -3
-118 -9 -125 -15 -7 -6 -33 -19 -58 -29 -25 -10 -62 -28 -83 -41 -21 -13 -59
-28 -85 -33 -86 -17 -166 -41 -182 -54 -8 -8 -25 -17 -38 -21 -12 -3 -42 -21
-65 -39 -24 -18 -64 -45 -89 -60 -26 -15 -75 -59 -110 -97 -35 -39 -106 -116
-159 -172 -107 -114 -154 -189 -175 -279 -18 -76 -27 -88 -70 -88 -50 0 -78
-31 -69 -78 4 -21 14 -46 23 -56 14 -15 14 -20 3 -24 -7 -2 -43 -25 -80 -50
-36 -25 -118 -72 -181 -104 -63 -32 -128 -71 -145 -87 -16 -15 -55 -44 -85
-64 -30 -21 -65 -44 -77 -53 -20 -15 -22 -14 -33 23 -7 21 -28 57 -46 80 -19
23 -34 44 -34 47 0 5 -27 48 -70 111 -11 17 -55 78 -98 136 -42 58 -87 119
-99 135 -25 36 -127 237 -138 274 -4 14 -33 77 -65 141 -31 64 -76 170 -99
235 -23 66 -51 139 -61 164 l-18 44 28 36 c15 19 54 56 86 80 32 25 92 77 133
115 42 39 107 95 144 125 38 30 101 81 140 114 113 93 185 146 195 146 6 0 23
10 39 23 15 13 48 35 73 49 25 14 56 38 69 52 14 14 28 26 33 26 5 0 32 15 61
33 50 32 126 76 252 145 55 30 118 63 290 151 33 17 65 31 71 31 7 0 25 7 40
15 46 24 52 19 60 -41z m175 -37 c-10 -9 -11 -8 -5 6 3 10 9 15 12 12 3 -3 0
-11 -7 -18z m2906 -3 c21 -6 22 -8 7 -35 -8 -16 -18 -29 -23 -29 -17 0 -33 29
-26 50 7 22 9 23 42 14z m-2619 -69 c-6 -14 -13 -23 -15 -21 -5 5 15 46 22 46
3 0 -1 -11 -7 -25z m5780 -11 c76 -36 98 -57 122 -121 26 -70 26 -74 -11 -133
-39 -64 -61 -65 -88 -5 -11 25 -35 58 -52 73 -44 37 -134 82 -164 82 -36 0
-31 14 21 70 32 34 55 50 77 53 18 2 33 5 35 5 2 1 29 -10 60 -24z m-6046 -64
c6 -37 -7 -48 -22 -20 -8 15 -7 24 2 35 7 8 14 14 14 15 1 0 4 -14 6 -30z
m412 -176 c2 -110 7 -218 10 -241 6 -36 5 -41 -11 -37 -10 3 -24 17 -31 32
-15 31 -16 200 -2 269 5 26 12 79 16 116 3 38 8 67 10 64 3 -2 6 -94 8 -203z
m-154 102 c-9 -8 -10 -2 -7 24 7 47 9 50 14 16 3 -16 -1 -34 -7 -40z m-33 32
c-3 -8 -6 -5 -6 6 -1 11 2 17 5 13 3 -3 4 -12 1 -19z m651 -140 c-3 -97 -4
-101 -19 -78 -13 21 -14 39 -6 119 13 123 29 97 25 -41z m-667 32 c-9 -24 -10
-23 -10 10 -1 19 3 46 7 60 6 23 7 22 10 -10 2 -20 -1 -47 -7 -60z m5717 39
c92 -48 117 -79 117 -143 l0 -53 -87 -87 c-47 -47 -91 -86 -96 -86 -11 0 -82
79 -82 91 0 16 -114 50 -147 44 -18 -3 -33 -2 -33 3 0 5 15 30 33 56 17 26 37
55 42 64 6 9 29 43 52 74 43 57 46 59 124 66 9 1 44 -12 77 -29z m-4768 -129
c0 -23 -36 -36 -55 -20 -18 15 -20 76 -2 83 16 7 57 -39 57 -63z m-876 -45 c8
-20 7 -20 -8 -1 -9 12 -15 37 -15 60 l2 41 7 -40 c4 -22 10 -49 14 -60z m900
-13 c8 -13 -11 -35 -23 -28 -5 4 -20 -3 -31 -14 -26 -26 -35 -20 -26 14 4 17
14 26 34 29 15 2 30 5 34 6 4 0 9 -3 12 -7z m4184 -70 c30 -12 40 -21 36 -32
-19 -47 -25 -82 -15 -94 9 -10 1 -15 -35 -20 -26 -3 -60 -6 -75 -6 -19 0 -37
-9 -51 -25 -27 -31 -29 -31 -67 0 -61 52 -79 133 -39 178 21 23 26 24 112 20
51 -3 110 -12 134 -21z m-4156 -17 c-2 -14 -8 -25 -13 -25 -10 0 -12 21 -3 44
9 24 22 10 16 -19z m-55 -62 c-3 -38 -12 -88 -20 -113 l-15 -45 -1 60 c-1 66
18 165 33 165 5 0 6 -30 3 -67z m4554 54 c39 -13 129 -106 129 -134 0 -9 6
-24 14 -32 7 -9 44 -74 81 -146 77 -146 84 -184 48 -265 l-20 -45 -19 32 c-19
33 -29 40 -38 25 -7 -12 19 -95 32 -100 15 -5 1 -39 -53 -132 -24 -42 -49
-100 -56 -129 -15 -69 -33 -113 -67 -160 -33 -46 -56 -97 -78 -175 -20 -72
-66 -121 -279 -300 -21 -17 -27 -28 -19 -35 11 -12 87 37 112 71 17 23 28 16
36 -23 3 -17 12 -45 20 -62 7 -18 28 -70 46 -117 18 -47 42 -110 55 -140 12
-30 28 -73 35 -95 7 -22 41 -98 75 -170 35 -71 68 -147 75 -168 7 -21 54 -123
105 -225 51 -103 95 -196 98 -207 7 -29 38 -115 53 -150 14 -32 47 -144 89
-295 26 -98 49 -279 36 -293 -4 -4 -4 -31 0 -60 18 -127 2 -312 -34 -399 -8
-18 -17 -49 -21 -69 -9 -48 -97 -146 -154 -170 -69 -30 -278 -27 -392 6 -102
29 -207 65 -275 95 -67 29 -177 67 -247 86 -63 16 -242 96 -252 112 -3 5 -25
20 -48 32 -24 12 -56 34 -73 49 -43 39 -266 211 -275 211 -3 0 -27 20 -53 45
-27 24 -65 54 -85 66 -53 32 -122 100 -122 121 0 10 8 22 18 25 27 10 40 34
48 83 4 26 15 50 26 58 38 28 65 121 38 137 -15 9 -12 25 5 25 39 0 70 112 45
160 -9 16 -5 22 24 35 54 26 71 50 58 80 -11 23 -9 25 11 25 13 0 37 15 55 33
28 29 31 37 23 59 -11 30 -6 38 25 38 12 0 36 12 53 26 20 17 37 24 48 19 26
-9 99 -64 157 -116 28 -26 76 -62 106 -82 31 -19 61 -41 68 -49 7 -9 13 -78
17 -188 3 -95 9 -178 15 -184 5 -7 9 -29 9 -51 1 -104 10 -213 20 -243 5 -19
26 -57 45 -86 19 -29 46 -77 61 -107 61 -128 140 -230 165 -214 18 11 10 34
-16 51 -31 21 -98 119 -130 191 -12 29 -36 72 -52 95 -42 63 -51 93 -57 193
-18 272 -11 509 16 525 6 4 8 16 5 28 -4 12 -2 68 4 124 7 57 12 117 11 133 0
49 -28 221 -51 315 -5 25 -15 86 -20 135 -35 336 -30 304 -71 428 -30 91 -59
262 -54 324 2 29 16 57 78 147 21 31 28 39 88 109 23 26 44 47 48 47 3 0 14
-14 23 -30 17 -29 41 -39 52 -21 3 5 -3 20 -15 35 -11 14 -22 35 -24 46 -12
63 -72 200 -87 200 -4 0 -15 15 -24 33 -22 43 -121 137 -145 137 -16 0 -19 7
-19 48 0 30 7 56 19 71 17 23 23 24 84 18 37 -3 79 -14 94 -23 40 -25 113 -96
113 -110 0 -6 8 -14 18 -18 9 -3 23 -9 30 -12 7 -3 12 1 12 11 0 23 -127 147
-172 168 -36 17 -47 35 -31 51 4 4 8 23 9 42 1 35 26 79 57 98 11 7 27 7 54
-3 81 -28 159 -72 178 -99 40 -57 118 -141 126 -136 16 10 10 21 -59 105 -53
66 -81 91 -131 118 -61 32 -63 34 -57 64 4 18 12 37 19 44 15 15 222 33 252
22 24 -9 53 -34 84 -74 32 -43 252 -265 262 -265 28 0 5 32 -102 138 -95 94
-120 124 -115 139 8 25 -31 116 -47 110 -7 -2 -12 -13 -11 -25 0 -17 -3 -19
-17 -11 -10 5 -21 14 -24 19 -3 6 -32 10 -64 10 l-57 0 4 38 c5 45 27 72 59
72 12 0 23 4 23 9 0 14 167 11 211 -2z m-5067 -185 c4 -7 2 -12 -4 -12 -15 0
-30 45 -29 88 1 36 1 36 13 -13 7 -28 16 -56 20 -63z m681 -33 c21 -28 49 -58
62 -66 35 -23 17 -31 -59 -25 -67 4 -67 4 -70 36 -3 35 11 106 21 106 4 0 24
-23 46 -51z m-165 -30 c0 -10 5 -19 10 -19 6 0 10 -5 10 -11 0 -6 -12 -9 -27
-7 -21 2 -29 9 -31 27 -4 23 15 44 30 35 4 -3 8 -14 8 -25z m-183 -21 c-3 -7
-5 -2 -5 12 0 14 2 19 5 13 2 -7 2 -19 0 -25z m126 7 c4 -8 2 -17 -3 -20 -6
-4 -10 3 -10 14 0 25 6 27 13 6z m127 -10 c0 -17 -4 -23 -15 -19 -11 5 -12 11
-4 25 13 26 19 24 19 -6z m-323 -22 c-3 -10 -5 -4 -5 12 0 17 2 24 5 18 2 -7
2 -21 0 -30z m378 -42 c44 -5 107 -13 140 -17 72 -8 168 -36 250 -74 33 -15
65 -29 70 -31 39 -14 125 -77 144 -105 13 -19 29 -34 36 -34 6 0 38 -17 71
-39 32 -21 93 -60 134 -87 41 -26 108 -73 149 -104 40 -30 108 -80 151 -110
42 -30 94 -73 116 -95 22 -22 60 -55 84 -73 25 -19 83 -62 130 -97 118 -87
355 -338 434 -458 42 -65 62 -90 125 -170 28 -34 91 -153 91 -171 0 -2 -47 43
-105 100 -58 57 -105 109 -105 114 0 6 8 10 18 10 10 0 22 3 25 7 11 10 -14
33 -37 33 -11 0 -35 8 -51 18 -17 11 -66 33 -110 49 -44 17 -113 45 -153 62
-75 31 -186 49 -302 49 -59 -1 -184 15 -240 30 -87 24 -94 30 -185 162 -111
161 -211 277 -415 480 -144 144 -210 193 -375 280 -27 14 -61 33 -75 42 -44
28 -208 61 -318 63 -57 1 -108 7 -113 12 -7 7 4 20 30 40 23 17 57 50 76 74
19 24 45 47 57 51 26 8 134 3 253 -11z m3716 -393 c9 -7 19 -23 23 -35 4 -12
18 -31 30 -41 30 -23 42 -58 22 -65 -7 -3 -35 -34 -62 -69 -26 -35 -74 -91
-107 -126 -44 -47 -57 -66 -49 -74 12 -12 63 39 163 161 55 67 76 82 89 61 5
-8 10 -19 10 -25 0 -17 -107 -156 -169 -220 -32 -33 -68 -76 -81 -95 -13 -19
-49 -62 -79 -96 -31 -33 -78 -89 -106 -124 -123 -159 -218 -240 -278 -240 -18
0 -16 5 16 38 20 21 37 41 37 45 0 20 -36 2 -85 -43 -59 -53 -69 -57 -109 -38
-81 36 -27 227 105 369 33 35 81 93 106 129 109 152 140 191 241 296 59 61
132 140 162 176 l55 65 25 -18 c14 -10 32 -24 41 -31z m-131 -680 c0 -63 24
-180 56 -278 19 -58 36 -125 39 -150 5 -48 21 -231 30 -345 7 -80 10 -94 36
-152 25 -56 35 -215 20 -313 -7 -41 -15 -78 -20 -83 -8 -8 -148 79 -167 104
-21 27 -44 105 -44 147 0 72 -43 129 -131 176 -39 21 -45 29 -51 67 -3 24 -11
78 -17 119 -6 41 -20 98 -31 125 -47 122 -73 201 -76 224 -2 19 8 36 39 67 61
58 176 190 205 232 13 21 40 54 60 74 39 41 52 37 52 -14z m-185 -948 c17 0
58 -47 51 -58 -13 -22 -66 -24 -104 -4 -20 10 -52 22 -69 25 -42 8 -44 -10 -4
-55 61 -71 59 -98 -9 -98 -24 0 -39 6 -48 20 -15 24 -50 26 -59 3 -4 -10 2
-23 19 -37 14 -12 33 -35 41 -52 15 -29 15 -33 -1 -47 -28 -24 -79 -31 -98
-13 -17 18 -64 22 -64 6 0 -6 19 -29 42 -52 l42 -41 -23 -18 c-30 -25 -50 -24
-78 3 -18 17 -26 19 -35 10 -9 -9 -4 -22 20 -56 47 -66 55 -91 37 -127 -19
-35 -23 -36 -69 -4 -20 14 -41 25 -46 25 -22 0 -17 -21 13 -58 48 -57 63 -97
48 -128 -16 -35 -38 -40 -62 -15 -19 20 -39 21 -39 0 0 -5 10 -30 21 -55 18
-37 20 -50 11 -70 -13 -27 -34 -31 -52 -9 -14 17 -36 20 -45 5 -4 -6 3 -29 14
-51 34 -64 23 -139 -16 -111 -10 6 -28 16 -41 22 -26 11 -25 20 20 150 63 185
73 232 84 407 7 102 9 110 43 158 25 36 37 64 41 100 l5 50 37 -3 c29 -3 41 2
59 22 16 18 26 23 34 16 9 -7 16 -6 25 5 10 12 10 15 -4 15 -48 0 78 124 148
147 22 7 38 5 65 -9 19 -10 40 -18 46 -18z m75 -145 c0 -25 -4 -45 -9 -45 -17
0 -91 54 -91 66 0 7 16 14 38 17 20 2 43 4 50 5 8 1 12 -13 12 -43z m-4403
-42 c3 -10 13 -26 21 -36 12 -13 13 -20 4 -29 -9 -9 -12 -9 -12 0 0 24 -25 11
-72 -40 l-49 -53 5 43 c4 45 29 82 53 82 7 0 13 8 13 18 0 34 26 44 37 15z
m-367 -282 c0 -10 -25 -21 -48 -21 -12 1 -10 5 8 15 29 17 40 18 40 6z m445
-17 c74 -10 83 -18 36 -34 -34 -11 -48 -11 -82 0 -23 8 -51 22 -63 33 -24 20
-36 20 109 1z m7260 -265 c32 -11 102 -49 155 -84 52 -35 128 -78 167 -96 40
-18 75 -40 78 -50 3 -9 14 -19 25 -22 22 -6 40 -61 75 -232 13 -66 34 -165 45
-220 12 -55 23 -116 25 -135 4 -39 20 -150 36 -250 24 -143 28 -221 35 -600 7
-421 -4 -746 -32 -900 -8 -47 -19 -121 -24 -165 -5 -44 -12 -93 -15 -110 -3
-16 -10 -68 -15 -115 -23 -186 -56 -353 -85 -424 -31 -77 -65 -184 -69 -216
-9 -68 -17 -80 -51 -80 -18 0 -54 9 -80 20 -26 11 -60 20 -75 20 -60 0 -144
29 -165 57 -21 27 -59 139 -78 229 -10 49 -13 52 -76 87 -36 20 -77 45 -89 55
l-24 18 16 70 c9 38 21 85 26 104 5 19 14 64 20 100 6 36 22 95 36 131 l25 66
52 8 c29 4 75 10 102 14 28 3 50 11 50 16 0 30 -108 120 -162 134 -32 9 -77
85 -69 117 4 13 25 43 47 66 23 24 47 55 55 70 8 15 23 32 34 38 10 6 27 26
36 45 15 32 15 36 -4 62 -18 27 -28 52 -93 249 l-30 92 -144 73 c-114 57 -152
82 -177 113 -17 23 -44 52 -60 64 -16 13 -35 37 -43 53 -25 47 -75 99 -119
121 -43 22 -134 90 -195 147 -20 18 -53 45 -75 59 -41 28 -51 46 -72 132 -22
92 -19 117 19 140 17 11 46 20 63 20 26 0 34 6 52 44 12 24 22 50 22 58 0 14
31 88 50 118 9 15 100 187 149 285 38 73 195 227 253 247 18 6 50 22 70 35 21
13 41 23 45 23 5 0 31 18 58 41 61 51 99 71 119 63 9 -3 16 -1 16 5 0 14 -5
15 65 -10z m-3480 -335 c33 -34 -1 -69 -39 -41 -16 12 -17 16 -5 35 16 26 23
27 44 6z m-3464 -1495 c-9 -21 -10 -20 -6 11 5 44 6 49 12 29 2 -8 -1 -26 -6
-40z m-45 -6 c-10 -10 -19 5 -10 18 6 11 8 11 12 0 2 -7 1 -15 -2 -18z m3040
-898 c11 -45 -13 -122 -32 -102 -10 10 -12 102 -2 115 16 19 27 15 34 -13z
m28 -191 c15 -39 0 -94 -26 -94 -11 0 -32 76 -25 94 8 21 43 21 51 0z m22
-168 c19 -39 12 -106 -11 -106 -15 0 -20 14 -29 86 -9 63 14 75 40 20z m-3792
-96 c-15 -39 -31 -70 -35 -70 -11 0 -39 54 -39 75 0 26 32 67 65 81 42 17 44
1 9 -86z m3831 -90 c17 -33 19 -78 5 -100 -13 -21 -25 -5 -44 62 -20 70 -20
68 4 68 11 0 26 -12 35 -30z m31 -195 c6 -23 0 -45 -10 -34 -10 12 -15 59 -6
59 5 0 12 -11 16 -25z m44 -167 c0 -4 -4 -8 -10 -8 -5 0 -10 4 -10 9 0 5 -3
18 -6 28 -5 16 -4 16 10 -1 9 -11 16 -23 16 -28z"/>
<path d="M12777 10014 c-3 -3 -77 -10 -164 -14 -87 -5 -178 -13 -203 -20 -25
-6 -83 -15 -130 -20 -78 -9 -153 -22 -285 -50 -67 -14 -173 -49 -180 -60 -3
-5 -29 -16 -58 -26 -28 -9 -74 -29 -102 -44 -253 -136 -269 -148 -355 -255
-58 -74 -73 -103 -94 -183 -19 -75 -13 -143 19 -192 12 -19 30 -48 40 -65 31
-51 148 -177 188 -202 22 -14 64 -33 95 -43 32 -9 91 -34 132 -53 169 -79 356
-129 550 -147 95 -9 120 -11 305 -32 109 -12 137 -12 360 -8 136 2 213 9 285
26 14 3 60 7 102 9 73 2 101 9 175 41 17 8 40 14 51 14 11 0 76 14 144 31 88
22 157 47 244 90 66 32 125 59 131 59 5 0 49 29 98 65 48 36 92 65 96 65 17 0
91 74 124 124 44 67 67 136 71 217 3 60 1 70 -34 130 -52 90 -198 232 -298
290 -157 91 -297 149 -361 149 -12 0 -34 5 -49 10 -15 6 -52 15 -83 20 -31 5
-76 14 -101 19 -86 20 -266 38 -388 40 -67 1 -134 6 -148 11 -28 11 -167 14
-177 4z m238 -34 c364 -27 365 -27 555 -64 257 -51 344 -83 526 -198 78 -49
231 -207 266 -276 26 -50 27 -56 18 -127 -9 -74 -24 -113 -62 -167 -23 -33
-32 -35 -44 -8 -17 36 -128 112 -254 172 -126 61 -169 77 -315 118 -44 12
-111 33 -150 45 -76 26 -155 48 -225 64 -25 5 -58 13 -75 17 -35 9 -116 11
-380 13 -149 1 -201 -2 -240 -15 -27 -8 -97 -20 -155 -24 -58 -5 -139 -19
-180 -30 -41 -12 -104 -25 -140 -30 -102 -14 -173 -34 -341 -97 -121 -45 -173
-70 -225 -110 -95 -70 -167 -149 -189 -206 -10 -26 -21 -47 -24 -47 -12 0 -73
63 -93 95 -10 17 -18 38 -18 48 0 9 -9 25 -20 34 -40 35 -17 199 38 273 79
104 104 131 163 171 32 21 70 44 84 49 14 5 49 25 78 43 29 19 79 43 112 55
33 11 83 31 110 45 86 43 301 95 430 104 39 2 97 11 130 20 33 8 116 19 185
24 69 5 157 13 195 18 39 5 79 7 90 5 11 -2 79 -8 150 -14z m114 -446 c74 -3
142 -9 152 -15 10 -5 31 -9 48 -9 16 0 90 -20 163 -43 73 -24 151 -49 173 -55
124 -34 186 -56 240 -81 33 -15 80 -36 105 -47 102 -42 250 -157 250 -195 0
-16 -56 -69 -74 -69 -3 0 -35 -22 -69 -48 -64 -50 -304 -169 -392 -195 -27 -8
-93 -24 -145 -36 -52 -12 -117 -29 -145 -37 -27 -9 -124 -28 -215 -44 -145
-25 -192 -29 -385 -30 -121 -1 -242 1 -270 4 -27 3 -86 8 -130 11 -44 3 -96 7
-115 10 -19 3 -53 8 -75 11 -22 2 -67 9 -100 15 -58 10 -82 15 -188 38 -67 15
-226 69 -262 91 -16 9 -57 27 -90 39 -101 38 -163 72 -180 97 -14 22 -14 28 4
79 42 120 189 244 360 304 58 21 122 45 141 53 64 29 95 37 175 48 44 7 98 16
120 21 145 35 257 53 498 79 37 4 71 10 75 14 4 4 50 5 102 2 52 -4 155 -9
229 -12z"/>
<path d="M7806 9881 c-4 -6 -26 -11 -48 -11 -54 0 -108 -17 -197 -62 -71 -36
-130 -50 -116 -28 4 6 -12 10 -40 10 -51 0 -125 -32 -125 -54 0 -8 -19 -21
-42 -31 -23 -9 -68 -31 -99 -50 -40 -24 -60 -30 -72 -23 -11 5 -24 5 -36 -1
-27 -15 -102 -102 -98 -115 7 -22 28 -15 70 23 24 23 47 41 50 41 4 0 30 18
59 40 29 22 62 39 73 38 11 -1 69 24 128 56 60 32 110 56 112 54 2 -2 -20 -16
-49 -31 -61 -32 -150 -117 -123 -117 9 0 17 5 17 10 0 12 117 90 134 90 12 -1
-27 -36 -46 -42 -6 -2 -8 -10 -4 -16 9 -15 24 -8 132 69 45 33 85 59 88 59 20
0 -3 -22 -59 -59 -36 -22 -65 -45 -65 -50 0 -5 22 -8 49 -7 36 2 61 10 92 32
23 16 60 41 83 56 l41 27 5 -22 c3 -12 15 -23 26 -25 16 -2 20 -9 16 -32 -2
-17 0 -30 5 -30 6 0 8 -11 5 -25 -7 -38 12 -30 31 13 21 47 63 99 72 90 4 -4
-9 -36 -29 -72 -23 -41 -32 -67 -26 -71 8 -5 6 -15 -4 -31 -18 -27 -20 -44 -6
-44 6 0 10 5 10 11 0 14 68 125 86 140 8 6 -9 -28 -36 -76 -51 -88 -145 -213
-178 -237 -25 -18 -34 -35 -23 -42 17 -11 115 97 193 214 43 63 89 129 104
145 l26 30 -6 -34 c-3 -19 -17 -59 -31 -88 -13 -29 -21 -53 -17 -53 10 0 57
86 80 147 l20 52 -22 14 c-31 22 -14 30 34 16 29 -9 46 -21 56 -42 21 -40 23
-166 2 -209 -8 -18 -21 -49 -28 -68 -7 -19 -21 -60 -32 -90 -11 -30 -31 -79
-44 -108 -26 -57 -29 -72 -15 -72 14 0 45 59 65 123 10 31 22 57 27 57 5 0 9
11 9 25 0 13 6 39 14 57 8 18 18 44 23 57 7 18 9 10 7 -35 -1 -44 -11 -78 -38
-137 -20 -42 -36 -82 -36 -87 0 -26 18 -2 54 71 29 57 41 93 42 131 1 29 7 73
12 98 9 39 16 125 13 168 -1 8 -7 12 -13 9 -8 -2 -17 10 -23 27 -13 39 -77 76
-120 69 -24 -3 -38 2 -65 26 -19 17 -44 31 -55 31 -11 0 -36 3 -56 6 -22 4
-39 2 -43 -5z m-56 -40 c0 -13 -82 -50 -98 -44 -23 10 -7 26 39 38 59 16 59
16 59 6z"/>
<path d="M7534 9423 c-9 -16 -30 -40 -46 -55 -15 -14 -28 -32 -28 -39 0 -15
49 29 92 84 21 26 25 37 15 37 -8 0 -23 -12 -33 -27z"/>
<path d="M6950 9405 c-7 -8 -18 -15 -25 -15 -7 0 -18 -6 -25 -14 -6 -8 -21
-16 -32 -18 -22 -3 -57 -59 -78 -123 -7 -22 -21 -52 -31 -67 -20 -28 -24 -48
-10 -48 4 0 29 27 55 60 26 32 60 68 76 80 27 20 110 133 110 151 0 14 -26 10
-40 -6z"/>
<path d="M8039 8876 c-2 -2 -26 -6 -54 -9 -49 -5 -75 -24 -75 -55 0 -9 7 -11
23 -6 114 37 317 29 317 -12 0 -19 20 -28 33 -15 19 19 -23 61 -83 82 -48 17
-149 26 -161 15z"/>
<path d="M7548 8805 c-3 -3 -32 -8 -64 -11 -33 -3 -92 -11 -133 -19 -40 -8
-97 -15 -126 -15 -48 0 -58 -4 -109 -46 -31 -26 -56 -50 -56 -54 0 -18 15 -18
40 0 45 32 166 58 352 75 66 6 126 34 136 63 4 12 -29 18 -40 7z"/>
<path d="M7995 8745 c-67 -33 -116 -133 -84 -171 12 -14 29 -16 124 -10 66 4
118 12 131 21 37 24 54 138 24 166 -24 22 -146 19 -195 -6z m73 -49 c3 -27 2
-28 -13 -16 -9 7 -21 22 -26 32 -9 17 -7 19 13 16 17 -2 24 -10 26 -32z m83
-28 c10 -24 9 -32 -6 -48 -10 -11 -29 -20 -42 -20 -21 0 -22 2 -13 21 6 11 12
38 12 59 0 35 2 38 19 27 10 -6 24 -24 30 -39z m-191 -13 c0 -9 12 -27 26 -40
l27 -25 -42 0 c-43 0 -48 8 -35 58 7 25 24 30 24 7z"/>
<path d="M7855 8730 c-32 -53 -36 -160 -6 -160 7 0 7 9 1 25 -9 25 -4 81 10
100 13 19 19 45 10 45 -5 0 -12 -4 -15 -10z"/>
<path d="M7261 8652 c-39 -19 -55 -24 -58 -14 -3 6 -10 12 -16 12 -16 -1 -67
-46 -67 -60 0 -5 -7 -10 -15 -10 -22 0 -18 -13 10 -40 14 -13 25 -32 25 -42 0
-26 39 -38 125 -38 93 0 166 15 194 41 41 38 18 128 -40 163 -39 23 -96 19
-158 -12z m63 -29 c4 -9 3 -20 -2 -25 -11 -11 -36 17 -27 32 9 15 22 12 29 -7z
m99 4 c22 -15 34 -82 18 -101 -6 -7 -26 -16 -44 -19 -17 -3 -41 -9 -51 -13
-17 -7 -17 -4 4 23 18 26 21 39 17 77 -6 43 -4 46 17 46 12 0 30 -6 39 -13z
m-208 -117 c3 -5 2 -10 -4 -10 -5 0 -13 5 -16 10 -3 6 -2 10 4 10 5 0 13 -4
16 -10z"/>
<path d="M6500 8638 c-48 -75 -51 -194 -7 -285 16 -35 30 -28 24 11 -3 20 -1
36 5 38 5 2 10 20 11 41 0 20 4 37 7 37 10 0 32 69 25 80 -14 23 45 8 64 -16
25 -32 27 -50 5 -58 -9 -4 -14 -9 -10 -13 3 -3 -1 -14 -10 -24 -26 -29 -22
-99 9 -152 15 -25 27 -57 27 -71 0 -15 8 -30 20 -36 12 -6 19 -19 17 -33 -1
-16 4 -22 21 -23 38 -2 38 24 -2 65 -48 49 -49 86 -2 136 l34 36 -26 72 c-30
83 -49 115 -106 175 -46 48 -83 55 -106 20z"/>
<path d="M7890 8335 c0 -13 7 -50 15 -82 21 -82 19 -139 -7 -182 -29 -48 -36
-52 -83 -49 -45 3 -46 2 -23 -31 l17 -24 45 27 c26 15 54 42 67 65 12 22 32
42 44 45 12 3 27 17 33 31 10 22 8 33 -14 75 -15 28 -31 54 -38 58 -17 11 -36
49 -36 72 0 11 -4 20 -10 20 -5 0 -10 -11 -10 -25z m80 -176 c0 -10 -4 -19
-10 -19 -5 0 -10 12 -10 26 0 14 4 23 10 19 6 -3 10 -15 10 -26z"/>
<path d="M7585 8208 c-19 -23 -38 -53 -41 -65 -9 -35 4 -88 26 -108 17 -16 25
-16 64 -5 24 6 53 9 65 5 27 -8 29 20 2 35 -14 7 -27 6 -48 -5 -55 -29 -83
-13 -83 46 0 26 10 49 35 82 45 59 28 71 -20 15z"/>
<path d="M8123 8024 c-3 -9 0 -20 8 -24 11 -7 9 -10 -6 -16 -11 -4 -56 -22
-100 -39 -44 -18 -102 -38 -130 -45 -27 -7 -56 -18 -63 -24 -8 -5 -59 -11
-115 -12 -56 -1 -166 -5 -244 -9 -137 -7 -157 -4 -134 21 5 5 12 19 16 32 5
16 2 22 -9 22 -9 0 -16 -4 -16 -10 0 -5 -13 -25 -30 -43 -36 -41 -37 -47 -7
-47 24 -1 60 -23 51 -33 -10 -9 86 -97 105 -97 10 0 26 -8 35 -19 9 -10 54
-44 99 -75 75 -51 89 -57 162 -67 73 -9 86 -8 137 11 94 35 119 57 151 135 16
39 42 96 58 127 16 31 29 72 29 91 0 24 8 41 29 61 20 19 27 34 23 51 -5 29
-39 35 -49 9z m-63 -120 c0 -21 -57 -119 -86 -146 -40 -38 -125 -70 -169 -64
-16 3 -66 10 -110 16 -105 15 -190 44 -214 74 -10 11 3 15 81 20 51 4 116 7
143 6 62 -3 152 19 228 54 32 14 64 26 72 26 7 0 17 5 20 10 6 10 35 14 35 4z
m-65 -214 c4 -6 -11 -28 -32 -49 -47 -47 -101 -59 -189 -41 -51 11 -119 37
-104 40 3 1 14 4 25 7 11 3 47 6 80 7 33 2 77 8 97 15 21 7 46 10 57 6 12 -3
21 0 25 10 6 17 32 20 41 5z"/>
<path d="M2468 9067 c19 -23 54 -29 50 -9 -2 10 -15 18 -33 20 -24 3 -27 1
-17 -11z"/>
<path d="M2017 9003 c-12 -11 13 -31 33 -26 28 7 25 33 -3 33 -13 0 -27 -3
-30 -7z"/>
<path d="M2527 8663 c-9 -9 22 -43 40 -43 20 0 16 28 -6 40 -23 12 -26 12 -34
3z"/>
<path d="M2235 8557 c-5 -11 -1 -25 10 -37 36 -40 50 -10 16 31 -18 22 -20 22
-26 6z"/>
<path d="M1885 8420 c-10 -17 12 -37 25 -24 8 8 6 15 -4 23 -10 9 -16 9 -21 1z"/>
<path d="M5723 6723 c-21 -32 -41 -62 -45 -67 -4 -6 -12 -5 -20 2 -12 9 -21 5
-45 -21 -17 -17 -41 -51 -53 -74 -13 -25 -29 -43 -39 -43 -9 0 -22 -5 -27 -10
-6 -6 -45 -12 -86 -14 -41 -2 -88 -10 -104 -18 -91 -46 -124 -74 -124 -106 0
-25 0 -25 71 -18 39 3 80 11 90 17 37 19 166 -8 232 -49 40 -24 61 -32 68 -25
7 7 1 17 -19 32 -17 11 -33 21 -36 21 -9 0 -69 43 -78 55 -8 11 0 55 13 70 16
17 103 4 179 -28 65 -27 88 -44 176 -132 55 -55 103 -108 107 -118 7 -18 32
-23 41 -9 5 8 -84 111 -168 195 -45 45 -164 107 -221 116 -36 5 -40 9 -42 36
-3 31 6 46 46 80 22 19 22 18 -5 -32 -29 -51 -28 -77 1 -53 8 7 15 20 15 29 0
16 20 49 93 152 38 56 44 69 27 69 -5 0 -26 -26 -47 -57z m-329 -269 c25 -25
20 -31 -46 -53 -63 -21 -128 -28 -128 -13 0 13 91 69 120 75 14 2 28 5 32 6 4
0 14 -6 22 -15z"/>
<path d="M5636 6411 c-4 -5 -2 -12 3 -15 5 -4 12 -25 16 -47 5 -27 13 -43 25
-46 9 -3 23 -17 31 -32 28 -56 103 -141 125 -141 28 0 44 -20 66 -82 31 -88
43 -109 66 -115 22 -5 23 -9 17 -63 -8 -65 5 -100 35 -100 24 0 24 -3 5 -66
-20 -65 -19 -97 3 -124 l18 -23 25 39 c13 22 25 42 27 47 7 14 -26 7 -38 -8
-23 -28 -32 -1 -16 47 29 85 46 118 61 118 8 0 15 4 15 9 0 19 -19 21 -52 8
-48 -20 -58 -13 -58 44 0 56 13 89 35 89 8 0 15 5 15 10 0 6 -20 10 -45 10
-51 0 -62 12 -90 97 -9 29 -21 55 -26 58 -15 10 -10 23 12 30 14 5 18 10 11
17 -7 7 -20 7 -41 0 -51 -18 -103 24 -147 117 -15 34 -15 34 13 57 36 29 22
44 -19 19 -18 -10 -33 -14 -35 -9 -17 48 -45 75 -57 55z"/>
<path d="M9230 5130 c0 -11 7 -37 15 -57 9 -20 20 -66 26 -102 21 -137 29
-198 34 -266 7 -93 13 -117 27 -109 11 7 7 86 -12 209 -5 39 -12 88 -15 110
-5 39 -17 115 -20 125 -4 13 -16 63 -20 85 -6 30 -35 34 -35 5z"/>
<path d="M9267 4194 c-13 -44 -32 -115 -41 -159 -10 -44 -21 -96 -26 -115 -24
-93 -49 -209 -54 -240 -6 -44 -46 -208 -57 -235 -10 -23 -38 -124 -49 -178 -4
-23 -4 -40 3 -44 16 -10 36 25 43 76 3 25 23 114 44 196 21 83 43 177 49 210
13 68 44 204 72 316 10 41 19 83 19 93 0 9 12 42 26 73 24 49 25 56 11 70 -14
14 -18 8 -40 -63z"/>
<path d="M9130 2759 c0 -7 -10 -9 -25 -6 -16 3 -24 0 -22 -7 5 -16 36 -20 52
-6 17 14 20 30 5 30 -5 0 -10 -5 -10 -11z"/>
<path d="M5711 8152 c-12 -23 -5 -52 13 -52 7 0 11 12 10 31 -3 39 -10 46 -23
21z"/>
<path d="M11150 7258 c0 -16 19 -38 33 -38 4 0 7 10 5 22 -3 25 -38 39 -38 16z"/>
<path d="M10900 7114 c0 -10 33 -33 48 -34 18 0 15 27 -4 34 -20 8 -44 8 -44
0z"/>
<path d="M11267 7063 c-22 -11 -26 -17 -17 -28 9 -11 17 -11 36 -3 23 11 32
32 16 41 -4 3 -20 -1 -35 -10z"/>
<path d="M11015 6880 c-3 -6 -22 -17 -41 -25 -31 -13 -34 -17 -24 -35 11 -20
12 -20 51 10 21 18 39 36 39 40 0 14 -18 21 -25 10z"/>
<path d="M10034 6493 c-38 -43 -84 -94 -102 -113 -19 -19 -41 -48 -49 -64 -15
-28 -14 -31 7 -48 28 -23 32 -23 64 3 25 20 153 181 189 238 21 34 13 61 -18
61 -16 0 -44 -24 -91 -77z m30 -40 c-82 -110 -144 -172 -144 -143 0 11 162
189 169 184 1 -1 -10 -20 -25 -41z"/>
<path d="M5715 4913 c-20 -48 -16 -68 14 -68 16 0 27 -8 32 -23 10 -25 24 -22
48 11 7 11 32 27 55 38 30 13 36 20 24 24 -8 3 -33 -2 -54 -11 -44 -20 -91
-26 -99 -13 -3 4 1 22 10 38 19 37 19 41 0 41 -8 0 -22 -17 -30 -37z"/>
<path d="M6166 4802 c-3 -4 -8 -32 -12 -60 l-7 -52 38 0 c25 0 35 4 32 13 -2
6 -12 11 -22 9 -16 -3 -17 2 -13 42 5 43 -3 68 -16 48z"/>
<path d="M5690 4718 c-17 -24 -34 -55 -37 -70 -6 -30 -70 -78 -104 -78 -11 0
-35 -6 -52 -14 -18 -7 -46 -19 -63 -26 -26 -9 -36 -22 -54 -71 -32 -89 -20
-107 19 -27 28 59 37 70 78 88 25 11 58 20 74 20 30 0 119 54 119 73 0 6 14
35 32 64 26 42 37 53 59 53 14 0 34 -9 44 -20 10 -11 23 -20 30 -20 7 0 20
-10 31 -21 10 -12 38 -35 62 -51 38 -26 43 -33 37 -57 -4 -14 -13 -33 -21 -42
-8 -8 -14 -21 -14 -27 0 -7 -18 -15 -40 -18 -74 -12 -100 -103 -44 -155 13
-12 24 -31 24 -41 0 -25 17 -57 47 -89 21 -23 23 -30 13 -49 -8 -15 -9 -25 -2
-32 7 -7 16 0 26 20 22 43 20 55 -13 79 -19 15 -30 34 -35 60 -3 22 -20 55
-40 78 -33 38 -33 41 -18 66 10 19 26 29 51 33 29 4 41 14 64 51 15 25 27 49
27 52 0 4 7 15 17 25 9 10 14 19 12 21 -2 2 -27 17 -54 35 -28 17 -64 45 -80
62 -16 16 -34 30 -40 30 -7 0 -20 9 -30 20 -12 13 -31 20 -56 20 -32 0 -41 -6
-69 -42z"/>
<path d="M4350 4493 c1 -19 76 -158 88 -161 14 -4 7 17 -39 112 -21 44 -49 72
-49 49z"/>
<path d="M5230 4333 c-19 -8 -47 -26 -62 -41 -24 -22 -28 -33 -28 -84 l0 -57
-32 6 c-18 3 -45 15 -60 25 -16 11 -33 16 -40 12 -28 -17 -78 -59 -78 -66 0
-15 30 -8 50 12 22 22 45 26 55 10 3 -5 17 -10 31 -10 14 0 34 -5 45 -11 32
-16 59 14 59 65 0 75 40 116 118 122 19 1 36 5 40 8 18 19 -58 26 -98 9z"/>
<path d="M3791 4313 c-19 -3 -44 -11 -55 -19 -11 -8 -32 -14 -46 -14 -54 0
-55 -13 -8 -86 25 -38 59 -82 77 -98 17 -17 31 -35 31 -41 0 -15 93 -105 108
-105 20 0 14 11 -35 66 -72 79 -136 161 -156 199 -15 31 -16 35 -2 35 9 0 26
7 39 16 13 8 50 17 81 18 52 4 74 10 64 20 -8 8 -65 13 -98 9z"/>
<path d="M4447 4175 l6 -125 -38 0 c-20 0 -54 8 -74 19 -88 46 -173 82 -178
77 -10 -10 18 -35 61 -55 76 -35 91 -42 116 -55 14 -8 51 -16 83 -18 l58 -5
-4 111 c-5 118 -14 176 -28 176 -4 0 -5 -56 -2 -125z"/>
<path d="M3876 4265 c-9 -13 -16 -27 -16 -30 0 -3 22 -5 50 -5 44 0 53 -4 87
-38 21 -21 49 -55 63 -74 14 -20 43 -47 65 -59 22 -12 61 -39 87 -61 55 -45
105 -68 147 -68 43 0 99 -64 166 -189 77 -141 115 -189 115 -144 0 9 -9 26
-19 37 -10 12 -45 70 -77 130 -74 137 -114 180 -183 195 -62 13 -99 31 -125
60 -11 12 -44 35 -73 52 -30 17 -66 47 -81 67 -36 49 -103 112 -117 112 -7 0
-24 9 -38 20 -32 25 -31 25 -51 -5z"/>
<path d="M6500 4274 c-14 -7 -31 -13 -39 -14 -8 0 -20 -8 -27 -17 -10 -14 -28
-18 -86 -18 -243 -2 -258 -3 -270 -30 -6 -13 -19 -27 -28 -30 -20 -6 -67 -105
-76 -160 -4 -22 -12 -47 -19 -55 -7 -8 -25 -45 -40 -83 -24 -61 -26 -73 -17
-130 6 -37 6 -66 1 -72 -18 -19 -8 -51 29 -94 35 -40 38 -48 28 -72 -7 -21 -6
-35 4 -56 14 -28 48 -62 63 -63 16 0 6 28 -15 43 -20 12 -23 22 -21 68 2 46
-2 58 -30 93 -32 41 -32 42 -32 146 1 96 4 110 33 170 17 36 38 88 46 117 19
67 32 92 66 124 15 14 29 30 31 36 2 6 31 13 64 14 55 3 60 1 76 -25 15 -25
17 -26 33 -10 10 9 15 23 12 30 -5 13 13 20 39 14 6 -1 34 -3 63 -5 41 -2 57
1 70 15 9 9 32 25 50 34 31 16 40 30 24 40 -4 2 -18 -2 -32 -10z"/>
<path d="M6566 4125 c-16 -25 -20 -26 -78 -19 -50 6 -60 4 -56 -7 3 -8 11 -13
17 -11 6 1 11 -2 11 -8 0 -14 -77 -13 -82 1 -5 14 -89 33 -150 33 -35 1 -52
-4 -66 -19 -21 -23 -46 -100 -37 -115 9 -15 44 -12 61 4 10 11 29 13 67 9 45
-5 57 -2 82 19 25 20 41 24 90 23 58 0 60 -1 57 -25 -4 -40 -25 -78 -47 -88
-11 -4 -40 -10 -65 -11 -25 -2 -48 -8 -52 -14 -4 -7 -8 -36 -8 -64 0 -49 14
-90 67 -197 14 -29 13 -31 -16 -58 -30 -28 -39 -48 -23 -48 13 0 82 61 82 72
0 12 -40 102 -71 161 -16 28 -19 47 -14 76 6 37 8 39 51 44 24 2 55 12 70 22
32 20 56 77 56 127 -1 33 2 38 21 38 25 0 80 46 74 63 -7 21 -24 18 -41 -8z
m-224 -51 c16 -5 14 -9 -10 -29 -34 -28 -46 -31 -96 -20 -26 5 -46 4 -58 -4
-15 -9 -18 -8 -18 9 0 11 9 29 21 41 18 18 28 20 82 14 34 -3 70 -9 79 -11z"/>
<path d="M4876 4111 c-7 -10 -1 -48 18 -126 9 -33 15 -76 16 -96 0 -28 8 -45
34 -70 36 -36 86 -157 86 -211 0 -27 2 -28 53 -28 29 0 80 10 112 21 33 12 92
25 130 29 68 7 71 6 104 -23 40 -34 112 -67 148 -67 40 0 22 20 -36 40 -30 10
-69 33 -90 54 l-38 37 -79 -10 c-43 -6 -106 -19 -138 -31 -33 -11 -79 -20
-103 -20 -40 0 -43 2 -44 28 0 15 -2 34 -5 42 -2 8 -8 34 -13 58 -5 28 -21 55
-45 79 -35 36 -56 84 -56 133 0 14 -7 48 -15 75 -9 28 -13 60 -10 73 4 15 1
22 -9 22 -8 0 -17 -4 -20 -9z"/>
<path d="M5855 4096 c-26 -18 -46 -58 -90 -181 -20 -55 -59 -145 -86 -201 -27
-55 -49 -107 -49 -115 0 -8 -5 -20 -11 -26 -12 -12 -4 -33 11 -33 11 0 40 58
40 82 0 10 4 26 9 36 29 52 67 139 102 232 58 152 69 171 108 187 26 11 31 17
20 24 -20 12 -31 11 -54 -5z"/>
<path d="M3935 3920 c-4 -6 16 -33 44 -61 28 -28 51 -56 51 -63 0 -20 51 -119
76 -146 12 -14 32 -51 44 -82 24 -64 25 -65 193 -181 171 -118 182 -123 211
-107 18 9 32 10 53 3 24 -9 33 -7 57 12 28 22 28 25 22 91 -9 115 -20 167 -35
172 -11 4 -13 -4 -7 -37 3 -23 9 -75 13 -116 7 -85 6 -86 -89 -98 -50 -7 -64
0 -208 107 -30 23 -75 52 -100 66 -36 20 -51 37 -75 86 -16 33 -42 78 -56 100
-14 21 -42 73 -62 114 -37 77 -118 162 -132 140z"/>
<path d="M6638 3749 c-24 -13 -23 -42 2 -64 25 -23 39 -11 21 17 -11 18 -11
22 3 30 9 5 16 13 16 18 0 13 -20 12 -42 -1z"/>
<path d="M6125 3696 c-20 -47 -19 -54 10 -92 14 -18 25 -44 25 -59 0 -29 -35
-89 -74 -124 -29 -27 -33 -41 -12 -41 27 0 126 143 126 182 0 8 -13 28 -30 46
-16 18 -30 42 -30 53 0 34 18 20 41 -31 24 -53 39 -64 39 -27 -1 27 -50 119
-68 125 -7 2 -19 -12 -27 -32z"/>
<path d="M6214 3515 c-8 -21 4 -35 31 -35 34 0 55 10 55 26 0 17 -12 18 -27 3
-7 -7 -15 -6 -26 5 -19 20 -26 20 -33 1z"/>
<path d="M4795 3311 c-22 -10 -46 -25 -54 -34 -7 -10 -18 -17 -23 -17 -23 0
-70 -45 -93 -90 -13 -26 -31 -50 -40 -54 -26 -10 -9 -23 42 -32 70 -12 84 -13
243 -14 80 -1 150 -5 155 -10 6 -4 24 -10 40 -13 70 -13 92 -20 130 -37 66
-30 118 -40 201 -40 121 1 217 33 175 59 -6 4 -13 16 -16 27 -9 45 -44 127
-56 135 -8 4 -23 6 -35 3 -45 -11 -97 14 -139 66 -40 50 -40 50 -85 44 -25 -3
-65 -8 -88 -10 -24 -2 -54 -10 -65 -16 -12 -6 -42 -16 -66 -23 -60 -15 -126 5
-147 46 -17 34 -25 35 -79 10z m64 -45 c55 -50 162 -61 234 -24 23 12 71 25
106 29 l64 7 51 -54 c48 -51 54 -54 115 -61 l64 -8 18 -55 c10 -30 18 -60 18
-67 2 -23 -69 -36 -168 -31 -82 4 -105 9 -158 36 -34 18 -76 32 -92 32 -17 0
-50 6 -73 14 -29 9 -91 14 -188 13 -165 0 -210 7 -210 31 0 34 40 83 83 101
23 10 51 28 61 40 25 27 44 27 75 -3z"/>
<path d="M5760 3130 c-57 -18 -63 -27 -46 -80 12 -36 46 -81 56 -75 5 3 0 24
-10 48 -34 73 -25 85 58 78 17 -1 22 3 22 24 0 29 -5 29 -80 5z"/>
<path d="M8235 1831 c-4 -7 -5 -14 -4 -16 13 -12 317 -15 407 -4 123 15 140
35 20 23 -102 -10 -110 -10 -279 0 -102 6 -138 5 -144 -3z"/>
<path d="M8660 1708 c-157 -12 -469 -15 -535 -6 -48 7 -88 -3 -72 -18 15 -15
753 -4 805 12 7 2 10 8 7 14 -7 11 -28 11 -205 -2z"/>
<path d="M8333 1584 c-37 -17 0 -24 122 -24 83 0 135 4 135 10 0 6 -15 10 -33
10 -19 0 -74 2 -123 5 -49 3 -95 2 -101 -1z"/>
<path d="M8720 1477 c-53 -19 -219 -32 -565 -42 -98 -3 -105 -4 -105 -16 0 -8
33 -9 113 -5 61 3 198 10 302 15 117 5 211 15 244 24 30 9 58 14 62 12 9 -6
30 20 22 28 -8 8 -5 9 -73 -16z"/>
<path d="M8477 1383 c-17 -16 -3 -23 40 -20 62 4 71 27 11 27 -25 0 -48 -3
-51 -7z"/>
<path d="M12939 1344 c-46 -49 -176 -136 -214 -144 -28 -5 -30 -9 -37 -60 -3
-30 -6 -88 -7 -128 -1 -40 -6 -81 -13 -92 -17 -26 -6 -33 60 -41 131 -15 218
-31 232 -44 23 -20 93 3 175 57 72 47 86 80 42 97 -23 9 -85 86 -115 141 -7
14 -18 66 -23 115 -12 106 -22 135 -47 135 -10 0 -34 -16 -53 -36z m66 -82
c12 -113 20 -134 85 -226 l63 -89 -39 -34 c-50 -43 -70 -48 -147 -34 -34 6
-100 16 -145 22 -46 6 -89 12 -96 15 -18 7 -14 218 5 236 16 15 41 33 119 84
30 20 73 52 94 70 21 18 42 31 47 29 4 -3 10 -36 14 -73z"/>
<path d="M8735 1350 c-208 -40 -286 -51 -401 -54 -125 -3 -160 -9 -150 -24 7
-12 265 8 381 29 61 11 138 23 172 26 35 3 68 12 74 19 13 16 -8 17 -76 4z"/>
<path d="M8690 1210 c-14 -4 -50 -8 -81 -9 -31 -1 -70 -6 -88 -12 -39 -14 -43
-40 -3 -34 146 25 199 38 212 50 12 13 12 15 0 14 -8 -1 -26 -5 -40 -9z"/>
<path d="M8595 1101 c-3 -6 -5 -11 -3 -12 35 -9 59 -8 56 3 -6 16 -44 23 -53
9z"/>
</g>
</svg>
