<?xml version="1.0" standalone="no"?>
<!DOCTYPE svg PUBLIC "-//W3C//DTD SVG 20010904//EN"
 "http://www.w3.org/TR/2001/REC-SVG-20010904/DTD/svg10.dtd">
<svg version="1.0" xmlns="http://www.w3.org/2000/svg"
 width="1002.000000pt" height="1109.000000pt" viewBox="0 0 1002.000000 1109.000000"
 preserveAspectRatio="xMidYMid meet">

<g transform="translate(0.000000,1109.000000) scale(0.100000,-0.100000)"
fill="#000000" stroke="none">
<path d="M1702 10528 c-70 -12 -100 -34 -126 -92 -22 -51 -23 -56 -11 -147 12
-95 27 -134 112 -303 39 -78 115 -192 168 -251 20 -22 50 -66 67 -97 17 -32
54 -83 83 -115 29 -32 69 -91 90 -132 20 -41 58 -102 83 -137 26 -34 76 -104
112 -155 36 -51 99 -129 140 -172 43 -45 74 -86 72 -95 -2 -8 -21 -36 -42 -61
-21 -25 -45 -60 -53 -77 -9 -17 -23 -36 -31 -43 -23 -19 -20 -33 12 -67 28
-28 127 -192 207 -339 21 -38 55 -99 76 -134 22 -34 39 -67 39 -71 0 -4 7 -10
15 -14 8 -3 15 -14 15 -24 0 -10 23 -51 50 -90 28 -39 50 -74 50 -76 0 -12
100 -173 122 -196 35 -38 91 -109 128 -164 18 -27 40 -56 49 -65 9 -9 29 -34
46 -56 29 -39 77 -93 170 -193 28 -29 77 -74 110 -100 33 -25 78 -63 100 -84
22 -22 72 -60 110 -86 39 -25 90 -68 114 -95 55 -61 84 -62 89 -3 2 21 -2 53
-8 70 -7 17 -15 40 -20 51 -4 11 -28 65 -53 120 -25 55 -67 154 -92 220 -26
66 -60 148 -76 183 -16 35 -29 70 -29 78 0 8 -9 32 -19 52 -25 48 -101 277
-101 303 0 16 -101 235 -129 279 -14 22 -51 108 -51 119 0 4 -8 19 -18 32 -10
13 -24 44 -32 68 -8 24 -20 45 -26 48 -7 3 -18 21 -25 40 -6 19 -23 49 -39 66
-15 18 -44 66 -65 107 -49 95 -72 137 -95 175 -11 17 -30 50 -43 75 -13 25
-46 75 -73 111 -27 36 -65 88 -84 114 -19 26 -47 64 -63 84 -15 20 -54 89 -87
153 -33 64 -64 119 -69 122 -12 8 -66 86 -98 145 -14 24 -39 62 -57 85 -17 23
-56 81 -86 129 -30 48 -83 127 -116 175 -34 48 -77 119 -97 157 -19 39 -53 99
-76 135 -23 36 -45 74 -50 85 -5 12 -16 27 -25 34 -9 7 -16 19 -16 25 0 7 -21
34 -47 60 -47 46 -49 47 -104 44 -30 -2 -74 -6 -97 -10z m164 -80 c47 -51 113
-152 184 -278 51 -93 64 -113 106 -170 22 -30 62 -90 90 -133 27 -43 68 -106
91 -140 23 -34 54 -81 70 -105 15 -24 55 -85 89 -135 34 -51 71 -115 83 -142
12 -28 42 -84 66 -125 42 -73 43 -76 37 -140 l-7 -65 -36 -3 c-36 -3 -38 -1
-80 68 -24 40 -59 89 -76 110 -18 20 -33 40 -33 43 0 3 12 7 28 9 23 3 27 8
30 41 4 52 -20 89 -56 85 -19 -2 -29 -11 -36 -33 -6 -16 -12 -32 -13 -34 -5
-7 -191 190 -228 241 -37 50 -58 77 -92 116 -13 14 -23 28 -23 33 0 8 -61 111
-71 119 -6 5 -58 82 -70 104 -15 27 -59 124 -59 130 0 4 -13 27 -30 51 -16 24
-35 56 -41 72 -5 15 -21 44 -34 63 -18 26 -25 53 -29 110 -3 41 -3 82 0 92 6
20 34 24 51 7 15 -15 33 -3 33 22 0 28 22 23 56 -13z m-206 -143 c9 -58 62
-171 106 -231 13 -16 35 -55 48 -85 14 -29 46 -85 70 -124 25 -38 62 -103 82
-142 21 -40 53 -90 72 -110 19 -21 49 -60 67 -88 18 -27 59 -75 92 -105 32
-30 72 -74 88 -96 17 -23 59 -75 95 -117 36 -41 79 -99 95 -129 15 -29 31 -55
34 -58 3 -3 14 -20 25 -39 15 -28 16 -35 5 -42 -23 -14 -32 -11 -79 30 -43 37
-167 191 -207 257 -10 17 -34 52 -53 78 -19 26 -51 76 -70 110 -41 73 -67 113
-94 141 -24 26 -86 121 -86 133 0 4 -14 21 -31 38 -59 56 -209 292 -209 328 0
9 -11 39 -24 68 -47 105 -53 124 -55 193 -3 85 14 79 29 -10z m1145 -1326 c17
-22 42 -55 58 -73 15 -19 27 -36 27 -39 0 -4 25 -50 57 -104 31 -54 70 -123
86 -153 17 -30 44 -77 62 -105 17 -27 34 -57 38 -65 4 -8 27 -51 52 -95 100
-183 187 -374 235 -517 28 -84 57 -166 64 -183 8 -16 23 -50 34 -75 11 -25 25
-61 30 -80 6 -19 30 -80 52 -135 23 -55 46 -111 50 -125 5 -14 20 -54 33 -90
56 -143 77 -201 77 -210 0 -30 -82 7 -142 63 -15 14 -65 57 -110 95 -92 76
-177 160 -223 218 -16 20 -50 59 -74 85 -23 27 -59 73 -80 103 -20 30 -70 96
-111 148 -88 109 -120 154 -120 166 0 5 -26 51 -59 103 -124 200 -161 267
-230 419 -11 25 -33 66 -48 91 -116 192 -124 210 -112 247 17 53 85 122 119
122 18 0 36 10 52 28 12 15 35 32 50 39 28 12 63 75 75 133 7 40 22 37 58 -11z"/>
<path d="M2196 9704 c-14 -38 -6 -82 19 -98 32 -21 35 -21 69 10 23 22 27 32
22 57 -8 38 -20 47 -67 47 -25 0 -39 -5 -43 -16z"/>
<path d="M441 9036 c-7 -8 -35 -25 -64 -39 -76 -36 -99 -66 -105 -131 -4 -46
0 -63 20 -98 14 -24 31 -60 37 -80 7 -21 22 -44 33 -52 25 -18 81 -101 125
-188 19 -38 39 -68 44 -68 12 0 89 -72 89 -83 0 -4 8 -20 18 -35 10 -15 36
-54 57 -87 21 -33 44 -65 50 -70 7 -6 28 -35 48 -66 20 -31 59 -75 87 -99 l50
-42 -20 -33 c-29 -48 -26 -74 9 -81 25 -5 36 -19 66 -78 20 -39 44 -78 53 -86
47 -42 146 -166 219 -274 59 -88 66 -97 193 -231 58 -61 121 -130 140 -154 90
-110 314 -318 410 -381 4 -3 15 -20 24 -37 19 -38 59 -45 75 -14 6 10 9 20 7
22 -2 2 -6 29 -9 60 -4 31 -15 77 -27 103 -11 26 -20 52 -20 56 0 5 -13 37
-29 72 -16 35 -44 98 -62 141 -17 43 -42 91 -55 107 -13 15 -24 33 -24 39 0 6
-16 42 -35 80 -19 37 -35 71 -35 75 0 4 -13 26 -29 49 -15 23 -38 60 -49 82
-11 22 -35 55 -53 74 -18 18 -52 63 -77 98 -61 89 -70 101 -122 153 -25 25
-52 59 -60 75 -8 17 -36 54 -62 83 -27 30 -48 59 -48 65 0 7 -20 43 -45 81
-33 51 -43 76 -39 93 5 19 -3 33 -41 70 -60 60 -85 94 -126 168 -17 33 -46 83
-64 110 -17 28 -43 68 -57 90 -14 23 -38 63 -52 90 -54 101 -223 315 -248 315
-6 0 -28 16 -51 35 -34 29 -48 35 -88 35 -28 0 -51 -6 -58 -14z m123 -81 c122
-93 224 -235 422 -588 24 -42 60 -98 79 -125 62 -83 63 -88 27 -125 -17 -17
-50 -38 -73 -45 l-41 -13 -50 48 c-124 120 -258 273 -258 296 -1 7 -14 28 -30
47 -17 19 -30 43 -30 55 0 11 -11 37 -25 57 -14 20 -25 44 -25 52 0 8 -5 18
-11 22 -12 7 -61 111 -79 169 -7 22 -16 45 -20 50 -22 30 -13 99 16 128 16 16
55 5 98 -28z m-183 -116 c22 -44 49 -124 49 -148 0 -11 -3 -11 -15 -1 -8 7
-15 18 -15 24 0 6 -11 32 -25 58 -22 41 -34 108 -20 108 2 0 14 -19 26 -41z
m794 -779 c10 -11 32 -42 49 -69 41 -65 197 -275 249 -335 11 -11 34 -43 52
-71 19 -27 61 -81 94 -119 58 -68 76 -99 205 -351 56 -109 111 -232 138 -310
6 -16 17 -45 24 -63 16 -38 18 -62 5 -62 -37 0 -217 166 -398 365 -50 55 -116
126 -146 158 -30 33 -79 93 -108 135 -29 43 -63 91 -76 107 -13 17 -47 59 -75
95 -28 36 -58 72 -67 80 -33 31 -70 88 -95 148 -32 75 -34 112 -6 112 27 0 39
27 29 63 -7 25 -4 36 22 68 29 37 66 69 80 69 3 0 14 -9 24 -20z m-274 -23
c12 -22 12 -22 -10 -3 -11 11 -21 23 -21 28 0 14 19 -1 31 -25z"/>
<path d="M710 8610 c-11 -11 -20 -27 -20 -35 0 -25 28 -73 49 -84 22 -12 33
-2 51 49 25 73 -30 120 -80 70z"/>
<path d="M879 8354 c-11 -13 -10 -20 4 -42 9 -15 22 -40 28 -55 8 -20 17 -27
33 -25 19 3 21 9 20 56 -1 29 -7 59 -14 67 -16 20 -54 19 -71 -1z"/>
<path d="M3483 7963 c-7 -2 -13 -16 -13 -29 0 -29 11 -50 70 -129 50 -67 119
-135 137 -135 27 0 12 44 -27 77 -22 19 -40 40 -40 48 0 7 -7 18 -15 25 -8 7
-15 16 -15 21 0 5 7 6 15 3 27 -11 16 22 -26 75 -38 48 -56 57 -86 44z"/>
<path d="M3870 7453 c0 -48 115 -203 140 -188 18 11 11 35 -21 68 -17 18 -44
56 -61 85 -29 51 -58 69 -58 35z"/>
<path d="M5280 7350 c-8 -5 -27 -7 -42 -4 -31 6 -60 -19 -102 -90 -22 -37 -25
-56 -27 -157 -3 -103 -1 -119 21 -164 36 -76 108 -177 146 -205 18 -14 52 -51
74 -82 23 -32 45 -58 49 -58 4 0 22 -12 39 -27 17 -16 44 -38 59 -51 l28 -22
-60 -58 c-34 -31 -74 -77 -90 -101 -16 -23 -48 -59 -72 -78 -41 -33 -96 -106
-138 -181 -11 -19 -41 -51 -67 -70 -27 -18 -48 -38 -48 -42 0 -4 21 -20 46
-35 43 -26 46 -26 65 -9 10 9 19 22 19 29 0 6 16 29 36 50 20 22 52 65 72 95
20 30 67 87 105 127 39 39 79 87 91 105 11 18 30 44 42 56 l21 24 29 -44 c16
-23 42 -72 58 -108 59 -133 70 -158 133 -285 36 -71 73 -139 83 -150 27 -30
100 -155 100 -171 0 -18 -19 -49 -82 -133 -59 -79 -61 -104 -10 -154 21 -20
42 -37 48 -37 16 0 76 68 129 145 62 89 91 121 138 151 20 13 37 31 37 39 0
20 42 84 76 115 15 14 33 40 41 58 12 30 33 44 33 22 0 -5 10 -10 23 -10 16 0
32 17 62 63 22 34 47 71 57 82 9 11 37 44 62 74 25 30 46 62 46 71 0 32 -78
100 -115 100 -20 0 -42 -32 -55 -78 -14 -53 -64 -91 -90 -67 -37 34 -180 363
-180 416 0 15 13 13 110 -21 96 -33 167 -52 205 -55 6 0 57 -16 115 -34 58
-18 128 -39 155 -47 69 -21 115 -43 121 -59 7 -17 -5 -38 -75 -144 -31 -46
-65 -98 -76 -115 -11 -18 -37 -55 -57 -83 -21 -28 -38 -54 -38 -58 0 -3 -15
-25 -34 -48 -18 -23 -39 -53 -46 -66 -7 -13 -33 -52 -57 -85 -40 -55 -83 -104
-258 -296 -28 -30 -72 -80 -97 -110 -26 -30 -83 -93 -128 -140 -45 -47 -103
-116 -129 -154 -25 -38 -55 -81 -66 -96 -11 -15 -29 -40 -39 -56 -11 -16 -69
-81 -130 -144 -61 -64 -133 -148 -159 -187 -64 -94 -216 -243 -248 -243 -56 0
-229 70 -229 92 0 4 9 8 20 8 13 0 36 21 63 55 23 30 49 55 57 55 22 0 40 20
40 43 0 10 21 40 46 66 25 25 57 69 71 96 14 28 45 71 68 96 23 25 53 64 66
87 14 24 32 42 41 42 10 0 26 16 37 38 11 20 47 66 80 101 34 35 61 67 61 72
0 5 -11 16 -25 25 -50 33 -135 0 -161 -62 -24 -58 -27 -56 -130 111 -28 44
-56 94 -63 112 -7 18 -19 38 -27 44 -14 11 -51 72 -109 176 -16 30 -45 73 -63
96 -19 23 -76 114 -127 202 -114 196 -199 320 -240 349 -133 97 -205 146 -213
146 -5 0 -15 7 -22 14 -10 13 -62 36 -119 52 -11 4 -9 9 7 27 19 21 40 54 78
122 9 17 38 55 64 85 26 30 61 78 78 105 17 28 72 96 124 152 109 120 110 120
225 53 85 -48 137 -61 147 -35 9 24 -8 42 -52 56 -20 6 -48 19 -62 29 -35 23
-116 60 -149 66 -24 5 -35 -4 -107 -88 -43 -51 -94 -109 -112 -128 -19 -19
-43 -53 -54 -75 -12 -22 -39 -61 -62 -86 -23 -25 -65 -81 -93 -125 -29 -43
-62 -90 -73 -104 -11 -14 -20 -33 -20 -42 0 -14 -8 -18 -35 -18 -20 0 -49 -7
-65 -15 -17 -9 -40 -13 -53 -10 -16 4 -41 -6 -85 -34 -34 -23 -67 -41 -72 -41
-5 0 -17 -15 -27 -32 -22 -41 -24 -190 -3 -228 11 -21 11 -25 -6 -35 -36 -20
-142 -146 -175 -206 -22 -43 -82 -112 -201 -234 -64 -66 -127 -134 -140 -152
-40 -55 -162 -206 -182 -225 -11 -10 -27 -18 -36 -18 -9 0 -31 -15 -49 -34
-28 -29 -31 -37 -22 -55 7 -12 20 -21 31 -21 13 0 22 -9 26 -27 4 -16 17 -44
29 -63 27 -43 63 -108 126 -225 27 -49 53 -97 59 -105 6 -8 15 -26 22 -40 32
-71 120 -242 151 -295 19 -33 76 -141 126 -240 50 -99 99 -196 109 -215 11
-19 26 -51 35 -70 59 -126 76 -160 101 -198 15 -24 46 -78 68 -120 89 -168
111 -208 124 -223 8 -8 14 -19 14 -24 0 -5 20 -40 44 -79 24 -39 51 -87 59
-106 28 -66 108 -225 142 -280 36 -59 65 -117 65 -131 0 -5 4 -9 8 -9 8 0 36
-51 30 -54 -22 -13 -189 -53 -278 -67 -63 -11 -135 -23 -160 -28 -25 -5 -63
-12 -85 -16 -46 -8 -122 -35 -212 -76 -61 -28 -61 -28 -73 -82 -6 -29 -8 -89
-6 -133 3 -46 1 -94 -6 -117 -9 -29 -9 -50 2 -90 15 -62 26 -77 53 -77 11 0
54 -20 96 -44 42 -24 108 -56 146 -71 73 -29 149 -69 175 -92 8 -7 28 -25 44
-39 16 -14 54 -37 85 -51 116 -51 168 -81 218 -123 7 -5 15 -10 18 -10 4 0 30
-15 58 -34 29 -18 93 -54 142 -80 50 -26 124 -72 165 -103 41 -31 122 -81 180
-111 58 -30 112 -61 121 -68 8 -8 19 -14 23 -14 4 0 20 -8 34 -19 15 -10 45
-24 67 -32 81 -27 165 -89 165 -121 0 -11 10 -20 28 -23 15 -4 45 -11 68 -16
42 -11 97 -9 309 9 66 6 152 14 190 17 39 3 81 8 94 11 13 3 87 9 165 14 77 5
182 14 231 20 50 6 158 15 240 21 313 22 373 28 485 48 63 11 122 23 130 27 8
3 51 5 95 5 44 0 94 3 110 8 17 5 71 12 120 15 178 12 391 24 425 24 99 0 364
13 372 18 5 4 98 8 205 10 108 3 200 7 206 11 5 3 50 9 101 14 268 26 416 49
491 75 22 7 52 14 66 14 15 0 31 6 37 13 6 6 13 90 16 187 3 96 8 207 12 246
9 115 -22 158 -165 229 -124 61 -186 85 -219 85 -36 0 -51 16 -96 110 -20 41
-41 79 -46 85 -4 5 -16 30 -26 54 -9 24 -33 67 -52 95 -19 28 -55 94 -79 146
-25 52 -48 97 -53 100 -4 3 -38 64 -75 135 -38 72 -81 149 -97 173 -15 24 -28
46 -28 49 0 6 -115 247 -131 273 -9 15 -14 26 -64 135 -15 33 -40 85 -56 116
-16 31 -29 62 -29 68 0 7 -33 81 -74 165 -40 84 -79 171 -86 192 -7 21 -27 61
-45 89 -18 27 -49 86 -69 130 -46 99 -104 214 -165 323 -25 46 -53 96 -61 112
-8 15 -23 38 -33 51 -22 29 -44 67 -121 201 -32 57 -74 127 -92 155 -19 29
-34 55 -34 58 0 3 -29 49 -64 103 -34 53 -104 180 -154 282 -51 102 -110 214
-133 250 -23 36 -65 110 -93 165 -79 149 -110 206 -138 250 -49 77 -149 289
-143 303 8 20 -20 59 -47 67 -13 4 -58 20 -100 36 -43 16 -88 29 -101 29 -13
0 -64 13 -113 29 -49 16 -111 34 -139 41 -92 22 -200 61 -240 86 -22 13 -59
33 -82 44 -30 15 -45 29 -52 53 -6 18 -26 55 -44 83 -41 62 -97 164 -97 177 0
5 -17 30 -38 56 -20 25 -53 69 -71 96 -102 150 -140 185 -198 185 -15 0 -50
11 -78 25 -27 13 -60 25 -72 25 -12 0 -41 10 -64 22 -47 24 -127 34 -149 18z
m130 -70 c22 -11 48 -20 60 -20 11 0 40 -9 64 -20 23 -12 67 -24 96 -29 58 -9
89 -36 144 -121 16 -25 52 -74 80 -110 29 -36 60 -83 70 -105 10 -22 42 -81
72 -131 30 -51 54 -96 54 -100 0 -5 13 -36 29 -69 16 -33 41 -96 55 -139 15
-44 30 -84 35 -90 5 -6 27 -56 49 -111 23 -55 52 -124 66 -152 51 -105 26
-205 -80 -321 -57 -63 -69 -71 -81 -59 -22 21 -93 147 -188 332 -48 94 -95
181 -104 195 -10 14 -30 61 -46 105 -42 118 -187 325 -288 414 -54 47 -73 61
-82 61 -24 0 -96 90 -133 165 -22 44 -47 115 -55 159 l-16 78 26 34 c40 54
109 67 173 34z m-112 -439 c26 -34 60 -64 94 -83 64 -35 190 -157 220 -213 11
-22 34 -57 50 -78 31 -39 78 -128 78 -148 0 -19 59 -136 75 -149 8 -7 15 -17
15 -22 0 -8 46 -102 155 -318 10 -19 26 -46 35 -60 24 -34 34 -86 20 -95 -14
-9 -66 39 -87 79 -8 16 -33 52 -54 79 -36 45 -89 145 -89 167 0 5 -6 15 -13
22 -8 7 -27 43 -42 78 -16 36 -37 77 -47 92 -10 14 -18 31 -18 37 0 6 -17 50
-39 98 -21 49 -49 114 -62 146 -21 51 -37 70 -119 139 -52 44 -99 87 -104 97
-5 9 -38 44 -73 79 -34 35 -63 69 -63 76 0 7 -8 24 -18 37 -25 32 -56 135 -47
157 4 12 18 -8 49 -73 24 -50 62 -114 84 -144z m-860 -556 c26 -13 65 -38 87
-54 22 -17 69 -50 105 -75 36 -24 74 -53 86 -64 22 -21 194 -276 194 -287 0
-4 13 -25 28 -48 16 -23 40 -62 53 -87 13 -25 40 -64 60 -87 20 -23 51 -70 69
-105 18 -35 50 -88 70 -118 38 -57 137 -235 183 -330 25 -51 26 -60 17 -109
-8 -41 -21 -68 -56 -110 -25 -31 -57 -76 -69 -101 -28 -54 -81 -110 -104 -110
-23 0 -52 32 -117 130 -31 47 -60 87 -63 90 -4 3 -18 21 -31 40 -13 19 -54 73
-92 119 -37 46 -68 88 -68 94 0 5 -20 51 -44 101 -64 131 -117 249 -156 343
-26 64 -47 96 -94 145 -76 79 -134 126 -189 155 -23 13 -57 37 -76 55 -37 36
-90 133 -102 188 -16 69 31 198 84 230 49 30 163 28 225 -5z m-355 -72 c-14
-68 -8 -184 13 -240 25 -65 92 -153 130 -173 44 -23 145 -92 170 -117 13 -13
28 -23 33 -23 25 0 141 -196 141 -238 0 -5 13 -34 28 -64 16 -29 29 -61 29
-71 0 -30 -32 8 -47 56 -8 23 -27 57 -42 75 -15 18 -28 39 -28 47 0 21 -78 97
-140 137 -31 19 -105 87 -165 152 -86 91 -120 136 -158 209 -48 90 -48 93 -44
166 4 66 7 77 31 98 42 36 59 31 49 -14z m2911 -140 c38 -65 79 -135 92 -155
13 -21 24 -42 24 -46 0 -5 8 -20 19 -33 10 -13 47 -80 83 -149 35 -69 85 -157
110 -196 45 -69 72 -117 103 -184 70 -149 121 -249 150 -288 40 -57 123 -192
150 -247 11 -22 22 -42 25 -45 3 -3 19 -27 35 -55 17 -27 34 -57 40 -66 5 -9
30 -50 55 -90 24 -41 54 -87 65 -104 12 -16 50 -86 85 -155 88 -175 86 -170
110 -225 12 -27 34 -75 50 -105 58 -114 71 -138 135 -275 37 -77 77 -167 90
-200 65 -168 402 -839 493 -979 23 -36 42 -70 42 -75 0 -17 45 -106 79 -156
18 -27 64 -110 101 -185 37 -75 80 -156 96 -179 59 -88 66 -102 61 -115 -5
-14 -90 -28 -242 -41 -38 -4 -160 -17 -270 -31 -110 -13 -245 -28 -300 -34
-55 -5 -140 -16 -190 -25 -171 -29 -341 -44 -567 -50 -124 -3 -250 -10 -279
-15 -28 -6 -92 -10 -140 -10 -107 0 -288 -26 -521 -76 -103 -22 -172 -18 -235
12 -38 18 -63 23 -83 19 -27 -6 -91 16 -204 71 -16 8 -33 14 -39 14 -5 0 -50
20 -100 44 -192 92 -373 175 -397 182 -14 3 -61 25 -105 47 -44 22 -95 48
-114 56 -19 9 -86 42 -148 73 -63 32 -118 58 -123 58 -5 0 -35 12 -66 26 -31
14 -75 32 -98 40 -75 27 -190 95 -298 177 -60 45 -108 85 -108 90 0 5 -11 23
-23 40 -13 18 -41 66 -62 107 -21 41 -41 77 -45 80 -4 3 -17 26 -29 52 -11 26
-25 49 -30 53 -11 6 -11 6 -100 181 -33 67 -61 125 -61 128 0 4 -15 30 -33 59
-57 89 -102 167 -167 292 -35 66 -84 157 -110 202 -26 45 -58 106 -72 135 -97
201 -250 502 -291 571 -51 86 -97 177 -97 191 0 8 -3 16 -7 18 -5 2 -28 41
-51 88 -24 47 -68 130 -98 185 -72 134 -90 173 -98 218 -5 26 -3 37 5 37 20 0
92 -22 136 -41 24 -11 45 -19 48 -19 3 0 49 -20 102 -45 52 -25 97 -45 99 -45
1 0 23 -13 47 -30 25 -16 50 -30 57 -30 7 0 39 -16 71 -36 77 -46 333 -174
349 -174 7 0 63 -24 124 -54 61 -30 156 -71 211 -91 118 -43 126 -46 185 -73
65 -30 226 -92 238 -92 5 0 39 -13 74 -28 34 -16 86 -37 115 -46 63 -21 69
-40 35 -109 -13 -26 -21 -54 -18 -62 10 -27 35 -28 55 -4 13 16 23 21 30 14
16 -16 191 -373 218 -445 13 -36 29 -78 36 -95 6 -16 23 -50 39 -74 15 -25 28
-48 28 -53 0 -21 112 -252 150 -308 16 -25 37 -61 46 -80 9 -19 37 -70 63
-114 25 -43 58 -99 72 -125 39 -70 299 -589 299 -596 0 -4 20 -48 44 -98 24
-51 56 -121 71 -157 16 -36 35 -72 42 -81 7 -8 13 -19 13 -24 0 -5 6 -16 14
-24 7 -9 31 -56 51 -106 59 -142 64 -153 79 -158 16 -7 36 11 36 33 0 15 -93
205 -171 350 -22 41 -49 95 -59 120 -17 42 -74 163 -254 533 -42 87 -89 177
-104 200 -14 23 -34 58 -43 77 -9 19 -42 80 -74 135 -119 203 -172 302 -199
370 -15 39 -36 85 -47 104 -11 19 -26 50 -34 70 -36 97 -99 239 -161 366 -84
170 -121 272 -106 287 8 8 20 7 41 -2 59 -24 81 11 36 56 -14 14 -25 27 -25
29 0 3 36 44 81 92 44 49 88 101 96 117 32 62 115 164 190 236 43 42 94 101
112 132 18 32 37 60 42 64 5 3 22 24 37 46 15 23 32 48 37 56 12 18 13 19 195
211 80 84 150 162 155 171 6 10 39 49 75 87 101 106 172 192 214 258 90 139
132 201 150 222 11 13 29 38 40 57 45 73 133 186 145 186 3 0 37 -53 75 -117z
m-473 34 c-8 -8 -11 -7 -11 4 0 9 3 19 7 23 4 4 9 2 11 -4 3 -7 -1 -17 -7 -23z
m-94 -115 c-10 -10 -17 -22 -17 -26 0 -9 -26 -36 -34 -36 -20 0 37 77 58 79 5
1 2 -7 -7 -17z m-2406 -104 c18 -29 51 -73 74 -98 23 -25 71 -76 106 -114 35
-38 100 -95 143 -127 73 -54 124 -117 148 -181 11 -29 -60 -155 -149 -264 -18
-23 -40 -62 -49 -88 -9 -25 -24 -52 -33 -59 -10 -6 -26 -27 -35 -46 -17 -32
-17 -34 1 -52 12 -11 37 -19 73 -21 53 -3 55 -2 65 27 5 17 35 71 65 122 47
79 64 97 118 133 35 23 65 40 66 38 21 -28 136 -222 136 -228 0 -5 9 -24 20
-42 11 -18 20 -41 20 -51 0 -26 45 -105 105 -182 17 -22 37 -53 45 -70 7 -16
25 -40 38 -52 23 -19 24 -23 10 -37 -33 -32 -59 -86 -53 -106 4 -12 2 -20 -5
-20 -17 0 -124 37 -182 64 -29 13 -118 50 -198 81 -80 32 -171 71 -203 87 -31
15 -79 37 -107 48 -100 40 -450 218 -522 267 -25 17 -57 34 -70 38 -12 4 -48
19 -78 32 -82 37 -179 79 -227 99 -24 9 -43 19 -43 22 0 5 12 25 61 98 40 61
147 182 273 309 78 79 152 162 166 184 40 66 161 221 186 240 1 1 17 -23 35
-51z m2014 -308 c-19 -21 -45 -27 -45 -10 0 11 30 29 49 30 11 0 10 -5 -4 -20z
m-35 -55 c0 -3 -10 -17 -22 -30 -13 -13 -31 -35 -41 -49 -21 -31 -37 -33 -37
-6 0 12 15 29 40 45 22 14 40 30 40 35 0 6 5 10 10 10 6 0 10 -2 10 -5z
m-1459 -326 c-22 -18 -51 -26 -51 -14 0 14 31 64 42 68 7 2 17 -5 23 -16 7
-15 4 -23 -14 -38z m335 -329 c27 -30 58 -73 69 -95 11 -22 30 -51 43 -65 27
-30 62 -97 54 -104 -16 -16 -41 0 -77 50 -22 30 -45 60 -51 67 -28 32 -65 101
-76 142 -7 25 -16 45 -20 45 -4 0 -8 5 -8 11 0 18 14 7 66 -51z m-379 -2421
c8 -8 17 -8 31 0 27 14 36 0 21 -33 -10 -22 -9 -29 6 -46 11 -12 35 -28 54
-37 20 -10 78 -46 130 -81 88 -59 295 -172 318 -172 5 0 37 -13 71 -30 33 -16
74 -32 89 -36 15 -4 39 -14 53 -24 14 -9 57 -31 95 -49 39 -19 105 -51 149
-73 43 -21 117 -55 165 -74 47 -20 102 -44 121 -54 64 -34 175 -86 210 -100
19 -8 51 -23 70 -35 19 -11 55 -29 80 -40 128 -54 176 -76 293 -138 45 -24 56
-26 154 -22 58 2 144 13 192 24 184 43 239 54 311 62 202 25 438 40 665 45
138 3 266 9 285 15 19 5 58 9 85 9 28 0 68 5 90 10 103 24 231 42 350 50 72 5
164 14 205 19 41 6 113 16 160 22 47 6 120 13 163 14 111 5 261 26 269 39 13
19 8 50 -12 76 -24 31 -25 40 -2 40 22 0 164 -72 208 -105 44 -33 47 -72 7
-80 -40 -8 -156 -47 -168 -56 -41 -30 -194 -54 -435 -69 -80 -5 -210 -17 -290
-25 -80 -9 -181 -20 -225 -25 -44 -5 -143 -14 -220 -19 -248 -19 -349 -30
-415 -45 -36 -9 -79 -16 -97 -16 -17 0 -44 -5 -58 -10 -48 -18 -296 -32 -540
-30 -242 1 -488 -12 -558 -31 -20 -5 -81 -10 -135 -10 -53 -1 -125 -7 -158
-15 -34 -8 -95 -18 -135 -23 -41 -5 -101 -16 -134 -25 -48 -14 -94 -17 -230
-14 l-170 3 -45 32 c-25 18 -72 57 -105 89 -63 58 -174 136 -213 148 -12 4
-34 18 -50 30 -15 12 -54 33 -87 46 -49 20 -198 108 -240 142 -27 22 -128 77
-167 91 -24 8 -79 38 -123 66 -44 28 -100 62 -125 74 -25 13 -64 35 -87 50
-24 15 -46 27 -50 27 -5 0 -34 16 -66 35 -33 20 -84 46 -115 59 -120 51 -232
107 -232 117 0 5 -9 19 -20 31 -11 12 -20 25 -20 29 0 11 120 69 144 69 12 0
46 7 76 16 60 17 130 31 230 44 36 4 81 13 100 18 48 14 64 14 77 1z m-584
-278 c45 -22 102 -46 127 -54 57 -19 349 -169 416 -213 28 -19 56 -34 61 -34
6 0 16 -7 23 -15 7 -9 32 -25 54 -36 23 -10 48 -23 56 -28 8 -5 35 -19 60 -31
50 -25 93 -50 212 -128 45 -30 114 -70 152 -89 86 -43 110 -56 127 -70 8 -6
25 -14 39 -18 67 -21 258 -203 244 -233 -9 -21 -9 -41 1 -159 4 -50 5 -98 2
-106 -5 -13 -21 -10 -100 23 -103 42 -132 56 -162 82 -19 16 -74 45 -160 84
-35 16 -172 108 -185 124 -3 4 -50 30 -104 59 -55 29 -117 64 -138 77 -20 13
-41 24 -45 24 -5 0 -34 20 -66 44 -55 41 -104 68 -210 117 -27 12 -65 37 -85
55 -21 19 -40 34 -44 34 -4 0 -13 7 -22 15 -15 15 -239 125 -255 125 -4 0 -26
16 -48 35 -23 19 -45 35 -51 35 -5 0 -21 9 -36 21 -24 19 -26 26 -26 97 0 112
9 152 31 152 18 0 23 10 20 38 -3 21 26 14 112 -27z m5711 -643 c-4 -29 -9
-107 -9 -173 -1 -66 -4 -125 -8 -132 -25 -41 -219 -80 -552 -111 -55 -6 -107
-12 -115 -15 -8 -3 -94 -8 -190 -11 -96 -3 -188 -8 -205 -11 -34 -6 -272 -17
-355 -17 -145 1 -665 -41 -786 -63 -45 -8 -93 -15 -107 -15 -14 0 -51 -7 -82
-15 -31 -8 -168 -21 -303 -30 -136 -9 -292 -22 -347 -31 -55 -8 -167 -19 -250
-23 -82 -5 -260 -17 -394 -26 -300 -22 -341 -17 -360 44 -18 60 -15 236 5 255
18 18 30 20 39 6 10 -16 41 -11 60 10 16 17 31 19 164 18 114 0 159 4 197 17
27 9 93 21 147 26 54 4 102 11 108 14 5 4 67 8 137 11 70 2 150 10 178 17 58
16 57 16 484 21 317 4 509 15 610 36 119 24 168 32 250 40 47 5 115 13 151 19
36 6 141 13 234 16 92 4 179 11 193 16 15 6 60 12 102 15 41 2 109 9 150 15
41 5 149 14 240 19 225 12 301 24 400 60 99 36 142 48 189 49 l34 1 -9 -52z"/>
<path d="M5906 6534 c-25 -25 -19 -83 14 -136 17 -27 33 -48 38 -48 4 1 23 14
42 31 32 27 35 34 33 77 -1 37 -7 52 -28 69 -30 27 -77 30 -99 7z"/>
<path d="M6112 6024 c-18 -12 -22 -25 -22 -68 0 -57 15 -81 44 -70 9 3 16 16
16 28 0 13 11 27 30 38 36 21 37 32 5 63 -28 29 -42 31 -73 9z"/>
<path d="M4756 5643 c-29 -15 -29 -16 -10 -32 10 -9 27 -35 38 -57 23 -53 58
-71 93 -48 23 14 25 21 20 61 -8 78 -74 113 -141 76z"/>
<path d="M5072 5153 c-30 -25 -38 -79 -14 -94 12 -8 17 -20 14 -34 -6 -33 53
-98 82 -89 42 12 60 41 58 89 -4 100 -85 174 -140 128z m68 -59 c0 -2 -7 -4
-15 -4 -8 0 -15 4 -15 10 0 5 7 7 15 4 8 -4 15 -8 15 -10z m20 -66 c0 -10 -4
-18 -10 -18 -5 0 -10 15 -10 33 0 24 3 28 10 17 5 -8 10 -23 10 -32z"/>
<path d="M3925 5723 c-28 -7 -60 -39 -98 -97 -17 -28 -61 -81 -97 -118 -36
-38 -74 -85 -85 -105 -11 -21 -30 -51 -42 -66 -13 -16 -23 -34 -23 -41 0 -24
25 -65 48 -77 20 -11 26 -9 53 17 32 30 66 76 109 150 76 129 119 193 157 230
55 55 68 81 52 100 -11 14 -35 16 -74 7z"/>
<path d="M1947 7313 c-11 -10 -8 -43 3 -43 6 0 10 -5 10 -10 0 -40 95 -130
120 -115 17 11 11 53 -8 59 -10 4 -29 24 -43 47 -39 65 -62 83 -82 62z"/>
<path d="M3164 7166 c-3 -8 11 -38 30 -68 20 -29 36 -56 36 -60 0 -21 102
-148 120 -148 22 0 17 21 -20 77 -21 33 -55 91 -75 129 -20 38 -42 72 -48 76
-19 12 -37 9 -43 -6z"/>
<path d="M4152 7094 c-8 -15 -6 -27 10 -54 31 -52 69 -90 90 -90 27 0 22 27
-14 72 -83 101 -74 94 -86 72z"/>
<path d="M2257 6943 c-4 -3 -7 -20 -7 -37 0 -24 13 -45 59 -95 55 -57 81 -70
81 -37 0 20 -53 96 -72 102 -10 3 -21 16 -24 29 -7 27 -27 48 -37 38z"/>
<path d="M4978 6816 c-17 -12 -83 -113 -113 -171 -8 -16 -43 -61 -76 -100 -34
-38 -77 -94 -96 -123 -19 -29 -42 -56 -51 -59 -9 -4 -20 -11 -24 -17 -12 -18
39 -86 64 -86 4 0 26 29 48 64 22 35 60 82 83 103 23 22 61 71 84 109 23 39
60 87 82 107 46 42 47 44 25 68 -15 16 -15 20 0 41 31 44 12 92 -26 64z"/>
<path d="M2870 6651 c0 -13 29 -35 37 -28 7 8 -15 37 -28 37 -5 0 -9 -4 -9 -9z"/>
<path d="M3534 6649 c-3 -6 8 -27 25 -47 17 -20 46 -56 64 -79 36 -47 67 -56
67 -20 0 15 -24 46 -68 90 -71 70 -77 74 -88 56z"/>
<path d="M2573 6549 c-15 -15 -8 -33 40 -97 41 -57 62 -71 79 -54 12 12 -13
54 -74 125 -25 29 -36 35 -45 26z"/>
<path d="M2234 6395 c-6 -16 30 -65 120 -161 60 -65 90 -84 108 -66 7 7 -10
33 -53 79 -35 38 -81 90 -103 116 -39 48 -62 58 -72 32z"/>
<path d="M3740 6373 c0 -23 9 -35 39 -51 20 -12 26 -11 40 2 14 15 13 18 -14
41 -36 29 -65 32 -65 8z"/>
<path d="M2855 6280 c-13 -21 113 -180 142 -180 19 0 16 28 -8 58 -11 15 -38
51 -60 80 -39 50 -61 63 -74 42z"/>
<path d="M2661 5990 c-10 -6 -11 -12 -1 -31 19 -38 62 -79 81 -79 31 0 29 16
-6 53 -19 21 -35 41 -35 46 0 13 -25 20 -39 11z"/>
<path d="M3154 5986 c-9 -24 22 -81 77 -142 59 -67 103 -94 121 -76 8 8 -8 31
-64 89 -42 43 -83 93 -92 111 -18 34 -33 41 -42 18z"/>
<path d="M2927 5714 c-21 -22 127 -185 153 -169 20 12 9 44 -22 67 -17 13 -50
42 -73 66 -44 44 -48 46 -58 36z"/>
</g>
</svg>
