<?xml version="1.0" standalone="no"?>
<!DOCTYPE svg PUBLIC "-//W3C//DTD SVG 20010904//EN"
 "http://www.w3.org/TR/2001/REC-SVG-20010904/DTD/svg10.dtd">
<svg version="1.0" xmlns="http://www.w3.org/2000/svg"
 width="1669.000000pt" height="2512.000000pt" viewBox="0 0 1669.000000 2512.000000"
 preserveAspectRatio="xMidYMid meet">

<g transform="translate(0.000000,2512.000000) scale(0.100000,-0.100000)"
fill="#000000" stroke="none">
<path d="M9860 24318 c-343 -17 -503 -27 -595 -38 -164 -18 -258 -30 -296 -36
-26 -4 -45 -1 -63 11 -24 16 -28 16 -44 2 -13 -11 -54 -16 -167 -21 -218 -9
-306 -16 -339 -27 -16 -5 -45 -9 -65 -9 -20 0 -68 -7 -106 -16 -76 -17 -105
-20 -235 -28 -47 -3 -96 -8 -110 -10 -24 -4 -229 -18 -260 -18 -8 0 -54 -4
-103 -10 -75 -9 -90 -8 -105 5 -20 19 -38 15 -307 -59 -49 -13 -108 -29 -130
-34 -23 -5 -83 -22 -135 -38 -52 -16 -135 -42 -185 -56 -49 -15 -104 -31 -121
-36 -17 -6 -42 -10 -55 -10 -14 0 -30 -5 -35 -10 -6 -6 -54 -26 -107 -44 -53
-18 -113 -44 -134 -56 -20 -12 -67 -33 -103 -47 -160 -62 -193 -75 -245 -98
-41 -18 -222 -75 -239 -75 -11 0 -32 43 -52 108 -4 16 -29 16 -42 -1 -7 -8 -6
-28 4 -67 8 -30 11 -57 6 -61 -4 -3 -27 -14 -52 -23 -44 -17 -68 -27 -140 -59
-19 -9 -60 -25 -90 -37 -30 -12 -71 -30 -90 -40 -54 -29 -149 -70 -163 -70 -7
0 -31 -9 -55 -20 -23 -10 -57 -22 -76 -25 -30 -6 -36 -4 -52 24 -13 22 -25 31
-39 29 -21 -3 -24 -21 -12 -69 6 -24 1 -28 -71 -66 -42 -23 -88 -44 -102 -48
-23 -7 -166 -72 -387 -176 -64 -30 -101 -41 -136 -41 -40 0 -49 -4 -60 -25 -9
-18 -41 -37 -117 -70 -58 -24 -118 -51 -135 -58 -16 -8 -69 -26 -118 -40 -48
-14 -156 -60 -240 -103 -83 -42 -163 -79 -177 -82 -18 -4 -26 -13 -28 -33 -2
-15 -12 -31 -22 -37 -10 -5 -24 -16 -32 -23 -7 -7 -42 -32 -78 -55 -36 -23
-78 -52 -94 -64 -104 -81 -248 -181 -286 -199 -125 -59 -187 -95 -328 -189
-54 -36 -116 -85 -138 -110 -21 -25 -42 -46 -46 -48 -3 -2 -16 -12 -29 -23
-12 -10 -26 -19 -30 -19 -4 0 -14 -6 -21 -13 -7 -6 -33 -25 -57 -40 -24 -16
-81 -64 -126 -108 -78 -75 -115 -96 -115 -65 0 8 -9 24 -20 37 -19 23 -21 23
-34 6 -10 -13 -11 -28 -5 -55 14 -62 12 -67 -47 -96 -73 -36 -132 -81 -226
-175 -72 -70 -197 -151 -235 -151 -7 0 -18 -10 -24 -22 -6 -13 -62 -72 -124
-133 -95 -93 -147 -155 -176 -209 -51 -97 -51 -97 -36 -114 8 -10 22 -46 31
-81 9 -35 28 -91 42 -125 14 -33 38 -105 54 -158 41 -133 117 -342 140 -381
10 -18 35 -72 55 -122 20 -49 45 -108 55 -130 10 -22 30 -74 45 -115 15 -41
35 -93 44 -115 10 -22 24 -65 31 -95 7 -30 21 -80 30 -110 19 -58 73 -238 93
-305 6 -22 17 -51 24 -65 7 -14 13 -30 13 -37 0 -7 6 -27 14 -45 8 -18 33 -82
56 -143 23 -60 45 -119 49 -130 16 -42 44 -124 72 -215 32 -102 50 -157 67
-205 29 -79 93 -278 112 -350 12 -44 26 -89 31 -100 4 -11 18 -56 29 -100 19
-71 49 -163 89 -275 7 -19 23 -76 36 -127 28 -107 60 -202 85 -258 10 -22 26
-69 35 -105 9 -36 20 -74 25 -85 31 -80 60 -162 60 -173 0 -7 4 -20 9 -30 6
-9 20 -51 31 -92 12 -41 24 -82 27 -90 4 -8 6 -18 5 -22 -2 -10 57 -190 67
-202 5 -6 11 -24 14 -41 8 -47 46 -168 54 -174 9 -7 43 -102 43 -120 0 -6 11
-34 24 -63 26 -60 42 -107 61 -182 7 -28 26 -88 43 -132 16 -45 35 -106 42
-135 7 -30 26 -81 41 -113 16 -33 29 -66 29 -73 0 -7 4 -21 9 -31 5 -9 23 -64
41 -122 17 -58 44 -132 60 -165 46 -98 97 -233 131 -350 28 -97 48 -148 105
-270 8 -16 20 -55 28 -85 8 -30 27 -84 44 -120 75 -163 96 -211 128 -304 19
-55 34 -109 34 -122 0 -13 5 -26 10 -29 6 -3 10 -28 10 -54 0 -40 3 -50 20
-54 11 -3 20 -13 20 -23 0 -9 8 -26 17 -36 17 -19 31 -63 79 -248 13 -52 36
-126 50 -165 14 -38 33 -97 41 -130 25 -104 36 -139 50 -163 8 -13 18 -48 24
-78 5 -30 13 -78 19 -106 75 -413 80 -439 100 -508 25 -91 40 -157 40 -180 0
-11 4 -28 9 -38 5 -9 14 -42 21 -72 14 -66 18 -77 75 -251 25 -75 45 -142 45
-149 0 -10 32 -99 60 -165 4 -11 13 -42 20 -70 7 -27 15 -59 19 -70 15 -38 32
-90 73 -220 22 -71 48 -150 58 -175 10 -25 30 -76 45 -115 15 -38 38 -92 50
-120 13 -27 26 -61 28 -75 3 -14 10 -42 15 -63 9 -34 7 -45 -17 -85 -31 -55
-81 -165 -81 -180 0 -24 -114 -292 -181 -425 -10 -22 -19 -43 -19 -48 0 -5 -9
-28 -19 -52 -23 -51 -36 -103 -32 -137 4 -32 29 -60 48 -53 12 5 13 -4 8 -53
-6 -52 -4 -63 15 -87 l22 -28 -21 -67 c-27 -88 -28 -145 0 -173 17 -17 20 -28
14 -69 -8 -55 6 -90 34 -90 20 0 21 6 -9 -107 -13 -51 -12 -107 2 -121 7 -7
12 -55 12 -129 1 -83 6 -128 17 -153 9 -19 21 -47 27 -62 12 -28 35 -37 47
-18 12 19 33 10 41 -18 5 -15 9 -72 9 -127 0 -99 0 -100 24 -99 23 1 23 -1 17
-55 -4 -31 -10 -77 -13 -103 -10 -85 18 -128 59 -91 25 22 30 14 57 -87 13
-47 32 -104 43 -127 17 -35 24 -41 39 -33 10 6 21 20 25 32 9 24 9 22 30 -99
6 -41 -4 -99 -28 -165 -7 -20 -4 -48 12 -115 12 -48 26 -92 30 -98 5 -5 15
-35 23 -66 8 -31 31 -84 51 -118 20 -34 36 -65 36 -69 0 -4 16 -32 36 -62 19
-30 44 -75 56 -100 11 -25 29 -57 39 -71 10 -14 29 -56 43 -93 14 -38 35 -84
45 -105 11 -20 29 -57 41 -83 31 -67 136 -170 196 -192 27 -10 58 -21 69 -26
11 -4 40 -13 65 -20 25 -6 77 -29 115 -50 39 -20 81 -41 95 -45 39 -11 87 -52
94 -78 3 -13 24 -38 46 -56 29 -23 40 -39 40 -59 0 -18 14 -39 48 -72 64 -60
187 -153 237 -178 22 -11 47 -28 56 -38 29 -32 79 -124 68 -124 -18 0 -161 62
-207 89 -23 14 -45 34 -48 44 -3 10 -13 17 -22 15 -60 -12 24 -90 174 -163 61
-30 120 -65 131 -78 10 -13 33 -32 51 -41 31 -16 56 -48 46 -59 -3 -3 -22 3
-42 13 -21 11 -59 28 -86 40 -27 11 -66 34 -86 50 -35 27 -70 32 -70 10 0 -17
98 -89 167 -124 40 -19 87 -49 105 -65 19 -16 42 -29 52 -28 11 1 20 -5 21
-15 2 -11 -3 -18 -13 -18 -30 1 -98 37 -119 64 -12 14 -28 26 -37 26 -47 0 17
-84 91 -120 26 -13 56 -27 65 -32 10 -4 24 -8 32 -8 7 0 26 -25 41 -55 15 -30
54 -81 86 -114 33 -33 59 -64 59 -70 0 -5 21 -33 46 -63 25 -29 49 -60 52 -69
4 -9 28 -41 54 -70 26 -30 66 -76 88 -104 73 -89 104 -125 169 -193 34 -37 70
-80 78 -97 19 -38 195 -210 237 -232 17 -9 45 -28 62 -42 56 -46 79 -63 99
-72 41 -18 171 -137 202 -184 49 -75 97 -118 181 -164 92 -50 94 -52 259 -163
185 -125 178 -118 164 -160 -7 -20 -20 -43 -31 -53 -21 -19 -16 -45 10 -45 9
0 25 9 35 20 10 11 24 20 30 20 12 0 40 -65 52 -120 3 -14 19 -42 36 -64 24
-31 31 -52 38 -115 7 -69 39 -206 53 -230 4 -5 11 -33 16 -63 5 -29 16 -75 24
-103 38 -133 58 -261 62 -398 3 -129 6 -142 34 -127 18 10 20 21 20 143 0 88
-5 151 -15 187 -8 30 -20 80 -26 110 -7 30 -17 78 -24 105 -7 28 -18 75 -25
105 -6 30 -15 64 -20 75 -22 48 -41 136 -47 208 -5 61 -12 87 -31 115 -38 56
-62 119 -62 163 l0 38 58 -29 c31 -16 84 -42 117 -57 33 -15 76 -38 95 -51 39
-26 135 -72 151 -72 6 0 29 -12 52 -27 74 -49 81 -53 117 -69 19 -9 51 -26 70
-37 40 -25 97 -47 123 -47 10 0 51 -13 90 -29 62 -25 147 -47 263 -66 198 -33
498 -87 529 -96 22 -6 74 -15 115 -20 41 -5 100 -14 130 -20 64 -12 186 -28
285 -37 94 -9 559 15 715 37 108 15 216 29 285 36 105 11 178 26 214 44 20 10
102 35 184 55 84 22 183 54 231 77 46 21 96 39 110 39 57 0 269 97 331 151 11
10 43 29 70 44 80 42 123 70 153 97 15 14 77 63 137 109 61 46 119 93 130 104
36 37 171 199 191 230 21 34 101 129 158 190 21 22 50 56 65 75 14 19 61 69
104 110 44 41 99 101 124 134 24 32 53 68 64 80 11 11 45 59 76 106 30 47 74
108 97 135 23 28 49 62 59 77 9 15 27 37 39 51 13 13 48 53 80 88 122 138 356
369 374 369 45 -1 47 -8 42 -196 -3 -109 -11 -209 -21 -254 -21 -100 -52 -444
-49 -550 2 -57 11 -108 26 -155 21 -62 30 -100 51 -210 29 -151 42 -184 67
-169 15 9 8 101 -12 159 -11 32 -20 73 -20 90 0 18 -14 73 -30 124 -27 80 -30
105 -31 211 0 66 2 124 5 129 6 9 23 167 32 286 2 33 7 67 10 75 10 24 24 157
28 265 5 137 16 237 29 253 6 7 11 36 13 64 2 40 8 57 32 82 16 17 46 60 67
96 21 36 50 79 64 95 24 28 58 92 159 305 42 88 102 256 102 286 0 21 75 245
101 301 10 24 19 50 19 59 0 9 4 33 9 53 70 270 85 508 52 821 -31 295 -44
395 -58 470 -23 116 -29 342 -10 362 8 8 22 30 32 48 10 19 25 43 34 53 17 19
81 134 127 227 15 30 27 73 28 94 1 40 1 40 -39 42 -50 2 -58 -5 -92 -74 -16
-31 -47 -76 -71 -100 -42 -42 -49 -72 -18 -72 8 0 44 33 81 72 58 65 64 69 54
39 -24 -70 -61 -122 -99 -141 -21 -11 -42 -30 -46 -42 -3 -13 -20 -51 -36 -86
-30 -63 -30 -63 -25 -205 3 -78 10 -164 16 -192 20 -97 40 -241 41 -285 0 -26
4 -50 9 -55 5 -6 12 -44 14 -85 3 -41 8 -88 11 -105 10 -49 14 -344 5 -430
-17 -175 -22 -211 -31 -228 -5 -10 -16 -52 -24 -95 -8 -42 -29 -113 -46 -157
-17 -44 -39 -100 -48 -125 -10 -25 -26 -81 -35 -125 -38 -173 -218 -574 -272
-608 -7 -4 -24 -30 -38 -56 -13 -27 -47 -77 -75 -111 -27 -35 -50 -66 -50 -70
0 -4 -37 -42 -82 -86 -192 -185 -368 -364 -414 -421 -27 -34 -88 -109 -136
-166 -49 -58 -88 -108 -88 -111 0 -3 -22 -35 -50 -72 -27 -37 -50 -70 -50 -74
0 -4 -8 -16 -17 -27 -10 -11 -38 -44 -63 -74 -25 -29 -85 -96 -135 -149 -158
-168 -249 -271 -302 -344 -101 -136 -128 -170 -198 -241 -38 -40 -83 -80 -100
-90 -39 -25 -138 -100 -191 -145 -23 -20 -66 -49 -95 -64 -30 -16 -90 -53
-134 -82 -44 -29 -98 -60 -120 -69 -22 -10 -59 -26 -83 -36 -23 -11 -56 -19
-72 -19 -29 0 -47 -6 -133 -43 -36 -16 -50 -18 -59 -9 -18 18 -40 14 -69 -10
-40 -37 -62 -46 -217 -97 -121 -39 -174 -51 -302 -66 -85 -10 -184 -22 -220
-27 -64 -8 -212 -20 -480 -36 -149 -9 -286 -6 -340 9 -19 5 -54 9 -78 9 -24 0
-62 4 -85 9 -23 5 -82 15 -132 22 -49 6 -115 18 -145 26 -30 7 -86 18 -125 24
-142 21 -183 28 -310 53 -265 53 -311 64 -372 90 -34 14 -72 26 -84 26 -20 0
-127 51 -249 119 -71 39 -137 71 -147 71 -5 0 -41 20 -81 45 -40 25 -76 45
-81 45 -4 0 -30 16 -56 37 -26 20 -58 37 -70 38 -34 4 -194 92 -277 152 -76
55 -238 161 -343 223 -113 67 -117 70 -182 157 -51 70 -97 111 -223 198 -31
22 -74 55 -94 73 -20 17 -41 32 -46 32 -13 0 -212 190 -232 221 -9 15 -53 67
-98 116 -45 48 -90 100 -100 116 -9 15 -41 52 -70 83 -55 58 -76 84 -134 171
-19 28 -43 56 -53 62 -10 5 -25 22 -33 38 -8 15 -23 41 -33 56 -10 15 -16 35
-13 44 8 20 -34 103 -82 162 -20 25 -43 57 -52 73 -8 15 -36 65 -61 110 -25
46 -84 142 -131 213 -47 72 -93 145 -103 164 -24 47 -55 140 -55 164 0 11 -13
41 -30 67 -16 25 -36 66 -45 90 -8 25 -21 59 -29 75 -7 17 -21 53 -30 80 -36
106 -84 232 -109 286 -15 31 -27 60 -27 64 0 10 -107 279 -125 315 -29 58 -58
130 -75 190 -25 89 -56 177 -79 225 -10 22 -27 60 -36 85 -19 47 -61 138 -138
301 -26 52 -64 116 -87 141 -22 25 -40 50 -40 55 0 5 -10 19 -23 31 -12 11
-47 69 -77 127 -30 59 -63 111 -72 116 -21 11 -48 2 -48 -17 0 -8 -10 -14 -25
-14 -32 0 -32 13 0 34 17 11 25 26 25 46 0 21 4 28 14 24 9 -3 17 3 22 18 12
37 6 174 -12 283 -9 55 -18 128 -21 163 -4 41 -10 62 -18 62 -21 0 -25 -25
-25 -146 0 -64 -4 -113 -9 -110 -14 9 -31 88 -34 169 -4 82 -14 104 -43 93
-14 -5 -15 -16 -10 -64 3 -31 9 -100 12 -153 6 -86 5 -96 -11 -103 -10 -3 -20
-4 -22 -2 -3 2 -4 108 -4 234 1 160 -2 233 -10 237 -27 17 -32 -20 -36 -257
-2 -133 -7 -246 -11 -250 -4 -4 -14 -3 -22 2 -12 8 -15 36 -16 142 0 73 -1
231 -2 351 l-2 217 -25 0 c-24 0 -25 1 -18 60 4 42 2 69 -7 85 -10 20 -10 33
0 70 7 25 17 48 21 51 5 3 5 14 -1 24 -14 27 -13 57 9 146 10 44 29 122 40
174 38 166 52 219 67 261 7 23 14 50 14 61 0 27 -31 19 -47 -12 -24 -48 -14 7
18 92 27 73 48 150 66 239 7 37 -15 48 -39 19 -36 -44 -11 46 44 158 30 61 30
63 12 83 -18 20 -18 21 21 58 22 20 69 55 105 76 74 45 72 43 125 87 22 18 47
38 56 43 9 6 47 31 85 56 38 25 90 59 115 75 91 58 187 125 199 139 7 8 17 15
22 15 6 0 27 13 47 28 56 44 180 116 303 177 62 30 127 64 143 75 17 11 46 29
65 40 19 11 42 24 50 29 8 5 78 39 155 77 77 37 165 84 195 104 30 21 91 62
135 92 44 30 154 91 245 136 163 82 211 109 323 184 92 62 211 122 372 188 83
34 157 68 166 76 8 8 19 14 22 14 4 0 75 33 159 74 171 82 245 116 253 116 3
0 49 21 103 46 87 41 146 68 207 94 11 5 49 18 85 29 84 26 364 123 414 145
21 9 45 16 53 16 14 0 109 39 199 81 22 10 45 19 51 19 7 0 38 11 70 24 61 24
81 31 203 65 93 27 136 41 225 76 39 14 90 33 115 40 53 15 133 43 175 61 17
7 53 20 80 29 28 9 68 25 90 35 44 21 266 94 317 105 18 4 56 15 83 25 28 10
88 27 135 39 47 12 117 30 155 41 83 23 378 93 485 115 41 8 93 20 115 25 22
6 67 17 100 25 33 8 85 22 115 31 30 9 91 20 135 25 44 5 100 13 125 19 151
37 357 74 510 91 41 4 120 13 175 19 205 23 515 45 515 37 0 -3 -27 -20 -61
-38 -65 -35 -103 -77 -93 -104 7 -17 11 -17 79 9 22 8 61 15 86 16 25 0 72 9
105 19 79 25 157 41 202 41 l37 -1 -28 -15 c-53 -29 -182 -64 -235 -64 -38 0
-54 -4 -59 -15 -8 -22 -6 -23 73 -35 59 -9 75 -8 99 4 45 24 65 21 65 -9 0
-32 18 -32 106 1 37 14 87 29 109 33 41 8 41 8 37 -21 -3 -19 0 -28 9 -29 14
-1 -64 -23 -134 -38 -21 -5 -44 -14 -50 -20 -6 -6 -26 -11 -44 -11 -22 0 -33
-5 -33 -14 0 -25 20 -30 134 -30 101 -1 114 -3 148 -26 20 -14 37 -28 38 -31
0 -12 -106 -20 -159 -13 -43 6 -51 4 -51 -10 0 -24 39 -35 143 -39 77 -3 102
-8 143 -30 27 -14 76 -36 109 -49 33 -12 65 -25 70 -29 6 -3 26 -12 46 -18 20
-6 50 -22 68 -35 52 -39 10 -40 -137 -4 -24 6 -62 26 -84 45 -44 36 -74 40
-92 10 -9 -15 -4 -25 37 -60 50 -45 57 -61 31 -75 -15 -8 -14 -14 11 -56 15
-25 31 -49 36 -52 5 -3 7 -15 4 -27 -10 -37 99 -130 175 -150 14 -4 36 -16 49
-28 21 -17 22 -22 10 -30 -7 -5 -26 -9 -41 -9 -34 0 -43 -14 -22 -35 17 -16
30 -16 145 1 35 5 54 2 85 -14 l39 -20 -48 -7 c-27 -4 -68 -5 -91 -2 -32 5
-53 1 -82 -13 -21 -11 -58 -20 -81 -20 -41 0 -43 -1 -32 -21 12 -23 30 -23
247 -3 69 6 72 6 72 -15 0 -18 -6 -21 -41 -21 -33 0 -40 -3 -35 -16 3 -9 6
-17 6 -20 0 -2 17 -12 38 -23 35 -18 129 -104 181 -167 45 -54 125 -149 171
-201 50 -57 90 -109 90 -116 0 -15 -46 11 -82 47 -23 22 -53 49 -67 58 -40 27
-250 240 -257 260 -5 18 -50 36 -61 25 -19 -20 95 -145 262 -287 44 -37 93
-82 109 -99 17 -17 34 -31 40 -31 5 0 36 -27 68 -60 61 -62 58 -76 -7 -40 -76
43 -90 10 -19 -44 68 -52 126 -72 172 -58 51 16 49 19 146 -177 24 -50 42 -61
60 -36 14 19 11 23 52 -88 20 -57 12 -69 -44 -65 -32 3 -37 9 -80 95 -26 50
-57 115 -70 145 -37 85 -46 101 -60 106 -7 2 -16 -5 -19 -17 -3 -12 -11 -21
-18 -21 -15 0 -65 25 -74 37 -11 15 -86 70 -120 87 -58 30 -210 186 -268 274
-33 51 -67 91 -88 104 -23 13 -35 27 -35 42 0 12 -5 27 -12 34 -17 17 -48 15
-48 -2 0 -29 39 -102 76 -145 106 -120 277 -289 344 -339 41 -31 82 -64 92
-74 22 -22 118 -88 128 -88 8 0 14 -11 109 -197 51 -102 52 -103 34 -128 -10
-13 -21 -25 -25 -25 -8 0 -48 55 -48 67 0 5 -23 49 -52 98 -28 50 -63 122 -78
160 -16 42 -34 71 -44 73 -37 8 -4 -87 94 -263 67 -121 90 -179 90 -228 0 -56
25 -60 67 -11 18 21 33 45 33 52 0 45 99 115 133 95 29 -17 73 -60 112 -108
113 -141 147 -183 175 -216 16 -20 41 -56 54 -80 24 -45 75 -202 96 -295 15
-68 15 -505 0 -613 -6 -46 -8 -102 -4 -125 4 -22 7 -45 5 -51 -1 -5 -7 -66
-12 -135 -12 -178 -36 -298 -73 -367 -30 -57 -82 -140 -97 -153 -9 -8 -31 -35
-50 -60 -18 -25 -67 -79 -109 -120 -42 -41 -88 -94 -103 -116 -29 -47 -77
-182 -77 -219 0 -13 -7 -45 -16 -71 -18 -54 -12 -97 14 -92 9 2 21 13 27 24
12 24 97 126 140 167 17 16 44 35 60 42 29 13 30 13 35 -17 3 -17 10 -33 15
-35 19 -6 36 56 44 156 4 55 13 107 20 115 14 17 7 36 -13 36 -6 0 -27 -16
-46 -35 -19 -19 -38 -35 -43 -35 -4 0 -24 -12 -43 -26 -63 -49 -39 1 39 78 68
68 136 152 218 273 77 111 108 273 114 596 2 80 8 185 14 235 13 112 8 476 -8
569 -17 94 -68 250 -97 297 -13 21 -24 41 -24 46 0 5 -14 21 -31 38 -17 16
-39 45 -49 64 -10 19 -30 46 -45 60 -15 14 -55 61 -88 105 -34 44 -67 86 -74
93 -8 8 -20 30 -28 50 -14 31 -14 37 0 52 8 9 15 29 15 43 0 20 5 27 20 27 15
0 20 7 20 26 0 14 -4 33 -9 42 -11 22 -20 123 -10 116 23 -14 28 93 8 170 -6
22 -15 59 -21 81 -6 22 -24 77 -40 122 l-29 82 20 20 c19 19 20 22 4 68 -8 26
-17 62 -18 79 -6 63 -19 101 -68 194 -27 52 -53 97 -57 100 -4 3 -20 29 -35
59 -15 30 -44 79 -64 110 -21 31 -42 64 -47 73 -5 9 -43 52 -84 95 -93 96
-210 237 -210 252 0 42 -141 209 -256 302 -18 14 -39 39 -47 56 -22 41 -150
153 -207 181 -48 22 -158 48 -167 38 -14 -13 10 -36 44 -42 41 -7 152 -52 168
-69 13 -13 45 -63 45 -70 0 -16 -50 0 -79 25 -18 17 -43 30 -55 30 -11 0 -52
20 -91 43 -60 37 -70 48 -73 74 -4 43 -19 52 -91 59 -64 7 -91 27 -91 65 0 9
-6 22 -14 28 -8 7 -18 27 -22 44 -3 17 -13 41 -20 52 -7 11 -20 47 -27 80 -8
33 -25 83 -37 110 -12 28 -23 69 -24 92 -2 27 -10 51 -23 65 -20 22 -84 170
-125 292 -11 34 -26 75 -34 91 -16 36 -73 207 -84 253 -4 18 -4 35 1 38 17 10
9 42 -15 58 -35 22 -92 114 -100 159 -6 33 -4 38 19 47 28 11 29 13 14 41 -7
13 -16 18 -29 14 -10 -3 -25 2 -35 12 -16 16 -75 132 -75 148 0 4 -6 21 -14
38 -28 66 -46 145 -40 175 5 25 1 35 -20 54 -14 13 -42 61 -62 108 -20 47 -48
114 -63 150 -15 36 -33 90 -40 120 -27 121 -35 148 -67 214 -19 38 -38 74 -43
80 -4 6 -11 29 -14 50 -4 22 -22 65 -41 95 -18 31 -46 85 -61 120 -15 36 -44
90 -64 120 -57 87 -130 261 -171 411 -6 25 -25 77 -41 115 -71 167 -117 306
-155 470 -13 61 -40 153 -58 205 -19 52 -53 160 -76 240 -23 80 -46 150 -49
155 -4 6 -13 35 -20 65 -16 74 -31 130 -42 158 -5 13 -9 30 -9 38 0 9 -17 61
-39 117 -36 96 -56 160 -117 372 -14 50 -34 119 -44 155 -11 36 -22 79 -25 95
-9 49 -65 224 -100 315 -55 143 -96 288 -160 560 -7 30 -24 87 -39 125 -42
109 -76 218 -76 241 0 29 -76 318 -98 375 -6 14 -18 57 -27 95 -62 262 -78
326 -95 384 -11 36 -25 88 -31 115 -7 28 -22 77 -34 110 -24 64 -46 138 -65
220 -7 28 -30 102 -52 165 -55 158 -98 301 -98 327 0 12 -21 84 -46 160 -26
76 -50 154 -54 173 -9 38 -29 112 -65 235 -12 44 -35 132 -49 195 -15 63 -31
124 -36 135 -7 18 -58 181 -82 265 -5 19 -22 71 -38 115 -15 44 -38 114 -50
155 -29 97 -126 388 -191 570 -23 66 -44 100 -60 100 -20 0 -33 -28 -21 -44
10 -13 64 -152 82 -211 7 -22 16 -49 21 -60 23 -59 62 -173 94 -275 56 -180
83 -261 104 -320 62 -174 137 -432 154 -530 2 -14 21 -83 41 -155 20 -71 42
-148 48 -170 5 -22 23 -78 38 -125 57 -175 70 -221 70 -243 0 -12 7 -42 16
-67 9 -25 27 -79 40 -120 12 -41 31 -95 40 -120 9 -25 20 -61 24 -80 15 -67
52 -195 76 -265 25 -70 85 -275 103 -350 5 -22 17 -69 26 -105 9 -36 25 -103
37 -150 11 -47 28 -110 38 -140 17 -49 27 -86 61 -210 5 -19 18 -80 29 -135
17 -82 58 -214 100 -320 14 -34 62 -206 76 -275 16 -75 51 -190 71 -237 7 -17
13 -35 12 -40 -4 -14 13 -67 32 -103 19 -38 46 -121 84 -265 44 -165 64 -236
69 -244 3 -4 17 -50 30 -102 42 -160 74 -262 95 -305 11 -22 25 -63 31 -90 7
-27 20 -71 30 -99 9 -27 23 -75 29 -105 7 -30 18 -71 26 -90 7 -19 24 -73 38
-120 14 -47 48 -157 75 -245 56 -181 69 -229 84 -300 12 -57 88 -299 124 -395
13 -36 27 -91 31 -123 3 -31 11 -65 18 -74 17 -23 -1 -66 -25 -58 -9 3 -42 8
-73 10 -43 5 -63 12 -83 32 -19 19 -32 24 -53 20 -39 -8 -93 27 -132 86 -36
55 -31 70 14 43 86 -50 101 -57 121 -54 39 6 21 30 -56 77 -42 25 -87 56 -100
69 -14 12 -29 22 -36 22 -11 0 -35 70 -27 79 3 2 18 -4 33 -15 15 -11 51 -33
80 -49 42 -23 55 -26 65 -16 14 14 -11 39 -84 81 -24 14 -73 54 -109 90 -52
50 -69 74 -74 104 -4 21 -5 40 -3 43 3 2 45 -23 93 -56 49 -34 94 -61 101 -61
41 0 8 56 -52 87 -47 25 -161 119 -186 154 l-22 31 23 -7 c13 -4 28 -12 34
-17 41 -34 120 -88 131 -88 51 0 8 52 -110 135 -79 55 -122 96 -130 123 -9 30
4 28 56 -11 83 -62 115 -79 127 -64 16 19 -7 48 -70 88 -29 18 -70 48 -91 66
-21 19 -49 38 -61 43 -16 6 -25 19 -28 39 -5 37 1 38 39 8 50 -40 151 -107
161 -107 19 0 24 20 11 37 -8 8 -50 43 -94 77 -128 97 -165 130 -165 146 0 12
27 14 32 2 6 -14 132 -92 149 -92 9 0 22 6 28 14 10 12 -3 24 -71 68 -93 61
-192 152 -203 186 -8 28 2 28 45 -2 62 -42 170 -96 191 -96 15 0 20 5 17 21
-2 14 -25 33 -68 56 -114 63 -214 136 -224 165 -14 41 0 45 37 11 64 -61 204
-122 221 -95 8 14 -8 27 -74 61 -70 36 -74 39 -177 123 -56 45 -72 64 -76 90
-2 18 -3 36 -1 40 2 3 44 -20 93 -53 100 -66 154 -80 159 -42 3 18 -4 24 -39
33 -48 13 -102 48 -169 109 -24 23 -49 41 -56 41 -18 0 -44 35 -44 58 0 28 14
28 53 -2 41 -30 132 -76 152 -76 31 0 16 39 -24 59 -21 11 -69 41 -106 66 -37
26 -77 50 -89 55 -16 6 -25 22 -33 54 -5 25 -6 46 -1 46 4 0 27 -12 50 -27 79
-53 142 -81 160 -72 24 13 13 35 -25 50 -76 31 -218 143 -243 191 -24 47 -4
51 61 12 70 -43 115 -53 134 -30 11 13 7 22 -27 58 -34 36 -42 40 -55 29 -24
-19 -49 -6 -115 57 -48 47 -61 65 -67 100 -4 24 -5 45 -3 48 3 2 42 -16 88
-41 93 -50 110 -54 110 -25 0 12 -16 29 -47 46 -55 31 -131 83 -151 102 -8 6
-22 16 -32 22 -17 9 -56 107 -46 117 5 6 101 -43 203 -104 78 -46 123 -55 123
-25 0 9 -9 22 -20 27 -51 25 -229 144 -265 176 -22 20 -49 38 -59 40 -13 3
-25 20 -36 51 -9 26 -19 51 -23 55 -8 8 -9 43 -2 43 15 0 82 -40 99 -59 11
-12 24 -21 30 -21 6 0 22 -9 36 -20 26 -20 75 -27 84 -11 10 15 -43 69 -74 76
-33 7 -136 78 -164 113 -10 13 -24 21 -32 18 -8 -3 -18 12 -29 45 -10 28 -15
52 -13 54 2 2 49 -25 103 -61 121 -79 145 -92 168 -87 34 8 14 29 -96 101
-151 97 -222 163 -243 225 -9 26 -14 50 -11 53 10 10 72 -33 237 -166 29 -23
53 -25 68 -7 14 16 4 30 -34 50 -45 23 -160 112 -241 187 -53 49 -72 73 -76
98 -5 31 5 43 18 22 4 -6 43 -38 88 -70 78 -57 118 -72 132 -49 8 11 -22 49
-39 49 -19 1 -198 143 -229 181 -19 24 -27 45 -25 62 3 25 7 23 120 -59 92
-66 124 -85 145 -82 40 4 35 30 -10 51 -44 20 -170 114 -236 176 -24 23 -47
41 -51 41 -9 0 -44 100 -37 106 6 7 119 -61 197 -118 96 -70 140 -80 140 -32
0 17 -8 28 -27 35 -71 28 -134 64 -208 119 -44 33 -90 60 -102 60 -12 0 -24 8
-26 18 -25 93 -29 113 -25 117 5 6 88 -48 145 -93 43 -33 112 -48 120 -26 2 7
-22 26 -54 44 -32 18 -72 44 -90 59 -17 14 -48 37 -69 51 -68 46 -94 76 -94
110 0 29 1 30 23 19 12 -7 38 -24 57 -39 78 -61 170 -90 170 -54 0 9 -20 24
-47 36 -56 25 -108 63 -180 132 -48 45 -83 109 -69 123 3 3 41 -15 84 -41 80
-47 106 -54 117 -36 10 16 -13 39 -67 66 -27 14 -75 45 -108 70 -47 36 -62 54
-70 86 -18 66 -13 65 103 -16 55 -37 87 -42 87 -13 0 7 -23 29 -52 47 -88 57
-187 157 -194 196 -3 19 -5 37 -3 39 2 2 30 -14 63 -36 35 -24 70 -39 88 -39
41 0 32 18 -28 57 -27 18 -53 36 -59 40 -5 4 -30 21 -54 38 -23 16 -46 38 -51
50 -10 27 -21 105 -15 105 6 0 89 -47 137 -77 66 -41 114 -24 56 20 -18 13
-64 43 -103 66 -126 77 -139 88 -152 139 -15 56 -15 62 -5 62 5 0 53 -29 108
-65 97 -63 144 -80 144 -50 0 8 -33 35 -72 61 -40 26 -100 64 -133 85 -33 22
-66 39 -73 39 -7 0 -17 12 -23 28 -12 29 -38 132 -34 132 7 0 58 -31 125 -75
106 -71 128 -81 142 -67 15 15 -1 33 -59 64 -40 22 -201 139 -229 166 -15 14
-19 52 -6 52 4 0 21 -9 37 -20 17 -11 50 -33 75 -50 25 -16 53 -30 62 -30 29
0 33 22 7 42 -41 33 -207 138 -217 138 -5 0 -12 17 -15 38 -4 20 -10 50 -13
65 l-7 29 43 -24 c160 -88 180 -95 180 -64 0 12 -96 76 -230 154 -36 21 -40
28 -40 63 0 21 2 39 6 39 3 0 37 -13 76 -30 80 -34 111 -38 106 -13 -3 18 -40
40 -110 67 -82 30 -118 64 -138 128 -24 79 -16 86 64 49 37 -16 73 -28 81 -24
38 14 -3 83 -50 83 -59 0 -155 63 -155 102 0 27 25 22 107 -18 57 -28 77 -34
86 -25 20 20 -6 44 -108 96 -90 46 -148 95 -132 111 4 4 37 -8 74 -26 79 -37
116 -43 121 -18 3 14 -15 27 -75 54 -43 20 -94 42 -113 49 -30 11 -38 21 -53
65 -10 29 -16 56 -15 61 2 4 28 -2 58 -13 30 -11 72 -23 93 -26 33 -4 38 -2
35 14 -2 12 -33 30 -95 55 -51 20 -99 42 -107 48 -8 7 -20 35 -26 63 -6 28
-19 71 -30 96 -11 24 -20 46 -20 48 0 11 43 1 84 -20 47 -24 80 -25 73 -2 -7
22 -102 76 -133 76 -29 0 -31 3 -57 83 -32 96 -33 114 -9 121 9 2 83 8 163 11
130 6 148 5 156 -9 8 -15 13 -15 56 4 50 22 55 31 33 49 -15 12 -28 12 -286
-1z m-220 -78 c0 -5 10 -24 23 -42 12 -19 32 -67 45 -108 13 -41 32 -102 43
-135 11 -33 27 -90 35 -126 8 -36 30 -113 48 -171 19 -58 42 -136 51 -173 10
-37 23 -79 31 -93 8 -15 14 -35 14 -44 0 -9 9 -32 19 -50 10 -18 22 -51 25
-73 4 -22 11 -53 16 -70 5 -16 21 -70 36 -120 43 -146 75 -239 89 -261 8 -12
11 -31 8 -43 -3 -11 4 -45 15 -73 11 -29 36 -107 56 -173 43 -146 85 -274 97
-297 5 -10 9 -26 9 -35 0 -10 10 -38 21 -63 11 -25 27 -72 35 -105 34 -148 57
-236 80 -307 13 -43 24 -88 24 -100 0 -13 7 -43 16 -68 9 -25 29 -101 44 -170
24 -107 45 -191 112 -445 6 -22 18 -62 28 -90 29 -84 79 -249 84 -275 4 -25
35 -136 77 -275 12 -38 38 -117 59 -175 21 -58 41 -121 44 -140 4 -19 20 -73
36 -120 45 -135 60 -187 60 -207 0 -11 4 -23 9 -28 5 -6 19 -44 31 -85 12 -41
30 -97 40 -125 45 -123 80 -247 80 -282 0 -21 8 -49 17 -63 15 -21 61 -150 92
-260 7 -25 17 -54 21 -65 14 -36 41 -118 64 -200 12 -44 32 -99 44 -122 12
-23 22 -51 22 -62 0 -10 20 -80 44 -156 25 -75 48 -151 52 -168 3 -18 10 -37
15 -43 4 -5 15 -35 23 -66 8 -30 24 -74 36 -97 14 -28 19 -52 15 -70 -4 -19
-1 -32 10 -41 26 -21 49 -74 100 -225 26 -77 51 -144 56 -149 5 -6 9 -20 9
-31 0 -12 7 -36 16 -54 9 -18 17 -47 19 -65 2 -19 8 -42 14 -52 31 -55 96
-272 85 -284 -3 -3 -54 -12 -112 -20 -93 -14 -112 -14 -147 -2 -102 36 -150
57 -167 74 -10 10 -25 18 -33 18 -15 0 -45 49 -45 75 0 8 4 15 9 15 10 0 121
-50 255 -115 53 -25 74 -31 88 -24 10 5 18 16 18 24 0 19 -39 45 -67 45 -30 0
-279 126 -313 159 -31 29 -54 70 -46 78 3 3 54 -18 114 -46 118 -58 164 -64
170 -24 4 30 -42 61 -67 46 -18 -11 -21 -10 -194 87 -32 17 -65 42 -73 55 -19
29 -35 85 -25 85 5 0 50 -25 100 -55 95 -57 141 -69 141 -37 0 11 -30 33 -88
65 -164 91 -204 120 -218 160 -17 48 -9 47 80 -6 91 -54 122 -68 141 -61 29
11 15 35 -32 56 -27 12 -59 29 -73 38 -14 10 -56 37 -93 61 -75 47 -108 95
-122 177 -6 38 -5 41 12 35 10 -3 23 -9 28 -13 12 -10 80 -48 117 -67 16 -8
38 -13 50 -11 28 4 36 36 11 43 -35 11 -148 69 -201 104 -35 23 -60 48 -73 75
-10 22 -17 41 -15 43 1 2 18 -7 37 -20 84 -55 155 -70 147 -31 -3 18 -10 23
-73 49 -64 26 -135 94 -156 150 -10 27 -17 51 -15 53 4 3 38 -20 181 -122 14
-10 45 -2 45 13 0 5 -25 28 -55 52 -31 24 -76 60 -100 79 -24 19 -62 49 -84
65 -35 27 -71 80 -71 106 0 9 38 -6 50 -20 8 -9 78 -61 83 -61 3 0 32 -18 66
-41 65 -44 116 -63 137 -51 16 9 7 22 -25 40 -13 8 -40 23 -59 34 -32 18 -98
61 -162 105 -14 9 -39 29 -56 43 -16 14 -44 36 -61 48 -40 30 -104 182 -78
182 10 0 165 -98 254 -160 80 -56 116 -66 109 -31 -2 8 -29 31 -60 51 -31 19
-110 71 -174 115 -65 44 -129 82 -143 85 -16 3 -31 17 -40 34 -17 36 -40 146
-30 146 4 0 33 -19 65 -43 54 -39 93 -65 135 -92 9 -5 35 -25 59 -42 42 -32
83 -42 95 -24 6 11 -42 50 -95 76 -30 15 -124 86 -140 106 -3 3 -16 12 -29 19
-14 7 -30 17 -35 21 -6 5 -25 20 -42 34 -18 14 -37 25 -42 25 -13 0 -62 109
-62 136 0 14 31 -6 122 -78 160 -128 175 -138 202 -138 39 0 32 23 -16 56 -24
16 -83 60 -133 99 -137 107 -148 115 -167 104 -14 -7 -21 1 -42 47 -40 87 -34
104 22 71 21 -11 51 -31 67 -43 49 -36 144 -76 165 -69 30 10 24 34 -12 49
-103 44 -132 61 -217 123 -88 63 -95 72 -112 123 -22 66 -21 60 -8 60 6 0 29
-15 52 -33 62 -50 248 -149 282 -150 21 -2 30 3 33 16 3 12 -9 22 -45 37 -26
11 -66 29 -88 41 -65 35 -259 165 -276 185 -17 21 -52 104 -46 110 4 4 108
-54 211 -117 57 -35 118 -43 124 -16 2 9 -2 17 -8 17 -19 0 -81 31 -140 70
-30 20 -94 60 -142 89 -94 56 -97 59 -104 96 -8 46 28 31 211 -90 69 -45 107
-54 113 -25 1 9 -16 25 -44 39 -25 14 -78 46 -118 71 -39 25 -101 63 -137 83
-56 31 -68 42 -73 69 -4 18 -9 45 -13 61 -7 35 -5 34 152 -55 92 -53 126 -67
145 -62 33 8 34 9 20 33 -6 13 -21 21 -35 21 -27 0 -125 49 -208 104 -29 19
-64 40 -79 47 -20 8 -34 29 -52 75 -15 36 -26 69 -26 74 0 21 37 8 147 -50
114 -60 173 -75 173 -45 0 8 -3 15 -7 15 -5 0 -62 29 -128 65 -66 36 -143 75
-172 87 -29 12 -53 28 -53 36 0 8 -8 36 -17 63 -10 26 -14 51 -11 55 7 7 63
-20 191 -90 67 -37 112 -44 112 -17 0 7 -55 42 -123 76 -151 78 -220 128 -228
163 -3 15 -9 39 -14 54 -17 53 5 44 164 -69 49 -35 99 -63 111 -63 35 0 39 27
7 47 -38 23 -179 117 -228 152 -23 16 -50 32 -61 35 -21 7 -38 34 -47 79 -8
33 -4 33 54 3 162 -83 178 -90 200 -76 13 8 13 11 0 23 -8 7 -35 22 -60 32
-25 10 -52 24 -60 30 -8 7 -45 28 -82 49 -68 37 -108 79 -108 113 0 10 -5 24
-12 31 -9 9 -9 12 0 12 18 0 67 -26 124 -67 60 -41 90 -54 108 -43 20 12 5 27
-88 87 -142 91 -161 103 -171 103 -8 0 -33 81 -26 88 1 2 21 -6 43 -17 53 -27
124 -43 137 -30 14 14 -4 27 -88 63 -128 56 -129 57 -181 217 -25 78 -46 147
-46 154 0 6 -9 30 -20 53 -11 22 -20 46 -20 52 0 5 -4 18 -9 28 -11 19 -42
105 -63 172 -46 142 -74 228 -113 340 -24 69 -48 141 -54 160 -5 19 -28 85
-51 145 -23 61 -45 124 -49 140 -9 31 -129 394 -157 475 -89 253 -184 541
-184 559 0 7 -9 31 -21 54 -29 60 -55 133 -70 197 -6 30 -18 77 -25 104 -11
38 -11 52 -2 57 54 33 698 88 698 59z m-772 -64 c9 -10 30 -74 52 -160 11 -43
38 -121 60 -172 22 -52 40 -101 40 -109 0 -9 13 -50 29 -93 16 -42 52 -149 81
-237 28 -88 56 -164 61 -170 5 -5 9 -17 9 -26 0 -10 14 -57 31 -106 49 -138
104 -302 124 -368 10 -33 23 -71 30 -85 7 -14 24 -59 38 -100 13 -41 37 -111
52 -155 50 -143 82 -238 113 -335 17 -52 36 -108 41 -125 6 -16 19 -59 31 -95
12 -36 25 -74 30 -85 20 -45 48 -122 58 -160 6 -22 20 -67 31 -100 84 -246
154 -467 158 -502 3 -24 9 -43 13 -43 9 0 21 -31 49 -130 12 -41 31 -97 43
-125 11 -27 27 -75 34 -105 24 -100 65 -234 83 -275 9 -22 28 -74 40 -115 13
-41 31 -97 41 -125 10 -27 23 -66 29 -85 63 -217 69 -235 99 -300 14 -30 35
-82 47 -115 67 -178 84 -227 105 -295 13 -41 32 -93 42 -115 22 -50 111 -304
128 -365 6 -25 20 -65 30 -90 10 -25 26 -65 35 -90 9 -25 23 -61 32 -80 8 -19
19 -44 23 -55 4 -11 19 -49 34 -85 14 -36 26 -77 26 -91 0 -14 9 -34 19 -43
24 -22 63 -133 50 -141 -19 -12 -8 -54 21 -78 33 -28 65 -107 56 -142 -4 -15
2 -29 19 -45 30 -28 78 -170 69 -204 -3 -15 2 -28 15 -40 24 -22 61 -115 61
-153 0 -15 9 -36 19 -47 26 -29 130 -290 152 -382 6 -27 15 -57 20 -66 5 -10
9 -27 9 -37 0 -11 5 -23 10 -26 6 -3 10 -15 10 -25 0 -10 11 -40 25 -67 22
-44 23 -49 8 -60 -9 -7 -29 -13 -44 -13 -28 0 -82 -10 -204 -37 -215 -48 -267
-51 -351 -23 -32 11 -66 20 -74 20 -8 0 -32 5 -53 11 -40 11 -56 35 -72 108
-7 33 -7 34 21 27 16 -4 47 -15 69 -25 205 -91 265 -114 295 -115 29 -1 35 3
35 19 0 13 -10 22 -30 29 -16 4 -66 24 -110 43 -44 19 -107 46 -140 60 -89 37
-184 83 -189 91 -11 20 -17 72 -7 72 6 0 70 -29 144 -65 131 -63 196 -80 212
-55 10 16 -14 40 -39 41 -40 1 -152 53 -309 144 -52 30 -73 60 -87 122 -9 39
2 42 52 15 18 -10 74 -36 123 -57 50 -20 110 -46 134 -57 32 -15 46 -17 55 -8
16 16 -22 43 -114 81 -137 56 -281 133 -306 162 -13 16 -24 39 -24 52 0 13 -4
27 -10 30 -5 3 -10 15 -10 26 0 20 19 25 48 10 9 -5 28 -13 42 -19 14 -6 77
-36 140 -66 122 -59 154 -68 148 -39 -2 10 -35 33 -78 55 -154 75 -292 138
-304 138 -8 0 -18 6 -23 13 -14 17 -57 176 -50 183 3 3 54 -20 114 -51 59 -32
120 -64 135 -72 33 -17 68 -9 68 16 0 24 -23 43 -43 35 -25 -9 -259 123 -295
166 -31 37 -57 130 -37 130 7 0 66 -27 131 -60 124 -63 158 -72 152 -42 -2 11
-57 45 -153 93 -82 42 -159 88 -171 102 -19 23 -47 85 -68 153 -6 18 -3 20 23
16 17 -2 38 -13 47 -23 9 -10 20 -19 24 -19 4 0 51 -25 106 -55 98 -54 154
-69 154 -41 0 8 -30 29 -67 46 -38 18 -104 54 -148 80 -44 26 -101 58 -126 70
-33 16 -49 31 -57 54 -18 54 -24 96 -13 96 9 0 50 -21 195 -99 59 -32 96 -37
103 -14 3 7 -17 23 -44 36 -26 13 -74 38 -107 56 -32 17 -64 31 -71 31 -7 0
-15 4 -17 8 -1 4 -27 23 -56 42 -38 25 -59 47 -73 77 -20 43 -43 143 -35 150
2 3 43 -22 91 -54 181 -122 251 -151 243 -102 -2 14 -16 25 -41 34 -77 26
-305 185 -330 229 -19 35 -36 96 -27 101 5 3 35 -12 67 -33 122 -80 170 -104
196 -100 48 7 27 33 -60 75 -49 24 -113 61 -143 83 -99 71 -111 91 -164 255
-26 83 -70 211 -97 286 -27 75 -49 143 -49 152 0 25 20 21 73 -13 26 -17 54
-30 62 -30 7 0 17 -4 20 -10 8 -13 75 -13 75 -1 0 13 -46 44 -90 61 -19 8 -68
35 -109 60 -69 43 -75 50 -92 101 -22 67 -27 104 -14 104 6 0 41 -11 78 -24
48 -16 72 -20 79 -13 18 18 2 38 -43 51 -24 7 -62 21 -84 31 -22 10 -47 20
-55 23 -8 2 -25 33 -38 67 -25 71 -21 82 34 102 19 6 34 18 34 25 0 21 -30 28
-64 15 -37 -14 -52 -3 -62 45 -6 31 -5 32 32 35 45 4 60 32 22 43 -46 13 -97
40 -102 55 -3 8 -12 33 -20 55 -21 54 -21 79 0 71 22 -9 54 2 54 18 0 7 -18
21 -40 31 -22 10 -46 25 -53 34 -23 27 -77 174 -77 210 0 19 -7 43 -17 53 -14
15 -86 210 -113 303 -13 49 -69 208 -80 230 -12 25 -67 178 -81 225 -11 36
-64 188 -78 225 -5 11 -18 52 -30 90 -13 39 -35 106 -50 150 -15 44 -38 112
-50 150 -12 39 -33 99 -46 135 -13 36 -39 117 -58 180 -19 63 -43 142 -53 175
-10 33 -19 68 -21 78 -2 11 -15 51 -28 90 -69 195 -204 591 -253 742 -11 33
-25 76 -32 95 -7 19 -22 60 -33 90 -10 30 -26 70 -34 88 -46 103 -68 219 -49
250 4 7 22 12 41 12 18 0 55 5 82 11 133 29 529 47 551 25z m-750 -91 c7 -14
12 -31 12 -36 0 -10 109 -293 138 -359 8 -19 19 -48 23 -65 28 -110 63 -223
95 -305 45 -120 87 -242 103 -300 7 -25 20 -61 28 -80 8 -19 30 -82 49 -140
18 -58 38 -118 44 -135 6 -16 13 -39 15 -50 8 -39 64 -225 78 -257 8 -18 31
-82 50 -143 53 -162 67 -205 87 -260 9 -27 23 -68 29 -90 12 -39 26 -75 41
-105 4 -9 11 -31 15 -50 4 -19 13 -48 20 -65 7 -16 27 -70 44 -120 18 -49 36
-99 41 -110 5 -11 14 -38 21 -60 7 -22 17 -44 21 -49 4 -6 8 -18 8 -28 0 -10
4 -26 10 -36 5 -9 19 -48 30 -86 11 -38 37 -112 57 -165 37 -98 54 -161 54
-196 0 -11 5 -22 11 -26 11 -7 25 -43 89 -234 22 -66 45 -126 51 -133 7 -7 13
-32 16 -55 2 -22 9 -52 17 -66 12 -25 57 -156 140 -411 21 -63 43 -128 50
-145 7 -16 18 -48 23 -70 6 -22 31 -98 57 -170 26 -71 50 -143 54 -160 5 -16
25 -82 46 -145 20 -63 48 -151 62 -195 14 -44 31 -93 38 -110 18 -43 45 -130
61 -200 14 -57 25 -94 44 -140 31 -73 64 -176 68 -210 2 -22 13 -52 23 -67 11
-14 19 -31 19 -38 0 -6 14 -43 30 -82 17 -38 30 -80 30 -92 0 -12 4 -26 9 -31
22 -26 62 -149 56 -177 -5 -22 -2 -32 14 -46 21 -17 29 -38 77 -217 13 -49 29
-99 34 -110 5 -11 24 -63 41 -115 17 -52 37 -106 46 -119 14 -23 46 -117 63
-191 5 -19 28 -93 53 -165 53 -157 75 -259 61 -283 -11 -16 -64 -34 -194 -65
-36 -8 -111 -27 -167 -41 -77 -20 -108 -24 -122 -16 -11 5 -31 10 -45 10 -14
0 -27 4 -30 9 -3 5 -18 12 -33 16 -14 3 -37 15 -51 26 -15 11 -33 17 -46 13
-13 -3 -27 0 -32 8 -12 15 -37 98 -32 104 2 1 49 -10 103 -26 103 -30 145 -37
145 -21 0 16 -24 28 -110 56 -164 54 -165 55 -194 143 -14 42 -26 81 -26 85 0
11 32 1 98 -30 40 -19 57 -22 65 -14 16 16 3 26 -97 75 -86 42 -88 43 -113
102 -46 109 -43 113 52 67 40 -20 58 -24 66 -16 17 17 2 33 -65 62 -80 36
-121 73 -151 132 -40 77 -36 81 48 48 75 -29 112 -36 122 -20 7 12 -3 18 -94
58 -91 40 -148 79 -157 107 -3 11 -13 36 -21 54 -9 18 -13 35 -11 38 3 3 37
-10 74 -28 64 -31 104 -38 104 -18 0 12 -19 26 -82 59 -32 16 -63 34 -70 40
-7 6 -25 20 -40 32 -24 17 -55 86 -44 97 2 2 38 -15 80 -37 88 -47 99 -49 94
-18 -2 15 -18 30 -54 47 -93 46 -164 107 -164 142 0 9 -3 24 -7 34 -5 12 10 7
59 -20 36 -20 72 -36 81 -36 25 0 21 25 -5 39 -13 6 -35 19 -49 29 -14 9 -39
26 -57 38 -44 29 -72 68 -79 110 l-6 36 50 -26 c28 -14 53 -22 57 -19 15 15 3
35 -36 60 -24 14 -58 36 -76 47 -30 19 -87 107 -77 118 3 3 27 0 55 -6 38 -7
53 -7 62 2 16 16 4 24 -56 42 -96 29 -97 30 -132 107 -29 64 -42 113 -31 113
2 0 26 -11 53 -25 81 -41 114 -29 51 19 -19 15 -37 26 -40 26 -3 0 -27 14 -53
31 -48 33 -67 66 -77 131 -6 37 -5 38 26 35 53 -4 46 27 -13 59 -42 23 -55 37
-74 78 -27 61 -41 126 -27 126 6 0 15 9 21 20 14 26 -14 78 -44 82 -17 2 -26
21 -48 88 -14 47 -32 105 -38 130 -6 25 -20 63 -31 86 -20 41 -84 239 -98 304
-5 19 -23 76 -40 125 -89 249 -107 301 -153 460 -24 84 -66 209 -109 325 -17
47 -37 105 -44 130 -8 25 -35 104 -60 175 -25 72 -55 155 -65 185 -10 30 -32
91 -50 135 -18 44 -79 220 -135 390 -57 171 -117 346 -135 390 -18 44 -57 154
-87 245 -93 284 -117 364 -147 487 -9 35 -32 104 -51 155 -20 51 -48 129 -62
173 -13 44 -40 118 -58 165 -53 134 -85 219 -109 295 -13 39 -36 95 -51 125
-29 56 -87 218 -100 278 -5 26 -3 33 12 39 10 3 25 12 33 19 22 18 90 33 210
44 58 6 164 16 235 24 72 7 166 14 211 15 77 1 81 0 92 -24z m-964 -62 c4 -5
29 -8 54 -8 l47 0 31 -90 c17 -49 38 -107 47 -129 9 -21 17 -42 17 -47 0 -5
15 -40 34 -79 19 -38 42 -94 51 -123 9 -28 23 -66 31 -84 8 -17 14 -34 14 -38
0 -4 6 -21 14 -38 29 -64 66 -165 102 -277 20 -63 40 -120 45 -126 12 -15 79
-221 79 -243 0 -10 7 -32 15 -47 8 -16 15 -41 15 -56 0 -15 11 -57 24 -95 14
-37 50 -149 82 -248 31 -99 68 -203 81 -232 12 -28 23 -55 23 -60 1 -4 9 -26
20 -48 11 -22 19 -45 20 -52 0 -19 92 -287 101 -297 5 -6 9 -24 9 -41 0 -17 4
-35 9 -41 5 -5 23 -54 41 -109 18 -55 36 -104 40 -110 5 -5 27 -64 49 -130 23
-66 45 -129 50 -140 5 -11 17 -47 26 -80 10 -33 23 -73 31 -90 7 -16 29 -79
49 -140 20 -60 42 -124 50 -142 19 -41 91 -268 115 -361 10 -40 25 -83 33 -95
8 -12 17 -40 21 -62 4 -21 22 -77 40 -125 34 -88 43 -114 96 -290 42 -139 101
-318 131 -395 4 -11 13 -42 19 -70 7 -27 20 -75 30 -105 10 -30 24 -75 30
-100 6 -25 20 -64 31 -87 10 -24 19 -51 19 -60 0 -10 9 -32 19 -49 11 -17 22
-61 26 -98 4 -36 10 -66 14 -66 4 0 13 -21 20 -46 8 -26 29 -83 48 -126 18
-44 33 -88 33 -97 0 -10 9 -26 20 -36 11 -10 20 -23 20 -29 0 -6 18 -53 40
-104 22 -51 40 -107 40 -126 0 -19 8 -40 18 -50 11 -9 24 -33 30 -54 7 -20 23
-73 36 -117 14 -44 30 -100 36 -125 15 -59 45 -141 70 -190 11 -22 20 -53 20
-69 0 -16 5 -33 10 -36 10 -6 31 -50 64 -135 10 -25 26 -63 36 -85 42 -89 80
-203 74 -219 -4 -11 0 -22 14 -31 11 -8 23 -31 27 -52 3 -21 13 -58 20 -83 43
-143 87 -289 97 -315 44 -125 43 -117 24 -130 -9 -7 -47 -18 -84 -25 -91 -16
-178 -37 -249 -59 -110 -36 -255 -73 -267 -68 -7 3 -32 45 -56 94 -39 81 -56
125 -110 283 -57 168 -121 335 -176 457 -8 17 -14 35 -14 40 0 4 -7 22 -16 38
-9 17 -21 46 -29 65 -71 191 -127 336 -150 385 -15 33 -40 94 -55 135 -27 72
-76 191 -105 255 -7 17 -21 53 -30 80 -9 28 -20 59 -25 70 -14 31 -85 209
-126 315 -20 52 -44 124 -54 160 -21 80 -55 169 -184 487 -36 89 -72 188 -80
220 -15 58 -57 178 -134 388 -22 61 -46 126 -53 145 -7 19 -21 55 -31 79 -11
24 -28 75 -38 115 -10 39 -42 136 -70 216 -28 80 -60 178 -71 218 -10 40 -28
92 -38 115 -11 23 -29 71 -40 107 -12 36 -26 79 -32 95 -6 17 -32 95 -59 175
-27 80 -67 195 -88 255 -22 61 -59 171 -82 245 -24 74 -51 158 -60 185 -10 28
-27 77 -38 110 -64 200 -123 372 -132 387 -5 10 -10 26 -10 37 0 22 -72 232
-107 311 -13 30 -40 96 -59 145 -20 50 -44 111 -55 137 -10 26 -19 54 -19 64
0 20 -45 134 -155 394 -46 107 -95 229 -110 270 -15 41 -33 89 -41 105 -27 57
-66 170 -71 206 -5 34 -4 36 39 48 65 18 270 82 293 91 33 13 96 30 165 45 36
7 85 20 110 28 54 18 64 19 74 10z m-734 -250 c6 -21 19 -58 29 -83 40 -99 65
-157 86 -205 12 -27 26 -61 30 -75 4 -14 15 -43 25 -65 28 -62 130 -305 130
-310 0 -2 15 -35 33 -72 18 -38 39 -91 46 -118 16 -60 91 -256 102 -270 5 -5
9 -15 9 -22 0 -7 14 -42 30 -76 17 -35 30 -73 30 -83 0 -11 4 -24 8 -29 13
-16 50 -114 71 -190 10 -38 28 -95 39 -125 11 -30 33 -95 48 -145 16 -49 32
-91 36 -93 5 -2 8 -11 8 -19 0 -9 24 -88 54 -177 29 -89 64 -197 76 -241 27
-97 76 -241 94 -275 7 -14 39 -106 71 -205 32 -99 64 -194 71 -212 8 -17 14
-36 14 -42 0 -6 10 -34 23 -63 13 -29 29 -75 36 -103 11 -42 53 -166 81 -240
4 -11 15 -47 25 -80 10 -33 22 -64 27 -70 4 -5 8 -17 8 -26 0 -19 26 -102 63
-199 13 -36 34 -92 46 -125 13 -33 26 -69 31 -80 29 -72 70 -184 70 -193 0 -7
4 -20 9 -30 5 -9 22 -57 36 -107 15 -49 33 -105 41 -123 8 -18 14 -37 14 -42
0 -5 11 -33 24 -62 13 -29 31 -78 41 -108 10 -30 26 -66 36 -80 18 -27 59
-139 59 -163 0 -7 9 -31 19 -54 11 -22 30 -75 42 -119 12 -43 30 -98 40 -121
11 -24 19 -49 19 -57 0 -8 5 -18 10 -21 6 -3 10 -17 10 -30 0 -13 5 -27 10
-30 6 -3 10 -13 10 -21 0 -8 15 -47 34 -87 18 -40 43 -98 55 -129 55 -150 66
-177 96 -238 18 -36 49 -114 70 -175 21 -60 46 -123 55 -140 9 -16 23 -47 30
-68 6 -22 18 -51 26 -65 8 -15 14 -33 14 -41 0 -7 12 -41 26 -75 76 -178 165
-398 194 -479 16 -43 33 -83 38 -90 5 -7 15 -37 22 -67 18 -78 87 -283 117
-348 44 -97 43 -98 -77 -149 -93 -39 -265 -98 -475 -165 -38 -12 -96 -32 -127
-45 -32 -13 -63 -23 -70 -23 -7 0 -24 33 -37 73 -13 39 -46 122 -73 182 -84
187 -101 237 -129 370 -6 28 -19 70 -29 95 -10 25 -37 95 -60 155 -22 61 -49
130 -60 155 -10 25 -24 68 -31 95 -7 28 -15 55 -19 60 -10 15 -63 157 -94 255
-26 79 -54 149 -97 245 -46 102 -137 325 -195 480 -74 196 -88 230 -96 240 -4
5 -8 17 -8 27 0 10 -13 46 -28 81 -15 34 -34 82 -42 107 -7 25 -17 49 -22 55
-4 5 -8 20 -8 33 0 13 -18 72 -41 130 -53 139 -69 183 -146 407 -19 55 -38
109 -43 120 -5 11 -18 47 -30 80 -11 33 -29 78 -39 100 -11 22 -27 67 -37 100
-9 33 -37 102 -61 153 -24 51 -43 98 -43 103 0 6 -11 34 -23 62 -27 58 -64
159 -96 257 -37 117 -64 194 -77 225 -7 17 -15 44 -19 60 -4 17 -10 39 -15 50
-5 11 -27 76 -51 145 -23 69 -50 143 -60 164 -11 22 -19 46 -19 53 0 7 -4 21
-9 31 -11 21 -45 113 -62 167 -6 22 -22 67 -35 100 -13 33 -44 121 -69 195
-25 74 -54 155 -64 180 -11 25 -32 81 -48 125 -16 44 -35 96 -42 115 -7 19
-20 53 -27 75 -8 22 -19 49 -24 60 -5 11 -19 45 -30 75 -12 30 -27 69 -34 85
-15 34 -69 167 -96 235 -10 25 -41 99 -70 165 -60 140 -76 180 -120 295 -17
47 -54 135 -80 195 -26 61 -60 148 -75 195 -15 47 -33 99 -40 115 -26 59 -84
248 -79 256 10 16 113 58 197 79 26 7 50 17 53 21 3 5 12 9 20 9 13 0 42 12
150 61 22 11 43 19 47 19 4 0 42 16 84 37 83 38 227 91 255 92 11 1 20 -12 28
-36z m-891 -311 c5 -9 23 -55 39 -102 53 -149 83 -225 93 -234 5 -6 9 -19 9
-31 0 -22 19 -77 67 -190 40 -94 86 -208 113 -278 12 -31 26 -60 31 -63 5 -3
9 -13 9 -23 0 -23 75 -187 90 -196 5 -3 10 -18 10 -33 0 -15 6 -36 14 -47 7
-11 22 -47 34 -80 25 -74 101 -263 135 -336 13 -30 33 -79 42 -109 16 -50 62
-173 144 -387 18 -45 38 -103 45 -130 20 -71 125 -362 211 -588 15 -38 35 -97
45 -130 29 -96 76 -233 114 -335 20 -52 36 -101 36 -108 0 -18 117 -313 161
-407 10 -22 31 -76 45 -120 14 -44 38 -105 51 -135 14 -30 29 -68 34 -85 4
-16 23 -73 42 -125 31 -85 68 -189 98 -275 6 -16 22 -63 35 -103 13 -40 32
-90 43 -110 10 -20 21 -54 25 -76 4 -21 11 -46 15 -55 5 -9 16 -38 26 -66 26
-74 71 -196 84 -228 6 -16 11 -31 11 -34 0 -3 6 -19 14 -36 8 -18 32 -79 54
-137 84 -221 94 -245 127 -315 19 -40 35 -78 35 -84 0 -6 12 -35 26 -64 37
-75 76 -175 123 -314 22 -67 52 -146 65 -175 13 -29 30 -73 36 -98 7 -25 16
-54 20 -65 5 -11 23 -60 40 -110 17 -49 38 -106 47 -125 29 -65 74 -205 83
-255 9 -56 54 -192 80 -245 27 -52 81 -210 86 -250 2 -19 7 -49 10 -66 6 -30
5 -31 -73 -59 -43 -15 -94 -36 -113 -46 -20 -9 -81 -33 -135 -52 -55 -19 -129
-48 -165 -64 -93 -43 -276 -113 -293 -113 -8 0 -22 15 -30 33 -30 63 -86 213
-101 267 -8 30 -29 100 -46 155 -17 55 -38 120 -46 145 -7 25 -29 77 -47 115
-19 39 -37 81 -41 95 -4 14 -11 34 -16 45 -26 57 -43 105 -56 154 -8 30 -19
60 -23 65 -5 6 -32 74 -61 151 -98 264 -151 399 -200 510 -37 84 -70 169 -70
182 0 8 -7 27 -15 44 -9 16 -27 73 -41 127 -14 53 -29 101 -35 107 -5 5 -9 16
-9 25 0 29 -96 311 -136 397 -13 30 -24 58 -24 63 0 6 -4 18 -9 28 -11 22 -57
160 -77 230 -8 29 -30 99 -49 155 -20 56 -42 122 -49 147 -13 42 -39 114 -101
275 -52 139 -107 301 -116 342 -4 24 -17 62 -28 85 -10 24 -28 72 -39 108 -27
85 -59 175 -81 225 -10 22 -30 72 -46 110 -15 39 -38 95 -51 125 -12 30 -27
73 -33 95 -10 39 -22 74 -116 325 -26 69 -59 159 -75 200 -15 41 -44 129 -64
195 -51 165 -69 218 -77 230 -4 6 -17 39 -29 74 -11 35 -27 73 -35 85 -14 21
-36 84 -127 351 -28 83 -73 209 -100 280 -28 72 -53 140 -55 153 -3 12 -9 25
-14 28 -5 3 -9 14 -9 25 0 10 -4 27 -9 37 -10 17 -90 257 -171 512 -23 74 -47
139 -51 145 -5 5 -9 17 -9 27 0 10 -9 37 -19 61 -11 23 -25 61 -31 85 -6 24
-20 59 -31 78 -10 19 -19 41 -19 50 0 8 -7 28 -15 44 -15 29 -15 30 24 50 22
11 45 20 51 20 5 0 29 9 53 19 23 11 53 22 67 26 14 4 72 30 130 57 100 47
276 121 330 138 39 13 49 11 59 -8z m-739 -382 c21 -41 44 -97 53 -125 9 -27
26 -75 37 -105 12 -30 30 -82 41 -115 10 -33 41 -125 69 -205 28 -80 56 -161
61 -180 5 -19 16 -51 24 -70 7 -19 19 -57 26 -85 7 -27 21 -65 31 -83 10 -18
18 -39 18 -46 0 -7 8 -35 19 -62 10 -27 24 -65 31 -84 6 -19 20 -57 30 -85 11
-27 44 -122 75 -210 31 -88 62 -174 70 -192 8 -17 15 -36 15 -42 0 -6 11 -34
24 -63 13 -29 27 -64 31 -78 4 -14 11 -29 15 -35 4 -5 10 -23 14 -40 4 -16 21
-58 37 -93 16 -35 29 -71 29 -80 0 -15 14 -61 73 -242 8 -25 30 -83 48 -130
27 -72 49 -131 95 -255 4 -11 18 -49 31 -85 13 -36 33 -94 44 -130 12 -36 30
-82 40 -103 10 -22 19 -46 19 -56 0 -9 7 -26 15 -38 8 -11 26 -52 40 -89 15
-38 38 -98 52 -134 14 -36 28 -79 32 -95 5 -17 13 -40 20 -52 13 -26 45 -123
67 -203 8 -30 18 -64 23 -75 5 -11 16 -37 25 -57 9 -20 19 -51 22 -70 3 -18 9
-42 14 -53 5 -11 18 -45 28 -75 11 -30 37 -98 57 -150 20 -52 41 -108 45 -125
4 -16 20 -61 35 -100 15 -38 33 -95 40 -125 18 -80 102 -325 135 -395 16 -33
38 -91 51 -130 12 -38 30 -90 40 -115 11 -25 25 -72 33 -105 8 -33 22 -80 30
-105 8 -25 24 -76 35 -115 25 -88 71 -213 104 -285 46 -100 97 -226 97 -238 0
-7 4 -20 9 -30 26 -52 51 -114 51 -127 0 -8 13 -45 29 -82 64 -152 103 -251
116 -298 7 -27 25 -76 39 -108 14 -32 26 -62 26 -67 0 -6 16 -44 35 -86 19
-41 49 -119 66 -172 17 -53 40 -118 50 -144 10 -26 19 -58 19 -72 0 -25 37
-148 63 -209 22 -51 37 -102 37 -125 0 -26 -46 -51 -205 -112 -60 -23 -129
-50 -153 -61 -23 -10 -47 -19 -53 -19 -17 0 -244 -117 -389 -200 -41 -24 -131
-70 -200 -103 -69 -33 -156 -79 -195 -102 -87 -51 -199 -105 -218 -105 -8 0
-21 8 -29 18 -16 19 -81 154 -105 217 -8 22 -21 54 -28 70 -7 17 -20 53 -30
80 -10 28 -23 64 -30 80 -8 17 -22 62 -33 101 -11 39 -40 122 -65 185 -25 63
-57 148 -72 189 -26 73 -58 157 -96 252 -11 26 -19 58 -19 72 0 14 -12 56 -26
93 -164 438 -163 433 -223 653 -11 42 -61 183 -112 315 -50 132 -110 296 -134
365 -43 126 -62 177 -117 305 -34 79 -72 181 -123 333 -33 96 -120 316 -170
427 -12 28 -26 61 -30 75 -4 14 -11 30 -15 35 -4 6 -13 33 -20 60 -7 28 -16
55 -20 60 -4 6 -11 21 -15 35 -10 36 -74 209 -85 228 -34 66 -114 285 -154
422 -7 25 -21 60 -30 78 -10 19 -26 59 -36 90 -10 31 -33 93 -52 137 -19 44
-45 112 -57 150 -12 39 -29 90 -38 115 -28 82 -143 424 -160 475 -8 28 -22 64
-29 80 -17 38 -99 270 -123 350 -10 33 -25 76 -34 95 -8 19 -25 60 -37 90 -11
30 -25 64 -30 75 -5 11 -21 55 -35 97 -15 42 -35 94 -46 114 -10 21 -19 45
-19 54 0 9 -6 24 -14 35 -7 11 -23 49 -34 85 -11 36 -34 92 -51 125 -17 33
-31 67 -31 77 0 9 -4 20 -10 23 -5 3 -10 15 -10 26 0 11 -9 41 -19 67 -11 26
-38 97 -61 157 -23 61 -48 124 -56 142 -8 17 -14 37 -14 45 0 7 -11 36 -24 64
-40 86 -42 110 -11 138 47 44 310 166 401 186 40 9 122 41 209 80 11 5 44 19
74 30 51 20 54 20 67 3 7 -10 18 -40 25 -68 6 -27 15 -54 19 -60 4 -5 15 -35
25 -65 10 -30 21 -59 25 -65 4 -5 13 -28 20 -50 7 -22 23 -62 35 -90 12 -27
34 -90 49 -140 16 -49 43 -130 61 -180 18 -49 38 -106 45 -125 7 -19 20 -53
30 -75 10 -22 21 -55 24 -73 3 -18 20 -64 36 -103 41 -93 91 -227 97 -262 3
-15 9 -30 14 -33 5 -3 9 -15 9 -26 0 -12 8 -40 19 -62 25 -55 131 -373 138
-414 3 -18 9 -35 14 -38 5 -3 9 -14 9 -25 0 -10 4 -27 9 -37 11 -21 45 -112
62 -167 7 -22 25 -73 41 -114 15 -40 28 -82 28 -93 0 -11 8 -37 19 -57 10 -20
26 -58 36 -86 34 -98 57 -160 70 -190 7 -16 29 -82 50 -145 21 -63 44 -128 51
-145 41 -96 74 -178 74 -186 0 -5 14 -38 30 -72 17 -35 30 -70 30 -76 0 -7 6
-27 14 -44 43 -96 65 -146 77 -182 7 -22 17 -44 21 -50 4 -5 8 -15 8 -22 0 -8
16 -47 35 -87 19 -41 35 -79 35 -85 0 -7 11 -46 24 -89 14 -42 34 -108 46
-147 12 -38 38 -104 57 -145 20 -41 46 -103 59 -137 13 -34 33 -84 45 -110 11
-26 25 -57 29 -68 38 -95 50 -129 50 -137 0 -6 6 -24 14 -41 30 -66 46 -110
46 -128 0 -11 4 -27 9 -37 17 -33 29 -67 36 -97 4 -16 12 -43 19 -60 26 -60
55 -142 80 -220 33 -107 75 -217 121 -320 7 -16 22 -55 33 -85 11 -30 26 -71
33 -90 34 -96 84 -220 105 -262 13 -26 24 -54 24 -61 0 -8 18 -53 40 -100 22
-47 40 -92 40 -101 0 -9 4 -24 10 -34 5 -9 19 -51 31 -92 52 -182 67 -226 168
-485 17 -44 31 -88 31 -97 0 -10 6 -32 14 -50 8 -18 23 -60 32 -93 10 -33 21
-64 24 -70 4 -5 10 -26 13 -45 3 -19 22 -82 42 -140 30 -86 35 -114 31 -156
-5 -44 -3 -54 18 -73 l24 -22 26 28 c30 33 31 33 11 59 -8 10 -15 32 -15 47 0
15 -16 69 -36 120 -19 51 -60 169 -90 262 -31 94 -69 203 -85 242 -16 40 -29
77 -29 83 0 5 -13 39 -30 75 -16 36 -30 71 -30 78 0 7 -4 17 -9 23 -11 11 -40
96 -51 149 -14 70 -87 288 -114 341 -14 29 -26 59 -26 68 0 9 -4 24 -10 34
-22 38 -70 154 -109 262 -23 63 -45 124 -50 135 -27 65 -52 127 -72 180 -12
33 -25 65 -29 70 -4 6 -31 82 -59 170 -29 88 -58 174 -66 190 -7 17 -16 44
-20 62 -3 18 -15 50 -26 72 -10 22 -19 47 -19 55 0 16 -53 158 -70 188 -6 10
-10 25 -10 34 0 9 -22 69 -50 133 -27 65 -50 120 -50 124 0 3 -25 63 -56 133
-31 70 -76 197 -100 282 -25 85 -53 171 -64 191 -19 37 -70 162 -70 174 0 4
-31 80 -69 169 -38 90 -73 176 -77 193 -4 16 -24 65 -44 110 -21 44 -48 114
-60 155 -13 41 -29 84 -36 95 -6 11 -15 34 -18 50 -7 30 -33 103 -66 185 -36
89 -78 206 -85 235 -4 16 -15 48 -26 72 -10 23 -19 46 -19 52 0 6 -6 25 -14
43 -8 18 -28 80 -46 138 -18 58 -45 143 -62 190 -16 47 -39 117 -50 155 -11
39 -24 79 -29 90 -19 47 -47 125 -68 190 -21 66 -112 317 -131 360 -5 11 -15
43 -23 70 -18 60 -57 163 -85 225 -11 25 -34 92 -52 150 -17 58 -35 114 -39
125 -5 11 -14 36 -20 55 -7 19 -28 78 -47 130 -43 118 -56 156 -84 248 -23 78
-20 95 23 108 12 4 63 26 114 50 50 24 95 44 100 44 4 0 43 18 85 40 43 21
108 51 145 65 38 14 95 39 128 55 33 16 66 28 74 27 8 -1 31 -36 51 -77z
m-1603 -681 c15 -29 55 -129 93 -229 15 -41 40 -106 55 -145 15 -38 38 -105
52 -148 13 -43 33 -94 43 -112 11 -19 31 -67 44 -107 32 -91 75 -197 92 -223
7 -11 25 -56 39 -100 15 -44 48 -132 74 -195 26 -63 57 -142 69 -175 11 -33
26 -76 32 -95 18 -52 44 -125 77 -220 17 -47 64 -186 105 -310 42 -124 83
-245 91 -270 9 -25 25 -76 37 -115 12 -38 33 -92 46 -120 31 -67 74 -176 74
-189 0 -6 7 -24 15 -39 15 -30 55 -136 111 -302 19 -55 38 -109 43 -120 43
-91 93 -218 141 -355 47 -134 67 -186 120 -310 57 -134 74 -178 107 -275 19
-55 39 -105 44 -111 5 -6 16 -38 25 -70 8 -33 23 -78 34 -101 11 -24 20 -49
20 -56 0 -7 9 -29 19 -49 11 -19 36 -77 55 -128 20 -50 42 -106 50 -123 7 -18
19 -52 25 -77 11 -41 80 -237 101 -285 5 -11 28 -69 51 -130 23 -60 48 -124
56 -142 7 -17 13 -37 13 -43 0 -7 16 -67 35 -134 20 -67 41 -139 47 -161 6
-22 15 -44 18 -50 4 -5 17 -37 28 -70 27 -76 100 -274 111 -300 17 -40 31 -92
31 -114 0 -12 8 -38 19 -59 10 -20 21 -50 25 -67 4 -16 14 -43 21 -60 8 -16
20 -50 29 -75 30 -91 58 -166 77 -207 10 -23 19 -48 19 -55 0 -7 8 -29 19 -48
10 -19 23 -58 29 -86 15 -67 129 -396 165 -474 9 -19 23 -59 33 -88 18 -57 12
-75 -29 -88 -12 -3 -165 -77 -339 -164 l-317 -159 -23 37 c-12 20 -25 44 -28
52 -3 8 -22 49 -42 90 -40 83 -108 243 -108 254 0 9 -36 94 -52 121 -6 11 -39
101 -73 200 -35 99 -79 218 -100 265 -20 47 -40 101 -44 120 -4 19 -15 49 -23
65 -9 17 -26 64 -38 105 -12 41 -46 125 -75 185 -29 61 -59 133 -68 160 -8 28
-21 70 -28 95 -7 25 -24 68 -38 95 -13 28 -27 61 -32 75 -4 14 -17 50 -29 80
-12 30 -24 66 -27 80 -3 14 -9 30 -14 35 -4 6 -19 49 -33 95 -31 107 -63 200
-74 214 -5 6 -35 81 -66 166 -32 85 -74 195 -93 243 -19 49 -39 103 -43 120
-5 18 -43 131 -85 252 -42 121 -87 254 -100 295 -12 41 -30 91 -38 110 -9 19
-24 67 -35 105 -72 257 -86 306 -102 355 -9 30 -23 75 -30 100 -8 25 -17 50
-21 55 -4 6 -12 30 -19 55 -7 25 -16 54 -21 65 -25 60 -61 163 -93 265 -20 63
-48 149 -62 190 -14 41 -33 98 -41 125 -28 87 -113 329 -123 347 -6 10 -10 26
-10 37 0 11 -9 41 -20 67 -11 26 -25 65 -30 88 -25 105 -136 439 -170 513 -11
24 -20 49 -20 56 0 7 -4 17 -9 23 -9 10 -47 120 -101 294 -18 58 -40 123 -50
145 -43 95 -60 139 -60 157 0 10 -13 53 -29 96 -16 42 -32 91 -36 109 -4 18
-16 47 -29 65 -26 40 -66 131 -66 152 0 9 -10 37 -21 63 -73 164 -104 243
-120 303 -7 25 -21 55 -32 67 -10 12 -16 26 -13 31 3 6 41 27 84 48 69 34 104
56 207 131 172 126 340 241 350 239 6 -2 16 -13 22 -27z m-690 -451 c22 -64
45 -123 58 -153 19 -43 62 -149 92 -225 35 -92 65 -161 82 -188 13 -22 60
-149 82 -222 6 -19 22 -64 36 -100 40 -103 48 -127 93 -270 23 -74 48 -149 56
-167 8 -17 14 -40 14 -51 0 -12 4 -23 9 -26 5 -3 12 -18 16 -33 3 -15 15 -46
25 -68 46 -100 113 -285 134 -370 7 -27 32 -104 55 -171 22 -67 41 -129 41
-138 0 -10 11 -41 24 -69 13 -29 46 -119 72 -202 26 -82 50 -154 53 -160 8
-12 19 -44 61 -185 17 -58 52 -159 77 -225 25 -66 49 -139 54 -163 5 -24 15
-58 24 -75 16 -36 125 -376 125 -393 0 -18 60 -216 75 -249 7 -16 34 -93 60
-170 25 -77 50 -149 55 -160 5 -11 16 -47 25 -80 9 -33 20 -69 25 -80 5 -11
19 -51 31 -90 11 -38 27 -83 34 -100 7 -16 16 -41 20 -55 4 -14 20 -52 35 -85
15 -33 42 -100 59 -150 18 -49 39 -104 47 -122 8 -17 14 -36 14 -42 0 -6 4
-11 9 -11 5 0 12 -17 16 -37 4 -21 15 -55 26 -77 10 -21 24 -65 30 -98 6 -32
16 -61 20 -64 5 -3 9 -15 9 -28 0 -12 4 -26 9 -31 5 -6 17 -32 27 -60 9 -27
27 -78 39 -112 12 -34 27 -68 32 -75 12 -16 53 -141 53 -163 0 -16 31 -87 96
-220 19 -38 40 -90 48 -115 8 -25 28 -83 45 -130 17 -47 31 -93 31 -103 0 -11
7 -31 14 -45 8 -15 23 -45 32 -67 9 -22 33 -74 52 -115 19 -41 36 -89 38 -106
1 -17 12 -51 23 -74 12 -24 21 -51 21 -61 0 -15 26 -80 81 -206 11 -24 19 -49
19 -57 0 -8 4 -17 9 -20 4 -3 14 -27 21 -53 7 -27 29 -82 48 -123 44 -96 62
-155 62 -205 0 -39 -1 -40 -63 -68 -34 -16 -118 -51 -187 -79 -69 -28 -136
-59 -150 -69 -14 -9 -43 -27 -65 -40 -171 -97 -234 -125 -271 -117 -23 4 -66
80 -93 163 -41 125 -54 162 -81 235 -16 41 -45 129 -66 195 -34 111 -92 273
-115 320 -17 36 -146 439 -158 493 -6 29 -17 65 -25 80 -7 15 -21 47 -29 72
-20 56 -66 183 -101 275 -14 39 -30 86 -35 105 -13 52 -61 189 -82 235 -18 39
-95 259 -126 360 -9 28 -19 59 -23 70 -23 63 -53 157 -64 200 -7 28 -41 120
-76 205 -35 85 -83 211 -107 280 -24 69 -50 139 -58 155 -8 17 -19 52 -25 79
-6 26 -21 73 -34 104 -13 32 -33 91 -46 132 -13 41 -27 79 -32 85 -4 5 -8 17
-8 26 0 10 -16 59 -36 111 -65 168 -84 223 -84 241 0 10 -17 64 -39 120 -21
56 -46 122 -54 147 -29 85 -87 245 -96 265 -5 11 -12 34 -16 50 -3 17 -17 53
-29 80 -13 28 -28 64 -34 80 -24 70 -37 103 -59 154 -13 30 -27 68 -30 85 -3
17 -24 72 -45 121 -22 50 -46 109 -53 131 -7 23 -18 50 -25 60 -6 11 -28 69
-49 129 -75 214 -108 311 -130 380 -13 39 -28 84 -33 100 -48 136 -64 179 -88
240 -16 39 -36 92 -45 119 -9 26 -25 63 -36 82 -10 19 -19 41 -19 50 0 8 -13
42 -29 77 -25 53 -50 114 -82 192 -4 11 -17 49 -29 85 -12 36 -32 88 -45 115
-38 85 -72 178 -79 218 -7 37 -6 39 94 138 56 55 118 111 138 124 20 14 54 37
75 51 21 14 73 58 115 98 81 76 232 179 272 185 3 1 10 -14 17 -31z m-752
-626 c19 -52 26 -70 79 -187 19 -44 49 -116 65 -160 16 -44 42 -109 59 -145
16 -36 42 -99 57 -140 16 -41 37 -90 47 -108 10 -18 18 -41 18 -50 0 -10 4
-22 9 -27 22 -25 112 -281 191 -545 12 -41 30 -88 39 -105 9 -16 25 -59 35
-95 18 -65 22 -75 50 -140 8 -19 22 -57 30 -83 9 -27 23 -62 32 -79 22 -43 74
-171 74 -183 0 -5 13 -44 30 -85 62 -157 130 -339 170 -455 22 -66 48 -135 56
-154 8 -19 27 -68 41 -110 14 -42 28 -80 32 -86 4 -5 18 -46 30 -90 13 -44 29
-93 36 -110 7 -16 17 -43 21 -60 4 -16 10 -34 13 -40 4 -5 13 -28 20 -50 7
-22 22 -59 32 -82 11 -23 20 -50 22 -60 6 -30 38 -135 57 -183 10 -25 29 -84
43 -131 14 -48 30 -97 37 -109 6 -12 18 -45 27 -73 15 -53 22 -71 67 -169 14
-31 26 -60 26 -64 0 -11 71 -188 85 -209 7 -11 15 -38 17 -60 4 -32 64 -222
107 -340 25 -69 55 -156 67 -195 7 -25 31 -90 53 -145 21 -55 51 -138 66 -185
14 -47 30 -94 35 -105 15 -37 68 -180 101 -270 17 -49 37 -106 45 -125 7 -19
13 -43 14 -53 0 -20 144 -455 165 -501 32 -67 72 -182 105 -301 15 -53 68
-219 84 -264 9 -24 16 -53 16 -65 0 -12 6 -30 14 -41 7 -11 16 -36 20 -55 3
-19 18 -62 32 -95 14 -33 29 -77 34 -98 8 -39 8 -39 -49 -75 -31 -20 -70 -44
-87 -53 -17 -10 -71 -46 -120 -81 -84 -60 -159 -108 -246 -157 -21 -11 -45
-18 -54 -14 -23 9 -62 101 -78 185 -8 41 -21 89 -29 108 -46 104 -124 318
-217 591 -27 80 -62 174 -79 210 -16 35 -37 87 -46 114 -9 28 -22 64 -30 80
-7 17 -17 44 -20 60 -6 25 -40 115 -134 360 -5 11 -16 38 -26 60 -10 22 -21
56 -26 75 -15 70 -28 106 -63 190 -20 46 -36 92 -36 101 0 9 -18 70 -41 135
-89 261 -151 452 -168 519 -11 38 -31 103 -45 144 -14 41 -26 84 -26 95 0 24
-54 204 -77 256 -8 19 -23 60 -33 90 -10 30 -30 87 -45 125 -26 68 -33 90 -96
285 -17 52 -35 104 -39 115 -4 11 -14 43 -20 70 -7 28 -21 77 -31 110 -53 167
-102 334 -148 510 -22 82 -149 472 -162 497 -5 10 -9 22 -9 28 0 6 -21 63 -46
128 -85 217 -242 676 -286 837 -10 35 -34 101 -58 160 -5 11 -19 49 -31 85
-12 36 -35 97 -50 135 -16 39 -29 75 -29 80 0 10 -46 125 -82 202 -18 40 -63
162 -133 358 -17 50 -40 105 -50 124 -42 82 -41 85 37 169 162 175 188 202
196 202 5 0 24 14 43 31 34 31 128 79 141 72 3 -2 14 -25 23 -51z m-542 -357
c24 -15 69 -104 107 -210 12 -33 32 -85 45 -115 13 -30 26 -71 30 -90 4 -19
11 -39 14 -45 4 -5 27 -59 51 -120 23 -60 48 -123 55 -140 7 -16 16 -41 20
-55 4 -14 11 -29 15 -35 14 -18 126 -317 165 -440 20 -66 43 -136 50 -155 7
-19 36 -107 65 -195 52 -161 118 -346 150 -420 9 -22 23 -56 30 -75 7 -19 19
-49 26 -67 8 -17 14 -36 14 -41 0 -6 20 -71 44 -144 24 -73 50 -153 57 -178 7
-25 23 -69 36 -98 12 -30 22 -63 21 -75 -1 -12 5 -44 14 -72 9 -27 21 -70 29
-95 7 -25 16 -49 21 -54 4 -6 8 -20 8 -33 0 -12 4 -32 9 -45 5 -13 19 -57 31
-98 71 -243 94 -318 162 -519 32 -96 64 -178 70 -182 7 -5 10 -11 6 -14 -8 -9
31 -125 43 -125 5 0 9 -9 9 -20 0 -11 15 -67 34 -123 35 -108 46 -145 70 -242
22 -91 93 -321 107 -347 7 -13 11 -23 9 -23 -5 0 29 -107 41 -127 5 -10 9 -26
9 -36 0 -11 14 -52 30 -92 17 -40 30 -79 30 -87 0 -7 4 -21 9 -31 8 -15 31
-88 37 -118 1 -5 18 -57 37 -115 19 -57 38 -117 42 -134 3 -16 15 -48 26 -72
10 -23 19 -45 19 -49 0 -3 11 -33 25 -65 14 -33 37 -87 51 -121 14 -35 30 -72
35 -83 5 -11 35 -96 67 -190 33 -93 71 -197 87 -230 37 -81 37 -81 85 -235 47
-150 116 -354 130 -385 33 -69 81 -225 88 -288 5 -40 17 -87 26 -105 25 -49
21 -94 -13 -124 -16 -14 -39 -32 -52 -39 -13 -6 -55 -33 -94 -58 -95 -62 -115
-72 -134 -66 -16 5 -71 100 -71 122 0 7 -9 27 -20 45 -11 18 -20 40 -20 48 0
16 -42 110 -90 202 -17 31 -30 65 -30 75 0 30 -37 127 -85 228 -23 48 -85 236
-85 258 0 6 -8 29 -19 51 -10 23 -26 61 -36 86 -36 91 -46 116 -59 140 -7 14
-37 95 -65 180 -29 85 -58 169 -66 186 -29 63 -145 426 -139 435 3 5 -1 20 -9
32 -7 12 -24 49 -36 82 -34 90 -102 279 -105 290 -2 6 -9 24 -16 40 -12 29
-19 54 -39 129 -4 18 -16 48 -25 66 -9 18 -16 39 -16 47 0 7 -4 21 -9 31 -5 9
-18 53 -29 97 -29 115 -48 179 -66 217 -8 18 -22 58 -30 88 -14 53 -58 183
-76 225 -14 32 -66 203 -90 295 -12 47 -26 94 -30 105 -5 11 -13 34 -18 50 -6
17 -19 53 -30 81 -11 29 -25 76 -32 105 -12 55 -47 178 -60 214 -24 67 -84
249 -98 300 -10 33 -20 65 -23 70 -4 6 -21 57 -38 115 -18 58 -43 134 -56 170
-22 58 -45 122 -115 315 -12 33 -26 70 -31 83 -16 39 -25 65 -48 137 -13 39
-26 79 -31 90 -4 11 -18 54 -29 95 -12 41 -30 104 -40 140 -11 36 -25 90 -31
120 -7 30 -16 60 -20 65 -4 6 -15 33 -23 60 -14 45 -52 141 -91 228 -8 18 -26
64 -41 102 -15 39 -33 77 -40 85 -14 16 -65 156 -122 335 -20 61 -48 144 -63
185 -33 90 -70 230 -70 267 0 45 61 135 164 241 55 56 106 102 113 102 8 0 24
-7 36 -15z m11100 -4227 c16 -11 35 -17 43 -14 9 3 17 -2 21 -12 9 -22 24 -33
43 -27 11 3 27 -21 58 -86 24 -50 42 -92 40 -94 -6 -6 -108 20 -150 38 -37 15
-48 14 -48 -9 0 -13 56 -42 105 -55 16 -4 57 -15 90 -24 l60 -16 50 -92 c42
-78 84 -182 85 -209 0 -28 -128 14 -265 86 -48 25 -93 46 -101 46 -36 0 6 -50
60 -71 17 -7 42 -20 56 -29 14 -10 36 -21 50 -25 14 -4 54 -21 90 -37 36 -17
85 -33 110 -37 44 -6 46 -8 66 -61 12 -30 25 -79 29 -107 l7 -53 -30 0 c-33 0
-129 38 -202 80 -25 14 -89 48 -143 75 -77 38 -100 46 -110 36 -9 -9 -7 -16
13 -31 14 -11 29 -20 34 -20 5 0 48 -21 95 -47 130 -72 311 -153 340 -153 22
0 30 -9 49 -53 45 -99 93 -229 90 -242 -6 -27 -185 46 -403 165 -117 63 -138
70 -133 43 3 -17 150 -102 178 -103 8 0 27 -11 42 -25 37 -34 87 -59 211 -104
59 -21 117 -45 130 -54 17 -11 33 -46 61 -134 21 -65 42 -122 47 -127 14 -15
11 -46 -5 -46 -16 0 -166 65 -211 92 -16 10 -69 38 -118 62 -48 25 -97 52
-109 61 -13 8 -28 15 -35 15 -21 0 -15 -34 10 -50 30 -19 218 -117 347 -180
58 -28 121 -59 140 -68 26 -13 39 -28 51 -62 25 -70 31 -110 15 -110 -7 0
-105 45 -218 100 -113 55 -210 100 -216 100 -7 0 -12 -8 -12 -18 0 -13 17 -26
53 -41 28 -13 64 -30 79 -37 14 -8 33 -14 42 -14 9 0 16 -3 16 -8 0 -6 82 -50
190 -101 133 -62 170 -96 170 -158 0 -38 -4 -39 -55 -17 -20 8 -39 13 -42 10
-7 -6 47 -76 58 -76 5 0 9 -4 9 -9 0 -15 -112 17 -215 61 -101 43 -152 68
-218 105 -57 32 -77 35 -77 10 0 -24 126 -89 365 -187 55 -23 200 -70 215 -70
12 0 24 -17 38 -52 29 -73 35 -98 25 -98 -31 0 -163 57 -329 141 -107 55 -199
99 -205 99 -6 0 -9 -8 -7 -17 5 -26 102 -81 328 -185 47 -21 123 -58 170 -81
85 -43 85 -43 112 -107 14 -36 27 -73 27 -84 2 -33 -30 -20 -337 132 -129 64
-175 83 -184 74 -19 -19 3 -34 154 -109 136 -68 187 -92 339 -160 62 -29 67
-33 89 -87 12 -31 20 -60 16 -64 -9 -8 -118 29 -201 68 -57 27 -312 150 -327
158 -5 2 -8 -8 -8 -23 0 -24 10 -31 108 -76 59 -28 130 -61 158 -75 28 -13 54
-24 57 -24 8 0 175 -76 217 -99 31 -16 39 -30 64 -105 16 -48 26 -89 22 -93
-10 -10 -206 60 -361 128 -36 16 -160 61 -181 66 -25 6 -39 -20 -20 -36 14
-12 129 -55 256 -97 41 -13 95 -32 120 -40 25 -9 60 -20 78 -25 17 -6 32 -14
32 -19 0 -5 6 -7 14 -4 14 5 86 -38 98 -61 13 -21 -13 -33 -87 -38 -38 -2
-149 -10 -245 -16 -96 -6 -222 -16 -280 -21 -58 -6 -133 -10 -165 -10 -33 0
-105 -7 -160 -15 -55 -8 -172 -24 -260 -36 -217 -29 -326 -47 -425 -69 -64
-14 -121 -25 -235 -45 -55 -9 -154 -30 -220 -47 -66 -17 -140 -34 -165 -38
-25 -5 -146 -33 -270 -63 -124 -31 -238 -58 -255 -60 -37 -6 -258 -67 -415
-114 -63 -19 -135 -41 -160 -48 -25 -7 -103 -36 -175 -65 -147 -60 -445 -165
-611 -215 -203 -61 -358 -116 -439 -155 -44 -21 -103 -43 -132 -50 -52 -12
-158 -52 -170 -64 -3 -3 -15 -6 -25 -6 -10 0 -26 -4 -36 -10 -16 -9 -218 -80
-272 -95 -14 -4 -81 -32 -150 -62 -263 -115 -362 -161 -650 -301 -91 -44 -201
-95 -244 -112 -71 -28 -140 -63 -301 -156 -27 -16 -86 -52 -130 -81 -44 -29
-107 -65 -140 -80 -107 -48 -266 -132 -300 -159 -85 -64 -233 -151 -385 -226
-91 -44 -185 -94 -210 -111 -25 -16 -97 -57 -160 -90 -137 -71 -325 -186 -435
-267 -44 -32 -115 -80 -158 -107 -43 -26 -92 -57 -110 -68 -18 -11 -66 -45
-107 -76 -78 -57 -408 -277 -465 -309 -33 -19 -108 -21 -139 -3 -9 5 -25 35
-37 67 -11 33 -34 86 -51 119 -16 33 -36 79 -43 101 -7 23 -23 66 -34 96 -12
30 -21 62 -21 70 0 8 -13 49 -29 90 -46 116 -98 278 -108 335 -3 17 -9 35 -13
40 -12 16 -90 252 -90 273 0 10 -4 22 -9 27 -22 24 -82 242 -121 440 -7 33
-20 87 -31 119 -10 33 -19 76 -19 97 0 21 -9 63 -20 93 -12 30 -23 81 -26 113
-10 121 -56 341 -78 376 -8 12 -22 56 -30 97 -19 89 -27 118 -55 189 -12 30
-28 86 -36 125 -15 70 -44 186 -71 280 -8 26 -14 54 -14 61 0 25 53 115 71
120 10 4 37 21 59 38 79 63 97 76 124 88 14 7 26 16 26 21 0 4 5 8 10 8 13 0
144 81 148 92 2 4 8 8 13 8 11 0 78 43 184 119 39 28 102 69 140 91 39 22 88
51 110 65 63 38 83 49 195 105 58 29 153 82 213 116 59 35 109 64 111 64 3 0
39 16 80 35 42 19 80 35 86 35 5 0 30 11 56 25 26 14 64 30 85 36 32 10 40 9
54 -5 24 -24 39 -15 45 24 4 30 14 39 80 77 41 24 130 70 197 103 452 219 428
209 471 202 24 -3 33 0 38 13 4 10 44 36 88 57 45 22 108 54 141 72 87 47 315
161 353 177 17 8 32 17 32 21 0 5 6 8 13 8 7 0 36 15 64 34 29 19 63 38 75 41
13 4 50 24 83 44 64 39 240 116 341 150 63 21 78 27 203 81 60 27 77 31 92 21
28 -17 36 -14 47 17 8 22 26 35 93 64 205 90 323 138 340 138 11 0 41 10 67
21 92 41 108 48 157 64 28 9 70 26 95 37 99 46 292 114 500 178 74 23 188 63
253 91 117 48 160 58 172 39 11 -17 47 -11 52 9 5 19 42 41 69 41 8 0 22 4 32
9 9 5 37 14 62 21 25 6 68 19 95 29 28 10 73 23 100 29 28 6 94 21 149 32 54
12 111 20 127 16 22 -4 31 -1 39 14 6 11 34 26 68 36 31 9 66 20 77 25 46 21
269 89 322 99 65 12 232 53 278 69 70 24 203 47 225 39 13 -5 50 -9 84 -11 56
-2 61 0 73 25 19 39 98 59 353 92 63 8 144 18 180 21 36 3 81 8 100 9 19 2 42
6 50 9 15 6 229 26 310 30 105 5 185 -4 213 -25z m-1563 -108 c0 -5 -4 -10 -9
-10 -6 0 -13 5 -16 10 -3 6 1 10 9 10 9 0 16 -4 16 -10z m-736 -180 c34 -12
33 -28 -1 -41 -24 -9 -30 -7 -45 11 -29 36 -7 50 46 30z m3743 -2976 c-3 -4
-2 -16 4 -26 16 -29 1 -38 -80 -49 -54 -8 -76 -7 -87 2 -20 16 -18 27 7 34 12
4 30 16 40 26 14 14 33 19 71 19 28 0 48 -3 45 -6z m150 -174 c25 -11 45 -15
48 -9 11 16 105 7 105 -11 0 -4 -13 -13 -29 -20 -36 -14 -104 -9 -221 17 -85
19 -85 19 -50 30 53 17 101 15 147 -7z m248 -61 c19 -17 32 -35 29 -40 -6 -11
-54 -12 -70 -1 -12 8 -14 72 -2 72 4 0 23 -14 43 -31z m-115 -75 c88 -28 85
-37 -10 -30 -150 12 -225 21 -240 31 -45 29 161 28 250 -1z m350 -77 c94 -49
110 -61 104 -79 -3 -10 6 -37 20 -61 34 -58 35 -81 2 -66 -13 6 -30 22 -37 35
-7 13 -26 33 -41 43 -16 10 -47 44 -69 76 -56 83 -53 90 21 52z m-190 -149
c19 -8 67 -28 105 -44 69 -27 129 -76 122 -98 -6 -20 -57 -18 -105 4 -138 62
-299 146 -295 154 8 13 134 2 173 -16z m414 -161 c61 -106 108 -211 113 -249
l6 -43 -26 24 c-15 14 -30 41 -35 65 -6 35 -12 42 -37 46 -27 5 -30 9 -27 38
3 28 -1 34 -31 48 -28 14 -34 21 -33 48 1 30 20 55 41 56 6 0 18 -15 29 -33z
m99 -39 c33 -35 99 -119 96 -122 -9 -8 -82 48 -99 77 -19 31 -26 57 -14 57 3
0 11 -6 17 -12z m-683 -78 c-6 -11 -5 -23 4 -35 11 -16 20 -16 117 -5 111 13
165 6 183 -22 6 -10 8 -19 5 -22 -10 -10 -151 -36 -196 -36 -43 0 -49 4 -124
77 -44 42 -79 80 -79 84 0 4 22 0 49 -9 42 -13 48 -18 41 -32z m468 -17 c5
-18 -30 -16 -54 2 -18 14 -17 15 15 13 19 -2 36 -9 39 -15z m-68 -184 c0 -3
-32 -12 -71 -19 -67 -13 -74 -12 -107 6 -54 29 -50 40 20 58 102 25 101 26
131 -8 15 -16 27 -33 27 -37z m55 50 c11 -17 -1 -21 -15 -4 -8 9 -8 15 -2 15
6 0 14 -5 17 -11z m390 -69 c88 -105 172 -227 162 -236 -2 -2 -47 38 -99 89
-93 91 -138 155 -138 197 0 19 2 20 19 8 10 -7 35 -33 56 -58z m-357 -74 c2
-10 -4 -17 -17 -17 -12 -1 -27 -2 -33 -3 -7 -1 -11 6 -9 14 3 13 7 33 10 49 2
10 46 -29 49 -43z m104 -129 c85 -84 208 -233 208 -252 0 -5 -116 79 -130 95
-3 3 -34 30 -70 60 -36 30 -85 74 -110 97 l-45 43 52 0 c47 0 55 -3 95 -43z
m291 -74 c84 -85 114 -128 122 -175 6 -34 5 -36 -14 -31 -26 7 -130 118 -179
190 -29 44 -33 55 -22 68 7 8 16 15 19 15 4 0 37 -30 74 -67z m-379 -2 c21
-17 42 -31 45 -31 3 -1 35 -28 70 -60 36 -33 68 -60 73 -60 4 0 57 -48 118
-106 100 -97 108 -108 97 -127 -7 -12 -13 -24 -14 -26 -10 -19 -390 342 -428
407 -11 17 -23 32 -27 32 -4 0 -8 5 -8 10 0 14 23 1 74 -39z m373 -164 c43
-51 86 -98 96 -106 10 -7 33 -45 51 -85 18 -39 42 -91 54 -116 60 -131 89
-226 78 -256 -11 -29 -33 1 -103 142 -36 74 -72 139 -79 145 -9 7 -11 25 -7
59 7 62 0 89 -34 128 -75 83 -109 124 -117 142 -5 11 -12 20 -16 20 -5 0 -11
7 -14 16 -10 27 11 6 91 -89z m311 -352 c23 -77 37 -155 28 -155 -10 0 -36 71
-36 99 0 14 -9 59 -20 99 -11 39 -20 75 -19 79 1 15 27 -52 47 -122z m-222 8
c8 -10 41 -72 75 -137 52 -103 59 -123 50 -143 -6 -13 -11 -36 -11 -51 l0 -27
-20 25 c-11 14 -27 41 -36 60 -18 36 -59 99 -107 161 -34 45 -34 53 1 94 32
40 31 40 48 18z m-10546 -1732 c0 -5 -7 -14 -15 -21 -12 -10 -15 -10 -15 2 0
8 3 18 7 21 9 10 23 9 23 -2z m82 -27 c7 -6 -27 -103 -40 -116 -14 -14 -41 2
-35 20 9 24 57 101 64 102 3 0 8 -3 11 -6z m73 -56 c-23 -111 -114 -406 -131
-422 -18 -19 -39 -64 -68 -151 -15 -44 -34 -94 -42 -112 -8 -17 -14 -36 -14
-43 0 -7 -6 -26 -14 -43 -7 -18 -29 -70 -49 -117 -64 -155 -71 -170 -86 -175
-21 -8 -27 3 -13 25 7 11 12 39 12 63 0 65 30 150 125 352 13 28 27 62 30 77
9 37 45 121 79 186 21 42 25 57 15 68 -9 11 -1 36 42 122 57 113 107 202 116
202 2 0 2 -15 -2 -32z m75 -22 c0 -3 -4 -8 -10 -11 -5 -3 -10 -1 -10 4 0 6 5
11 10 11 6 0 10 -2 10 -4z m-36 -118 c-33 -103 -93 -271 -100 -277 -18 -17 40
192 78 278 27 59 42 59 22 -1z m-361 -1 c-5 -12 -23 -49 -39 -82 -15 -33 -36
-78 -46 -100 -22 -52 -24 -16 -3 46 20 56 85 172 93 165 3 -3 1 -16 -5 -29z
m17 -171 c-11 -26 -20 -52 -20 -57 0 -9 -79 -195 -133 -313 -18 -37 -32 -72
-32 -76 0 -5 -4 -12 -9 -17 -10 -9 -3 54 13 113 27 105 192 447 199 413 1 -8
-6 -37 -18 -63z m47 -92 c3 -9 -4 -39 -15 -67 -12 -29 -32 -83 -46 -122 -13
-38 -40 -105 -60 -148 -20 -43 -36 -82 -36 -86 0 -4 -16 -45 -35 -91 -19 -46
-35 -88 -35 -92 0 -17 -43 -98 -52 -98 -12 0 -3 46 24 120 11 30 24 70 28 89
5 18 20 56 34 83 14 27 26 61 26 75 0 14 13 52 28 86 16 34 48 108 73 164 24
57 48 103 52 103 4 0 10 -7 14 -16z m279 -2 c-3 -10 -21 -80 -40 -156 -19 -76
-36 -139 -38 -141 -2 -2 -12 3 -22 11 -17 12 -18 16 -5 31 24 31 39 62 39 84
0 33 51 189 62 189 5 0 7 -8 4 -18z m-471 -12 c3 -5 -3 -28 -13 -52 -35 -79
-42 -99 -42 -118 0 -19 -54 -80 -72 -80 -12 0 -3 41 18 84 8 16 14 33 14 37 0
15 72 139 80 139 5 0 11 -4 15 -10z m267 -292 c-7 -7 -12 -8 -12 -2 0 14 12
26 19 19 2 -3 -1 -11 -7 -17z m-57 -165 c-4 -20 -20 -66 -36 -101 -16 -36 -29
-70 -29 -77 0 -6 -9 -30 -20 -53 -11 -22 -20 -45 -20 -51 0 -5 -13 -38 -30
-73 -16 -34 -30 -70 -30 -79 0 -20 -26 -56 -35 -47 -3 3 -2 14 3 25 5 10 15
41 21 68 13 53 61 179 109 285 16 36 37 82 45 103 20 47 31 48 22 0z m62 -275
c-9 -40 -24 -118 -33 -173 -9 -55 -20 -110 -25 -123 -5 -13 -9 -35 -9 -50 0
-15 -7 -46 -15 -69 -8 -22 -16 -63 -18 -90 -2 -26 -8 -59 -14 -73 -6 -14 -14
-38 -19 -54 -14 -45 -31 -42 -37 6 -3 26 -14 49 -26 59 -23 19 -21 59 6 113
21 41 43 117 43 148 0 15 4 37 9 50 5 13 16 46 24 73 9 28 36 99 61 159 25 60
46 112 46 115 0 3 5 0 12 -7 9 -9 8 -28 -5 -84z m-67 62 c0 -5 -4 -10 -10 -10
-5 0 -10 5 -10 10 0 6 5 10 10 10 6 0 10 -4 10 -10z m-37 -82 c-15 -45 -33
-72 -33 -50 0 17 34 92 41 92 4 0 0 -19 -8 -42z m-192 -11 c-10 -9 -11 -8 -5
6 3 10 9 15 12 12 3 -3 0 -11 -7 -18z m138 -144 c-10 -38 -29 -99 -42 -138
-14 -38 -27 -83 -31 -100 -4 -16 -16 -41 -27 -55 l-20 -25 7 40 c4 22 12 51
19 65 7 14 20 59 30 100 10 41 26 86 35 100 9 14 20 37 24 53 3 15 10 27 14
27 5 0 0 -30 -9 -67z m11101 12 c0 -22 -4 -25 -35 -25 -40 0 -45 11 -12 33 32
23 47 20 47 -8z m-10815 -734 c-6 -23 -6 -23 -27 -5 -19 18 -20 26 -14 159 7
141 20 270 34 335 4 20 8 -74 10 -215 1 -137 0 -261 -3 -274z m-166 407 c-6
-16 -12 -50 -11 -76 0 -26 -4 -56 -9 -67 -5 -11 -18 -55 -28 -98 -20 -81 -26
-95 -37 -84 -7 7 4 61 51 267 41 175 39 172 43 126 2 -21 -2 -52 -9 -68z m61
-20 c-5 -24 -13 -106 -20 -183 -6 -77 -15 -164 -20 -194 -6 -30 -10 -69 -10
-87 0 -17 -7 -49 -16 -69 l-16 -38 -23 29 c-16 20 -21 34 -15 49 4 11 15 65
25 120 27 161 86 415 96 415 3 0 3 -19 -1 -42z m284 -522 c8 -34 -2 -56 -28
-56 -24 0 -48 32 -40 54 3 8 15 17 27 19 12 2 25 5 28 6 4 0 10 -10 13 -23z
m183 -145 c9 -14 33 -50 52 -79 20 -30 45 -69 56 -87 11 -18 33 -46 48 -61 24
-24 57 -85 121 -224 9 -19 24 -48 33 -65 30 -54 43 -83 43 -93 0 -5 14 -41 32
-78 38 -81 71 -171 99 -269 11 -38 28 -88 38 -110 50 -109 74 -164 88 -205 8
-25 28 -72 44 -106 16 -34 29 -69 29 -78 0 -9 11 -38 24 -64 46 -92 122 -293
135 -357 5 -22 12 -48 16 -57 12 -30 -17 -21 -58 17 -42 39 -67 45 -67 16 0
-25 61 -84 130 -126 53 -32 57 -38 83 -111 15 -42 25 -79 22 -82 -11 -11 -59
25 -132 99 -83 85 -113 125 -113 152 0 9 -8 24 -17 32 -98 80 -124 97 -163
112 -25 9 -61 26 -80 37 -65 36 -92 49 -124 57 -69 17 -162 53 -182 71 -11 10
-25 18 -31 18 -26 0 -107 139 -169 288 -19 45 -60 129 -91 185 -31 56 -68 125
-81 152 -14 28 -33 61 -43 73 -19 25 -92 239 -104 304 -5 24 -1 64 10 109 13
52 16 91 12 145 -9 102 6 210 37 265 14 24 26 51 26 60 0 27 98 98 113 82 13
-13 85 -12 96 1 16 19 49 8 68 -23z"/>
<path d="M9817 19423 c-16 -15 -4 -32 46 -65 77 -53 131 -78 147 -68 16 10 6
38 -17 47 -10 4 -50 26 -90 50 -78 47 -77 46 -86 36z"/>
<path d="M9877 19203 c-15 -14 -5 -31 38 -61 25 -18 48 -32 52 -32 4 0 14 -6
22 -14 31 -27 114 -67 127 -62 32 12 8 36 -106 104 -131 78 -124 75 -133 65z"/>
<path d="M12620 15095 c0 -14 48 -45 70 -45 18 0 11 28 -12 44 -28 20 -58 21
-58 1z"/>
<path d="M8516 12691 c-3 -4 1 -25 9 -47 11 -33 17 -39 42 -39 25 0 28 4 31
37 3 34 0 38 -25 43 -15 4 -33 8 -40 10 -7 2 -15 1 -17 -4z"/>
<path d="M4796 7259 c-14 -11 -26 -25 -26 -31 0 -6 -6 -19 -14 -27 -8 -9 -27
-54 -42 -101 -38 -115 -38 -222 -1 -331 31 -92 62 -155 92 -189 13 -14 26 -36
30 -50 4 -13 16 -36 25 -50 9 -14 24 -37 33 -51 9 -15 30 -33 46 -40 17 -8 36
-26 42 -41 14 -34 115 -131 132 -125 24 7 19 45 -9 69 -14 13 -44 46 -64 74
-21 28 -53 57 -70 64 -25 10 -40 30 -71 94 -22 45 -55 103 -74 131 -19 27 -35
58 -35 67 0 10 -9 41 -20 70 -29 76 -27 180 5 282 13 45 35 93 47 108 21 26
25 27 48 14 14 -8 43 -24 65 -35 22 -11 49 -29 59 -40 11 -12 24 -21 31 -21
17 0 48 37 41 48 -5 9 -112 75 -183 114 -42 23 -54 23 -87 -3z"/>
<path d="M5129 6827 c-39 -26 -47 -60 -29 -122 17 -60 71 -145 92 -145 25 0
23 27 -8 90 -45 94 -44 116 10 154 23 16 15 46 -12 46 -11 0 -34 -10 -53 -23z"/>
<path d="M14549 11384 c-1 -5 -1 -12 0 -16 0 -5 -6 -8 -14 -8 -37 0 -11 -89
81 -280 34 -69 67 -142 74 -161 19 -54 46 -87 60 -73 11 11 -54 170 -131 324
-18 36 -36 83 -40 105 l-7 40 23 -29 c34 -43 128 -219 147 -278 8 -23 23 -46
33 -52 11 -6 26 -19 33 -28 18 -25 32 -22 32 6 0 26 -35 94 -120 236 -31 52
-65 116 -75 142 -10 26 -23 52 -29 57 -17 14 -66 25 -67 15z"/>
<path d="M14500 11187 c0 -50 32 -154 76 -243 24 -50 53 -120 65 -155 22 -70
44 -109 59 -109 6 0 10 7 10 16 0 24 -45 144 -80 213 -42 83 -69 158 -84 233
-9 44 -18 64 -29 66 -12 3 -17 -4 -17 -21z"/>
<path d="M11404 11128 c-34 -39 -84 -144 -84 -177 0 -24 4 -31 20 -31 12 0 20
7 20 16 0 19 65 151 86 175 8 8 14 21 14 27 0 20 -35 13 -56 -10z"/>
<path d="M11237 11053 c-41 -62 -57 -97 -57 -121 0 -26 4 -33 17 -30 10 2 19
11 21 21 2 10 26 52 53 92 52 80 64 117 39 122 -11 3 -36 -27 -73 -84z"/>
<path d="M11545 11094 c-14 -15 -25 -31 -25 -36 0 -5 -9 -21 -20 -36 -23 -30
-18 -65 8 -60 16 3 92 121 92 144 0 23 -29 16 -55 -12z"/>
<path d="M11111 11081 c-12 -16 -21 -32 -21 -36 0 -4 -14 -28 -31 -53 -35 -52
-50 -112 -28 -112 26 0 32 8 93 125 12 22 29 51 38 64 9 13 15 28 12 33 -11
17 -44 7 -63 -21z"/>
<path d="M11621 11063 c-26 -22 -36 -118 -12 -118 8 0 19 14 24 30 5 17 18 39
28 51 40 44 7 75 -40 37z"/>
<path d="M10955 11007 c-55 -85 -74 -127 -75 -160 0 -23 4 -28 21 -25 12 2 25
10 29 18 110 220 114 230 83 230 -11 0 -34 -25 -58 -63z"/>
<path d="M11767 11063 c-12 -11 -8 -44 6 -42 30 4 45 -3 55 -25 10 -23 19 -26
107 -39 34 -6 78 -27 90 -44 13 -18 35 -10 35 13 0 24 -47 64 -74 64 -35 0
-97 30 -119 58 -13 16 -29 22 -56 22 -21 0 -41 -3 -44 -7z"/>
<path d="M10864 10997 c-72 -108 -105 -174 -102 -202 5 -46 33 -45 49 2 10 32
49 94 69 113 4 3 14 22 23 42 10 20 22 40 27 43 16 10 -1 35 -24 35 -13 0 -29
-13 -42 -33z"/>
<path d="M10722 10964 c-17 -20 -38 -57 -47 -83 -10 -25 -30 -69 -46 -97 -35
-62 -38 -94 -8 -94 11 0 29 5 40 10 25 14 59 82 59 120 0 31 7 49 48 112 44
68 5 94 -46 32z"/>
<path d="M14580 10719 c0 -6 14 -39 31 -73 17 -33 32 -74 33 -91 3 -29 1 -30
-31 -27 -31 4 -33 2 -33 -24 1 -65 78 -172 115 -158 23 9 27 41 10 73 -8 17
-19 41 -24 54 -8 22 -7 23 15 19 21 -4 24 -1 24 25 0 17 -12 47 -28 69 -16 21
-41 63 -57 92 -26 47 -55 69 -55 41z"/>
<path d="M15150 10592 c-31 -25 -42 -143 -15 -172 28 -31 44 -15 42 45 -3 70
11 84 55 58 36 -21 86 -109 114 -203 9 -30 25 -82 36 -115 25 -78 34 -197 18
-254 -20 -77 -31 -152 -41 -291 -19 -285 -29 -344 -67 -417 -32 -61 -45 -122
-31 -139 18 -21 28 -17 43 19 47 113 76 227 76 299 0 37 4 78 9 91 5 13 15 87
21 163 6 77 19 168 27 204 9 36 18 103 20 150 3 71 0 99 -23 170 -14 47 -29
101 -34 120 -13 60 -65 180 -95 217 -25 32 -93 72 -121 73 -7 0 -22 -8 -34
-18z"/>
<path d="M11408 10434 c-104 -20 -235 -79 -313 -138 -22 -17 -83 -74 -135
-126 -73 -72 -114 -124 -169 -213 -56 -90 -71 -121 -62 -130 19 -19 60 12 90
68 14 28 36 64 49 82 12 17 22 33 22 35 0 8 62 79 105 121 22 21 63 50 92 63
36 16 52 30 55 45 3 25 41 49 133 86 111 44 160 52 317 55 108 2 118 3 124 22
12 36 -20 46 -135 45 -58 -1 -136 -7 -173 -15z"/>
<path d="M11610 10280 c-25 -5 -65 -11 -90 -15 -56 -9 -234 -66 -280 -90 -19
-10 -51 -31 -70 -48 -63 -55 -222 -231 -236 -262 -63 -138 -114 -273 -114
-304 0 -20 -7 -68 -15 -106 -18 -88 -19 -115 -1 -115 7 0 19 -6 25 -14 13 -15
37 -21 146 -37 86 -13 71 -13 186 -1 67 7 111 18 145 35 27 14 90 39 139 56
50 17 163 69 250 116 88 47 166 85 173 85 6 0 29 9 49 20 21 11 44 20 51 20
14 0 74 29 143 68 134 75 214 101 299 97 74 -5 93 5 84 41 -5 20 -101 112
-163 157 -16 12 -68 51 -115 87 -47 36 -107 74 -133 84 -26 10 -78 39 -115 64
-61 41 -74 45 -170 58 -113 15 -122 15 -188 4z m356 -142 c11 -10 25 -18 31
-18 33 0 148 -70 229 -140 23 -19 60 -50 83 -68 49 -40 52 -58 9 -67 -18 -4
-42 -12 -53 -19 -11 -7 -39 -20 -63 -29 -24 -10 -78 -37 -121 -61 -72 -41
-187 -84 -197 -73 -2 2 12 38 31 79 35 73 59 174 56 233 -2 47 -41 158 -65
183 l-21 24 30 -13 c17 -7 39 -21 51 -31z m-382 -38 c32 -12 79 -81 74 -111
-4 -30 -46 -59 -95 -66 -38 -5 -44 -2 -82 37 -22 23 -41 49 -41 56 0 8 12 32
28 53 29 43 62 52 116 31z m-364 -140 c0 -10 4 -21 9 -25 6 -3 9 -24 9 -47 0
-30 5 -46 19 -58 27 -21 37 -62 15 -58 -29 5 -72 104 -72 165 0 34 4 52 10 48
6 -3 10 -15 10 -25z m-100 -60 c0 -47 4 -71 14 -77 7 -4 24 -26 38 -48 14 -22
71 -83 126 -135 99 -94 133 -114 225 -134 15 -4 25 -10 22 -15 -2 -5 -49 -26
-102 -46 -54 -21 -116 -45 -138 -55 -63 -27 -71 -29 -159 -40 -87 -11 -199 -1
-258 22 -24 9 -28 16 -28 47 1 71 21 176 44 226 13 27 27 61 31 75 17 61 74
157 119 202 28 26 54 48 58 48 4 0 8 -31 8 -70z"/>
<path d="M7181 9562 c-15 -28 -35 -137 -28 -155 4 -10 15 -17 24 -17 16 0 20
14 30 87 7 47 10 90 7 95 -8 13 -23 9 -33 -10z"/>
<path d="M7434 9545 c-23 -35 -15 -89 14 -93 19 -3 22 1 22 30 0 18 3 43 6 54
9 32 -22 39 -42 9z"/>
<path d="M6925 9496 c-18 -65 -14 -121 7 -114 19 7 49 52 48 74 -1 53 -13 104
-25 104 -7 0 -20 -28 -30 -64z"/>
<path d="M7020 9541 c-7 -13 -7 -22 0 -26 5 -3 10 -30 10 -60 0 -54 16 -75 39
-52 14 14 14 112 1 138 -14 24 -36 24 -50 0z"/>
<path d="M7304 9525 c-9 -36 8 -89 29 -93 16 -3 18 3 15 55 -2 45 -7 59 -20
61 -12 2 -19 -5 -24 -23z"/>
<path d="M6802 9518 c-17 -36 -45 -166 -39 -182 7 -18 35 -11 54 13 7 9 13 43
13 77 0 33 5 65 12 72 8 8 8 15 -2 27 -17 20 -25 19 -38 -7z"/>
<path d="M7640 9501 c-42 -12 -30 -35 20 -41 25 -3 55 -11 66 -18 18 -9 24 -9
35 4 27 33 -59 72 -121 55z"/>
<path d="M8142 9473 c3 -28 4 -28 68 -25 72 4 90 13 70 37 -9 11 -31 15 -77
15 -64 0 -64 0 -61 -27z"/>
<path d="M6656 9422 c-25 -93 -26 -145 -2 -150 26 -5 36 9 41 59 2 24 7 70 11
102 6 52 5 57 -12 57 -15 0 -23 -15 -38 -68z"/>
<path d="M6574 9435 c-7 -19 -14 -47 -14 -62 -1 -15 -7 -46 -15 -68 -26 -71
-14 -138 18 -106 7 7 22 60 35 119 12 59 25 117 28 130 5 18 2 22 -15 22 -16
0 -26 -10 -37 -35z"/>
<path d="M8673 9383 c-23 -9 -13 -34 17 -44 17 -6 30 -14 30 -18 0 -12 68 -43
79 -37 20 13 11 32 -33 69 -42 35 -64 42 -93 30z"/>
<path d="M6425 9350 c-8 -16 -15 -43 -15 -60 0 -27 -2 -29 -19 -18 -16 10 -23
9 -38 -4 -10 -9 -29 -18 -43 -20 -23 -3 -27 -13 -52 -108 -31 -120 -34 -203
-6 -208 12 -2 19 5 24 25 15 69 15 69 35 42 28 -37 38 -16 50 106 7 67 17 116
26 125 12 13 13 6 7 -52 -5 -49 -3 -72 6 -83 12 -14 15 -14 30 0 14 12 18 34
19 102 0 48 6 102 12 120 20 60 -8 86 -36 33z"/>
<path d="M6171 9098 c-5 -18 -15 -59 -21 -90 -13 -66 -26 -80 -40 -44 -10 28
-34 34 -47 14 -4 -7 -9 -44 -10 -83 -2 -38 -4 -92 -5 -120 -3 -42 0 -50 16
-53 30 -6 46 26 46 90 0 54 10 72 25 48 10 -16 42 -12 49 6 3 9 6 36 6 60 0
25 4 53 9 62 5 9 12 45 16 80 6 58 6 62 -13 62 -14 0 -24 -10 -31 -32z"/>
<path d="M8877 9103 c-22 -21 19 -93 53 -93 28 0 29 21 2 63 -24 35 -41 45
-55 30z"/>
<path d="M7165 8858 c-87 -29 -202 -86 -262 -130 -63 -46 -403 -381 -403 -397
0 -6 -21 -35 -47 -64 -27 -29 -59 -75 -72 -104 -43 -92 -4 -108 55 -21 16 24
31 45 34 48 3 3 23 32 45 65 36 53 225 251 331 345 113 100 207 154 333 191
60 18 89 21 153 16 l78 -6 0 28 c0 20 -7 31 -25 39 -40 18 -152 13 -220 -10z"/>
<path d="M7433 8779 c-6 -6 -29 -15 -50 -19 -21 -4 -60 -13 -88 -18 -81 -17
-278 -121 -385 -204 -19 -14 -50 -35 -69 -45 -19 -10 -39 -27 -45 -36 -6 -10
-45 -52 -87 -95 -63 -64 -84 -95 -129 -187 -48 -99 -67 -134 -147 -256 -23
-35 -31 -79 -14 -79 5 0 28 9 52 19 24 11 89 27 144 36 87 15 114 16 205 5 58
-7 132 -19 165 -27 69 -17 202 -11 275 12 25 8 99 31 165 51 66 20 124 41 129
45 6 5 18 9 28 9 19 0 106 39 124 56 7 5 57 41 112 78 143 96 202 172 223 287
12 67 12 68 -15 100 -44 52 -115 103 -211 152 -118 60 -152 73 -222 87 -32 7
-70 19 -85 26 -33 17 -60 18 -75 3z m317 -160 c14 -8 48 -26 75 -39 28 -13 71
-44 98 -68 44 -42 47 -48 47 -95 0 -64 -41 -132 -113 -184 -29 -21 -59 -44
-67 -51 -46 -39 -82 -64 -126 -86 -54 -27 -124 -43 -124 -29 0 5 19 25 43 44
38 32 73 87 92 144 14 45 15 207 0 297 -8 51 -15 96 -15 99 0 9 60 -12 90 -32z
m-463 11 c21 -11 43 -20 50 -20 7 0 20 -11 29 -25 24 -37 1 -142 -38 -166 -23
-15 -82 -9 -116 11 -36 22 -68 83 -74 140 -3 33 0 37 42 58 54 27 60 27 107 2z
m-476 -369 c38 -106 82 -152 206 -214 176 -87 178 -88 162 -98 -32 -19 -117
-21 -191 -3 -53 13 -119 18 -246 20 -95 1 -176 4 -179 8 -4 4 0 21 9 39 9 18
36 75 61 128 45 95 132 208 148 192 4 -5 17 -37 30 -72z"/>
<path d="M5942 8755 c-17 -22 -19 -36 -15 -112 5 -104 8 -113 27 -113 36 0 54
77 44 185 -6 69 -24 81 -56 40z"/>
<path d="M15188 8248 c-38 -40 -68 -79 -68 -86 0 -23 30 -25 54 -3 31 29 53
29 34 -1 -8 -13 -21 -34 -29 -48 -8 -13 -29 -40 -46 -58 -18 -19 -30 -38 -27
-43 16 -26 74 9 109 66 11 18 35 54 53 79 34 48 35 66 1 66 -26 0 -24 9 7 41
29 30 27 59 -3 59 -10 0 -48 -33 -85 -72z"/>
<path d="M9227 8171 c-11 -33 -16 -65 -12 -70 20 -33 61 14 65 74 3 48 1 55
-17 55 -13 0 -23 -17 -36 -59z"/>
<path d="M11321 7947 c-6 -8 -8 -23 -4 -33 6 -19 71 -84 83 -84 3 0 16 -10 30
-23 56 -52 94 -66 220 -85 l45 -7 6 -51 c4 -29 9 -57 13 -62 7 -12 -10 -97
-25 -124 -12 -23 -12 -75 1 -83 12 -8 47 48 62 100 6 22 12 74 12 115 l1 75
131 0 131 0 46 -37 c51 -43 59 -45 78 -22 12 15 8 22 -31 56 -76 67 -90 72
-225 69 -66 -1 -136 3 -155 9 -19 6 -57 15 -85 20 -27 5 -63 12 -80 15 -34 8
-95 37 -95 46 0 3 -22 21 -48 39 -27 18 -53 42 -58 54 -11 26 -37 32 -53 13z"/>
<path d="M9009 7643 c-4 -30 -5 -110 -1 -120 7 -22 32 -14 42 12 5 14 8 44 7
68 -2 35 -7 43 -25 45 -12 2 -22 0 -23 -5z"/>
<path d="M11110 7371 c-115 -37 -192 -97 -220 -171 -20 -52 -57 -108 -80 -120
-27 -14 -27 -50 0 -50 22 0 50 25 86 75 18 26 23 28 38 16 24 -20 41 -1 56 66
12 53 38 93 61 93 13 0 11 -38 -3 -77 -9 -26 -9 -36 0 -45 20 -20 50 20 65 87
11 49 18 61 35 63 21 3 22 1 16 -56 -5 -40 -3 -62 5 -66 19 -12 39 12 46 57
12 70 22 89 42 79 42 -22 60 25 21 52 -29 21 -99 19 -168 -3z"/>
<path d="M8969 7312 c-90 -62 -183 -152 -221 -213 -9 -14 -35 -47 -56 -72 -22
-25 -46 -63 -53 -84 -34 -103 -103 -207 -215 -319 -116 -116 -155 -168 -204
-265 -33 -63 -36 -84 -18 -95 15 -9 45 30 87 111 25 48 68 100 159 193 119
121 192 215 192 245 0 8 7 20 14 27 8 6 20 28 26 48 33 103 205 306 327 384
70 46 100 79 88 98 -11 18 -28 10 -126 -58z"/>
<path d="M9550 6879 c-113 -8 -203 -48 -282 -126 -32 -32 -54 -61 -51 -69 7
-19 17 -18 59 11 47 32 55 31 48 -4 -6 -30 5 -45 28 -36 7 3 31 35 52 71 56
93 86 102 68 20 -11 -55 1 -79 34 -66 16 6 22 20 27 59 7 61 12 71 36 71 16 0
18 -6 13 -45 -6 -54 10 -80 39 -64 12 6 19 20 19 37 0 39 28 76 45 62 8 -6 15
-21 17 -33 2 -12 11 -23 20 -25 13 -2 25 14 47 59 16 34 27 68 24 75 -7 19
-30 18 -41 -2 -8 -14 -15 -14 -63 -2 -36 9 -82 11 -139 7z"/>
<path d="M8797 6734 c-12 -13 -7 -51 8 -64 8 -7 15 -18 15 -25 0 -16 79 -89
118 -109 39 -20 82 -20 108 -2 29 22 7 50 -41 54 -54 5 -119 52 -139 102 -9
22 -20 40 -25 40 -5 0 -16 2 -23 5 -8 3 -17 2 -21 -1z"/>
<path d="M12430 6557 c-47 -16 -125 -38 -175 -48 -196 -41 -201 -42 -505 -73
-189 -20 -275 -32 -405 -57 -164 -33 -423 -109 -581 -171 -80 -31 -104 -46
-118 -70 -26 -43 -97 -84 -177 -103 -93 -21 -149 -40 -244 -85 -44 -21 -123
-52 -175 -70 -52 -17 -115 -44 -140 -59 -25 -14 -57 -32 -71 -38 -14 -6 -50
-31 -80 -55 -30 -24 -92 -70 -139 -102 -47 -32 -106 -76 -132 -97 -26 -22 -51
-39 -56 -39 -5 0 -17 -9 -27 -20 -10 -11 -22 -20 -27 -20 -5 0 -29 -14 -54
-31 -24 -16 -99 -57 -167 -90 -67 -33 -139 -70 -160 -81 -22 -11 -53 -24 -70
-29 -18 -4 -57 -15 -87 -23 -30 -9 -73 -16 -96 -16 -34 0 -43 -4 -53 -26 -15
-33 0 -54 39 -54 20 0 36 -11 60 -40 17 -21 52 -49 76 -60 24 -12 44 -26 44
-31 0 -18 22 -9 27 11 6 22 24 25 69 11 16 -5 48 -14 71 -20 22 -6 62 -28 87
-49 25 -21 74 -53 108 -71 75 -39 144 -79 184 -105 156 -103 243 -162 263
-177 13 -11 32 -19 43 -19 11 0 38 -13 61 -28 68 -46 135 -82 151 -82 8 0 37
-13 63 -28 55 -32 183 -79 256 -93 85 -16 346 -13 397 4 25 9 83 25 130 37 47
12 90 25 95 29 6 4 30 13 55 20 25 6 54 16 65 20 36 16 109 39 159 51 27 6
101 33 165 60 64 27 143 58 176 70 90 33 104 40 179 97 37 29 71 53 75 55 3 2
26 26 50 55 27 33 48 50 58 46 18 -7 77 49 104 97 30 55 42 72 79 116 19 23
42 54 50 70 8 16 26 47 40 69 37 60 47 79 60 122 7 21 33 79 56 128 51 106 63
154 74 295 7 104 31 235 52 295 6 17 16 73 23 125 21 162 67 272 120 287 26 8
31 15 39 57 7 37 5 50 -5 57 -24 15 -70 8 -159 -24z m-93 -115 c-28 -31 -583
-303 -782 -382 -11 -5 -46 -20 -78 -34 -33 -14 -99 -40 -149 -57 -50 -17 -119
-44 -155 -61 -35 -16 -87 -36 -114 -44 -27 -8 -79 -28 -116 -45 -74 -34 -160
-59 -199 -59 -29 0 -107 -38 -172 -84 -56 -39 -180 -103 -277 -141 -38 -15
-74 -30 -80 -34 -5 -4 -30 -13 -55 -20 -25 -6 -54 -16 -65 -20 -28 -12 -128
-39 -205 -55 -94 -20 -233 -55 -325 -82 -44 -13 -102 -28 -130 -34 -27 -5 -66
-14 -85 -19 -158 -44 -260 -64 -260 -51 0 13 50 50 79 57 42 10 264 139 281
163 3 4 24 20 46 36 140 98 165 114 171 114 5 1 40 28 78 60 39 33 90 69 115
81 25 11 53 27 62 36 17 15 157 69 208 80 14 3 67 25 118 49 59 28 127 52 188
64 107 22 174 55 242 119 24 23 56 44 70 48 15 3 50 16 77 28 50 23 138 53
330 115 91 29 136 40 290 70 51 10 195 28 275 34 108 9 282 29 365 42 50 9
116 19 149 24 32 5 61 11 64 14 3 3 17 6 30 6 23 0 24 -1 9 -18z m73 -102 c-6
-12 -16 -62 -21 -112 -5 -49 -11 -94 -14 -98 -3 -5 -47 -32 -98 -60 -135 -74
-169 -94 -237 -142 -56 -39 -133 -87 -170 -105 -8 -4 -49 -28 -90 -53 -41 -25
-86 -51 -100 -57 -137 -64 -180 -83 -185 -83 -3 0 -24 -8 -48 -19 -48 -21
-143 -52 -232 -77 -33 -9 -73 -22 -90 -30 -16 -7 -68 -27 -115 -44 -47 -17
-128 -49 -180 -71 -52 -21 -98 -39 -102 -39 -4 0 -32 -11 -63 -25 -30 -14 -80
-36 -111 -51 -74 -33 -227 -84 -284 -94 -40 -7 -129 -30 -323 -84 -32 -9 -71
-16 -86 -16 -16 0 -47 -6 -69 -14 -22 -8 -66 -17 -98 -21 -33 -4 -84 -14 -114
-22 -56 -15 -82 -21 -180 -44 -71 -16 -141 -5 -179 27 -22 18 -36 23 -59 18
-20 -4 -38 -1 -53 9 -12 9 -47 24 -78 33 -80 23 -111 35 -111 44 0 4 33 12 73
19 130 23 260 53 353 82 17 5 40 9 52 9 11 0 24 5 27 10 3 6 19 10 34 10 15 0
54 9 87 19 32 11 95 27 139 37 44 9 98 23 120 31 22 8 65 19 95 24 182 30 562
178 694 269 58 40 145 80 175 80 27 0 159 43 208 69 22 11 62 26 89 32 27 7
78 27 114 45 61 30 159 69 205 81 19 5 46 16 155 65 86 38 105 47 140 61 82
33 214 93 335 152 338 164 398 189 403 169 2 -7 -2 -22 -8 -34z m-73 -326 c3
-10 1 -31 -6 -48 -6 -17 -17 -83 -23 -146 -15 -161 -38 -207 -183 -354 -52
-53 -185 -169 -214 -187 -16 -10 -32 -22 -35 -28 -6 -9 -93 -71 -100 -71 -2 0
-34 -18 -70 -40 -36 -22 -70 -40 -76 -40 -5 0 -56 -22 -112 -49 -270 -129
-359 -171 -366 -171 -4 0 -70 -24 -147 -54 -226 -87 -306 -109 -320 -86 -12
20 -65 9 -154 -30 -123 -53 -188 -69 -311 -72 -112 -2 -237 9 -246 23 -3 5
-13 9 -23 9 -29 0 -233 70 -276 94 -22 13 -51 27 -65 31 -14 4 -43 20 -65 35
-41 27 -106 50 -144 50 -11 0 -21 3 -21 8 0 8 79 42 100 42 8 0 57 14 109 30
51 17 109 30 128 30 20 0 56 6 82 14 48 15 208 56 321 82 36 8 88 22 115 30
28 7 75 18 103 24 66 12 213 68 349 131 34 16 64 29 68 29 4 0 21 6 38 14 84
36 159 66 227 90 41 15 89 34 107 41 43 19 167 60 223 74 42 11 108 37 205 80
22 10 65 29 95 42 30 13 66 31 80 40 14 9 59 34 100 56 115 62 139 76 225 135
44 30 116 74 160 97 44 23 84 47 90 52 14 14 25 11 32 -7z m-152 -641 c-9 -26
-36 -85 -61 -130 -46 -85 -168 -255 -188 -262 -21 -8 -70 -53 -103 -96 -44
-58 -217 -187 -273 -204 -70 -21 -148 -51 -225 -86 -133 -61 -530 -182 -725
-221 -92 -18 -264 -6 -378 26 -110 31 -258 97 -349 156 -45 29 -96 59 -115 67
-18 8 -39 22 -47 31 -13 16 -12 17 15 10 16 -3 54 -15 84 -26 118 -42 185 -55
345 -64 110 -7 204 6 288 39 28 11 71 19 94 19 46 -2 116 14 208 48 33 12 71
24 85 27 23 4 36 9 93 33 12 5 58 21 102 36 44 15 87 33 96 41 8 7 24 13 35
13 11 0 69 25 129 55 61 30 113 55 117 55 4 0 56 23 115 51 59 28 131 62 160
76 64 29 186 108 236 152 20 18 50 42 66 54 16 12 69 54 118 94 48 39 89 68
91 63 2 -5 -4 -30 -13 -57z"/>
<path d="M8970 4951 c0 -13 26 -32 33 -24 14 13 6 33 -13 33 -11 0 -20 -4 -20
-9z"/>
</g>
</svg>
