<?xml version="1.0" standalone="no"?>
<!DOCTYPE svg PUBLIC "-//W3C//DTD SVG 20010904//EN"
 "http://www.w3.org/TR/2001/REC-SVG-20010904/DTD/svg10.dtd">
<svg version="1.0" xmlns="http://www.w3.org/2000/svg"
 width="2090.000000pt" height="816.000000pt" viewBox="0 0 2090.000000 816.000000"
 preserveAspectRatio="xMidYMid meet">

<g transform="translate(0.000000,816.000000) scale(0.100000,-0.100000)"
fill="#000000" stroke="none">
<path d="M2381 7386 c-24 -7 -52 -23 -63 -37 -11 -13 -28 -34 -39 -47 -11 -13
-23 -45 -26 -72 -5 -41 -1 -59 23 -107 50 -102 71 -126 127 -146 113 -38 173
-57 185 -57 8 0 48 -14 89 -30 42 -17 113 -39 157 -50 197 -46 188 -40 169
-117 -17 -65 -58 -156 -79 -174 -8 -6 -14 -24 -14 -40 0 -15 -7 -35 -16 -44
-9 -9 -25 -47 -35 -85 -9 -37 -24 -82 -33 -98 -8 -16 -24 -76 -36 -132 -12
-58 -34 -128 -50 -159 -45 -86 -76 -159 -105 -241 -33 -93 -128 -305 -172
-383 -38 -67 -93 -225 -93 -265 0 -15 -8 -50 -18 -77 -10 -28 -24 -77 -31
-110 -7 -33 -17 -69 -21 -80 -18 -43 -80 -235 -80 -247 0 -7 -7 -26 -16 -43
-26 -49 -74 -205 -74 -239 0 -17 -6 -40 -13 -51 -8 -11 -21 -61 -30 -111 -9
-50 -24 -104 -32 -121 -9 -18 -15 -61 -16 -108 -1 -63 3 -82 19 -104 21 -29 2
-26 247 -29 66 -1 129 -2 140 -2 457 -8 789 -9 825 -1 25 6 84 11 130 12 47 1
112 5 145 9 33 5 152 11 265 15 113 3 248 9 300 13 177 13 427 -22 495 -68 6
-4 44 -20 85 -35 41 -15 82 -33 90 -39 8 -7 32 -21 53 -31 21 -11 45 -28 54
-37 9 -10 22 -18 30 -18 7 0 13 -3 13 -8 0 -11 -30 -52 -67 -92 -18 -19 -33
-38 -33 -42 0 -4 -6 -13 -14 -20 -7 -8 -21 -30 -31 -48 -10 -19 -35 -61 -56
-92 -22 -31 -39 -60 -39 -63 0 -4 -9 -20 -21 -36 -11 -16 -36 -62 -56 -101
-20 -40 -43 -82 -53 -93 -32 -39 -153 -237 -169 -278 -9 -23 -35 -76 -57 -117
-55 -99 -142 -265 -166 -315 -10 -22 -23 -47 -28 -55 -58 -92 -111 -242 -130
-370 -5 -36 -15 -87 -21 -115 -5 -27 -14 -87 -18 -131 -7 -64 -13 -86 -30
-103 -19 -19 -27 -21 -52 -12 -16 5 -29 6 -29 2 0 -14 29 -33 40 -26 5 3 10 2
10 -3 0 -5 -15 -15 -32 -22 -73 -27 -268 -128 -342 -177 -44 -29 -86 -53 -93
-53 -7 0 -13 -4 -13 -10 0 -5 -6 -10 -12 -10 -7 0 -45 -28 -83 -63 -39 -34
-90 -77 -113 -95 -82 -65 -168 -197 -172 -262 -6 -104 -2 -119 45 -169 38 -40
53 -50 88 -53 97 -11 280 35 333 83 11 11 24 19 28 19 5 0 37 20 72 45 34 25
85 54 111 66 73 31 114 63 220 172 131 134 121 123 178 197 27 36 72 86 100
112 45 43 55 47 97 48 53 0 141 -21 186 -44 17 -9 48 -16 68 -16 20 0 55 -5
78 -11 88 -23 182 -52 215 -65 18 -8 54 -17 80 -20 48 -6 223 -56 276 -79 17
-7 59 -21 95 -30 90 -24 148 -43 197 -66 24 -10 51 -19 60 -19 10 0 63 -16
118 -36 55 -20 145 -48 200 -63 55 -16 111 -33 125 -38 14 -6 52 -18 85 -28
33 -10 87 -26 119 -36 33 -11 66 -19 74 -19 8 0 35 -15 61 -33 49 -35 86 -50
166 -66 28 -6 73 -18 100 -26 28 -8 77 -22 110 -31 33 -9 71 -20 85 -24 14 -5
68 -18 120 -30 52 -12 113 -28 135 -37 37 -15 149 -46 205 -59 14 -2 39 -9 55
-14 50 -14 126 -32 220 -51 50 -10 108 -23 130 -29 22 -6 74 -14 115 -19 41
-4 120 -23 175 -40 126 -41 257 -68 410 -87 66 -8 131 -18 145 -23 14 -5 85
-15 159 -21 74 -7 159 -18 188 -26 30 -8 68 -14 86 -14 39 0 49 -7 64 -42 15
-34 23 -35 47 -3 17 22 23 24 70 19 28 -3 66 -12 84 -20 18 -7 70 -16 115 -19
45 -4 111 -11 147 -17 36 -5 108 -12 161 -15 86 -5 97 -3 103 13 14 35 -15 45
-185 60 -431 40 -479 49 -479 99 0 36 -10 55 -31 55 -15 0 -18 -7 -16 -37 l2
-38 -65 1 c-78 1 -254 23 -430 54 -30 5 -91 14 -135 20 -44 5 -98 14 -120 19
-22 6 -83 19 -135 31 -104 23 -138 31 -220 54 -30 8 -96 22 -147 31 -51 8
-127 24 -170 34 -43 10 -105 24 -138 31 -82 17 -213 49 -251 60 -17 6 -37 10
-44 10 -14 0 -97 24 -214 61 -33 10 -70 19 -83 19 -13 0 -63 13 -111 29 -100
33 -198 61 -295 84 -38 10 -87 30 -110 47 -38 26 -88 44 -197 70 -80 19 -107
27 -128 39 -13 7 -80 28 -149 47 -70 19 -141 41 -158 50 -16 8 -61 23 -100 33
-38 11 -95 30 -126 44 -31 14 -90 35 -130 47 -41 12 -89 28 -107 36 -18 8 -41
14 -50 14 -10 0 -22 4 -28 9 -9 10 -122 43 -209 62 -94 20 -120 28 -205 58
-46 17 -118 36 -160 42 -41 7 -83 16 -92 20 -29 15 -139 44 -253 66 -43 8 -55
21 -56 62 -1 50 -22 105 -42 109 -14 3 -17 -6 -17 -53 0 -41 -3 -56 -12 -52
-21 6 -13 222 9 256 l17 26 6 -30 c12 -65 60 -29 60 45 0 16 7 45 17 64 13 29
14 38 3 51 -18 22 -27 19 -47 -15 -24 -41 -33 -38 -33 13 1 53 20 129 60 237
18 47 34 95 37 108 3 12 9 25 14 28 5 3 9 16 9 30 0 14 11 46 24 72 23 46 81
218 107 316 11 45 36 84 114 180 49 60 69 89 89 126 24 42 18 35 111 143 41
48 75 94 75 102 0 8 19 36 43 63 23 27 59 69 80 93 20 24 51 53 68 64 16 11
39 35 50 53 19 29 39 42 39 25 0 -5 -22 -33 -50 -63 -54 -60 -66 -104 -30
-115 21 -7 60 10 60 25 0 13 69 89 92 101 19 10 40 0 112 -55 21 -16 62 -42
91 -57 29 -15 75 -43 104 -63 28 -20 54 -36 57 -36 4 0 28 -16 54 -35 26 -19
51 -35 55 -35 9 0 73 -49 110 -84 16 -16 62 -44 102 -62 39 -19 86 -46 103
-61 34 -28 87 -59 159 -94 25 -12 51 -27 58 -35 8 -8 19 -14 25 -14 6 0 40
-14 77 -31 102 -49 181 -85 234 -109 27 -12 47 -26 45 -33 -2 -7 -23 -21 -46
-32 -44 -20 -64 -57 -44 -77 10 -10 57 6 124 43 10 5 27 9 37 9 11 0 23 5 26
10 9 14 47 12 70 -4 11 -7 47 -21 80 -31 33 -9 65 -20 70 -25 35 -27 272 -87
301 -76 21 8 196 -31 205 -46 6 -8 9 -9 9 -2 0 8 36 12 110 12 73 1 110 -2
110 -10 0 -6 6 -5 17 3 12 10 17 11 20 2 3 -8 11 -8 30 2 14 7 32 11 39 8 8
-3 21 0 29 7 9 7 18 10 22 7 3 -4 -2 -9 -11 -13 -12 -5 -14 -10 -6 -20 8 -9 8
-19 1 -32 -8 -16 -6 -25 12 -44 13 -14 29 -39 36 -56 19 -45 71 -56 71 -16 0
25 -54 134 -66 134 -7 0 -14 7 -18 15 -3 8 -1 15 3 15 5 0 11 -6 13 -12 3 -7
7 -3 10 8 4 17 2 20 -13 17 -11 -3 -19 -1 -19 5 0 6 27 19 60 28 51 14 69 26
113 74 53 57 79 112 111 235 23 89 -7 248 -65 341 -25 42 -25 44 16 37 28 -4
41 -1 58 15 12 11 41 30 64 42 28 14 40 26 36 36 -3 8 -9 14 -13 14 -26 0
-174 -41 -187 -52 -13 -11 -18 -9 -32 11 -9 12 -42 51 -73 84 -31 34 -73 81
-92 105 -38 47 -137 139 -200 187 -21 16 -50 47 -65 69 -14 21 -39 57 -54 80
-26 38 -27 47 -24 126 3 80 6 90 47 158 38 65 50 76 103 103 32 16 65 29 72
29 7 0 18 7 25 15 7 8 28 15 46 15 32 0 33 -1 27 -30 -4 -22 -2 -30 8 -30 17
0 169 -97 184 -116 9 -13 18 -12 60 7 28 12 63 25 80 29 38 7 45 36 12 51 -18
8 -35 7 -71 -5 -45 -16 -78 -11 -96 14 -3 3 -31 21 -62 39 -61 34 -72 51 -35
52 31 1 67 4 177 17 52 7 124 12 159 12 36 0 103 7 150 15 47 8 118 20 156 26
39 6 102 18 140 26 39 8 97 19 130 24 175 27 262 48 320 79 28 15 96 41 152
59 56 18 107 39 114 47 6 8 17 14 25 14 11 0 113 26 239 62 22 7 62 22 88 34
39 18 61 22 123 19 41 -1 80 -7 87 -13 21 -17 128 -31 159 -20 15 6 49 7 76 4
26 -4 126 -11 222 -15 96 -5 200 -14 230 -20 30 -6 70 -13 88 -16 153 -21 206
-50 222 -120 13 -60 -18 -160 -70 -227 -63 -79 -190 -194 -267 -241 -87 -54
-108 -63 -201 -88 -42 -11 -90 -28 -107 -38 -16 -10 -50 -24 -75 -31 -141 -41
-217 -74 -264 -116 -41 -36 -47 -103 -16 -164 12 -24 29 -50 36 -58 16 -15 18
-32 5 -32 -5 0 -25 7 -46 16 -64 26 -94 -10 -35 -41 38 -19 98 -85 123 -132
10 -19 24 -33 30 -30 21 7 20 68 -3 108 l-21 38 28 -9 c15 -5 70 -25 122 -44
51 -20 100 -36 107 -36 13 0 109 -40 146 -60 10 -6 25 -10 33 -10 8 0 23 -4
33 -9 9 -5 53 -19 97 -31 44 -13 114 -33 155 -45 41 -13 91 -23 111 -23 33 0
178 -40 288 -79 25 -9 60 -27 80 -40 19 -13 46 -26 60 -29 52 -12 164 -74 213
-119 27 -25 56 -45 64 -45 8 0 14 -4 14 -9 0 -5 8 -12 18 -15 38 -14 71 -38
104 -73 38 -42 92 -83 107 -83 6 0 16 -10 22 -22 7 -13 20 -30 29 -38 9 -8 38
-53 63 -99 63 -112 85 -201 107 -426 5 -55 12 -119 16 -143 15 -92 -51 -381
-97 -425 -11 -10 -19 -22 -19 -27 0 -13 -52 -94 -78 -122 -41 -44 -62 -71 -62
-80 0 -6 -9 -21 -20 -35 -11 -14 -20 -32 -20 -41 0 -8 -16 -37 -35 -63 -19
-27 -35 -52 -35 -56 0 -20 -65 -143 -75 -143 -7 0 -17 12 -23 28 -5 15 -17 45
-25 67 -19 52 -47 60 -47 13 0 -18 7 -51 15 -73 8 -22 14 -65 15 -96 0 -56 -1
-57 -62 -120 -64 -65 -172 -157 -256 -217 -26 -19 -54 -40 -62 -47 -35 -31
-412 -221 -505 -255 -219 -78 -377 -122 -515 -141 -41 -6 -100 -14 -130 -19
-30 -4 -80 -11 -110 -15 -66 -9 -90 -20 -90 -42 0 -14 12 -15 108 -9 59 3 129
13 156 21 27 8 76 17 109 20 33 3 64 8 69 11 5 4 39 12 76 20 82 17 181 48
247 78 28 13 63 26 80 30 16 4 52 18 80 30 27 13 61 27 75 31 14 4 30 11 35
15 6 4 53 30 105 57 160 84 183 97 230 130 25 18 50 37 56 41 5 5 21 15 35 22
13 7 61 46 105 86 45 41 85 74 89 74 9 0 20 12 95 100 35 41 67 77 71 80 6 5
39 74 81 170 11 25 24 52 29 60 42 67 52 80 56 80 3 0 3 -6 0 -13 -3 -8 3 -14
15 -14 14 -1 18 3 14 13 -3 8 3 23 14 34 11 11 17 26 14 34 -3 8 1 27 9 43 8
15 12 33 10 40 -2 6 5 16 15 22 21 11 82 103 82 122 0 6 11 24 25 40 23 28 32
54 69 189 18 68 39 217 32 229 -3 5 -6 53 -6 107 -1 98 -18 211 -46 310 -8 28
-14 64 -14 81 0 17 -8 41 -19 54 -10 13 -33 51 -51 84 -33 60 -125 165 -145
165 -5 0 -32 22 -60 48 -48 46 -137 112 -265 196 -78 52 -266 143 -335 163
-27 8 -77 22 -110 32 -33 10 -73 23 -90 30 -16 7 -57 17 -90 21 -33 5 -94 18
-135 29 -76 21 -318 103 -355 121 -33 16 -109 40 -127 40 -9 0 -31 16 -50 36
-18 20 -68 53 -110 75 -63 32 -81 46 -98 79 -11 21 -20 46 -20 53 0 21 76 87
99 87 11 0 23 5 26 10 3 6 17 10 30 10 13 0 27 5 30 10 3 5 16 10 29 10 12 0
26 4 32 8 5 5 29 15 54 22 25 8 66 24 92 37 26 13 55 23 65 23 59 0 230 92
312 167 31 28 65 60 76 70 37 33 155 181 155 194 0 7 4 26 9 43 28 90 29 106
15 153 -21 69 -64 109 -149 138 -76 25 -512 66 -741 69 -91 1 -114 4 -128 19
-10 9 -22 17 -27 17 -5 0 -9 5 -9 10 0 6 9 10 19 10 11 0 23 9 27 22 3 12 26
42 49 67 49 53 110 141 121 174 6 18 74 165 150 322 21 43 44 140 44 183 0 20
7 70 15 111 9 41 16 97 16 125 -1 28 3 85 8 126 7 57 6 85 -5 118 -8 23 -14
67 -14 97 0 42 -8 67 -35 120 -48 90 -82 143 -119 186 -17 20 -42 51 -56 69
-14 18 -49 63 -78 99 -28 36 -64 83 -80 104 -19 26 -49 48 -102 73 -41 19 -82
39 -90 43 -8 4 -19 21 -25 37 -5 16 -14 35 -18 41 -10 16 -111 63 -135 63 -9
0 -44 14 -76 30 -32 17 -63 30 -68 30 -10 0 -122 50 -160 71 -10 5 -29 9 -42
9 -14 0 -28 5 -31 10 -3 6 -14 10 -24 10 -10 0 -41 6 -67 14 -98 29 -342 67
-464 73 -41 2 -124 11 -185 21 -120 19 -493 21 -1220 9 -680 -11 -832 -10
-1210 13 -77 4 -156 6 -175 4 -34 -3 -199 -8 -679 -19 -128 -3 -252 -10 -275
-15 -22 -5 -88 -10 -146 -10 -122 0 -395 -24 -535 -47 -16 -2 -75 -6 -130 -9
-55 -2 -125 -8 -155 -13 -130 -23 -157 -23 -191 -4 -22 11 -58 18 -104 19 -38
1 -114 5 -167 9 -84 7 -100 11 -119 31 -25 27 -41 31 -33 9 10 -26 -30 -17
-121 25 -47 22 -91 40 -98 40 -7 0 -18 5 -25 12 -11 11 -39 22 -132 54 -25 8
-54 19 -65 24 -11 4 -46 15 -77 24 -32 9 -82 23 -110 31 -128 36 -243 43 -327
21z m156 -57 c12 -4 44 -9 72 -10 28 -2 51 -6 51 -10 0 -4 15 -9 33 -12 100
-17 212 -49 270 -78 22 -10 44 -19 50 -19 15 -1 57 -35 57 -47 0 -5 15 -9 33
-9 17 0 47 -8 64 -17 l33 -17 -21 -21 c-20 -20 -21 -20 -72 -2 -29 9 -77 30
-107 45 -30 16 -60 28 -67 28 -7 0 -21 4 -31 9 -9 5 -33 13 -52 19 -19 6 -80
25 -135 42 -92 30 -107 32 -189 26 -49 -3 -96 -11 -104 -18 -8 -7 -24 -17 -36
-23 -11 -6 -23 -23 -26 -40 -7 -38 -21 -36 -42 6 -15 29 -16 41 -6 71 9 30 21
42 61 62 50 25 120 31 164 15z m141 -150 c42 -12 96 -27 119 -33 23 -7 45 -15
49 -19 4 -4 16 -7 27 -7 11 0 53 -16 94 -35 41 -19 80 -35 86 -35 7 0 25 -11
42 -24 26 -21 28 -26 18 -48 -10 -21 -16 -24 -59 -22 -71 4 -117 13 -128 24
-6 6 -20 10 -33 10 -12 0 -38 9 -58 20 -20 11 -42 20 -49 20 -8 0 -27 7 -42
15 -16 8 -36 15 -45 15 -19 0 -136 52 -197 87 -34 20 -40 28 -31 39 17 21 117
17 207 -7z m3399 -32 c91 -9 125 -16 135 -28 15 -19 54 -37 158 -74 41 -14 87
-35 102 -45 33 -24 51 -25 68 -5 21 25 -14 63 -93 100 -69 32 -71 43 -7 37 76
-9 211 -9 285 -1 50 5 320 12 600 15 743 9 1037 5 1140 -16 49 -9 245 -38 315
-45 244 -26 467 -80 582 -141 14 -8 32 -14 39 -14 29 0 90 -36 95 -57 6 -24
23 -30 40 -13 13 13 54 1 54 -15 0 -8 17 -24 38 -36 20 -13 62 -42 92 -65 30
-23 79 -49 109 -59 29 -10 61 -25 70 -35 69 -74 104 -116 116 -140 8 -15 21
-30 30 -33 8 -4 15 -11 15 -17 0 -6 9 -20 20 -32 10 -12 17 -25 14 -29 -3 -5
13 -25 36 -45 22 -20 40 -43 40 -50 0 -8 5 -14 10 -14 6 0 16 -12 22 -27 7
-16 19 -37 28 -48 26 -32 59 -136 59 -185 0 -25 4 -57 9 -71 15 -38 -1 -227
-42 -487 -11 -67 -26 -118 -56 -178 -22 -47 -40 -90 -40 -95 0 -5 -18 -42 -39
-82 -21 -40 -42 -83 -46 -97 -18 -60 -121 -180 -154 -180 -11 0 -46 18 -77 40
-66 46 -94 51 -93 18 0 -15 15 -34 42 -53 39 -29 53 -59 38 -83 -19 -28 -212
-112 -326 -142 -127 -33 -136 -36 -190 -60 -22 -10 -74 -30 -116 -44 -43 -13
-94 -33 -115 -44 -80 -40 -192 -72 -324 -92 -67 -10 -133 -21 -210 -37 -13 -2
-56 -8 -95 -13 -115 -15 -148 -20 -190 -30 -22 -5 -95 -9 -163 -9 -68 0 -128
-3 -133 -7 -6 -3 -60 -9 -122 -14 -62 -4 -135 -16 -164 -25 -63 -22 -193 -94
-204 -115 -4 -8 -26 -46 -48 -85 -28 -49 -43 -91 -51 -138 -13 -83 -4 -123 45
-192 19 -27 44 -64 55 -82 12 -17 38 -44 58 -59 121 -91 232 -199 232 -225 0
-4 22 -29 48 -56 83 -83 170 -221 196 -312 23 -78 21 -177 -4 -226 -11 -22
-25 -56 -30 -75 -11 -41 -71 -110 -115 -132 -85 -43 -167 -58 -326 -58 -85 0
-172 5 -194 10 -22 5 -92 14 -155 19 -63 6 -142 20 -175 31 -133 43 -270 96
-405 156 -42 19 -81 34 -88 34 -6 0 -38 13 -70 30 -33 16 -65 30 -71 30 -11 0
-133 61 -280 140 -41 22 -86 50 -100 64 -14 13 -60 40 -101 60 -42 20 -100 58
-130 84 -30 26 -71 58 -91 70 -50 30 -63 48 -50 64 80 100 123 147 154 167 39
25 48 55 21 65 -22 8 -46 -8 -122 -81 -23 -23 -54 -49 -67 -57 -14 -9 -25 -24
-25 -34 0 -37 -15 -46 -52 -32 -18 8 -51 25 -73 39 -22 14 -57 33 -77 43 -21
9 -49 28 -62 41 -13 13 -41 35 -63 47 -74 45 -118 100 -79 100 17 0 28 24 20
45 -9 22 -39 18 -83 -10 -39 -26 -61 -26 -89 2 -7 7 -30 17 -52 23 -21 6 -65
26 -97 45 -66 39 -177 95 -188 95 -4 0 -35 13 -71 30 -35 16 -81 34 -103 40
-22 6 -43 15 -46 20 -14 23 51 81 143 126 54 27 66 50 37 74 -13 11 -32 1
-118 -57 -56 -38 -111 -83 -122 -100 l-20 -31 -150 1 c-82 1 -226 -4 -320 -11
-93 -7 -255 -16 -360 -21 -104 -6 -251 -16 -325 -23 -152 -14 -275 -15 -535
-6 -99 4 -225 7 -280 8 -120 0 -132 5 -110 46 8 16 15 46 15 67 0 29 -4 37
-19 37 -21 0 -47 -75 -38 -111 6 -21 4 -21 -59 -16 -59 4 -67 8 -99 43 -42 45
-43 62 -10 160 14 41 25 81 25 89 0 9 9 34 19 58 21 47 42 127 36 137 -3 4 5
31 16 61 11 30 25 66 31 82 7 19 17 27 34 27 26 0 27 6 24 86 -1 24 13 82 35
145 46 136 61 185 86 294 31 139 48 187 111 323 21 46 38 85 38 88 0 3 18 43
40 88 22 46 47 106 56 132 8 27 24 67 35 90 10 22 19 45 19 51 0 6 9 28 19 50
68 134 79 164 86 223 4 36 22 101 39 145 18 44 38 100 45 125 7 25 21 59 32
76 10 17 19 40 19 51 0 20 52 128 96 198 13 22 30 51 36 65 7 14 36 62 65 108
29 45 53 86 53 91 0 4 9 16 19 25 14 13 28 16 55 11 20 -4 39 -11 42 -16 3 -5
10 -7 15 -3 5 3 6 10 3 16 -5 7 -1 9 10 5 11 -4 25 3 43 23 31 36 46 37 65 9
l14 -22 59 21 c48 16 96 21 235 26 159 5 179 4 215 -14 22 -11 49 -19 60 -20
11 0 36 -10 55 -21 44 -27 154 -69 181 -69 26 0 37 30 16 41 -9 5 -23 16 -31
24 -8 8 -23 15 -34 15 -33 0 -82 21 -92 41 -12 21 -2 25 80 33 102 10 239 27
305 38 39 6 140 12 225 14 85 1 187 7 225 12 39 6 147 11 240 12 281 2 517 9
523 15 9 9 221 4 349 -8z m-3392 -167 c3 -5 -1 -10 -10 -10 -9 0 -13 5 -10 10
3 6 8 10 10 10 2 0 7 -4 10 -10z m145 -18 c0 -9 -44 -32 -60 -32 -18 0 -10 17
13 28 27 13 47 15 47 4z m119 -28 c31 -6 44 -24 17 -24 -7 0 -19 -7 -26 -15
-16 -19 -31 -19 -56 -1 -19 15 -19 15 1 30 23 18 23 18 64 10z m109 -46 c-2
-6 -10 -14 -16 -16 -7 -2 -10 2 -6 12 7 18 28 22 22 4z m1962 -3351 c0 -7 -15
-29 -32 -49 -18 -20 -53 -60 -78 -89 -25 -29 -60 -69 -78 -88 -18 -20 -41 -54
-52 -76 -25 -54 -89 -127 -90 -102 0 10 9 30 19 45 10 15 54 80 96 145 99 152
215 267 215 214z m-728 -1170 c-11 -23 -31 -78 -46 -122 -14 -44 -41 -125 -59
-180 -40 -120 -55 -181 -62 -255 -3 -30 -10 -80 -16 -110 -5 -30 -14 -85 -18
-121 -9 -78 -15 -89 -41 -82 -23 6 -23 5 -9 36 9 20 8 30 -6 51 -12 19 -16 39
-12 73 9 86 28 207 38 239 5 17 9 42 9 55 0 14 9 42 20 64 11 22 20 50 20 64
0 13 18 53 41 88 22 36 49 84 60 106 24 53 62 122 80 143 22 27 23 -4 1 -49z
m-222 -897 c0 -5 -12 -26 -26 -47 -31 -46 -86 -77 -123 -69 -15 4 -21 3 -14
-2 23 -15 -41 -77 -104 -102 -32 -13 -62 -26 -68 -30 -5 -4 -28 -13 -50 -20
-22 -7 -51 -21 -64 -31 -13 -11 -30 -19 -37 -19 -8 0 -14 -4 -14 -10 0 -5 -6
-10 -13 -10 -16 0 -133 -57 -160 -78 -104 -83 -207 -214 -207 -264 0 -32 40
-53 98 -52 69 0 129 21 236 79 45 23 92 46 106 50 14 4 46 22 71 40 26 18 62
41 80 51 19 9 36 20 39 24 11 16 85 50 88 40 4 -10 -59 -90 -94 -121 -24 -21
-133 -79 -148 -79 -7 0 -39 -19 -71 -43 -64 -45 -223 -127 -248 -127 -9 0 -18
-4 -21 -8 -10 -16 -138 -12 -166 5 -57 33 -75 107 -45 180 24 58 94 142 155
186 30 23 78 62 105 88 28 25 68 55 90 66 68 33 159 87 183 110 6 6 22 15 35
18 24 8 121 50 149 65 10 6 31 10 47 10 17 0 33 5 36 10 3 6 14 10 24 10 11 0
30 19 47 45 22 36 34 45 56 45 15 0 28 -4 28 -10z m17 -156 c2 -6 -6 -21 -17
-35 -12 -13 -30 -34 -41 -47 -10 -12 -19 -26 -19 -30 0 -13 -69 -65 -132 -101
-31 -18 -62 -39 -68 -46 -7 -8 -17 -15 -22 -15 -6 0 -38 -22 -73 -50 -35 -27
-65 -50 -68 -50 -2 0 -58 -25 -123 -57 -65 -31 -132 -60 -149 -64 -16 -4 -39
-10 -50 -13 -31 -9 -49 8 -41 38 8 32 163 166 226 197 25 11 54 26 65 32 106
56 209 106 250 121 50 18 68 29 175 99 54 36 80 42 87 21z"/>
<path d="M7389 7085 c-50 -26 -65 -47 -45 -64 8 -7 21 -6 40 4 16 8 39 15 51
15 54 0 76 38 36 60 -26 13 -29 13 -82 -15z"/>
<path d="M7010 6971 c-36 -19 -56 -36 -58 -50 -4 -28 12 -27 82 4 31 14 63 25
71 25 18 0 20 21 3 38 -18 18 -38 15 -98 -17z"/>
<path d="M5000 6951 c-14 -5 -46 -18 -72 -30 -39 -17 -48 -26 -48 -46 0 -30
10 -31 80 -4 30 12 65 23 77 26 26 6 37 31 22 49 -13 15 -22 16 -59 5z"/>
<path d="M6686 6934 c-9 -8 -14 -19 -11 -24 6 -9 151 -80 164 -80 5 0 20 -12
34 -26 15 -15 33 -24 41 -21 19 8 36 40 28 54 -8 12 -213 113 -230 113 -6 0
-18 -7 -26 -16z"/>
<path d="M3426 6904 c-3 -9 -6 -24 -6 -35 0 -10 -4 -19 -9 -19 -5 0 -14 -13
-19 -30 -6 -16 -22 -45 -36 -63 -34 -45 -34 -112 0 -89 17 12 52 76 47 89 -5
13 19 63 49 104 20 26 16 59 -7 59 -7 0 -16 -7 -19 -16z"/>
<path d="M4510 6890 c-14 -27 -9 -34 40 -50 66 -22 68 -34 11 -77 -48 -37 -63
-65 -40 -78 14 -9 120 33 141 56 11 14 24 17 45 13 20 -4 33 -1 42 10 11 14 8
22 -20 55 -26 29 -52 45 -109 65 -91 31 -96 32 -110 6z"/>
<path d="M9250 6846 c-38 -14 -52 -42 -25 -52 8 -4 43 0 76 7 51 11 59 16 57
34 -4 25 -56 30 -108 11z"/>
<path d="M6562 6765 c-37 -20 -72 -57 -72 -76 0 -28 18 -32 42 -9 12 11 39 26
60 32 45 13 61 29 52 52 -7 19 -49 20 -82 1z"/>
<path d="M8945 6720 c-22 -12 -66 -30 -97 -40 -94 -33 -126 -51 -133 -78 -3
-13 -4 -27 -1 -30 3 -3 30 7 60 21 30 15 61 27 69 27 8 0 41 13 73 29 33 16
69 32 82 35 24 8 28 26 10 44 -16 16 -17 16 -63 -8z"/>
<path d="M7137 6713 c-4 -3 -7 -15 -7 -25 0 -13 21 -28 76 -53 42 -19 100 -51
127 -71 54 -39 79 -38 85 3 2 16 -12 28 -70 58 -197 103 -197 103 -211 88z"/>
<path d="M5020 6651 c0 -20 53 -51 88 -51 18 0 183 -80 209 -102 7 -5 34 -10
60 -11 38 -2 48 1 51 15 3 14 -13 25 -61 48 -36 16 -70 30 -76 30 -5 0 -32 13
-58 28 -64 37 -98 49 -160 57 -48 5 -53 4 -53 -14z"/>
<path d="M3184 6533 c-72 -123 -91 -183 -56 -183 25 0 62 53 62 88 0 16 13 45
30 68 34 45 39 74 11 74 -12 0 -29 -17 -47 -47z"/>
<path d="M4200 6572 c-68 -31 -129 -76 -135 -99 -3 -14 -4 -27 -2 -30 3 -2 44
16 93 40 76 37 89 47 92 70 3 28 -13 35 -48 19z"/>
<path d="M6110 6561 c-52 -20 -142 -70 -152 -85 -8 -12 0 -33 17 -40 8 -3 31
8 52 23 22 16 72 39 111 51 71 22 83 35 60 58 -16 16 -34 15 -88 -7z"/>
<path d="M8379 6471 c-104 -43 -162 -92 -144 -121 9 -14 43 -12 52 3 8 14 82
51 143 73 27 9 35 18 35 36 0 30 -26 33 -86 9z"/>
<path d="M7733 6393 c-7 -18 -6 -19 109 -93 42 -28 81 -57 86 -66 11 -20 41
-15 56 8 15 24 -9 47 -117 113 -93 58 -123 66 -134 38z"/>
<path d="M5673 6353 c-7 -2 -13 -13 -13 -24 0 -10 -7 -19 -15 -19 -8 0 -37
-13 -65 -30 -28 -16 -57 -30 -64 -30 -8 0 -19 -7 -26 -15 -7 -8 -17 -15 -22
-15 -19 0 -78 -53 -78 -71 0 -28 19 -33 43 -11 24 22 189 102 210 102 19 0 37
21 37 42 0 28 45 13 160 -53 14 -8 39 -27 57 -43 27 -24 35 -27 48 -16 20 17
19 43 -2 62 -69 60 -236 135 -270 121z"/>
<path d="M3848 6322 c-4 -12 -136 -102 -148 -102 -5 0 -10 -3 -10 -8 0 -4 -11
-14 -25 -22 -18 -12 -22 -19 -14 -30 8 -13 12 -12 28 7 21 26 60 50 153 95 44
22 67 39 68 51 0 11 -8 17 -24 17 -13 0 -26 -4 -28 -8z"/>
<path d="M7803 6172 c-49 -28 -63 -41 -63 -59 0 -13 2 -23 4 -23 14 0 163 64
175 75 21 20 6 45 -26 44 -15 -1 -56 -17 -90 -37z"/>
<path d="M2971 6132 c-24 -34 -51 -104 -58 -149 -4 -27 -2 -33 13 -33 11 0 30
12 43 26 20 21 22 29 13 49 -9 19 -7 32 13 71 23 45 24 64 5 64 -5 0 -18 -13
-29 -28z"/>
<path d="M3040 6091 c0 -24 28 -34 78 -28 17 3 32 1 32 -3 0 -4 19 -13 43 -20
23 -7 56 -19 73 -28 50 -24 88 6 49 38 -16 13 -156 47 -232 57 -39 4 -43 3
-43 -16z"/>
<path d="M8273 6043 c-7 -19 23 -46 94 -83 26 -13 62 -36 80 -50 78 -62 94
-71 109 -68 9 2 22 10 27 20 14 21 -3 43 -52 65 -20 9 -50 26 -66 38 -29 22
-169 95 -180 95 -3 0 -8 -7 -12 -17z"/>
<path d="M10145 6012 c-34 -18 -51 -34 -53 -49 -4 -30 18 -30 86 2 52 24 63
40 40 63 -16 16 -15 16 -73 -16z"/>
<path d="M6176 6022 c-9 -15 9 -30 89 -72 44 -23 87 -48 96 -56 8 -8 19 -14
23 -14 4 0 23 -15 42 -34 35 -34 57 -38 68 -10 10 26 -6 44 -76 89 -132 86
-225 123 -242 97z"/>
<path d="M5070 6003 c-25 -9 -47 -19 -50 -22 -3 -3 -24 -19 -47 -34 -32 -20
-43 -34 -43 -52 0 -34 20 -32 79 10 26 19 53 35 59 35 24 0 83 43 80 59 -4 22
-25 23 -78 4z"/>
<path d="M3323 5985 c-61 -28 -153 -110 -153 -136 0 -27 15 -31 36 -8 26 29
92 73 134 89 42 15 71 46 63 65 -7 20 -19 19 -80 -10z"/>
<path d="M7345 5910 c-63 -32 -125 -85 -125 -106 0 -26 22 -25 62 3 23 15 69
42 102 59 43 21 61 36 61 50 0 30 -33 28 -100 -6z"/>
<path d="M3586 5901 c-12 -18 2 -29 43 -36 26 -4 45 -15 56 -31 8 -13 20 -24
26 -24 16 0 97 -39 104 -50 3 -5 17 -10 31 -10 18 0 24 5 24 23 0 26 -44 57
-81 57 -12 0 -31 8 -41 17 -16 14 -80 42 -139 60 -9 2 -20 0 -23 -6z"/>
<path d="M9792 5858 c-68 -34 -82 -45 -80 -62 5 -32 31 -30 110 7 40 20 81 38
91 41 12 4 17 14 15 28 -5 36 -44 32 -136 -14z"/>
<path d="M2810 5751 c0 -10 -6 -31 -14 -46 -8 -16 -20 -59 -27 -96 -10 -55
-10 -71 1 -84 7 -8 16 -15 21 -15 4 0 37 28 72 63 35 34 77 69 93 77 64 32 95
80 60 93 -17 7 -81 -37 -145 -97 l-43 -41 6 40 c3 22 9 59 12 83 6 38 5 42
-15 42 -14 0 -21 -6 -21 -19z"/>
<path d="M4656 5720 c-35 -24 -53 -48 -55 -72 -2 -19 43 -5 94 27 36 24 55 42
55 55 0 29 -46 25 -94 -10z"/>
<path d="M4138 5663 c-39 -6 -35 -29 6 -37 19 -4 49 -17 67 -29 37 -25 124
-67 137 -67 5 0 17 -9 27 -20 11 -12 31 -20 51 -20 87 0 26 63 -126 130 -63
27 -119 49 -125 49 -5 -1 -22 -4 -37 -6z"/>
<path d="M6771 5657 c-8 -10 -9 -17 -1 -22 22 -14 8 -34 -45 -61 -41 -22 -55
-35 -55 -51 0 -12 4 -24 8 -27 5 -3 46 13 91 35 l82 39 57 -39 c31 -21 68 -51
81 -65 34 -36 61 -35 61 3 0 23 -11 38 -54 72 -49 40 -53 47 -48 77 4 28 2 32
-19 34 -72 4 -87 6 -115 12 -21 6 -34 3 -43 -7z"/>
<path d="M8833 5653 c-22 -8 -14 -30 16 -43 26 -10 114 -96 164 -159 20 -25
44 -25 61 1 9 15 -2 30 -69 99 -44 44 -87 84 -95 88 -23 12 -63 20 -77 14z"/>
<path d="M9335 5602 c-83 -40 -171 -98 -179 -117 -18 -48 9 -61 48 -22 21 21
167 99 209 111 22 7 20 49 -3 54 -8 1 -42 -11 -75 -26z"/>
<path d="M4280 5462 c-8 -2 -33 -19 -55 -36 -22 -18 -58 -43 -80 -56 -48 -29
-85 -66 -85 -86 0 -22 35 -17 68 11 17 14 33 25 37 25 3 0 25 12 48 28 23 15
51 32 61 38 11 6 24 18 30 26 13 21 -4 57 -24 50z"/>
<path d="M8820 5339 c-67 -36 -100 -64 -100 -83 0 -27 19 -27 57 -1 21 14 43
25 48 25 18 0 115 49 115 58 0 15 -24 32 -44 31 -12 0 -46 -14 -76 -30z"/>
<path d="M2667 5304 c-44 -67 -45 -77 -13 -97 26 -18 36 -13 36 16 0 10 9 32
20 47 11 16 23 42 26 59 6 26 3 31 -13 31 -12 0 -32 -20 -56 -56z"/>
<path d="M4881 5306 c-10 -12 -2 -19 43 -39 49 -23 137 -81 216 -145 37 -29
82 -38 98 -19 10 11 2 20 -41 47 -28 19 -83 56 -121 84 -115 83 -169 103 -195
72z"/>
<path d="M6205 5252 c-67 -36 -92 -54 -99 -75 -15 -42 4 -53 40 -22 25 23 135
80 187 98 9 4 17 16 17 27 0 33 -46 24 -145 -28z"/>
<path d="M7327 5254 c-15 -16 -5 -31 28 -43 37 -13 46 -20 151 -118 68 -64
114 -82 114 -45 0 25 -141 156 -200 187 -34 17 -84 27 -93 19z"/>
<path d="M9343 5253 c-14 -5 -18 -33 -5 -33 4 0 20 -11 36 -25 16 -14 32 -25
35 -25 3 0 26 -25 50 -55 32 -40 51 -55 65 -53 38 5 29 36 -26 94 -76 81 -123
110 -155 97z"/>
<path d="M8280 5095 c-93 -62 -120 -85 -120 -101 0 -8 7 -14 16 -14 18 0 133
56 155 76 8 8 28 14 43 14 37 0 46 28 17 52 -13 10 -28 17 -35 17 -6 -1 -40
-21 -76 -44z"/>
<path d="M3789 5094 c-13 -14 -46 -38 -74 -54 -28 -16 -61 -40 -74 -54 -20
-21 -22 -28 -11 -41 13 -16 40 -21 40 -7 0 5 43 37 95 71 104 68 108 72 99 95
-9 24 -48 19 -75 -10z"/>
<path d="M2579 5008 c-7 -18 -21 -45 -31 -60 -27 -39 -34 -110 -13 -131 22
-23 35 -13 35 28 0 19 14 63 32 99 31 63 32 96 5 96 -8 0 -20 -15 -28 -32z"/>
<path d="M5863 4989 c-13 -13 -36 -27 -111 -66 -48 -25 -55 -26 -85 -14 -59
24 -128 43 -134 37 -11 -10 20 -56 36 -56 9 0 26 -7 38 -15 19 -13 21 -19 11
-40 -6 -13 -8 -31 -5 -39 6 -14 11 -13 41 5 l35 21 38 -28 c21 -16 53 -43 71
-61 34 -34 56 -41 67 -22 8 12 -36 83 -73 117 -24 23 -24 23 -6 44 11 11 38
29 60 39 53 24 71 45 58 67 -14 21 -27 25 -41 11z"/>
<path d="M7828 4902 c-25 -5 -22 -29 5 -43 12 -6 50 -37 83 -68 131 -120 140
-125 165 -95 15 18 12 21 -127 138 -74 62 -98 75 -126 68z"/>
<path d="M7679 4789 c-84 -44 -119 -72 -119 -95 0 -22 28 -29 48 -11 24 22
131 73 170 82 38 8 50 28 32 50 -19 23 -49 18 -131 -26z"/>
<path d="M3310 4728 c-19 -17 -53 -47 -76 -67 -44 -39 -57 -62 -48 -86 8 -19
44 -20 44 -1 0 15 122 126 138 126 6 0 18 7 27 16 12 12 13 19 4 30 -18 22
-51 16 -89 -18z"/>
<path d="M2471 4646 c-12 -18 -21 -40 -21 -48 0 -8 -3 -18 -7 -22 -15 -15 -31
-101 -22 -118 19 -35 42 -15 53 46 7 34 18 64 49 133 5 11 6 26 3 32 -13 20
-34 11 -55 -23z"/>
<path d="M5369 4622 c-13 -10 -40 -26 -59 -34 -67 -31 -120 -76 -120 -102 0
-38 15 -39 57 -4 22 18 71 49 111 68 56 27 72 39 72 56 0 12 -7 25 -16 28 -21
8 -18 9 -45 -12z"/>
<path d="M8210 4585 c-18 -22 -6 -41 46 -77 52 -36 98 -80 122 -116 10 -16 23
-22 41 -20 41 5 40 46 -1 84 -39 37 -180 144 -189 144 -4 0 -12 -7 -19 -15z"/>
<path d="M6177 4553 c-15 -14 -5 -29 31 -46 20 -10 60 -39 87 -64 132 -123
220 -175 240 -143 7 12 -6 26 -55 60 -19 13 -37 27 -40 30 -27 30 -162 141
-187 154 -33 17 -65 21 -76 9z"/>
<path d="M7194 4513 c-23 -16 -59 -40 -80 -54 -58 -39 -106 -87 -102 -101 8
-22 36 -20 60 2 35 33 147 104 182 115 24 8 31 16 31 35 0 36 -40 37 -91 3z"/>
<path d="M2911 4366 c-43 -44 -52 -78 -21 -83 23 -4 124 92 117 111 -11 29
-51 18 -96 -28z"/>
<path d="M4915 4291 c-57 -57 -73 -90 -49 -98 5 -2 34 18 63 44 29 26 62 52
74 58 31 15 29 49 -3 53 -20 2 -39 -11 -85 -57z"/>
<path d="M2342 4238 c-7 -7 -12 -20 -12 -30 0 -11 -9 -36 -20 -58 -30 -60 -23
-89 19 -75 27 8 60 163 36 172 -6 2 -16 -2 -23 -9z"/>
<path d="M6644 4209 c-10 -11 -52 -43 -94 -70 -119 -77 -120 -78 -120 -104 0
-29 12 -29 55 1 17 11 38 23 48 27 9 3 41 25 71 47 30 23 67 45 83 49 33 9 42
39 17 58 -25 18 -38 16 -60 -8z"/>
<path d="M6727 4136 c-6 -15 31 -56 50 -56 6 0 26 -18 43 -40 33 -42 57 -51
67 -24 9 24 -18 64 -67 100 -48 35 -84 43 -93 20z"/>
<path d="M2633 4052 c-32 -38 -73 -79 -91 -91 -24 -16 -32 -28 -30 -44 6 -43
36 -30 115 53 84 87 99 110 90 134 -11 27 -24 18 -84 -52z"/>
<path d="M6155 3857 c-16 -12 -46 -38 -66 -57 -20 -19 -51 -48 -68 -63 -18
-16 -30 -34 -28 -40 9 -27 40 -16 95 33 31 28 76 63 100 77 32 19 42 31 40 47
-4 29 -37 31 -73 3z"/>
<path d="M7082 3858 c-9 -9 -1 -19 31 -42 23 -16 68 -54 99 -83 31 -29 63 -53
70 -53 15 0 38 19 38 31 0 3 -39 41 -87 83 -87 77 -123 92 -151 64z"/>
<path d="M3230 7239 c0 -5 5 -7 10 -4 6 3 10 8 10 11 0 2 -4 4 -10 4 -5 0 -10
-5 -10 -11z"/>
<path d="M15200 6481 c-43 -13 -134 -63 -147 -80 -75 -97 -143 -198 -143 -213
0 -11 -4 -27 -9 -37 -22 -41 -21 -111 3 -184 13 -40 28 -101 34 -137 12 -79
83 -231 146 -314 48 -63 48 -69 7 -113 -12 -12 -21 -27 -21 -32 0 -6 -19 -30
-43 -53 -24 -24 -57 -64 -74 -89 -17 -25 -50 -62 -72 -82 -22 -20 -52 -56 -67
-79 -14 -24 -42 -68 -62 -98 -20 -30 -45 -71 -57 -90 -51 -82 -176 -258 -262
-367 -34 -43 -111 -143 -170 -223 -60 -80 -123 -160 -141 -178 -17 -18 -54
-68 -83 -110 -28 -42 -70 -100 -93 -129 -23 -28 -61 -81 -86 -117 -25 -37 -56
-82 -70 -101 -14 -19 -42 -58 -63 -87 -52 -72 -128 -172 -182 -238 -43 -51
-77 -98 -117 -158 -9 -14 -42 -55 -73 -91 -63 -75 -130 -174 -183 -274 -21
-38 -42 -76 -47 -85 -21 -34 -50 -77 -56 -82 -3 -3 -12 -16 -19 -30 -7 -14
-46 -75 -85 -136 -76 -114 -94 -144 -153 -254 -20 -36 -38 -67 -42 -70 -3 -3
-16 -20 -29 -38 -16 -22 -30 -32 -41 -29 -20 5 -50 -9 -50 -25 0 -6 9 -29 21
-52 18 -36 27 -43 77 -58 31 -10 75 -20 97 -24 22 -3 65 -9 95 -14 88 -13 119
-24 230 -78 58 -28 143 -62 190 -77 47 -15 105 -35 130 -45 40 -16 106 -35
150 -44 62 -12 193 -48 205 -56 6 -4 35 -13 65 -20 127 -29 246 -66 295 -90
11 -5 81 -25 155 -45 74 -19 162 -49 195 -66 88 -47 455 -177 629 -224 54 -14
106 -30 115 -35 9 -5 43 -18 76 -30 33 -12 69 -26 80 -30 11 -5 45 -14 75 -21
82 -17 156 -37 245 -64 78 -24 236 -65 385 -100 41 -10 86 -23 100 -30 14 -7
48 -18 75 -24 28 -7 59 -17 70 -21 11 -5 45 -16 75 -25 225 -67 304 -89 365
-105 134 -36 210 -58 255 -74 25 -8 55 -16 68 -16 12 0 41 -9 65 -19 36 -17
110 -38 275 -81 19 -4 39 -16 46 -25 11 -15 19 -16 68 -6 59 13 72 26 62 65
-5 23 60 172 91 206 8 9 15 20 15 24 0 4 11 22 23 39 13 18 41 64 62 102 48
88 171 258 224 310 23 21 41 43 41 48 0 5 25 45 55 88 30 43 55 83 55 88 0 5
3 11 8 13 4 2 34 41 66 88 33 47 78 108 100 137 23 29 50 65 61 82 32 48 118
161 143 190 51 57 142 173 142 181 0 4 15 26 33 47 71 86 93 117 126 176 19
34 48 78 65 98 48 55 59 71 86 114 13 22 27 42 30 45 4 3 21 25 39 50 33 46
98 126 207 254 33 39 69 85 80 101 32 50 104 137 158 191 28 28 58 64 66 80 8
16 25 40 38 54 13 14 32 42 43 63 11 20 23 37 27 37 5 0 18 21 30 46 13 25 53
83 91 128 37 44 80 101 95 126 67 112 199 288 291 387 71 77 77 86 69 107 -11
30 -151 96 -286 136 -73 21 -160 49 -193 61 -63 23 -102 32 -200 49 -33 6
-129 33 -213 60 -85 28 -166 50 -180 50 -29 0 -130 20 -202 40 -25 7 -101 25
-170 40 -184 41 -381 94 -558 151 -87 27 -185 59 -218 69 -34 11 -69 20 -78
20 -9 0 -24 4 -34 10 -34 18 -198 80 -252 94 -76 20 -211 63 -300 96 -41 15
-115 40 -165 55 -49 15 -119 38 -155 50 -98 34 -203 65 -222 65 -10 0 -27 4
-40 9 -13 5 -52 17 -88 26 -93 25 -119 35 -175 72 -27 18 -68 40 -90 47 -44
16 -257 81 -320 98 -22 6 -62 18 -90 28 -82 30 -115 39 -225 61 -152 30 -154
31 -161 109 -10 102 -30 165 -100 317 -17 37 -31 89 -35 129 -4 37 -12 77 -18
88 -89 164 -255 264 -376 227z m188 -94 c80 -53 94 -67 132 -142 22 -42 30
-73 30 -109 0 -28 7 -62 15 -76 18 -31 22 -41 47 -110 11 -30 29 -75 40 -100
13 -32 18 -62 16 -103 -3 -50 -6 -59 -25 -63 -35 -9 -43 3 -39 60 2 29 -3 77
-11 107 -8 30 -18 78 -23 107 -5 29 -25 85 -43 125 -19 40 -38 82 -41 94 -11
35 -82 89 -134 103 -26 7 -68 25 -94 39 l-47 26 -63 -17 c-34 -10 -64 -15 -66
-13 -2 2 3 16 11 31 19 37 117 82 180 83 41 1 59 -6 115 -42z m-158 -131 c7
-19 18 -24 62 -29 29 -3 72 -15 95 -28 35 -19 44 -31 63 -83 12 -34 29 -72 38
-86 38 -60 75 -296 58 -366 -5 -19 -13 -24 -39 -24 -17 0 -44 6 -59 14 -45 24
-106 10 -152 -35 -41 -40 -76 -51 -76 -24 0 8 -5 15 -11 15 -6 0 -8 -7 -5 -16
3 -8 2 -12 -4 -9 -6 3 -10 13 -10 21 0 8 -7 14 -15 14 -8 0 -15 5 -15 10 0 6
-11 23 -25 38 -14 15 -25 39 -25 53 0 15 -7 32 -15 39 -9 7 -21 27 -29 44 -51
117 -49 111 -38 198 6 46 19 99 28 118 23 47 101 142 127 157 26 13 35 9 47
-21z m-246 -121 c-4 -8 -10 -15 -15 -15 -5 0 -9 7 -9 15 0 8 7 15 15 15 9 0
12 -6 9 -15z m-14 -116 c0 -5 -7 -9 -15 -9 -8 0 -15 7 -15 15 0 9 6 12 15 9 8
-4 15 -10 15 -15z m955 -475 c89 -16 161 -36 195 -54 10 -5 45 -17 77 -26 32
-9 72 -20 88 -24 17 -5 64 -17 105 -28 42 -11 90 -27 107 -36 18 -9 38 -16 45
-16 7 -1 27 -12 43 -25 25 -21 28 -27 15 -35 -23 -15 -51 -12 -157 15 -54 14
-114 25 -133 25 -47 0 -123 21 -190 53 -67 31 -161 61 -259 82 -78 17 -131 39
-131 54 0 45 20 46 195 15z m-593 -14 c-13 -10 -23 -21 -22 -24 0 -4 -3 -6 -7
-7 -5 0 -14 -5 -20 -11 -24 -19 -13 3 15 32 15 16 34 29 42 29 11 0 8 -5 -8
-19z m146 -30 c17 -9 44 -16 212 -51 137 -29 178 -37 243 -48 31 -6 101 -29
155 -52 53 -22 122 -45 152 -50 152 -23 355 -70 515 -119 104 -32 113 -37 134
-72 21 -36 28 -45 97 -131 49 -60 76 -70 82 -30 3 21 -15 53 -66 117 -13 16
-21 30 -19 32 5 5 128 -24 206 -49 36 -11 93 -35 129 -54 67 -36 163 -63 307
-89 17 -3 53 -16 80 -28 28 -13 84 -31 125 -41 105 -24 156 -42 204 -70 22
-13 64 -29 91 -36 28 -6 102 -28 165 -49 63 -20 142 -46 175 -56 57 -18 60
-21 63 -53 2 -20 24 -64 53 -108 44 -65 52 -72 69 -63 27 15 25 35 -9 89 -32
50 -47 91 -34 91 24 -1 124 -30 164 -48 25 -11 79 -28 120 -37 41 -9 126 -30
189 -46 63 -17 131 -34 150 -39 19 -4 69 -18 110 -29 111 -32 200 -51 240 -51
59 0 233 -43 305 -74 95 -42 174 -69 202 -70 58 -2 46 -28 -117 -241 -164
-215 -228 -295 -309 -381 -57 -62 -104 -120 -133 -164 -8 -14 -28 -37 -42 -50
-74 -68 -123 -121 -136 -148 -8 -17 -45 -63 -82 -104 -36 -40 -76 -84 -88 -98
-12 -15 -23 -20 -26 -14 -17 41 -28 45 -79 33 -28 -6 -58 -15 -67 -20 -10 -5
-24 -9 -32 -9 -21 0 -30 -19 -16 -35 9 -11 26 -14 56 -11 24 3 44 0 44 -5 0
-5 11 -9 25 -9 29 0 35 -29 11 -53 -8 -7 -30 -38 -50 -68 -19 -30 -56 -82 -81
-117 -24 -34 -52 -74 -60 -90 -83 -146 -202 -297 -250 -316 -14 -5 -16 -9 -7
-15 26 -16 -9 -96 -85 -197 -71 -94 -125 -175 -154 -232 -30 -60 -54 -80 -96
-80 -20 0 -43 -7 -52 -17 -15 -15 -14 -18 7 -35 l23 -19 -38 -58 c-40 -62
-107 -148 -160 -208 -23 -26 -94 -132 -113 -169 -8 -16 -49 -66 -90 -111 -97
-106 -230 -279 -230 -299 0 -3 -27 -46 -61 -96 -54 -80 -64 -90 -91 -90 -27 0
-235 67 -320 104 -21 9 -51 16 -68 16 -17 0 -72 16 -123 36 -91 35 -188 67
-320 105 -37 11 -87 28 -110 39 -23 10 -76 28 -117 39 -88 23 -151 45 -188 65
-15 8 -67 26 -117 40 -49 14 -110 33 -135 42 -25 9 -64 21 -87 26 -24 5 -43
15 -43 23 0 16 150 75 191 75 22 0 29 5 29 19 0 31 -24 42 -86 39 l-58 -3 -21
64 c-21 62 -76 136 -97 129 -12 -4 -12 -7 18 -73 14 -30 28 -79 31 -109 l6
-54 -39 -17 c-22 -9 -46 -20 -55 -25 -8 -4 -23 -4 -33 2 -9 5 -29 7 -45 3 -16
-3 -46 1 -72 10 -79 30 -234 75 -255 75 -12 0 -54 14 -94 30 -91 37 -152 57
-257 80 -45 11 -110 33 -145 49 -76 36 -151 61 -278 91 -52 12 -120 30 -150
40 -30 9 -89 25 -130 34 -41 10 -100 24 -130 33 -62 17 -210 84 -210 94 0 4
21 19 46 34 26 15 62 38 82 51 19 13 46 24 59 24 20 0 24 4 21 23 -2 17 -11
23 -35 25 -24 2 -53 -10 -118 -49 -76 -45 -86 -55 -82 -75 5 -30 -2 -30 -83 0
-98 35 -103 37 -125 47 -39 16 -148 49 -166 49 -10 0 -28 4 -41 9 -13 5 -43
15 -68 22 -25 7 -67 23 -95 35 -59 26 -123 46 -263 84 -94 26 -182 70 -182 91
0 8 55 90 167 251 55 78 154 238 221 358 27 48 85 134 110 163 8 9 20 26 26
36 31 53 116 151 131 151 2 0 19 -15 39 -32 43 -41 86 -105 86 -129 0 -22 -58
-58 -150 -93 -117 -45 -181 -73 -193 -85 -6 -6 -17 -11 -24 -11 -7 0 -13 -11
-13 -24 0 -35 30 -41 77 -15 66 38 106 56 179 83 109 41 157 75 171 124 16 52
9 72 -55 147 -79 92 -81 99 -45 138 16 17 38 44 49 58 10 15 47 63 82 107 34
44 62 83 62 87 0 3 26 42 58 86 31 44 64 90 72 102 8 12 29 41 47 65 18 24 41
62 53 85 23 47 54 88 121 161 46 49 47 49 79 36 17 -7 36 -24 41 -37 8 -23 10
-23 33 -8 23 16 25 15 39 -7 8 -13 20 -40 27 -61 10 -31 16 -38 33 -35 34 5
25 64 -24 153 -23 42 -38 79 -35 82 11 11 80 33 103 33 30 0 48 33 28 50 -14
12 -25 11 -137 -6 -21 -3 -38 -3 -38 1 0 10 96 145 135 190 19 22 35 44 35 49
0 4 22 36 49 71 27 34 57 77 66 96 10 19 39 59 65 89 26 30 68 84 94 120 64
86 98 127 184 219 39 43 72 80 72 84 0 12 69 97 99 123 26 22 33 23 51 12 12
-7 30 -26 40 -43 27 -44 77 -88 89 -81 17 11 13 50 -6 72 -31 34 -93 117 -93
124 0 4 9 18 21 31 11 13 28 38 36 54 9 17 19 32 22 35 4 3 17 19 29 37 35 50
85 72 120 53z m-282 -134 c18 -18 18 -33 0 -43 -14 -8 -78 -82 -108 -124 -69
-98 -127 -168 -248 -305 -15 -17 -44 -54 -64 -83 -20 -28 -52 -68 -72 -89 -30
-32 -62 -79 -110 -163 -6 -10 -29 -39 -52 -65 -23 -25 -42 -48 -42 -51 0 -7
-64 -98 -72 -101 -4 -2 -24 -27 -44 -55 -21 -29 -42 -56 -49 -62 -6 -5 -26
-31 -45 -57 -18 -27 -36 -48 -40 -48 -4 0 -19 -11 -34 -24 -19 -15 -27 -31
-25 -47 3 -25 -34 -91 -70 -123 -11 -11 -21 -23 -21 -28 0 -5 -8 -17 -17 -28
-10 -10 -31 -44 -48 -75 -16 -31 -53 -87 -83 -123 -29 -37 -66 -87 -80 -112
-42 -72 -83 -127 -137 -187 -27 -30 -55 -65 -62 -77 -6 -12 -23 -28 -37 -36
-14 -7 -26 -20 -26 -27 0 -8 -4 -11 -10 -8 -5 3 -10 -2 -10 -12 0 -11 -26 -50
-57 -87 -32 -38 -69 -84 -82 -102 -13 -19 -28 -34 -32 -34 -5 0 -9 -6 -9 -13
0 -8 -9 -22 -20 -32 -11 -10 -20 -23 -20 -29 0 -6 -12 -23 -25 -39 -19 -21
-30 -26 -50 -21 l-25 6 36 65 c20 36 46 76 57 89 12 13 65 78 117 145 52 67
117 147 143 178 27 31 61 76 75 101 30 52 66 102 105 144 15 17 27 34 27 38 0
9 46 75 109 158 28 36 80 109 116 162 36 53 88 120 116 148 27 28 62 70 77 92
45 68 56 84 75 109 10 13 44 58 75 100 31 42 82 107 113 145 30 38 72 94 92
124 21 30 44 64 53 75 8 11 32 46 52 78 20 32 56 87 80 122 23 35 42 68 42 73
0 5 9 17 20 27 11 10 20 24 20 30 0 7 10 19 23 28 37 24 63 51 76 75 24 46
182 212 201 212 6 0 18 -6 26 -14z m1481 -93 c-7 -7 -57 8 -57 18 0 4 14 3 31
-3 16 -6 28 -12 26 -15z m223 -54 c63 -17 187 -53 275 -80 88 -28 178 -55 200
-61 22 -7 45 -15 50 -18 11 -8 150 -59 180 -67 11 -3 47 -13 80 -23 33 -10 94
-28 135 -41 41 -12 84 -28 95 -35 18 -13 17 -14 -15 -14 -43 0 -128 22 -166
43 -36 20 -113 41 -224 61 -59 11 -112 30 -174 61 -48 25 -97 45 -107 45 -10
0 -20 4 -23 9 -3 5 -38 17 -78 26 -40 10 -86 23 -103 31 -54 24 -149 54 -170
54 -11 0 -49 12 -85 25 -56 22 -60 25 -25 20 22 -3 92 -19 155 -36z m1235
-399 c89 -25 237 -71 290 -90 33 -12 78 -26 100 -30 22 -5 121 -28 220 -53 99
-25 223 -55 275 -67 52 -12 118 -28 145 -35 28 -7 78 -18 112 -24 34 -6 102
-24 150 -40 189 -60 231 -71 260 -71 29 0 170 -43 301 -92 56 -21 64 -43 9
-26 -158 49 -380 98 -446 98 -25 0 -82 11 -126 25 -44 14 -98 29 -120 34 -22
5 -85 21 -140 35 -55 14 -149 37 -210 51 -60 15 -126 34 -145 42 -19 9 -64 24
-100 34 -36 10 -96 27 -135 39 -38 12 -83 26 -100 30 -16 5 -46 13 -65 19 -19
6 -81 26 -138 46 -57 19 -110 35 -118 35 -27 0 -89 30 -101 49 -11 18 -10 19
20 9 18 -5 46 -13 62 -18z m1826 -1024 c-17 -25 -31 -48 -31 -51 0 -9 -55 -80
-105 -135 -22 -25 -53 -70 -68 -100 -37 -74 -136 -203 -232 -304 -6 -6 -25
-31 -42 -56 -17 -25 -43 -55 -57 -67 -14 -13 -26 -27 -26 -33 0 -14 -53 -86
-101 -137 -21 -23 -39 -46 -39 -52 0 -6 -26 -39 -58 -73 -32 -35 -65 -74 -75
-88 -28 -42 -119 -165 -169 -229 -27 -34 -48 -64 -48 -67 0 -8 -96 -147 -124
-179 -15 -16 -51 -67 -81 -112 -31 -46 -60 -83 -65 -83 -6 0 -10 -4 -10 -9 0
-5 -12 -23 -27 -39 -78 -83 -93 -100 -93 -109 0 -6 -7 -16 -15 -23 -8 -7 -15
-9 -15 -6 0 15 53 103 79 131 40 44 114 154 131 195 20 51 86 158 129 210 34
42 92 132 124 192 7 14 23 39 35 54 12 16 41 57 64 90 24 34 63 88 88 120 24
33 60 82 78 109 36 53 51 71 147 169 33 33 68 77 78 96 10 19 38 51 61 70 23
19 58 60 77 90 18 30 74 98 124 151 88 95 231 263 270 320 13 19 21 24 23 14
2 -8 -10 -34 -27 -59z m-6701 -1011 c11 -13 7 -27 -20 -80 -18 -35 -39 -66
-47 -69 -8 -3 -12 -10 -9 -14 3 -5 -4 -18 -14 -30 -11 -12 -20 -24 -20 -27 0
-4 -12 -25 -27 -48 -16 -23 -32 -50 -38 -59 -13 -22 -97 -143 -134 -193 -43
-57 -81 -137 -81 -169 0 -23 8 -31 53 -51 28 -12 84 -28 122 -35 71 -11 114
-22 240 -59 39 -12 78 -21 87 -21 9 0 20 -4 23 -10 3 -5 17 -10 30 -10 13 0
26 -4 29 -9 3 -4 27 -14 53 -20 27 -7 56 -17 66 -22 22 -12 90 -34 147 -49 25
-6 74 -22 110 -35 36 -13 77 -26 91 -29 15 -2 35 -9 45 -14 68 -36 179 -85
206 -92 18 -5 62 -16 98 -25 36 -9 99 -25 140 -36 41 -11 113 -28 160 -38 47
-9 95 -23 107 -29 12 -7 33 -12 47 -12 14 0 71 -20 126 -45 56 -25 122 -50
148 -57 26 -6 54 -13 62 -16 8 -3 22 -6 30 -7 30 -4 116 -34 190 -65 41 -18
95 -36 120 -40 60 -12 160 -38 185 -49 41 -18 267 -88 375 -116 79 -21 218
-63 245 -74 11 -5 31 -13 45 -20 36 -16 190 -67 225 -75 17 -4 64 -20 105 -36
41 -16 129 -45 195 -66 66 -20 149 -49 183 -65 35 -16 92 -34 125 -40 34 -6
80 -20 102 -30 22 -10 51 -21 65 -24 14 -3 34 -10 45 -15 67 -27 129 -50 139
-50 6 0 22 -9 36 -20 59 -46 116 -14 159 87 38 93 99 185 174 264 26 28 47 56
47 62 1 16 60 84 60 69 0 -7 -13 -31 -30 -54 -16 -22 -30 -47 -30 -55 0 -7 -4
-13 -8 -13 -5 0 -19 -24 -33 -52 -13 -29 -38 -69 -55 -88 -31 -36 -63 -91 -83
-145 -6 -16 -31 -51 -54 -77 l-42 -47 -95 19 c-104 22 -146 33 -295 79 -55 17
-147 43 -205 57 -105 26 -185 47 -315 85 -168 48 -213 62 -260 79 -27 10 -70
23 -95 30 -25 6 -58 15 -75 20 -16 5 -66 18 -110 30 -44 11 -109 29 -145 40
-36 10 -92 26 -125 35 -33 9 -91 25 -130 35 -70 19 -177 49 -270 75 -27 8 -88
28 -135 44 -47 16 -139 46 -205 66 -66 20 -154 49 -195 65 -41 16 -88 32 -105
36 -48 11 -153 53 -240 94 -44 22 -98 43 -120 48 -95 22 -287 83 -333 105 -15
7 -52 19 -82 26 -79 17 -125 30 -205 56 -38 12 -113 33 -165 45 -106 25 -348
104 -397 129 -132 68 -181 91 -191 91 -7 0 -20 4 -30 9 -27 14 -126 41 -150
41 -12 0 -46 9 -77 21 -74 27 -74 38 1 149 28 42 70 112 119 201 11 20 43 71
70 114 132 204 190 285 202 285 8 0 11 5 8 10 -8 13 1 40 13 40 5 0 15 -7 22
-15z m4886 -1417 c-37 -69 -71 -121 -95 -142 -37 -33 -33 -11 9 51 22 33 40
63 40 65 0 7 64 76 68 73 1 -1 -9 -22 -22 -47z"/>
<path d="M17283 4940 c-50 -30 -44 -66 7 -47 21 8 35 8 54 -1 27 -12 31 -8 26
28 -2 17 -28 40 -44 40 -6 0 -26 -9 -43 -20z"/>
<path d="M16915 4849 c-9 -26 -1 -34 38 -34 18 -1 49 -5 70 -9 38 -8 39 -8 35
20 -3 32 -25 41 -95 43 -34 1 -43 -3 -48 -20z"/>
<path d="M15514 4799 c-3 -6 5 -23 19 -37 14 -15 43 -56 66 -92 l40 -64 -83
-31 c-88 -32 -116 -49 -116 -71 0 -19 27 -18 102 6 34 11 73 20 85 20 12 0 25
5 28 10 5 8 11 7 20 0 32 -27 48 33 22 81 -17 33 -99 143 -109 147 -4 2 -8 10
-8 17 0 23 -53 34 -66 14z"/>
<path d="M16560 4790 c-14 -4 -40 -8 -57 -9 -50 -2 -113 -30 -113 -51 0 -26
12 -31 46 -20 16 5 63 14 104 20 135 21 153 28 131 54 -14 17 -68 20 -111 6z"/>
<path d="M17247 4702 c-12 -2 -16 -9 -13 -19 3 -8 6 -18 6 -23 0 -4 18 -31 41
-60 22 -28 47 -67 55 -86 17 -41 47 -43 52 -5 5 30 -10 60 -66 133 -48 64 -50
66 -75 60z"/>
<path d="M16055 4679 c-123 -28 -195 -60 -195 -85 0 -15 60 -20 74 -7 4 5 42
16 84 26 138 32 137 31 140 55 3 19 -1 22 -30 21 -18 -1 -51 -5 -73 -10z"/>
<path d="M15020 4350 c-20 -10 -71 -28 -114 -41 -77 -22 -93 -35 -83 -64 5
-11 13 -12 34 -6 15 5 48 14 73 22 25 7 62 21 82 31 21 10 46 18 57 18 26 0
34 15 21 40 -13 24 -25 25 -70 0z"/>
<path d="M17514 4325 c-4 -9 14 -45 45 -88 29 -39 58 -86 66 -104 8 -18 24
-37 34 -43 16 -8 21 -6 26 11 9 27 -33 109 -92 182 -47 58 -69 69 -79 42z"/>
<path d="M15870 4240 c0 -16 42 -84 83 -135 4 -5 16 -24 25 -40 94 -169 126
-211 151 -196 15 9 0 43 -51 122 -20 31 -49 78 -63 104 -40 71 -114 165 -131
165 -8 0 -14 -9 -14 -20z"/>
<path d="M18789 4184 c-10 -13 -9 -21 6 -47 32 -55 80 -116 91 -117 15 0 34
22 34 41 0 14 15 17 104 21 83 3 108 7 125 22 33 30 16 49 -38 41 -25 -4 -89
-7 -141 -6 -90 1 -95 2 -125 31 -36 35 -38 35 -56 14z"/>
<path d="M19740 4167 c-38 -10 -45 -16 -45 -37 0 -19 5 -24 20 -22 11 2 39 3
62 3 48 1 63 21 37 50 -10 11 -20 19 -23 18 -3 0 -26 -6 -51 -12z"/>
<path d="M19314 4125 c-12 -29 16 -45 75 -45 63 0 98 17 88 44 -9 23 -155 24
-163 1z"/>
<path d="M18340 4089 c-14 -4 -56 -14 -95 -22 -64 -12 -70 -15 -70 -38 0 -15
5 -23 14 -21 7 2 43 7 80 12 91 13 204 39 214 49 19 19 -6 31 -61 30 -31 -1
-68 -5 -82 -10z"/>
<path d="M17675 3978 c-27 -6 -79 -15 -114 -21 -68 -13 -100 -38 -71 -57 8 -5
22 -7 30 -4 8 3 47 9 85 14 101 11 195 31 195 40 0 41 -26 47 -125 28z"/>
<path d="M17800 3886 c0 -19 65 -159 92 -198 11 -16 26 -28 34 -28 30 0 26 34
-16 118 -23 48 -46 94 -50 102 -10 21 -60 26 -60 6z"/>
<path d="M16945 3843 c-94 -17 -145 -37 -145 -57 0 -17 27 -29 43 -19 6 4 48
13 92 20 157 24 168 29 139 57 -18 19 -24 19 -129 -1z"/>
<path d="M19005 3799 c-4 -5 0 -18 8 -27 8 -9 24 -36 36 -60 25 -48 54 -54 59
-12 6 52 -81 136 -103 99z"/>
<path d="M16345 3710 c-33 -10 -86 -22 -118 -25 -56 -6 -58 -8 -55 -33 3 -25
6 -27 48 -24 25 2 90 15 145 28 55 13 108 24 118 24 20 0 23 20 5 38 -17 17
-72 13 -143 -8z"/>
<path d="M14635 3600 c-7 -12 -3 -19 55 -95 25 -32 52 -77 60 -99 11 -29 22
-42 38 -44 19 -3 22 1 22 28 0 32 -27 94 -58 132 -56 69 -76 88 -92 88 -11 0
-22 -4 -25 -10z"/>
<path d="M15710 3534 c-41 -7 -104 -19 -140 -25 -36 -7 -79 -19 -97 -27 -56
-27 -54 -70 2 -53 40 13 132 35 230 56 108 23 107 23 103 42 -4 22 -12 23 -98
7z"/>
<path d="M16370 3517 c0 -12 61 -139 86 -178 5 -8 26 -50 46 -94 26 -56 43
-80 55 -80 30 0 18 62 -30 155 -89 170 -112 205 -135 208 -14 2 -22 -2 -22
-11z"/>
<path d="M19170 3467 c0 -7 13 -33 29 -58 15 -25 31 -62 35 -82 8 -40 27 -47
59 -22 17 12 17 18 8 48 -22 66 -131 161 -131 114z"/>
<path d="M18050 3436 c0 -8 5 -18 10 -21 6 -3 10 -14 10 -23 1 -32 114 -247
133 -250 27 -5 32 27 10 72 -11 23 -38 77 -59 121 -21 44 -47 88 -56 97 -22
22 -48 23 -48 4z"/>
<path d="M19397 3355 c-4 -8 -2 -17 3 -20 6 -4 10 3 10 14 0 25 -6 27 -13 6z"/>
<path d="M14995 3340 c-202 -55 -255 -80 -241 -115 4 -11 13 -15 24 -12 44 13
139 48 153 57 9 5 45 14 80 20 79 15 94 22 94 46 0 26 -26 27 -110 4z"/>
<path d="M19350 3314 c0 -8 -4 -13 -8 -10 -4 2 -13 -4 -20 -14 -9 -14 -8 -19
3 -24 8 -3 19 3 24 12 6 9 11 13 11 9 0 -4 6 -2 14 5 10 9 11 17 4 26 -14 17
-28 15 -28 -4z"/>
<path d="M19305 3250 c3 -5 8 -10 11 -10 2 0 4 5 4 10 0 6 -5 10 -11 10 -5 0
-7 -4 -4 -10z"/>
<path d="M19266 3214 c-4 -9 -4 -19 -1 -22 2 -3 7 3 11 12 4 9 4 19 1 22 -2 3
-7 -3 -11 -12z"/>
<path d="M14310 3104 c-116 -30 -150 -48 -150 -77 0 -5 12 -6 28 -2 15 3 36 8
47 9 93 14 225 58 225 75 0 27 -32 26 -150 -5z"/>
<path d="M14965 3110 c-3 -5 8 -22 25 -36 16 -14 40 -48 52 -75 11 -27 26 -53
32 -57 10 -6 47 -82 60 -124 7 -22 29 -23 46 -3 10 12 10 21 -1 47 -25 60
-119 213 -142 229 -31 23 -64 32 -72 19z"/>
<path d="M18290 2951 c0 -15 -13 -23 -54 -35 -30 -9 -62 -16 -73 -16 -10 -1
-29 -10 -42 -21 -38 -32 -15 -44 56 -31 32 6 78 12 103 14 44 3 45 2 55 -36
23 -82 79 -81 64 1 -5 26 -7 55 -4 64 4 11 -6 28 -27 48 -38 36 -78 42 -78 12z"/>
<path d="M18605 2960 c-37 -6 -45 -35 -13 -44 38 -10 150 -6 188 7 19 7 35 19
35 27 0 12 -17 15 -90 15 -49 0 -103 -2 -120 -5z"/>
<path d="M16721 2901 c-14 -9 -15 -6 33 -92 10 -19 29 -46 42 -62 13 -15 33
-55 45 -88 24 -66 40 -80 67 -56 9 9 46 18 82 22 78 8 196 32 222 46 21 11 24
37 4 45 -7 3 -41 -2 -74 -10 -33 -9 -100 -19 -149 -22 l-89 -7 -25 34 c-15 19
-41 61 -59 94 -32 58 -68 105 -79 105 -3 0 -12 -4 -20 -9z"/>
<path d="M17745 2849 c-22 -4 -63 -8 -91 -8 -36 -1 -59 -7 -75 -20 -38 -31
-14 -44 72 -37 41 3 113 8 162 12 73 5 87 9 87 23 0 36 -67 49 -155 30z"/>
<path d="M13894 2725 c-5 -13 61 -158 88 -192 29 -36 51 29 25 74 -75 132 -99
156 -113 118z"/>
<path d="M15316 2563 c-14 -14 -3 -48 44 -140 28 -54 50 -102 50 -107 0 -14
-33 -35 -55 -36 -31 0 -165 -67 -172 -85 -13 -35 14 -38 74 -9 32 15 98 35
147 45 48 9 93 22 98 27 6 6 -5 36 -33 83 -23 41 -60 106 -82 146 -38 68 -57
89 -71 76z"/>
<path d="M16280 2549 c-66 -11 -225 -63 -257 -84 -44 -29 -23 -66 25 -41 15 8
46 18 67 21 22 4 45 11 50 15 12 8 69 23 153 41 54 11 62 16 62 36 0 26 -8 27
-100 12z"/>
<path d="M18484 2528 c3 -17 13 -39 21 -48 8 -9 19 -36 24 -61 14 -71 28 -99
51 -99 29 0 33 19 15 69 -8 24 -13 47 -10 52 6 8 -58 98 -79 111 -22 15 -28 8
-22 -24z"/>
<path d="M14090 2351 c0 -25 112 -232 123 -228 26 8 18 57 -20 124 -21 37 -43
77 -48 88 -11 21 -55 34 -55 16z"/>
<path d="M17020 2280 c0 -18 49 -126 100 -220 7 -14 16 -32 20 -40 10 -20 39
-25 46 -7 3 8 -25 76 -62 151 -50 101 -72 136 -86 136 -11 0 -18 -7 -18 -20z"/>
<path d="M14661 2104 c-108 -37 -131 -50 -131 -79 0 -30 7 -31 63 -6 88 38
103 43 155 46 30 2 56 6 59 9 3 3 -2 17 -11 31 -21 31 -41 31 -135 -1z"/>
<path d="M15570 2024 c0 -9 9 -27 20 -41 11 -14 20 -34 20 -44 0 -10 4 -20 8
-23 4 -2 23 -35 42 -73 44 -90 49 -96 66 -82 21 17 17 48 -15 110 -48 96 -101
169 -122 169 -11 0 -19 -7 -19 -16z"/>
<path d="M14282 1937 c-8 -9 0 -33 27 -87 21 -41 41 -88 45 -103 5 -22 12 -28
29 -25 19 3 22 8 19 38 -4 58 -76 190 -103 190 -3 0 -11 -6 -17 -13z"/>
<path d="M18027 1743 c-12 -3 -17 -12 -15 -26 3 -19 10 -22 64 -25 48 -2 63 1
67 12 14 35 -50 56 -116 39z"/>
<path d="M17340 1711 c0 -5 9 -26 19 -48 10 -21 27 -60 36 -88 22 -64 42 -95
60 -95 22 0 18 31 -11 107 -31 79 -104 166 -104 124z"/>
<path d="M17692 1689 c-64 -12 -97 -31 -100 -58 -4 -25 -9 -24 78 -5 14 3 42
8 62 11 48 7 64 25 43 47 -18 18 -20 18 -83 5z"/>
<path d="M17190 1589 c-25 -10 -55 -15 -67 -12 -16 4 -23 1 -23 -10 0 -17 -32
-28 -49 -17 -24 14 -120 -27 -121 -52 0 -10 58 1 90 17 41 20 182 49 223 46
32 -2 38 0 35 14 -5 28 -39 33 -88 14z"/>
<path d="M16580 1460 c-14 -4 -55 -15 -91 -23 -75 -18 -163 -71 -155 -94 3 -8
6 -17 6 -19 0 -3 17 4 38 15 62 33 104 49 177 66 82 20 101 31 84 51 -13 16
-22 16 -59 4z"/>
<path d="M17530 1293 c0 -4 5 -23 11 -42 6 -20 15 -52 21 -71 15 -56 30 -80
49 -80 10 0 20 4 23 8 7 12 -39 151 -57 173 -16 18 -47 26 -47 12z"/>
<path d="M17640 1026 c0 -25 21 -74 35 -80 7 -2 19 2 26 10 10 13 9 22 -6 50
-18 34 -55 48 -55 20z"/>
<path d="M13297 2869 c7 -7 15 -10 18 -7 3 3 -2 9 -12 12 -14 6 -15 5 -6 -5z"/>
<path d="M9137 4253 c-17 -16 -6 -51 21 -64 66 -33 122 -76 131 -100 11 -31
67 -48 88 -26 22 21 6 43 -71 99 -124 92 -153 108 -169 91z"/>
<path d="M8373 4208 c-32 -16 -43 -28 -43 -45 0 -16 6 -23 19 -23 11 0 23 5
26 10 3 6 17 10 30 10 13 0 27 5 30 10 3 6 15 10 26 10 15 0 20 6 17 23 -4 31
-51 33 -105 5z"/>
<path d="M7606 3934 c-32 -19 -63 -34 -69 -34 -25 0 -77 -46 -77 -67 0 -37 46
-28 140 27 47 28 88 50 91 50 9 0 17 32 12 48 -7 19 -33 13 -97 -24z"/>
<path d="M8143 3903 c-24 -9 -13 -41 24 -69 20 -15 54 -46 75 -68 36 -36 40
-38 55 -24 25 26 8 62 -49 105 -65 49 -89 62 -105 56z"/>
<path d="M9536 3833 c-7 -18 14 -51 69 -111 16 -19 32 -43 35 -54 3 -11 22
-30 43 -42 32 -18 39 -19 47 -6 19 30 8 50 -70 129 -44 44 -80 85 -80 90 0 18
-37 12 -44 -6z"/>
<path d="M9345 3667 c-41 -10 -51 -16 -53 -35 -4 -28 27 -56 44 -41 17 14 131
22 139 9 9 -15 41 -12 55 5 21 25 3 52 -45 64 -52 13 -74 13 -140 -2z"/>
<path d="M9000 3549 c-14 -6 -67 -21 -119 -34 -104 -26 -135 -46 -111 -69 13
-12 30 -10 125 15 61 16 127 34 148 38 48 11 51 14 37 40 -12 23 -40 26 -80
10z"/>
<path d="M8410 3408 c-84 -30 -130 -59 -130 -84 0 -23 16 -24 56 -5 22 10 57
24 79 31 22 7 48 16 57 21 10 5 33 9 51 9 28 0 45 -11 98 -62 36 -35 81 -82
100 -106 31 -36 38 -40 49 -28 21 26 -1 60 -99 161 -89 90 -96 95 -135 94 -23
0 -79 -14 -126 -31z"/>
<path d="M5103 3334 c-28 -12 -13 -44 30 -65 23 -12 56 -32 74 -45 37 -28 56
-30 74 -8 12 15 8 22 -31 56 -56 50 -116 75 -147 62z"/>
<path d="M4888 3229 c-91 -96 -120 -161 -78 -174 28 -9 70 22 70 52 0 15 18
43 50 76 35 36 50 60 50 79 0 49 -21 42 -92 -33z"/>
<path d="M5664 3050 c-28 -18 -37 -19 -81 -9 -59 14 -106 6 -101 -17 2 -9 30
-26 66 -40 59 -22 113 -56 155 -97 14 -15 21 -16 33 -6 20 17 18 33 -11 67
-28 34 -32 52 -10 52 16 0 31 43 20 59 -10 17 -37 13 -71 -9z"/>
<path d="M10255 3020 c-11 -18 93 -180 115 -180 5 0 14 9 20 20 13 24 -10 68
-68 133 -35 37 -55 46 -67 27z"/>
<path d="M5376 2934 c-31 -26 -56 -53 -56 -61 0 -23 28 -26 54 -6 13 10 44 28
70 38 48 20 69 51 45 66 -28 18 -58 8 -113 -37z"/>
<path d="M4686 2920 c-20 -18 -41 -42 -48 -55 -7 -12 -21 -37 -31 -54 -14 -26
-16 -36 -6 -47 18 -22 45 -17 57 11 7 14 17 31 22 38 6 7 24 27 40 46 33 38
38 62 16 80 -11 10 -22 6 -50 -19z"/>
<path d="M10965 2936 c-43 -11 -168 -34 -214 -39 -8 -1 -19 -10 -25 -20 -14
-23 9 -40 44 -32 98 23 244 45 330 51 25 1 48 3 53 3 4 1 7 12 7 26 0 24 -2
25 -72 24 -40 0 -95 -6 -123 -13z"/>
<path d="M8998 2851 c-24 -24 -23 -31 16 -82 19 -24 45 -64 59 -89 27 -49 44
-60 53 -35 11 26 -16 90 -57 140 -22 26 -39 56 -39 66 0 23 -10 23 -32 0z"/>
<path d="M5029 2802 c-36 -20 -78 -47 -94 -59 -15 -13 -32 -23 -36 -23 -5 0
-9 -11 -9 -25 0 -29 29 -34 54 -10 8 9 38 26 66 39 28 13 58 30 68 39 9 8 28
17 42 19 19 2 25 9 25 28 0 38 -39 35 -116 -8z"/>
<path d="M10245 2814 c-33 -7 -101 -13 -152 -14 -82 0 -95 -3 -120 -24 -23
-20 -25 -26 -14 -39 9 -12 19 -14 37 -6 14 5 46 9 72 9 26 0 85 7 132 15 47 8
104 15 127 15 46 0 63 15 42 35 -22 20 -60 23 -124 9z"/>
<path d="M9565 2714 c-44 -8 -120 -20 -169 -27 -62 -8 -92 -17 -99 -29 -17
-26 7 -48 41 -38 23 7 98 22 182 36 14 3 67 7 118 11 97 6 118 17 92 48 -15
18 -55 17 -165 -1z"/>
<path d="M5986 2701 c-10 -16 4 -35 70 -91 116 -98 169 -148 163 -155 -10 -9
-172 -75 -186 -75 -36 0 -93 -47 -93 -77 0 -28 23 -30 55 -5 12 10 42 24 66
31 24 8 63 22 86 32 24 11 49 19 57 19 8 0 18 5 21 10 3 6 17 10 31 10 28 0
43 25 25 43 -6 6 -11 20 -11 32 -1 23 -41 70 -90 105 -19 13 -37 27 -40 30
-68 74 -139 116 -154 91z"/>
<path d="M4523 2613 c-37 -69 -76 -138 -83 -148 -19 -26 -18 -47 1 -66 24 -24
35 -19 54 27 8 19 24 38 37 43 19 7 133 88 185 131 23 19 3 40 -38 40 -21 0
-39 -4 -39 -9 0 -21 -39 -22 -59 -2 -28 28 -34 27 -58 -16z"/>
<path d="M9135 2589 c-35 -11 -98 -25 -174 -39 -63 -11 -101 -33 -101 -59 0
-22 27 -36 44 -22 13 10 134 44 217 61 68 13 93 29 83 53 -7 19 -23 20 -69 6z"/>
<path d="M10587 2593 c-13 -13 -7 -40 14 -59 12 -10 30 -35 40 -54 32 -56 69
-105 82 -105 27 0 17 48 -22 108 -70 106 -95 130 -114 110z"/>
<path d="M8620 2395 c-19 -7 -69 -23 -110 -36 -80 -24 -120 -51 -120 -80 0
-30 14 -29 75 1 33 16 84 37 115 46 110 32 125 39 125 59 0 25 -35 29 -85 10z"/>
<path d="M9313 2363 c-18 -7 -16 -19 5 -40 37 -37 83 -103 113 -163 29 -59 50
-72 57 -35 6 27 -66 161 -111 205 -40 41 -43 42 -64 33z"/>
<path d="M4374 2232 c-6 -4 -16 -24 -23 -44 -7 -20 -18 -42 -26 -48 -37 -31
-26 -130 15 -130 19 0 24 10 21 38 -1 8 10 47 25 88 30 84 26 122 -12 96z"/>
<path d="M6468 2219 c-10 -6 -18 -14 -18 -19 0 -5 39 -50 88 -100 48 -51 93
-103 100 -117 14 -26 29 -26 45 -1 12 18 -16 63 -85 135 -92 98 -112 113 -130
102z"/>
<path d="M5625 2161 c-22 -10 -74 -35 -115 -54 -74 -34 -100 -61 -100 -102 0
-21 33 -18 47 3 9 16 204 119 256 136 10 3 17 12 15 19 -7 20 -60 19 -103 -2z"/>
<path d="M8075 2145 c-16 -8 -65 -31 -108 -50 -103 -47 -157 -83 -157 -106 0
-11 6 -19 13 -19 6 0 77 32 157 72 79 39 158 74 175 78 17 3 30 12 30 20 0 21
-71 23 -110 5z"/>
<path d="M10864 2139 c-3 -6 14 -41 38 -77 24 -37 50 -79 56 -94 14 -35 30
-36 42 -2 12 30 -10 77 -65 142 -37 42 -58 52 -71 31z"/>
<path d="M8053 2023 c-4 -10 -1 -19 8 -21 31 -10 91 -87 126 -162 20 -44 40
-80 44 -80 4 0 12 6 18 14 26 31 -39 178 -105 236 -38 33 -81 39 -91 13z"/>
<path d="M11780 1990 c-14 -4 -44 -8 -67 -9 -74 -2 -123 -35 -95 -63 13 -13
249 11 262 27 25 30 -47 63 -100 45z"/>
<path d="M5149 1872 c-15 -9 -45 -29 -67 -44 -23 -16 -45 -28 -50 -28 -14 0
-50 -43 -62 -74 -9 -23 -8 -32 4 -44 12 -12 16 -11 32 12 17 27 176 146 194
146 6 0 10 11 10 25 0 30 -23 33 -61 7z"/>
<path d="M7484 1858 c-138 -102 -156 -121 -139 -148 9 -15 17 -13 49 15 16 14
32 25 35 25 3 0 17 10 31 23 26 24 72 51 103 61 11 4 17 13 15 23 -5 28 -57
28 -94 1z"/>
<path d="M11195 1869 c-22 -4 -72 -14 -110 -22 -39 -7 -76 -17 -83 -21 -14 -9
-16 -32 -3 -41 13 -8 275 36 282 48 4 5 4 18 2 28 -6 20 -22 22 -88 8z"/>
<path d="M9624 1805 c-3 -7 7 -27 22 -44 15 -17 40 -59 54 -92 53 -119 90
-114 50 7 -23 70 -66 128 -101 137 -12 3 -22 0 -25 -8z"/>
<path d="M10650 1759 c-25 -11 -67 -25 -94 -30 -51 -9 -86 -32 -86 -55 0 -25
20 -23 117 12 54 20 112 38 130 41 35 6 58 26 48 43 -10 16 -66 11 -115 -11z"/>
<path d="M6925 1691 c-3 -5 16 -40 41 -76 l47 -67 -23 -40 c-30 -53 -14 -72
32 -38 l31 23 23 -26 c43 -50 64 -27 39 40 -17 44 -17 45 6 61 13 9 33 19 44
22 11 4 20 14 20 25 0 28 -41 31 -76 6 -15 -12 -34 -21 -41 -21 -8 0 -36 23
-63 50 -48 49 -68 59 -80 41z"/>
<path d="M11154 1676 c-7 -19 55 -146 71 -146 22 0 25 29 9 78 -24 71 -65 106
-80 68z"/>
<path d="M10168 1634 c-3 -3 -39 -13 -80 -23 -97 -24 -118 -36 -118 -66 0 -28
10 -31 43 -14 11 7 55 20 97 31 137 34 150 39 150 52 0 8 -7 17 -16 20 -20 8
-69 8 -76 0z"/>
<path d="M4774 1581 c-43 -26 -124 -124 -124 -150 0 -16 6 -21 28 -21 33 0 52
16 52 45 0 22 58 84 97 104 14 7 20 17 17 26 -8 20 -33 19 -70 -4z"/>
<path d="M8434 1466 c-6 -16 102 -181 124 -190 28 -12 25 30 -7 88 -53 97
-102 140 -117 102z"/>
<path d="M9650 1458 c-65 -23 -100 -53 -100 -85 0 -25 24 -32 37 -10 4 7 26
21 48 31 22 9 49 21 60 26 11 5 31 10 45 12 17 2 26 10 28 26 3 19 -1 22 -30
21 -18 -1 -58 -10 -88 -21z"/>
<path d="M9910 1315 c0 -8 12 -29 28 -47 15 -18 33 -44 40 -57 8 -13 23 -40
34 -60 33 -59 39 -64 56 -47 13 12 12 18 -2 47 -9 17 -16 38 -16 46 0 7 -4 13
-10 13 -5 0 -10 7 -10 15 0 20 -85 105 -104 105 -9 0 -16 -7 -16 -15z"/>
<path d="M9298 1287 c-53 -33 -108 -85 -108 -102 0 -28 19 -24 70 16 29 23 75
49 104 59 62 22 67 44 11 47 -28 2 -51 -4 -77 -20z"/>
<path d="M11371 1296 c-11 -13 -9 -30 10 -71 5 -11 15 -38 22 -60 8 -22 20
-40 28 -40 22 0 16 93 -10 143 -23 45 -32 50 -50 28z"/>
<path d="M6646 1248 c-60 -58 -78 -94 -51 -104 12 -5 29 7 58 38 23 25 54 53
70 63 35 22 37 55 2 55 -16 0 -43 -18 -79 -52z"/>
<path d="M7215 1200 c-3 -5 14 -37 37 -70 24 -34 52 -78 64 -98 24 -44 61 -52
56 -12 -2 24 -51 103 -93 151 -10 12 -19 26 -19 31 0 11 -37 10 -45 -2z"/>
<path d="M8850 1022 c-19 -8 -51 -18 -70 -21 -29 -5 -36 -11 -38 -33 -2 -15
-14 -34 -30 -44 -41 -27 -54 -43 -48 -59 8 -22 22 -19 72 16 44 30 46 30 60
12 8 -10 22 -33 30 -51 12 -28 18 -32 29 -22 21 17 19 49 -5 85 -11 17 -20 35
-20 42 0 13 64 53 86 53 8 0 14 8 14 19 0 23 -31 24 -80 3z"/>
<path d="M6356 959 c-52 -55 -57 -62 -43 -76 23 -23 65 -8 85 29 9 17 29 45
44 61 30 33 29 47 -6 47 -14 0 -43 -22 -80 -61z"/>
<path d="M10130 889 c0 -11 19 -51 29 -59 15 -12 51 -70 51 -82 0 -7 9 -24 20
-38 15 -20 21 -22 31 -13 32 31 -63 203 -112 203 -10 0 -19 -5 -19 -11z"/>
<path d="M7451 841 c-12 -8 -9 -18 14 -62 58 -111 94 -157 115 -144 17 11 11
35 -20 87 -16 26 -30 52 -30 57 0 12 -49 71 -58 71 -4 0 -13 -4 -21 -9z"/>
<path d="M8376 760 c-70 -45 -126 -116 -110 -141 10 -17 29 -8 49 24 11 17 30
36 41 42 12 6 30 17 39 25 9 8 27 19 39 25 11 6 21 17 21 25 0 22 -45 22 -79
0z"/>
<path d="M7593 543 c-19 -7 -16 -72 3 -80 18 -7 34 12 34 43 0 25 -19 43 -37
37z"/>
<path d="M8920 543 c0 -4 10 -24 22 -43 12 -19 24 -51 27 -70 9 -50 35 -47 39
5 4 48 -31 108 -66 113 -12 2 -22 0 -22 -5z"/>
<path d="M7999 472 c-29 -26 -38 -42 -34 -55 11 -26 27 -21 68 21 40 41 45 57
21 66 -9 4 -30 -8 -55 -32z"/>
<path d="M10334 475 c-4 -8 -2 -21 4 -28 5 -6 13 -28 17 -47 4 -19 23 -62 41
-97 19 -34 34 -69 34 -76 0 -8 7 -20 15 -27 12 -10 18 -10 31 1 22 18 11 61
-30 118 -31 43 -46 77 -60 144 -7 30 -42 38 -52 12z"/>
</g>
</svg>
