<?xml version="1.0" standalone="no"?>
<!DOCTYPE svg PUBLIC "-//W3C//DTD SVG 20010904//EN"
 "http://www.w3.org/TR/2001/REC-SVG-20010904/DTD/svg10.dtd">
<svg version="1.0" xmlns="http://www.w3.org/2000/svg"
 width="2784.000000pt" height="746.000000pt" viewBox="0 0 2784.000000 746.000000"
 preserveAspectRatio="xMidYMid meet">

<g transform="translate(0.000000,746.000000) scale(0.100000,-0.100000)"
fill="#000000" stroke="none">
<path d="M7124 6710 c-11 -4 -58 -10 -105 -13 -169 -10 -349 -38 -474 -74
-111 -32 -173 -44 -290 -54 -128 -11 -206 -2 -325 36 -80 26 -163 46 -245 59
-66 11 -95 11 -165 0 -268 -41 -365 -90 -422 -213 -26 -56 -19 -100 27 -176
45 -75 59 -91 122 -131 86 -55 200 -79 373 -77 130 2 191 11 255 38 17 7 71
29 120 50 50 20 104 43 122 51 17 8 35 14 40 14 4 0 19 6 33 13 14 7 52 24 85
37 33 12 64 27 70 32 5 4 15 8 22 8 7 0 32 9 56 19 40 18 66 25 187 51 59 12
96 24 147 46 17 8 42 14 56 14 13 0 37 4 53 10 16 5 101 18 189 29 179 23 381
21 540 -4 50 -7 128 -19 175 -26 47 -6 130 -21 185 -32 55 -10 125 -23 155
-28 143 -21 364 -74 389 -93 10 -8 20 -3 38 19 23 26 25 35 19 86 -9 93 -18
105 -95 122 -58 13 -121 25 -211 40 -73 13 -192 40 -245 57 -33 11 -116 27
-185 35 -69 9 -150 20 -180 25 -187 31 -472 48 -516 30z m331 -65 c39 -3 93
-10 120 -15 68 -11 173 -27 270 -40 44 -6 114 -20 155 -30 102 -27 205 -50
265 -61 28 -4 88 -17 134 -27 83 -18 85 -19 97 -56 16 -46 1 -56 -50 -32 -19
9 -45 16 -59 16 -13 0 -69 11 -123 24 -54 14 -133 30 -174 36 -41 6 -97 15
-125 20 -27 6 -97 17 -155 25 -58 8 -150 22 -205 30 -60 9 -174 16 -285 16
-257 1 -421 -20 -615 -80 -49 -15 -124 -34 -165 -41 -41 -6 -110 -27 -152 -46
-43 -19 -82 -34 -88 -34 -6 0 -80 -30 -163 -66 -222 -97 -338 -135 -427 -140
-41 -3 -84 -7 -95 -9 -11 -3 -75 2 -142 11 -130 15 -164 29 -227 89 -17 17
-38 44 -46 60 -8 17 -22 42 -32 57 -25 36 -23 46 20 102 40 54 102 90 102 60
0 -9 -9 -18 -20 -21 -28 -7 -50 -53 -50 -104 0 -46 10 -57 76 -89 22 -10 47
-26 54 -35 7 -8 17 -15 22 -15 5 0 42 -14 81 -31 67 -30 76 -31 167 -26 105 5
257 47 301 82 42 33 62 72 55 105 -4 22 -1 32 9 36 22 9 18 51 -5 64 -11 6
-20 17 -20 25 0 21 45 19 110 -6 32 -12 67 -19 85 -16 16 3 82 12 145 21 64 9
149 25 190 36 41 11 95 25 120 31 25 6 59 15 76 20 17 5 49 11 70 13 153 14
363 39 384 45 27 9 203 6 315 -4z m-1685 -157 c25 -6 50 -14 55 -18 6 -4 22
-10 38 -14 15 -3 27 -12 27 -20 0 -7 6 -19 14 -25 30 -25 -18 -82 -80 -97 -16
-4 -33 -9 -39 -13 -28 -17 -110 -30 -189 -31 -81 0 -95 3 -160 34 -84 41 -126
71 -126 93 0 18 31 46 85 76 60 33 267 42 375 15z"/>
<path d="M20923 6473 c-7 -3 -13 -9 -13 -14 0 -12 -67 -108 -97 -138 -23 -24
-28 -62 -8 -67 20 -6 145 168 145 201 0 17 -11 24 -27 18z"/>
<path d="M16826 6319 c-3 -17 -6 -57 -7 -88 0 -59 -10 -119 -29 -186 -6 -22
-14 -51 -16 -65 -5 -24 -18 -58 -34 -90 -4 -9 -11 -31 -15 -50 -4 -19 -32 -82
-61 -140 -46 -91 -51 -107 -39 -119 8 -8 16 -13 18 -10 14 17 84 176 113 256
101 283 114 333 114 437 0 77 -2 86 -19 86 -13 0 -20 -10 -25 -31z"/>
<path d="M21567 6307 c-28 -26 -47 -52 -47 -65 0 -12 2 -22 5 -22 5 0 108 73
128 90 12 11 -3 40 -22 40 -9 0 -38 -20 -64 -43z"/>
<path d="M20441 6168 c-30 -77 -37 -188 -11 -162 15 15 52 155 46 171 -8 20
-25 16 -35 -9z"/>
<path d="M4895 6133 c-62 -5 -82 -12 -89 -28 -10 -26 5 -45 36 -45 19 0 28 -4
26 -12 -4 -12 -47 -41 -78 -54 -8 -3 -31 -14 -51 -25 -20 -10 -52 -19 -71 -19
-46 0 -137 28 -167 51 -53 42 -112 50 -416 56 -352 8 -543 7 -695 -3 -163 -10
-287 -9 -420 3 -74 6 -176 7 -285 1 -94 -4 -260 -12 -370 -17 -110 -5 -238
-16 -285 -25 -47 -8 -114 -20 -150 -26 -253 -42 -327 -60 -460 -114 -74 -30
-115 -80 -113 -139 1 -23 4 -121 6 -217 5 -223 22 -530 31 -552 3 -10 9 -26
13 -35 3 -10 8 -29 10 -43 2 -14 12 -54 22 -90 11 -36 22 -76 25 -90 3 -14 14
-35 26 -47 11 -12 20 -25 20 -29 0 -4 7 -15 15 -24 9 -10 19 -52 24 -106 9
-87 17 -110 70 -195 68 -110 135 -182 205 -223 28 -16 68 -46 90 -66 39 -36
123 -80 152 -80 7 0 28 -8 46 -18 46 -25 211 -79 283 -92 203 -37 314 -53 517
-76 20 -2 47 -8 60 -13 12 -5 73 -14 133 -20 61 -7 153 -17 206 -23 53 -6 109
-8 125 -4 28 6 182 15 609 36 105 5 208 13 230 19 22 5 81 17 130 26 50 9 99
21 110 25 11 5 45 14 75 21 30 7 64 19 75 26 11 7 27 13 37 13 27 0 51 29 37
46 -17 21 -58 17 -130 -12 -35 -15 -107 -35 -159 -45 -52 -11 -124 -28 -160
-38 -48 -14 -115 -21 -255 -26 -104 -3 -248 -10 -320 -15 -373 -27 -576 -21
-740 20 -38 10 -97 21 -130 25 -33 3 -80 10 -105 16 -25 5 -92 16 -150 24 -58
9 -139 23 -180 31 -78 16 -258 71 -275 85 -5 4 -39 17 -75 30 -39 13 -85 39
-115 64 -27 23 -64 50 -82 59 -35 18 -124 103 -164 156 -14 19 -42 66 -62 103
-30 54 -37 78 -37 122 0 29 -4 57 -10 60 -5 3 -10 14 -10 24 0 23 -26 76 -56
118 -13 17 -24 45 -24 61 0 16 -7 49 -16 73 -35 98 -46 163 -56 339 -17 301
-12 430 15 430 7 0 30 -9 52 -20 22 -11 47 -20 56 -20 9 0 22 -7 29 -15 14
-17 7 -25 -50 -61 -61 -39 -95 -141 -57 -169 14 -10 17 -32 18 -141 1 -156 6
-179 40 -179 21 0 51 -17 96 -55 10 -8 7 -19 -13 -50 -53 -79 -2 -123 62 -54
22 24 38 35 49 30 14 -5 12 -10 -9 -33 -17 -18 -26 -39 -26 -60 0 -35 10 -40
53 -24 24 10 25 9 14 -25 -9 -29 -8 -37 4 -45 22 -14 26 -11 50 31 l23 40 12
-30 c7 -16 20 -30 28 -30 26 0 5 -43 -45 -91 -47 -45 -65 -89 -36 -89 7 0 52
40 100 89 48 49 87 86 87 83 0 -3 10 7 23 22 28 32 77 45 77 20 0 -19 -29 -63
-79 -119 -117 -131 -153 -187 -134 -206 23 -23 113 49 113 90 0 21 124 158
150 166 12 4 27 -1 41 -13 20 -19 20 -21 3 -53 -9 -19 -26 -43 -36 -54 -104
-106 -168 -181 -168 -196 0 -36 39 -20 93 36 60 63 175 179 198 200 20 19 58
19 65 0 6 -15 -26 -64 -72 -110 -13 -13 -24 -28 -24 -33 0 -5 -29 -40 -65 -77
-63 -66 -81 -105 -50 -105 9 0 26 11 38 24 59 64 84 93 100 116 9 14 45 53 79
88 47 47 69 62 90 62 17 0 31 7 34 15 5 13 37 13 52 0 1 -1 -7 -29 -19 -61
-19 -51 -40 -76 -151 -185 -120 -119 -149 -159 -113 -159 9 0 80 63 158 140
78 77 143 140 144 140 2 0 12 9 23 20 26 26 43 25 56 -4 17 -37 -3 -72 -110
-182 -108 -112 -140 -159 -117 -174 17 -10 55 13 119 74 26 25 40 46 37 56 -3
11 29 51 95 120 85 88 102 101 115 90 8 -7 24 -10 35 -7 17 4 20 0 20 -24 0
-23 -20 -49 -99 -129 -110 -112 -151 -161 -151 -184 0 -30 30 -16 80 37 147
155 280 287 288 287 6 0 12 6 15 14 4 9 14 12 28 9 21 -6 21 -7 4 -19 -14 -11
-17 -23 -12 -60 l5 -48 -110 -112 c-75 -77 -109 -118 -105 -129 10 -25 37 -17
70 21 18 19 83 88 146 152 107 110 115 115 124 94 13 -30 66 -31 74 -2 3 11
14 20 25 20 19 0 19 -1 -2 -30 -12 -16 -26 -30 -31 -30 -5 0 -9 -6 -9 -13 0
-7 -13 -26 -30 -42 -16 -16 -30 -34 -30 -39 -1 -6 -20 -32 -43 -58 -51 -57
-82 -112 -74 -132 10 -24 34 -19 68 14 23 22 30 35 26 52 -7 28 13 53 160 205
77 78 108 104 125 103 57 -5 80 0 74 15 -3 8 -1 15 4 15 6 0 10 -7 10 -15 0
-8 4 -15 8 -15 20 0 6 -32 -37 -88 -25 -33 -53 -70 -61 -82 -25 -37 -81 -100
-167 -187 -61 -63 -80 -88 -76 -103 3 -11 9 -20 14 -20 10 0 242 236 248 251
1 6 13 20 25 33 11 12 44 48 71 79 28 31 58 57 67 57 21 0 33 17 16 22 -7 3
-5 7 6 11 16 6 18 3 11 -29 -3 -20 -17 -46 -31 -59 -13 -12 -24 -27 -24 -33 0
-6 -6 -15 -14 -19 -16 -10 -54 -54 -204 -237 -38 -46 -45 -76 -17 -76 22 0 87
58 117 107 17 26 42 58 56 72 15 14 50 53 77 86 28 33 84 95 126 138 41 42 73
80 70 82 -2 3 3 5 12 5 10 0 17 8 17 20 0 22 20 26 38 8 26 -26 13 -64 -33
-106 -25 -22 -45 -45 -45 -51 0 -7 -29 -43 -65 -81 -36 -38 -65 -76 -65 -85 0
-8 -4 -15 -9 -15 -16 0 -162 -154 -167 -177 -8 -29 2 -56 19 -51 6 3 19 20 28
39 10 19 48 64 85 100 67 64 129 131 215 234 23 28 79 89 124 138 82 86 116
105 129 71 16 -42 -2 -95 -63 -174 -14 -19 -31 -44 -37 -56 -6 -11 -39 -55
-73 -98 -33 -42 -66 -86 -71 -97 -6 -11 -42 -49 -80 -86 -68 -64 -86 -102 -59
-118 12 -8 54 28 79 68 9 15 34 46 56 70 44 47 100 115 158 191 22 28 61 79
88 113 26 34 48 66 48 71 0 5 11 19 25 32 14 13 25 29 25 35 0 14 75 85 89 85
5 0 8 -10 5 -22 -19 -84 -18 -95 12 -106 16 -6 23 -11 17 -11 -7 -1 -13 -6
-13 -13 0 -7 -11 -23 -24 -37 -14 -15 -42 -51 -63 -82 -51 -75 -116 -152 -185
-221 -60 -58 -71 -84 -41 -95 12 -5 35 13 82 64 36 39 73 80 81 90 8 10 35 43
60 73 25 30 57 71 71 90 15 19 42 52 60 72 19 21 43 49 54 64 11 15 37 45 58
68 36 40 38 40 52 22 21 -28 19 -47 -10 -80 -14 -16 -25 -33 -25 -38 0 -5 -28
-44 -62 -85 -112 -135 -173 -226 -163 -243 12 -20 44 -9 66 23 13 17 26 34 29
37 4 3 17 21 31 41 13 20 41 56 61 80 82 98 175 217 211 269 69 100 87 125
127 169 22 24 40 46 40 50 0 3 20 20 45 36 24 17 45 33 45 38 0 4 9 7 20 7 20
0 20 -1 4 -32 -9 -18 -35 -51 -58 -74 -24 -22 -45 -48 -49 -57 -3 -9 -12 -17
-20 -17 -13 0 -37 -47 -67 -128 -12 -30 -47 -82 -84 -124 -8 -9 -20 -27 -27
-40 -7 -13 -18 -27 -24 -33 -6 -5 -34 -39 -61 -75 -27 -35 -68 -88 -91 -118
-46 -57 -57 -102 -25 -102 22 0 50 30 76 83 11 20 42 62 70 94 28 31 57 65 65
75 7 11 31 38 52 61 21 23 39 46 39 51 0 5 9 18 21 30 11 12 45 59 76 106 74
113 100 146 151 199 23 24 49 58 58 76 18 39 48 54 128 62 56 6 60 5 47 -10
-7 -10 -19 -17 -25 -17 -25 0 -175 -164 -241 -265 -22 -33 -60 -85 -85 -116
-25 -31 -56 -71 -70 -89 -14 -18 -33 -40 -42 -49 -10 -8 -18 -19 -18 -24 0 -5
-11 -22 -25 -39 -14 -16 -25 -40 -25 -54 0 -43 33 -28 86 39 78 96 147 187
164 212 57 87 94 137 105 141 7 3 23 0 35 -6 21 -11 21 -12 -20 -87 -23 -42
-53 -91 -68 -109 -48 -57 -64 -79 -73 -101 -5 -13 -13 -23 -19 -23 -15 0 -12
-37 4 -43 20 -8 71 32 86 67 7 17 28 52 46 79 19 26 34 51 34 57 0 5 6 13 14
17 7 4 25 32 40 61 15 29 42 77 61 107 19 30 35 57 35 61 0 3 14 23 32 42 l31
36 -5 -74 c-4 -50 -14 -92 -31 -125 -86 -176 -88 -183 -49 -171 11 4 30 28 42
54 12 26 29 59 36 75 7 15 10 35 7 44 -4 10 -2 14 4 10 7 -5 14 5 18 24 4 18
18 42 31 54 13 12 40 48 59 81 l36 59 -27 22 -28 22 18 40 c21 45 28 48 98 42
49 -3 49 -3 45 -35 -19 -123 -48 -217 -87 -286 -53 -92 -88 -149 -112 -175
-10 -12 -28 -42 -41 -67 -51 -101 -166 -220 -292 -303 -71 -46 -94 -72 -95
-102 0 -46 45 -28 152 58 55 44 107 85 115 92 35 28 93 93 93 105 0 6 5 12 10
12 6 0 18 17 28 38 9 20 19 39 22 42 3 3 16 22 28 43 12 20 26 43 32 50 36 44
57 76 68 101 7 16 29 54 49 84 48 71 93 237 93 342 0 65 18 193 34 240 10 32
21 149 21 240 0 101 26 191 66 236 11 11 19 33 19 47 0 65 -87 183 -165 223
-62 32 -175 60 -365 90 -176 27 -183 29 -187 40 -3 10 33 33 140 92 l42 22 28
-32 c16 -18 37 -49 47 -69 10 -19 26 -41 34 -48 21 -17 62 -6 77 20 9 19 6 27
-30 63 -23 23 -41 45 -41 49 0 10 -52 90 -65 99 -10 8 -111 8 -190 1z m-1870
-151 c61 -4 198 -4 305 0 327 12 429 12 583 3 124 -7 151 -11 170 -27 18 -16
31 -19 72 -14 96 11 384 -19 408 -43 9 -9 -44 -58 -128 -116 -32 -22 -63 -45
-69 -50 -48 -44 -63 -47 -220 -42 -83 3 -178 10 -211 16 -121 21 -242 34 -340
37 -55 1 -201 5 -325 8 -389 10 -887 -22 -1063 -69 -32 -8 -72 -15 -88 -15
-33 0 -112 -17 -144 -30 -11 -5 -36 -11 -55 -14 -79 -10 -129 -28 -135 -46 -5
-15 -13 -18 -43 -14 -20 3 -46 10 -57 14 -62 27 -106 43 -155 56 -81 22 -118
54 -122 107 -3 38 0 44 29 65 18 12 41 22 52 22 11 0 22 4 26 9 9 15 124 44
280 70 33 6 74 13 90 16 17 3 57 8 90 11 33 3 74 9 90 14 31 9 196 21 340 25
171 5 349 16 355 21 3 4 39 3 80 -1 41 -3 125 -9 185 -13z m1837 -121 c25 -1
73 -7 105 -15 62 -15 127 -28 233 -47 134 -24 189 -49 248 -113 52 -57 56 -98
14 -144 -28 -30 -83 -50 -199 -72 -72 -14 -93 -9 -93 22 0 34 -66 73 -148 88
-37 7 -92 21 -122 31 -30 10 -84 20 -120 22 -100 7 -314 38 -323 47 -14 12 8
42 53 75 23 17 63 45 88 64 61 45 112 60 171 50 25 -4 67 -8 93 -8z m-1312
-190 c206 -13 354 -26 445 -40 39 -6 95 -10 126 -11 87 0 92 -16 24 -86 -30
-32 -55 -64 -55 -71 0 -7 11 -19 25 -25 21 -9 31 -7 66 16 22 15 55 44 73 64
69 79 75 82 151 81 63 0 112 -4 345 -24 36 -4 81 -12 100 -20 19 -7 75 -23
125 -34 91 -22 122 -39 112 -63 -5 -15 -89 -38 -136 -38 -16 0 -41 -4 -57 -9
-16 -5 -92 -12 -169 -15 -77 -3 -219 -10 -315 -16 -244 -15 -852 -15 -970 0
-52 6 -153 13 -225 16 -124 4 -235 10 -602 34 -90 6 -186 15 -215 21 -29 6
-82 17 -118 24 -36 8 -114 22 -175 31 -113 18 -175 37 -175 54 0 6 9 10 20 10
11 0 39 4 62 10 169 39 371 71 538 85 36 3 99 10 140 14 95 11 643 6 860 -8z
m-1876 -160 c7 -11 51 -19 166 -31 47 -5 108 -14 135 -19 28 -6 82 -15 120
-21 39 -5 95 -14 125 -20 30 -6 73 -13 95 -16 22 -3 68 -12 102 -20 61 -14
238 -26 663 -44 118 -5 253 -14 300 -20 121 -15 873 -24 968 -11 42 5 174 15
292 21 226 11 317 21 415 46 33 9 96 20 140 25 44 5 103 14 130 20 28 5 61 11
75 12 l25 2 3 -127 c1 -72 -2 -128 -7 -128 -5 0 -12 -26 -16 -57 -6 -55 -19
-119 -31 -153 -4 -10 -12 -2 -26 25 -17 35 -19 54 -15 153 l4 112 -43 0 c-33
0 -46 5 -54 20 -16 30 -52 25 -72 -10 -21 -37 -37 -43 -163 -63 -55 -9 -149
-25 -210 -37 -137 -27 -299 -40 -570 -47 -274 -6 -865 -5 -980 3 -49 3 -227 8
-395 10 -168 3 -312 7 -320 10 -8 4 -49 10 -90 15 -164 21 -209 28 -310 52
-58 13 -136 30 -175 37 -263 47 -451 122 -425 170 5 10 29 25 52 32 29 10 47
24 56 41 13 28 26 34 36 18z m-94 -235 c71 -24 306 -81 435 -106 33 -6 76 -16
96 -21 20 -5 47 -9 61 -9 13 0 29 -5 35 -11 5 -5 48 -14 94 -20 46 -5 116 -13
155 -18 39 -4 76 -11 82 -15 6 -4 118 -9 249 -11 234 -4 395 -10 683 -24 80
-4 228 -6 330 -4 218 4 200 4 365 3 72 0 173 4 225 10 52 6 136 15 185 20 50
5 104 12 120 15 17 3 57 10 90 16 33 6 87 17 120 24 33 7 98 19 145 25 47 6
107 16 134 22 44 10 51 9 63 -8 7 -10 13 -43 14 -73 0 -62 5 -102 14 -130 10
-33 -25 -59 -110 -81 -98 -25 -174 -38 -285 -50 -47 -5 -143 -17 -215 -27
-170 -23 -588 -22 -780 2 -71 9 -167 18 -213 19 -46 2 -89 9 -97 16 -11 9 -15
9 -15 1 0 -8 -11 -10 -32 -6 -43 8 -60 8 -140 0 -38 -4 -76 -4 -85 0 -10 4
-29 8 -43 8 -14 0 -28 4 -31 9 -3 5 -16 5 -30 0 -14 -6 -36 -5 -54 0 -31 9
-201 21 -267 19 -25 -1 -38 3 -38 11 0 9 -2 10 -8 2 -5 -8 -23 -9 -55 -4 -36
5 -50 4 -54 -6 -2 -7 -11 -10 -19 -7 -8 3 -11 9 -8 14 6 10 -47 6 -66 -6 -8
-5 -11 -4 -7 2 8 12 -187 38 -205 27 -8 -5 -9 -2 -5 9 8 22 -2 22 -19 0 -7
-10 -14 -13 -14 -7 0 8 -15 10 -44 7 -38 -5 -45 -3 -51 16 -5 15 -11 19 -23
13 -24 -11 -46 -9 -75 7 -21 11 -29 12 -42 1 -12 -10 -15 -10 -15 0 0 8 -9 11
-25 8 -13 -3 -26 0 -29 6 -3 7 -8 6 -14 -3 -8 -11 -12 -10 -21 5 -6 11 -11 15
-11 11 0 -5 -6 -5 -12 0 -7 4 -22 9 -32 10 -11 2 -25 8 -32 14 -7 6 -22 8 -34
4 -12 -4 -27 -1 -35 5 -8 7 -22 10 -31 6 -8 -3 -24 -1 -35 4 -12 7 -25 7 -36
1 -10 -5 -26 -5 -41 0 -13 5 -29 6 -35 2 -18 -11 -57 -13 -57 -2 0 5 -8 9 -18
9 -19 0 -119 47 -126 59 -8 12 -15 199 -8 206 4 3 13 4 22 1 8 -2 35 -12 60
-20z"/>
<path d="M10302 6060 c-12 -16 -22 -31 -22 -34 0 -19 -172 -358 -196 -386 -35
-41 -83 -135 -94 -184 -6 -26 -4 -39 6 -47 11 -9 19 0 40 47 54 125 51 124
245 132 41 2 59 27 36 50 -12 11 -27 11 -96 1 -82 -13 -102 -10 -84 13 6 7 43
77 83 156 40 79 76 139 81 135 8 -9 15 -60 29 -238 11 -142 5 -248 -16 -281
-13 -19 -13 -78 -1 -91 17 -16 35 25 46 104 7 49 15 94 17 101 8 28 -18 399
-31 446 -8 28 -10 56 -6 65 9 17 4 41 -8 41 -4 0 -17 -13 -29 -30z"/>
<path d="M9850 6056 c-8 -9 -58 -23 -110 -32 -98 -16 -130 -28 -130 -45 0 -19
32 -21 108 -5 72 14 78 14 90 -2 15 -20 11 -43 -23 -117 -14 -29 -25 -59 -25
-65 0 -6 -9 -39 -20 -73 -11 -34 -30 -91 -41 -127 -12 -36 -28 -70 -36 -77
-21 -16 -14 -87 10 -91 9 -2 17 3 17 10 0 24 109 346 143 423 51 117 72 150
97 156 41 11 145 10 157 -2 13 -13 55 -8 60 7 2 7 -4 19 -13 28 -14 14 -36 17
-128 15 -61 -1 -118 2 -126 5 -9 4 -22 0 -30 -8z"/>
<path d="M10720 6049 c-65 -26 -111 -85 -81 -103 5 -4 1 -24 -10 -46 -10 -21
-19 -45 -19 -52 0 -7 -9 -28 -20 -46 -11 -18 -20 -45 -20 -61 0 -15 -4 -41 -9
-57 -48 -157 -81 -294 -81 -331 0 -16 6 -23 19 -23 19 0 31 39 31 105 0 26 81
291 91 299 19 14 82 36 103 36 57 0 198 64 219 100 31 52 20 98 -36 158 -29
30 -35 32 -96 31 -37 0 -77 -5 -91 -10z m158 -51 c69 -75 39 -128 -90 -158
-29 -7 -66 -16 -82 -21 -67 -20 -69 -8 -23 100 28 64 37 75 67 86 58 21 104
18 128 -7z"/>
<path d="M11134 5967 c-7 -7 -28 -24 -47 -39 -20 -16 -53 -54 -74 -85 -20 -32
-40 -60 -44 -63 -14 -10 -52 -115 -63 -175 -22 -114 14 -201 101 -245 43 -22
49 -22 117 -10 142 26 267 117 321 233 34 72 35 181 1 252 -47 101 -115 142
-219 132 -26 -2 -50 0 -53 4 -7 13 -27 10 -40 -4z m224 -67 c68 -63 100 -191
67 -266 -33 -74 -37 -81 -77 -122 -105 -108 -290 -158 -358 -97 -28 25 -60 96
-60 131 0 61 55 194 106 259 43 54 65 72 105 85 22 8 42 17 45 22 3 4 38 8 78
8 58 0 76 -4 94 -20z"/>
<path d="M11613 5914 c-13 -14 -23 -35 -23 -47 0 -21 -48 -173 -103 -329 -13
-37 -30 -75 -39 -85 -23 -26 -30 -57 -22 -98 5 -29 10 -35 27 -33 16 2 23 13
30 43 27 132 107 355 128 355 7 0 27 -61 50 -155 6 -27 16 -54 20 -59 5 -6 9
-22 9 -36 0 -15 9 -57 21 -93 16 -52 25 -67 40 -67 14 0 19 7 19 28 0 15 6 37
14 48 12 17 34 80 42 121 5 24 27 88 34 98 4 6 17 42 29 82 12 40 26 75 31 78
6 3 10 14 10 24 0 10 9 30 21 45 24 30 19 56 -9 56 -20 0 -52 -60 -68 -125 -4
-16 -10 -34 -14 -40 -5 -5 -14 -30 -21 -55 -7 -25 -25 -66 -40 -91 -15 -26
-29 -55 -31 -64 -4 -25 -27 -30 -34 -8 -3 10 -9 27 -14 38 -15 36 -52 222 -48
242 2 11 -4 32 -11 47 -12 22 -13 33 -3 58 20 53 -7 66 -45 22z"/>
<path d="M21580 5848 c-29 -24 -65 -55 -82 -69 -26 -24 -35 -27 -96 -24 -37 2
-86 10 -109 18 -44 17 -99 10 -114 -14 -9 -14 18 -83 53 -134 26 -40 27 -40 8
-70 -10 -16 -31 -39 -47 -50 -82 -57 -109 -94 -81 -112 7 -4 58 -10 113 -13
l100 -5 2 -35 c5 -63 24 -138 38 -150 27 -22 60 -3 90 52 16 28 31 66 35 82
l6 31 89 7 c50 4 118 8 152 9 72 3 79 11 58 70 -8 23 -12 45 -9 50 3 5 -1 9
-9 9 -7 0 -19 10 -26 23 -7 12 -32 34 -56 50 l-43 27 12 43 c17 58 21 214 5
233 -18 22 -33 17 -89 -28z m48 -112 c-3 -47 -11 -85 -22 -101 -10 -14 -16
-40 -14 -57 3 -26 9 -32 48 -45 45 -14 90 -53 90 -77 0 -19 -31 -26 -148 -33
-118 -7 -135 -17 -146 -83 -4 -24 -14 -43 -25 -50 -28 -14 -34 1 -27 63 9 68
-5 87 -68 94 -53 6 -67 24 -42 52 9 10 16 21 16 26 0 5 10 19 21 32 l22 22
-37 53 c-40 59 -46 84 -18 73 9 -4 49 -11 87 -16 39 -5 82 -11 96 -14 29 -7
59 15 59 41 0 9 6 21 13 28 14 14 90 66 96 66 2 0 1 -33 -1 -74z"/>
<path d="M7395 5871 c-8 -14 12 -41 31 -41 8 0 14 -4 14 -10 0 -5 10 -10 21
-10 12 0 42 -15 68 -33 25 -18 71 -45 101 -61 30 -15 62 -31 70 -36 8 -4 32
-16 52 -24 20 -9 40 -21 43 -25 3 -5 42 -32 88 -59 45 -27 102 -69 127 -93 57
-55 106 -98 148 -129 18 -13 59 -49 91 -80 32 -30 98 -84 147 -120 136 -100
138 -102 196 -165 14 -17 44 -47 65 -67 24 -24 43 -53 50 -80 6 -24 23 -60 37
-81 25 -36 35 -73 19 -65 -5 2 -33 16 -63 32 -77 40 -180 69 -197 55 -7 -6
-13 -17 -13 -23 0 -14 62 -41 117 -51 23 -3 61 -19 86 -35 24 -15 54 -31 66
-35 12 -4 35 -20 52 -36 31 -30 59 -38 59 -16 1 35 31 268 39 307 16 71 14 82
-11 78 -17 -2 -25 -14 -35 -53 -7 -27 -13 -62 -13 -76 0 -15 -6 -41 -13 -58
l-14 -32 -24 25 c-13 13 -33 48 -43 77 -21 57 -109 157 -221 252 -22 18 -76
59 -120 90 -44 31 -107 81 -140 110 -33 30 -91 80 -130 112 -38 32 -95 82
-125 110 -31 29 -74 62 -96 73 -23 12 -62 37 -88 57 -45 34 -77 52 -193 108
-28 14 -76 43 -105 66 -56 42 -129 63 -143 42z"/>
<path d="M12662 5848 c-6 -7 -20 -37 -31 -65 -42 -107 -145 -289 -190 -337
-12 -13 -21 -30 -20 -37 2 -8 -5 -39 -14 -71 -21 -69 -21 -88 -3 -88 9 0 29
30 47 70 32 68 34 70 85 85 29 8 84 15 123 15 66 0 72 -2 83 -25 8 -18 8 -32
1 -47 -6 -13 -7 -32 -2 -45 9 -24 44 -47 59 -38 9 6 7 177 -3 205 -3 8 -12 42
-20 75 -33 129 -54 201 -66 222 -6 12 -10 37 -9 55 3 35 -20 50 -40 26z m22
-164 c3 -9 6 -24 6 -35 0 -11 4 -27 9 -37 13 -26 31 -86 31 -105 0 -23 -5 -24
-102 -32 -82 -7 -88 -6 -88 11 0 11 6 28 13 40 6 12 27 50 46 85 18 35 38 70
43 77 14 17 35 15 42 -4z"/>
<path d="M13599 5794 c-106 -31 -220 -194 -233 -330 -8 -90 -1 -122 32 -160
39 -45 83 -64 147 -64 98 0 165 42 212 133 31 61 27 85 -17 108 -39 21 -157
26 -191 9 -43 -24 -3 -67 52 -55 16 4 47 4 69 0 47 -8 51 -25 17 -76 -34 -51
-80 -71 -156 -66 -57 3 -67 6 -93 36 -29 32 -30 37 -26 110 4 84 29 150 72
190 14 14 26 30 26 37 0 14 52 54 93 72 15 7 52 12 82 12 44 0 59 -5 79 -25
13 -13 27 -34 31 -45 3 -11 15 -20 26 -20 47 0 2 96 -61 130 -32 17 -109 19
-161 4z"/>
<path d="M14528 5795 c-149 -30 -208 -153 -100 -212 20 -11 69 -30 107 -43
103 -32 153 -93 108 -132 -29 -24 -100 -48 -146 -48 -71 0 -114 18 -148 59
-22 28 -36 37 -50 34 -22 -6 -24 -16 -7 -46 14 -27 31 -41 83 -69 58 -31 194
-32 250 -1 95 51 111 103 53 169 -34 38 -78 62 -183 99 -52 19 -60 25 -63 49
-2 16 4 36 13 46 41 45 191 66 240 34 25 -16 25 -16 25 14 0 17 -4 33 -8 36
-25 15 -123 21 -174 11z"/>
<path d="M13326 5757 c-26 -32 -47 -79 -82 -187 -25 -80 -50 -149 -54 -154 -5
-4 -25 27 -46 70 -20 44 -46 97 -57 118 -13 26 -21 61 -21 100 -1 34 -6 61
-12 63 -15 5 -59 -71 -67 -114 -4 -18 -16 -53 -27 -78 -11 -24 -25 -68 -32
-97 -6 -29 -17 -60 -25 -69 -31 -37 -24 -129 12 -143 28 -10 47 32 57 124 5
50 18 116 30 147 19 53 22 55 35 37 28 -36 72 -139 98 -225 28 -94 48 -130 64
-114 5 6 23 62 40 125 52 202 59 224 77 270 10 25 28 55 41 67 32 31 47 72 32
89 -17 21 -25 18 -63 -29z"/>
<path d="M15417 5773 c-53 -22 -67 -94 -15 -77 19 6 20 3 13 -37 -4 -24 -11
-48 -16 -53 -5 -6 -9 -17 -9 -26 0 -9 -8 -32 -18 -51 -10 -20 -26 -61 -36 -92
-21 -68 -52 -110 -76 -104 -10 2 -100 0 -200 -4 -101 -5 -185 -8 -186 -6 -2 2
1 28 8 58 l11 55 92 12 c51 7 116 10 149 6 l58 -7 -4 29 c-3 27 -7 29 -58 36
-30 3 -85 6 -122 7 -37 1 -70 6 -73 11 -4 6 -2 25 3 43 6 17 13 44 16 59 5 21
15 30 45 38 21 5 46 7 55 4 9 -3 30 -1 46 6 23 10 49 9 131 -4 82 -13 104 -14
111 -4 11 18 10 25 -8 42 -15 16 -56 19 -254 21 -41 0 -87 4 -101 8 -23 7 -29
4 -46 -25 -11 -18 -23 -52 -26 -76 -3 -23 -14 -60 -25 -81 -12 -21 -26 -65
-32 -97 -7 -33 -16 -75 -20 -94 -23 -102 -23 -98 -1 -109 15 -9 39 -7 98 5
110 22 322 17 351 -9 27 -25 66 -19 70 10 3 18 13 24 55 32 173 35 217 46 263
69 40 19 57 35 69 63 16 35 16 39 -3 83 -14 30 -30 50 -46 56 -35 13 -33 31 9
73 55 55 41 111 -34 136 -50 16 -199 13 -244 -6z m250 -59 c2 -7 -23 -29 -57
-49 -61 -37 -124 -53 -136 -34 -6 11 12 64 29 87 13 16 159 13 164 -4z m-43
-188 c30 -8 56 -22 65 -35 13 -21 12 -24 -15 -52 -38 -38 -122 -66 -208 -71
-90 -4 -98 6 -70 94 20 62 21 63 55 60 19 -2 46 1 59 7 33 13 56 13 114 -3z"/>
<path d="M16105 5780 c-16 -4 -49 -8 -72 -9 -38 -1 -47 -7 -102 -68 -34 -36
-75 -90 -91 -118 -55 -95 -34 -195 50 -238 72 -37 390 2 448 56 37 33 52 79
52 153 0 74 -26 133 -82 186 -35 33 -145 54 -203 38z m154 -59 c13 -3 39 -28
58 -55 28 -41 33 -57 33 -108 0 -72 -23 -125 -59 -140 -51 -21 -167 -37 -267
-37 -89 -1 -105 2 -128 20 -39 31 -47 60 -33 117 16 58 72 132 101 132 11 0
29 9 41 20 42 40 97 59 165 59 36 -1 76 -4 89 -8z"/>
<path d="M20399 5583 c-35 -37 -54 -64 -52 -75 3 -10 8 -18 12 -18 4 0 33 24
65 54 37 34 57 60 54 71 -6 33 -23 26 -79 -32z"/>
<path d="M20639 5473 c-58 -74 -102 -150 -93 -164 9 -15 22 -10 29 10 5 16 61
86 126 158 21 23 22 54 3 60 -6 2 -36 -27 -65 -64z"/>
<path d="M20928 5452 c-12 -15 -34 -45 -48 -65 -17 -25 -31 -36 -43 -33 -19 5
-34 -32 -23 -59 12 -32 44 -14 96 53 28 37 58 71 66 75 8 4 14 19 14 32 0 35
-32 33 -62 -3z"/>
<path d="M16623 5420 c-3 -11 -11 -20 -19 -20 -21 0 -28 -21 -11 -37 11 -12
19 -13 36 -4 26 14 43 45 35 65 -9 23 -35 20 -41 -4z"/>
<path d="M19735 5308 c-2 -7 -6 -31 -9 -53 -16 -114 -19 -125 -40 -138 -11 -8
-39 -17 -61 -21 -129 -23 -137 -78 -20 -136 36 -18 79 -45 95 -60 28 -27 30
-32 30 -108 0 -45 5 -84 10 -87 14 -8 62 29 126 95 l49 52 86 -4 c67 -2 92 -7
107 -21 51 -46 83 17 40 78 -12 19 -44 51 -70 72 -27 21 -48 45 -48 53 0 9 25
45 55 82 30 36 55 76 55 87 0 12 -2 21 -4 21 -2 0 -27 5 -56 10 -51 10 -75 6
-145 -20 -50 -20 -53 -19 -110 46 -55 62 -81 77 -90 52z m295 -155 c0 -5 -9
-19 -20 -33 -11 -14 -20 -30 -20 -37 0 -6 -3 -13 -7 -15 -5 -1 -18 -22 -31
-45 -20 -38 -21 -43 -6 -57 8 -9 24 -16 35 -16 28 0 61 -19 54 -31 -4 -5 -37
-9 -75 -9 -64 0 -71 -2 -111 -36 l-43 -36 -14 34 c-30 71 -39 82 -95 111 -32
17 -54 34 -50 38 4 3 40 12 78 19 79 13 105 31 105 71 l0 28 29 -17 c28 -16
31 -15 78 11 46 25 93 35 93 20z"/>
<path d="M21025 5243 c-44 -23 -85 -64 -85 -85 0 -23 33 -24 51 -2 8 9 31 27
51 40 23 15 38 32 38 44 0 24 -15 25 -55 3z"/>
<path d="M20739 5142 c-14 -9 -43 -31 -65 -48 -52 -41 -75 -46 -153 -28 -49
11 -74 12 -94 5 -47 -18 -45 -39 12 -93 28 -28 51 -56 51 -62 0 -13 -30 -51
-99 -128 -59 -65 -50 -73 76 -73 l97 0 13 -50 c7 -27 13 -63 13 -78 0 -39 27
-87 49 -87 10 0 25 8 33 18 21 24 58 108 58 131 0 20 20 45 48 60 9 5 61 15
115 22 101 13 123 24 112 58 -8 26 -101 88 -145 96 -72 15 -71 12 -55 172 11
98 -8 122 -66 85z m11 -175 c0 -122 5 -130 89 -144 30 -4 54 -12 53 -18 0 -5
-34 -17 -74 -27 -58 -14 -80 -25 -105 -53 -18 -19 -33 -45 -33 -57 -1 -13 -7
-34 -14 -47 -13 -23 -14 -23 -23 -5 -6 10 -16 43 -23 71 -17 75 -42 103 -91
103 -50 0 -50 14 1 70 22 24 40 54 40 65 0 28 10 37 26 24 17 -14 34 -3 34 21
0 11 12 27 26 37 14 10 37 28 52 40 15 12 30 23 35 23 4 0 7 -47 7 -103z"/>
<path d="M13438 4907 c-9 -7 -28 -38 -43 -69 -15 -31 -35 -64 -46 -74 -12 -11
-19 -30 -19 -56 0 -24 -14 -68 -36 -114 -43 -92 -52 -135 -30 -153 13 -11 22
1 67 93 28 58 56 106 63 106 22 0 134 -125 161 -180 42 -85 75 -112 75 -60 0
10 15 35 34 54 18 20 46 55 62 78 16 24 33 46 39 51 5 4 39 6 75 5 l65 -3 3
-97 c2 -70 7 -99 18 -108 21 -18 27 -7 30 52 1 29 5 123 9 208 8 183 -2 233
-50 238 -35 4 -70 -28 -137 -128 -28 -41 -63 -88 -78 -105 -15 -16 -30 -41
-34 -55 -3 -14 -17 -38 -31 -55 l-25 -30 -45 50 c-47 52 -95 128 -95 150 0 7
36 25 79 39 113 38 144 52 180 82 66 55 26 66 -73 19 -90 -42 -178 -53 -184
-22 -2 10 4 27 13 37 34 38 -6 78 -47 47z m457 -172 c-1 -41 -15 -58 -38 -49
-24 9 -21 34 6 61 30 30 34 29 32 -12z"/>
<path d="M11936 4894 c-9 -8 -16 -20 -16 -26 0 -6 -11 -34 -24 -62 -13 -28
-36 -82 -51 -121 -14 -38 -33 -84 -41 -102 -21 -46 -19 -93 5 -93 14 0 22 12
31 48 14 56 19 68 55 150 16 34 31 62 35 62 11 0 37 -55 50 -105 17 -69 39
-115 57 -122 24 -10 46 22 74 112 15 47 44 110 64 140 21 33 35 65 33 78 -4
28 -43 36 -52 10 -13 -38 -93 -177 -104 -181 -14 -4 -82 129 -82 161 0 13 5
28 11 34 13 13 4 33 -16 33 -7 0 -21 -7 -29 -16z"/>
<path d="M14160 4874 c-52 -28 -74 -84 -33 -84 10 0 12 -6 7 -22 -12 -41 -36
-81 -58 -99 -17 -15 -19 -21 -10 -37 12 -18 8 -68 -6 -87 -4 -5 -13 -40 -20
-78 -10 -54 -10 -70 0 -83 18 -20 25 -10 39 61 25 117 49 172 81 184 14 5 61
22 105 37 43 16 87 36 97 46 53 53 26 -18 -64 -169 -57 -96 -78 -138 -73 -153
7 -21 35 -28 35 -9 0 6 11 25 25 43 14 18 25 38 25 44 0 21 52 51 98 57 26 3
65 9 86 12 l39 5 -7 -68 c-3 -38 -9 -86 -12 -106 -5 -33 -4 -38 13 -38 15 0
23 14 36 68 22 83 35 250 24 317 -21 144 -20 140 -51 143 -23 3 -38 -6 -82
-51 -56 -58 -65 -59 -78 -4 -10 42 -87 87 -145 86 -26 -1 -57 -7 -71 -15z
m145 -60 c14 -9 25 -22 25 -30 0 -17 -62 -44 -101 -44 -25 0 -29 4 -29 29 0
16 3 36 6 45 8 21 67 21 99 0z m225 -135 c0 -53 -12 -67 -64 -76 -25 -4 -36
-2 -36 7 0 16 60 122 74 132 16 11 26 -13 26 -63z"/>
<path d="M12341 4838 c-12 -18 -39 -61 -59 -95 -20 -34 -60 -95 -89 -137 -28
-41 -53 -81 -54 -88 -7 -58 23 -54 67 7 45 63 60 72 131 79 46 4 54 2 64 -15
6 -12 8 -32 4 -46 -3 -15 -1 -39 6 -56 11 -26 16 -28 45 -24 28 5 33 2 38 -19
14 -53 64 -9 71 63 3 37 31 103 42 103 3 0 29 -13 57 -29 66 -39 136 -109 150
-152 17 -52 38 -48 77 17 19 31 48 72 65 92 28 32 35 35 102 40 40 2 72 1 73
-4 0 -5 2 -28 5 -51 4 -28 0 -53 -10 -74 -20 -41 -20 -65 0 -73 24 -9 24 -9
44 37 27 61 32 158 15 302 -19 166 -27 175 -105 131 -29 -16 -52 -41 -72 -77
-46 -81 -133 -212 -151 -227 -19 -16 -40 -7 -94 43 -21 19 -42 35 -47 35 -5 0
-15 8 -22 18 -29 37 -18 48 87 82 99 33 123 50 100 73 -8 8 -33 6 -97 -10 -75
-18 -86 -19 -91 -6 -4 9 -1 24 5 34 7 10 12 28 12 40 0 15 -5 20 -22 17 -23
-3 -31 -17 -84 -133 -15 -33 -32 -64 -37 -70 -4 -5 -23 -37 -42 -70 l-33 -59
-10 34 c-7 27 -6 39 6 53 14 16 13 20 -10 45 -24 27 -48 90 -48 130 0 71 -52
95 -89 40z m777 -115 c-3 -56 -4 -58 -32 -61 -16 -2 -33 1 -38 6 -16 16 40
112 64 112 5 0 8 -26 6 -57z m-748 -17 c0 -8 -4 -18 -10 -21 -5 -3 -10 3 -10
14 0 12 5 21 10 21 6 0 10 -6 10 -14z"/>
<path d="M16624 4834 c-19 -25 -20 -25 -107 -17 -69 7 -90 6 -99 -4 -16 -20 3
-35 49 -39 71 -6 123 -15 123 -22 0 -4 -30 -79 -66 -167 -37 -88 -69 -172 -71
-187 -9 -47 22 -33 45 20 11 26 48 113 82 194 l63 147 83 3 c96 3 101 -2 60
-62 -46 -69 -70 -133 -71 -191 0 -58 7 -70 57 -103 32 -21 99 -17 149 8 18 9
36 16 41 16 17 0 91 67 107 98 19 36 15 122 -9 176 -27 63 -55 91 -105 105
-58 16 -89 14 -118 -9 l-26 -21 -11 21 c-9 16 -21 20 -65 20 -44 0 -56 4 -65
20 -14 26 -22 25 -46 -6z m373 -96 c12 -13 28 -48 38 -78 15 -50 15 -58 2 -90
-33 -75 -108 -120 -202 -120 -69 0 -89 18 -82 72 10 72 60 148 150 227 22 18
72 12 94 -11z"/>
<path d="M15177 4819 c-15 -17 -27 -33 -27 -34 0 -2 -30 -51 -66 -109 -44 -70
-72 -106 -84 -106 -27 0 -46 -28 -33 -48 7 -12 4 -30 -14 -69 -24 -52 -28 -99
-8 -97 10 1 28 29 70 107 l25 47 53 -1 c102 -2 102 -1 98 -107 -2 -85 -1 -92
17 -92 17 0 20 10 26 93 7 89 11 127 21 192 3 17 8 70 11 118 5 83 4 91 -17
113 -29 31 -39 30 -72 -7z m22 -221 c-9 -23 -18 -28 -44 -28 -54 0 -62 22 -26
73 16 24 40 56 53 70 l23 26 3 -56 c2 -31 -2 -69 -9 -85z"/>
<path d="M14730 4829 c-53 -9 -70 -20 -70 -48 0 -10 14 -11 73 -5 111 13 240
11 269 -5 44 -23 91 18 55 48 -19 15 -258 23 -327 10z"/>
<path d="M16242 4818 c-7 -7 -12 -25 -12 -41 0 -28 -27 -104 -56 -159 -24 -45
-54 -139 -54 -169 0 -36 37 -51 57 -23 15 21 17 51 3 56 -11 3 22 93 76 204
39 81 46 144 16 144 -10 0 -23 -5 -30 -12z"/>
<path d="M15401 4786 c-9 -11 -6 -20 14 -44 14 -16 25 -33 25 -37 0 -5 16 -28
36 -52 l37 -45 -18 -86 c-9 -48 -23 -104 -31 -125 -20 -54 -18 -87 5 -87 11 0
23 6 28 13 8 13 41 125 50 170 3 16 14 34 24 40 12 7 19 23 19 42 0 26 10 38
70 83 75 56 102 94 82 114 -9 9 -18 6 -39 -13 -16 -14 -56 -47 -89 -72 l-62
-47 -28 35 c-16 18 -45 54 -64 79 -39 50 -42 52 -59 32z"/>
<path d="M14801 4733 c-6 -21 -11 -50 -11 -65 0 -15 -9 -56 -19 -90 -71 -236
-71 -238 -43 -238 13 0 21 13 30 48 7 26 28 97 46 157 46 154 54 191 44 209
-15 27 -37 18 -47 -21z"/>
<path d="M20270 4618 c-12 -40 -30 -100 -42 -133 -26 -77 -35 -139 -18 -133
18 6 80 175 80 220 0 13 3 28 7 32 11 11 31 75 25 81 -18 17 -33 -3 -52 -67z"/>
<path d="M17737 4673 c-4 -3 -7 -19 -7 -34 0 -34 -19 -80 -40 -96 -8 -6 -27
-11 -41 -11 -14 1 -31 -2 -36 -5 -6 -4 -16 0 -23 8 -7 8 -26 15 -42 15 -16 0
-37 4 -46 9 -20 10 -141 24 -192 22 -28 -1 -42 -10 -71 -44 -21 -23 -43 -60
-50 -82 -7 -22 -26 -60 -41 -84 -15 -25 -28 -55 -28 -66 0 -28 28 -53 60 -53
14 -1 54 -5 90 -10 36 -6 98 -15 139 -21 40 -6 87 -19 105 -29 21 -13 39 -17
56 -12 67 19 77 -34 28 -153 -29 -70 -30 -79 -16 -93 19 -19 41 -10 103 43 44
38 46 39 95 73 19 14 43 33 55 44 32 30 121 65 180 72 31 4 58 11 61 15 4 8
-9 34 -59 113 -7 11 -39 60 -73 110 -33 50 -74 116 -92 147 -17 30 -41 64 -52
74 -11 10 -20 24 -20 30 0 7 -7 16 -16 19 -19 7 -19 7 -27 -1z"/>
<path d="M19986 4607 c-16 -78 -16 -137 -2 -137 20 0 26 23 26 95 0 70 -14 94
-24 42z"/>
<path d="M19701 4412 c-15 -120 -14 -177 4 -192 19 -16 36 -4 33 23 -4 34 13
151 23 163 14 18 -12 94 -32 94 -13 0 -19 -18 -28 -88z"/>
<path d="M20586 4437 c-14 -19 -26 -39 -26 -44 0 -6 -18 -33 -40 -61 -50 -63
-100 -157 -100 -189 0 -20 4 -24 22 -21 18 2 24 12 29 40 3 21 22 61 42 90 72
103 107 153 118 166 13 15 8 44 -8 49 -6 2 -23 -11 -37 -30z"/>
<path d="M20337 4332 c-32 -65 -58 -125 -57 -134 0 -27 25 -21 41 9 8 15 31
59 52 97 41 77 59 147 36 145 -8 0 -40 -53 -72 -117z"/>
<path d="M9325 4160 c-33 -4 -98 -12 -145 -18 -47 -6 -98 -15 -115 -21 -16 -5
-66 -17 -110 -26 -79 -17 -157 -38 -285 -77 -36 -11 -79 -24 -97 -29 -95 -29
-161 -92 -178 -169 -4 -19 -11 -41 -15 -50 -5 -8 -14 -49 -20 -90 -7 -41 -21
-100 -30 -130 -15 -47 -34 -121 -44 -180 -2 -8 -7 -26 -13 -40 -20 -48 -20
-55 -6 -82 8 -18 11 -42 7 -68 -5 -33 -3 -41 12 -47 12 -4 22 0 32 15 13 19
24 22 84 22 52 0 70 -4 74 -15 4 -8 21 -22 40 -31 45 -21 47 -28 63 -199 6
-60 15 -129 21 -151 5 -23 11 -108 14 -190 2 -82 9 -161 15 -176 6 -15 13
-132 16 -260 3 -128 11 -264 17 -301 9 -52 9 -80 0 -115 -16 -64 -17 -133 -8
-379 6 -165 5 -219 -5 -247 -10 -28 -10 -39 -1 -48 7 -7 12 -24 12 -38 0 -52
45 -67 78 -26 23 30 42 27 121 -21 31 -19 94 -52 141 -74 47 -22 125 -60 175
-86 49 -25 108 -51 130 -57 30 -9 44 -20 57 -46 9 -19 22 -41 28 -47 12 -14
96 -18 104 -5 3 5 31 14 63 21 32 7 69 16 83 21 45 14 133 31 215 39 44 5 188
36 320 71 132 34 278 70 325 80 47 9 97 21 113 25 35 9 77 79 77 127 0 33 10
96 31 203 5 28 12 64 14 80 2 17 10 48 19 70 8 22 15 50 16 61 0 12 6 37 14
56 8 19 19 63 25 99 6 35 15 93 21 129 6 36 15 79 20 95 5 17 12 59 15 95 4
36 13 85 20 110 7 25 16 72 20 105 4 33 15 101 25 150 11 50 26 150 34 224 9
73 24 166 33 207 19 78 26 84 88 84 24 0 41 11 80 55 42 47 59 57 108 69 50
13 64 13 112 0 111 -28 141 -13 105 52 -11 19 -39 90 -61 157 -23 67 -52 145
-65 174 -13 28 -24 59 -24 67 0 24 -31 99 -50 121 -10 11 -25 35 -34 53 -32
63 -69 95 -279 240 -111 76 -131 87 -207 117 -41 16 -86 37 -99 47 -13 10 -29
18 -36 18 -7 0 -29 11 -50 25 -40 28 -109 55 -139 55 -33 0 -126 53 -126 71 0
35 -20 37 -245 30 -213 -8 -268 -7 -555 3 -74 2 -162 1 -195 -4z m320 -58 c77
-5 222 -6 321 -3 201 7 214 6 214 -14 0 -14 36 -26 115 -40 22 -4 45 -11 51
-16 7 -5 43 -16 81 -24 67 -14 197 -67 208 -86 6 -8 91 -50 175 -84 25 -10 56
-29 70 -41 14 -12 50 -38 80 -57 142 -91 197 -136 232 -188 44 -64 98 -168 98
-189 0 -8 6 -27 14 -41 7 -14 26 -66 41 -115 15 -49 32 -94 37 -101 5 -6 8
-29 6 -50 l-3 -38 -55 -6 c-90 -9 -137 -27 -198 -77 l-57 -47 -130 -6 c-101
-4 -134 -3 -146 8 -27 23 -51 13 -129 -49 -50 -40 -51 -41 -106 -80 -49 -35
-51 -35 -184 -42 -106 -5 -154 -3 -225 10 -49 9 -141 17 -203 17 -75 0 -112 4
-111 11 4 34 -1 38 -38 31 -65 -12 -299 -186 -314 -234 -4 -11 -10 -11 -34 2
-45 23 -59 45 -85 132 -26 87 -64 152 -104 178 -17 12 -47 17 -92 17 -80 0
-184 33 -184 59 0 9 27 42 59 74 43 43 58 63 54 78 -10 37 -24 31 -91 -40 -37
-39 -71 -71 -76 -71 -4 0 -21 11 -37 24 -16 14 -55 30 -86 37 -88 19 -92 22
-86 71 3 24 16 60 30 81 22 36 25 67 6 67 -20 0 -61 -49 -77 -92 -20 -53 -33
-59 -63 -25 -11 12 -28 27 -38 33 -18 10 -18 12 4 42 26 37 37 40 44 12 3 -11
10 -20 16 -20 14 0 41 53 41 80 0 11 7 47 17 80 13 48 14 65 4 86 -16 36 -35
25 -42 -25 -3 -23 -13 -49 -22 -58 -15 -15 -19 -14 -51 8 -20 13 -36 31 -36
40 0 9 20 35 45 58 48 44 54 61 30 81 -12 10 -21 6 -51 -21 -98 -91 -139 -174
-98 -197 13 -7 12 -15 -13 -55 -29 -47 -46 -57 -99 -57 -23 0 -36 7 -48 25
-15 23 -15 29 4 85 11 32 20 73 20 90 0 17 13 65 29 108 16 42 33 109 39 147
16 111 44 176 89 207 39 27 58 34 173 63 36 9 99 27 140 40 41 13 122 33 179
45 58 11 109 24 114 27 10 6 60 13 232 33 49 6 91 13 94 16 3 2 18 2 35 -1 17
-3 94 -9 171 -13z m-945 -1088 c8 -3 30 -12 48 -20 18 -8 43 -14 56 -14 13 0
42 -15 66 -32 103 -77 226 -128 312 -128 84 0 100 -18 144 -155 38 -119 48
-132 138 -180 11 -5 27 -34 36 -63 15 -46 17 -92 15 -340 -1 -201 -6 -301 -15
-332 -7 -25 -14 -83 -15 -130 -3 -102 -22 -271 -35 -320 -6 -19 -17 -120 -26
-225 -10 -131 -20 -201 -32 -225 -16 -34 -19 -35 -66 -32 -28 1 -66 11 -85 22
-31 16 -175 87 -251 123 -14 6 -54 30 -90 53 -36 22 -87 54 -114 69 -60 35
-77 72 -83 175 -4 67 -5 327 -3 530 3 202 -11 594 -22 614 -7 12 -11 60 -10
116 1 52 -4 111 -10 130 -6 19 -12 64 -14 100 -2 36 -6 111 -9 168 -4 56 -4
110 -1 118 6 15 8 15 29 0 12 -9 29 -19 37 -22z m2216 -231 c5 -16 6 -50 3
-78 -4 -27 -8 -99 -9 -160 -1 -60 -9 -139 -17 -175 -7 -36 -22 -121 -33 -190
-10 -69 -25 -159 -33 -200 -8 -41 -20 -109 -27 -150 -12 -71 -37 -191 -81
-380 -11 -47 -22 -104 -26 -128 -3 -23 -10 -45 -14 -48 -5 -3 -9 -29 -9 -57 0
-29 -6 -63 -13 -77 -7 -14 -22 -50 -32 -80 -11 -30 -25 -62 -32 -70 -11 -14
-74 -38 -143 -55 -14 -3 -59 -15 -100 -26 -41 -12 -106 -29 -145 -39 -38 -10
-106 -28 -150 -40 -44 -12 -123 -29 -175 -36 -462 -68 -448 -70 -424 59 8 39
14 104 14 144 0 39 4 105 9 145 5 40 14 116 20 168 6 52 13 118 17 145 4 28 7
100 9 162 1 62 6 118 12 125 6 7 16 55 23 105 11 80 10 143 -4 235 -1 9 1 43
5 75 5 32 13 127 19 211 9 132 14 159 34 190 13 21 30 42 37 48 17 14 116 48
189 65 66 16 269 14 318 -2 48 -16 438 -7 470 10 13 7 40 30 59 52 53 58 93
76 178 78 36 1 42 -2 51 -26z"/>
<path d="M9825 3990 c-154 -12 -302 -20 -395 -20 -47 0 -94 -1 -105 -1 -11 -1
-78 -3 -150 -4 -71 -2 -160 -5 -197 -8 -37 -3 -70 -2 -73 2 -10 9 -49 7 -57
-3 -9 -13 -89 -36 -100 -30 -4 3 -8 2 -8 -3 0 -4 -15 -14 -32 -22 -105 -43
-167 -82 -168 -103 0 -18 96 -100 162 -139 40 -24 75 -46 78 -49 12 -15 121
-71 190 -98 42 -17 91 -39 110 -50 19 -12 71 -33 115 -47 106 -36 200 -86 253
-135 65 -61 121 -85 137 -59 8 12 -32 59 -51 59 -6 0 -17 6 -23 14 -10 12 18
14 196 13 118 0 238 4 278 11 39 7 126 16 195 22 209 16 296 27 357 45 45 14
100 18 250 19 164 1 195 3 209 17 15 16 15 18 -4 37 -17 17 -26 19 -65 10 -67
-14 -141 -7 -145 14 -3 16 62 98 79 98 4 0 20 -11 35 -25 15 -14 45 -30 68
-37 23 -6 48 -19 58 -29 21 -25 45 -24 58 1 19 35 -9 71 -71 89 -41 13 -59 25
-74 49 -12 20 -41 42 -75 58 -180 85 -325 162 -397 212 -76 51 -106 64 -159
66 -23 0 -48 7 -56 13 -19 16 -286 24 -423 13z m155 -60 c0 -3 -82 -82 -182
-176 -100 -93 -212 -198 -249 -234 -69 -67 -94 -114 -68 -131 9 -6 -3 -9 -35
-9 -36 0 -63 8 -100 29 -28 16 -77 37 -109 47 -31 10 -57 22 -57 26 0 5 19 18
43 28 l42 19 5 -32 c4 -23 11 -33 26 -35 27 -4 74 34 74 61 1 13 15 33 38 50
33 25 114 98 266 239 28 26 57 48 64 48 7 0 12 14 12 35 l0 34 58 4 c84 5 172
4 172 -3z m258 -11 c11 -16 21 -20 45 -16 18 2 40 0 50 -5 19 -10 10 -24 -84
-132 -19 -22 -43 -52 -52 -66 -10 -14 -79 -88 -155 -165 -75 -78 -147 -153
-159 -168 -20 -25 -26 -27 -100 -26 -89 0 -252 20 -271 32 -9 7 -6 14 13 29
17 13 25 27 22 39 -5 18 53 80 182 196 146 131 291 277 287 290 -4 10 16 13
102 13 98 0 108 -2 120 -21z m-661 -131 c-129 -127 -199 -188 -215 -188 -5 0
-12 9 -15 20 -3 11 -2 20 2 20 9 0 93 76 195 176 82 80 101 93 134 94 18 0 -2
-25 -101 -122z m-448 83 c11 -7 10 -13 -5 -34 -11 -14 -30 -32 -44 -39 -14 -7
-28 -17 -32 -22 -3 -5 -17 -10 -30 -11 -12 -1 -22 -7 -21 -13 2 -6 -4 -9 -12
-6 -20 8 -19 24 1 24 11 0 13 6 9 19 -4 14 6 28 36 55 42 36 71 44 98 27z
m198 -26 c-12 -16 -30 -36 -41 -44 -10 -8 -26 -22 -35 -33 -8 -10 -21 -18 -28
-18 -7 0 -13 -4 -13 -10 0 -5 -7 -10 -15 -10 -8 0 -15 -4 -15 -10 0 -5 -9 -10
-20 -10 -11 0 -20 -7 -20 -15 0 -17 -4 -18 -37 -9 -13 4 -23 11 -23 16 0 5 5
6 10 3 6 -3 10 -1 10 5 0 10 44 53 92 90 11 8 38 30 60 48 27 22 49 31 68 30
l28 -2 -21 -31z m173 21 c0 -3 -4 -8 -10 -11 -5 -3 -10 -1 -10 4 0 6 5 11 10
11 6 0 10 -2 10 -4z m954 -36 c61 -34 116 -72 116 -81 0 -5 -8 -13 -19 -18
-10 -6 -26 -27 -34 -48 -10 -23 -63 -85 -139 -160 l-123 -121 -72 -11 c-39 -6
-96 -11 -126 -11 -46 0 -55 3 -60 20 -7 26 12 49 208 255 17 17 55 58 85 91
55 59 107 104 122 104 4 0 23 -9 42 -20z m-984 2 c0 -15 -91 -93 -101 -87 -5
4 -9 -3 -9 -14 0 -17 -6 -21 -35 -21 -26 0 -33 3 -29 15 4 8 15 15 25 15 10 0
19 4 19 8 0 5 11 14 25 20 14 6 25 17 25 24 0 14 47 47 68 48 6 0 12 -4 12 -8z
m-784 -54 c-4 7 -1 12 8 12 9 0 16 -7 16 -15 0 -16 -45 -21 -54 -6 -10 15 7
21 22 8 13 -9 14 -9 8 1z m2042 -98 c50 -25 92 -49 92 -54 0 -8 -34 -50 -100
-123 -25 -28 -36 -33 -73 -33 -25 0 -62 -6 -83 -14 -56 -19 -171 -39 -183 -31
-18 10 11 54 93 138 42 43 76 81 76 86 0 13 33 47 53 54 9 3 17 11 17 18 0 6
3 9 8 7 4 -1 49 -23 100 -48z m-1434 5 c-6 -16 -34 -21 -34 -7 0 13 11 22 26
22 8 0 11 -6 8 -15z m-384 -22 c0 -9 -3 -14 -6 -10 -4 3 -13 0 -20 -8 -15 -14
-44 -10 -44 6 0 5 15 13 33 18 17 5 33 10 35 10 1 1 2 -6 2 -16z m327 -29
c-12 -14 -27 -22 -34 -20 -7 3 -15 -5 -19 -19 -3 -13 -12 -26 -20 -29 -8 -3
-14 -10 -14 -16 0 -21 -26 -39 -41 -29 -12 8 -12 11 1 22 8 6 28 31 44 54 16
24 32 40 37 37 5 -3 9 0 9 7 0 8 5 7 17 -2 11 -10 14 -10 9 -1 -10 16 1 32 19
26 11 -4 9 -11 -8 -30z"/>
<path d="M8970 3330 c-19 -11 -42 -23 -51 -26 -17 -6 -49 -64 -49 -89 0 -20
20 -19 48 1 23 16 23 16 16 -22 -5 -29 -3 -40 11 -50 16 -12 16 -14 1 -29 -16
-16 -22 -66 -9 -78 3 -4 27 12 53 36 25 23 65 59 88 79 23 21 42 44 42 52 0
22 -29 27 -61 11 -16 -9 -29 -11 -29 -6 0 6 14 18 31 26 34 18 36 43 4 60 -11
5 -20 16 -21 23 -2 28 -5 32 -22 32 -9 0 -33 -9 -52 -20z"/>
<path d="M11113 3148 c-36 -26 -104 -113 -96 -122 4 -3 19 -6 34 -6 20 0 33 8
45 28 9 15 30 46 45 69 16 23 29 44 29 47 0 13 -27 5 -57 -16z"/>
<path d="M10480 3132 c-68 -44 -100 -78 -100 -107 0 -32 29 -34 56 -4 10 12
43 39 72 61 34 25 52 46 50 56 -5 27 -30 25 -78 -6z"/>
<path d="M9771 3101 c-29 -21 -63 -54 -77 -72 l-25 -34 22 -18 22 -18 -42 -41
c-35 -33 -42 -46 -39 -69 4 -23 -2 -35 -29 -59 -18 -17 -33 -37 -33 -46 0 -29
30 -27 62 5 17 17 40 33 50 37 10 3 18 9 18 14 0 5 9 11 20 15 33 10 121 85
114 96 -7 11 -43 8 -79 -6 -28 -11 40 60 83 87 25 15 30 23 22 33 -8 10 -20
11 -43 4 -41 -12 -42 -12 -27 6 7 8 23 15 36 15 16 0 24 6 24 18 0 10 5 23 10
28 15 15 1 44 -20 44 -10 0 -41 -17 -69 -39z"/>
<path d="M10625 3104 c-106 -52 -175 -109 -175 -144 0 -20 35 -29 42 -11 4 10
186 135 211 144 23 9 17 31 -9 34 -10 1 -41 -9 -69 -23z"/>
<path d="M11127 3039 c-57 -16 -106 -109 -58 -109 11 0 26 6 33 13 7 7 30 25
51 41 20 16 37 32 37 37 0 16 -35 26 -63 18z"/>
<path d="M10685 3016 c-16 -7 -53 -32 -82 -55 -29 -22 -57 -41 -62 -41 -13 0
-71 -68 -71 -85 0 -30 23 -25 73 17 29 25 79 63 112 85 76 51 90 67 73 81 -9
7 -22 7 -43 -2z"/>
<path d="M21785 4058 c-11 -6 -22 -14 -25 -17 -3 -4 -27 -25 -55 -47 l-50 -41
-77 5 c-106 6 -157 -8 -258 -72 -66 -42 -102 -91 -112 -151 -2 -11 -34 -42
-74 -70 -69 -50 -144 -128 -144 -152 0 -8 12 -13 29 -13 23 0 39 12 77 56 30
35 58 57 75 61 16 3 34 12 40 19 6 8 20 14 29 14 10 0 29 13 42 29 25 32 57
50 138 79 30 11 63 23 73 27 13 5 17 2 17 -14 0 -15 6 -21 20 -21 26 0 72 23
89 44 11 13 37 16 134 16 136 0 186 -11 239 -52 20 -15 41 -28 46 -28 5 0 16
-7 23 -16 8 -9 34 -25 59 -36 67 -29 109 -65 131 -112 24 -53 37 -73 77 -119
42 -49 46 -115 7 -151 -30 -28 -31 -37 -5 -54 31 -19 28 -100 -6 -158 -14 -24
-29 -44 -33 -44 -4 0 -15 17 -24 39 -57 128 -144 129 -213 1 -14 -25 -34 -52
-46 -59 -31 -19 -74 15 -70 55 2 19 -6 39 -21 58 -19 23 -31 29 -65 29 -51 0
-72 -16 -72 -55 0 -16 -4 -28 -9 -26 -5 2 -41 32 -81 68 -128 115 -148 124
-204 99 -23 -11 -24 -15 -19 -66 6 -53 -17 -160 -40 -191 -6 -7 -13 -41 -16
-75 l-7 -62 -27 56 c-15 31 -27 60 -27 65 0 5 -13 36 -30 69 -16 33 -30 65
-30 71 0 5 -16 43 -36 83 -46 94 -155 207 -284 293 -29 20 -34 29 -32 55 2 17
-4 45 -12 62 -9 16 -16 42 -16 56 0 86 -134 210 -265 244 -80 21 -245 25 -313
7 -85 -21 -92 -21 -129 14 -18 17 -36 30 -41 30 -5 0 -17 11 -26 25 -20 31
-28 31 -151 -1 -108 -27 -133 -29 -395 -25 -162 3 -230 -4 -365 -33 -11 -2
-47 -10 -80 -16 -107 -22 -174 -50 -353 -149 -51 -28 -97 -51 -103 -51 -29 0
-192 -132 -256 -207 -27 -31 -73 -81 -104 -112 -30 -31 -68 -76 -84 -101 -35
-53 -81 -114 -113 -150 -16 -17 -21 -32 -17 -49 6 -25 -11 -58 -53 -103 -22
-24 -34 -28 -79 -28 -47 0 -53 -2 -53 -20 0 -11 7 -23 16 -27 13 -5 12 -9 -7
-29 -12 -13 -27 -24 -32 -24 -7 0 -135 -70 -272 -150 -72 -41 -273 -185 -295
-210 -16 -18 -86 -63 -161 -104 -88 -47 -168 -78 -319 -123 -47 -13 -109 -36
-138 -49 -29 -13 -58 -24 -65 -24 -7 0 -17 -4 -22 -9 -6 -5 -66 -28 -135 -51
-79 -27 -145 -57 -180 -81 -30 -21 -74 -45 -97 -53 l-42 -15 -37 47 c-21 26
-47 57 -59 68 -11 12 -35 38 -54 58 -19 20 -39 36 -46 36 -6 0 -24 14 -41 31
-47 50 -103 81 -163 89 -71 10 -95 -2 -155 -75 -59 -73 -66 -102 -56 -227 5
-57 11 -139 13 -183 3 -44 14 -115 26 -158 23 -84 20 -151 -6 -162 -12 -4 -14
-15 -9 -48 15 -99 60 -202 112 -257 19 -20 34 -40 34 -46 0 -20 76 -84 118
-98 50 -18 175 -24 194 -10 7 6 38 16 68 23 30 8 73 23 95 35 77 40 72 42 110
-37 19 -40 41 -83 50 -97 8 -14 28 -55 45 -92 26 -57 37 -71 72 -88 44 -21
106 -26 136 -11 9 5 43 16 75 26 35 10 78 33 110 58 29 23 70 48 92 55 22 7
54 19 70 27 17 7 48 18 70 23 22 6 59 15 81 21 23 6 54 11 70 11 32 0 165 36
259 70 33 12 150 66 261 121 110 54 213 99 227 99 14 0 29 4 32 10 3 5 14 10
25 10 10 0 42 13 72 28 53 28 356 132 385 132 8 0 54 13 101 29 48 16 137 43
197 61 61 18 119 36 130 40 11 4 40 13 65 20 25 7 59 19 75 28 17 9 57 26 90
38 127 45 155 59 197 96 44 39 62 46 73 28 12 -20 36 -9 46 20 14 37 40 39 81
5 16 -14 33 -25 37 -25 4 0 15 15 24 34 14 30 23 36 74 47 32 6 83 19 113 27
30 8 87 18 125 22 103 11 158 26 215 60 28 16 55 30 61 30 5 0 17 4 27 9 9 5
53 24 97 42 148 59 181 76 219 110 l38 33 52 -26 c118 -59 308 -87 526 -77
150 7 208 24 290 83 67 49 87 98 98 251 l7 89 90 12 c96 13 213 50 281 90 36
21 43 23 54 9 18 -21 29 -19 52 10 15 20 23 23 33 15 8 -6 22 -10 32 -8 10 1
24 -1 31 -6 17 -10 142 -43 242 -63 232 -46 270 -56 415 -106 77 -26 81 -30
116 -99 23 -45 30 -76 34 -136 3 -42 11 -113 19 -157 17 -93 24 -284 12 -304
-6 -10 0 -22 23 -40 17 -14 31 -34 31 -44 0 -10 8 -20 18 -23 18 -6 55 -24
167 -84 39 -21 93 -42 120 -48 59 -13 349 -20 1035 -27 278 -3 648 -12 824
-21 175 -8 324 -13 331 -10 8 3 58 0 112 -5 69 -7 134 -7 218 1 66 6 251 13
410 15 281 4 417 15 455 35 10 5 41 15 68 21 32 6 62 21 81 40 17 16 35 29 40
29 6 0 29 35 53 78 43 76 44 79 43 169 0 59 -5 97 -13 105 -6 6 -12 21 -12 33
0 12 -4 25 -8 31 -17 20 -33 86 -31 131 0 26 -4 86 -10 132 -6 46 -7 91 -2
100 5 9 11 50 15 91 19 210 27 280 36 330 39 224 41 298 12 540 -13 102 -20
197 -17 212 7 31 -21 93 -57 123 -12 12 -42 31 -66 44 -42 22 -43 22 -560 26
-578 5 -687 8 -793 24 -40 7 -172 14 -294 17 -121 2 -323 12 -450 21 -126 9
-401 19 -610 22 -209 3 -385 9 -392 14 -14 9 -277 -9 -353 -24 -154 -31 -241
-123 -269 -284 -6 -38 -20 -92 -31 -120 -10 -27 -32 -95 -50 -150 -17 -55 -42
-130 -56 -167 -14 -36 -27 -95 -30 -130 -8 -105 -69 -231 -123 -254 -9 -3
-134 -6 -277 -4 -144 1 -279 -3 -300 -8 -22 -6 -59 -13 -83 -16 -43 -7 -44 -6
-29 11 9 10 42 34 74 53 56 34 134 108 164 156 12 20 22 24 68 24 59 0 76 18
48 49 -22 24 -8 34 48 35 32 1 42 5 44 20 5 24 -23 46 -57 46 -38 0 -16 13 52
30 42 10 62 20 62 30 0 12 -13 15 -60 14 -33 0 -76 -2 -95 -5 -30 -3 -35 -1
-38 18 -5 34 32 48 133 49 88 1 90 1 90 25 0 13 8 27 18 31 21 9 22 31 3 47
-23 19 -105 3 -131 -25 -17 -18 -33 -24 -64 -24 l-42 0 3 38 3 37 70 6 c124
11 185 22 192 32 11 18 -37 47 -81 48 -42 1 -41 3 7 13 35 8 37 43 3 52 -15 3
-26 14 -28 26 -5 36 -30 44 -100 30 -77 -16 -131 -34 -140 -46 -8 -12 -38 11
-38 28 0 6 8 12 18 13 50 5 188 36 197 44 7 7 3 16 -11 28 -12 10 -24 26 -26
37 -5 29 -101 31 -183 5 -65 -21 -95 -20 -95 4 0 9 22 16 68 20 86 8 94 11 90
32 -3 15 -15 19 -65 21 -56 3 -60 5 -56 23 4 12 0 25 -8 30 -19 11 -85 1 -138
-23 -38 -17 -45 -18 -58 -5 -13 13 -9 17 31 36 50 25 53 51 5 51 -20 0 -34 8
-45 25 -18 27 -18 27 -104 8 -25 -6 -25 -6 -6 16 18 19 18 23 4 37 -14 14 -22
12 -84 -20 -60 -32 -114 -46 -114 -31 0 8 50 54 78 73 14 9 22 23 20 35 -4 25
-17 30 -43 15z m-1669 -125 c18 -16 34 -36 34 -47 0 -16 -5 -17 -47 -11 -27 4
-52 11 -57 16 -6 5 -17 9 -26 9 -9 0 -25 6 -35 14 -18 13 -15 15 30 29 67 20
62 21 101 -10z m-386 -32 c30 -5 73 -16 95 -25 22 -8 50 -15 62 -16 12 0 56
-16 97 -35 42 -19 80 -35 86 -35 15 0 82 -39 108 -63 22 -20 30 -57 13 -57 -5
0 -53 16 -107 36 -271 97 -442 106 -844 43 -69 -11 -143 -25 -165 -31 -32 -10
-145 -67 -244 -123 -9 -6 -68 -57 -130 -115 -90 -83 -118 -117 -142 -166 -31
-67 -35 -89 -18 -100 14 -8 42 26 68 82 32 71 214 236 322 293 128 67 184 83
339 101 41 5 113 16 160 24 127 24 287 22 411 -4 151 -32 290 -76 335 -106 97
-66 103 -74 51 -74 -39 0 -62 -21 -71 -66 -9 -39 13 -64 54 -64 69 0 112 41
91 87 l-11 24 41 -23 c23 -13 44 -29 46 -35 7 -18 42 -16 50 2 10 28 40 -10
35 -45 -3 -19 7 -52 28 -97 17 -37 38 -86 45 -108 35 -105 69 -184 108 -249
23 -39 47 -83 54 -99 18 -42 37 -184 33 -257 -7 -152 -12 -167 -64 -207 -212
-165 -245 -187 -356 -233 -79 -33 -125 -53 -210 -93 -96 -45 -133 -57 -184
-57 -23 -1 -70 -7 -106 -15 -110 -25 -174 -35 -192 -29 -20 6 -50 96 -53 154
-3 46 -19 114 -52 218 -13 42 -48 98 -85 135 -10 10 -18 21 -18 26 0 4 -20 28
-45 54 -45 48 -119 99 -210 147 -89 47 -170 93 -175 100 -25 32 -182 140 -250
172 -47 22 -117 55 -155 73 -39 19 -104 42 -145 51 -142 30 -210 51 -210 63 0
3 16 31 35 61 19 30 38 62 41 70 3 8 23 29 46 45 22 17 69 64 104 106 35 42
79 88 98 102 19 15 40 32 48 39 22 21 86 68 93 68 9 0 163 77 205 102 57 34
220 98 280 109 54 10 96 16 268 42 91 13 206 12 292 -2z m1814 -10 c3 -5 -4
-11 -17 -14 -12 -3 -55 -19 -96 -36 -82 -35 -99 -38 -80 -15 33 40 179 89 193
65z m-974 -30 c85 -11 187 -59 232 -110 47 -51 59 -74 64 -123 2 -23 6 -49 9
-60 7 -21 0 -22 -59 -6 -34 9 -51 9 -68 1 -13 -7 -44 -21 -70 -32 -26 -10 -70
-42 -98 -70 -28 -28 -55 -51 -60 -51 -5 0 -11 15 -15 33 -4 17 -15 46 -25 63
-10 18 -16 42 -13 58 3 14 0 32 -6 39 -24 30 16 29 51 0 20 -18 38 -9 38 17 0
23 -41 56 -80 65 -17 4 -32 11 -35 16 -4 5 -25 9 -47 9 -48 0 -137 38 -117 50
7 5 20 3 29 -3 13 -8 26 -6 51 5 57 26 135 11 196 -37 94 -74 112 -83 120 -58
4 12 -53 83 -67 83 -4 0 -24 15 -45 34 -41 38 -69 51 -130 61 -33 6 -37 9 -20
15 26 11 85 11 165 1z m3525 -36 c198 -1 421 -7 495 -13 136 -11 370 -21 640
-27 80 -2 185 -8 234 -14 101 -14 222 -19 521 -26 238 -5 657 -16 727 -19 57
-2 139 -50 150 -86 4 -14 14 -92 23 -175 9 -82 21 -184 27 -225 13 -94 13
-107 -1 -205 -6 -44 -15 -113 -20 -152 -6 -40 -13 -79 -18 -85 -4 -7 -9 -47
-10 -88 -1 -41 -7 -115 -13 -165 -13 -96 -15 -195 -7 -340 3 -71 11 -106 36
-165 55 -132 37 -248 -53 -346 -37 -41 -51 -48 -156 -80 l-115 -35 -207 1
c-114 0 -298 -7 -411 -15 -167 -13 -253 -14 -483 -5 -153 5 -344 12 -424 15
-80 3 -192 7 -250 10 -58 3 -377 8 -710 11 -696 6 -760 11 -873 69 -123 61
-149 84 -184 155 -28 57 -33 78 -39 175 -3 61 -9 114 -12 119 -3 5 -8 59 -12
120 -6 93 -12 124 -40 189 -26 63 -40 83 -71 102 -54 35 -306 110 -449 136
-30 5 -68 15 -85 21 -29 12 -29 12 -6 18 13 3 131 5 262 4 230 -1 241 0 267
20 84 65 142 191 142 308 0 35 8 74 19 100 11 24 37 95 57 158 21 63 48 145
60 182 13 37 28 93 33 125 15 78 71 160 128 185 23 10 63 23 90 30 65 15 255
26 323 20 30 -4 217 -7 415 -7z m-1905 -39 c0 -3 -13 -11 -29 -19 -35 -18 -52
-9 -19 10 23 12 48 17 48 9z m253 -296 c-7 -28 -19 -33 -43 -20 -34 18 -21 35
32 39 11 1 15 -5 11 -19z m-1546 -25 c80 -44 169 -110 213 -158 8 -9 31 -32
51 -51 20 -19 44 -54 52 -78 9 -23 23 -63 32 -88 9 -25 22 -52 29 -60 7 -8 25
-53 41 -100 15 -47 37 -107 50 -135 24 -53 55 -160 55 -188 0 -9 9 -26 20 -37
41 -41 18 -235 -36 -291 -29 -31 -100 -64 -181 -85 -111 -29 -358 -12 -504 35
-87 28 -100 43 -68 79 38 44 51 52 80 52 15 0 30 4 33 9 3 5 8 61 10 125 3 64
7 120 11 126 7 11 -31 221 -48 265 -6 17 -30 59 -53 96 -23 36 -48 87 -57 115
-9 27 -29 87 -46 134 -17 47 -31 91 -31 98 0 8 12 28 28 45 118 133 200 157
319 92z m721 -338 c38 -39 42 -46 36 -78 -8 -38 -32 -78 -78 -127 -28 -30 -29
-33 -13 -49 22 -22 58 -6 83 36 10 17 22 31 26 31 4 0 17 19 29 41 l21 42 25
-25 c29 -29 38 -91 23 -148 -8 -31 -18 -41 -67 -65 -77 -38 -156 -41 -183 -7
-29 35 -45 128 -32 182 14 61 44 182 48 198 7 24 40 11 82 -31z m-3346 -52
c35 -8 97 -19 138 -25 50 -7 102 -23 155 -49 44 -21 118 -57 165 -79 83 -40
115 -63 188 -130 19 -18 65 -49 101 -68 36 -19 73 -38 81 -43 8 -5 49 -28 90
-52 102 -58 118 -72 203 -186 73 -96 78 -107 107 -235 19 -86 32 -184 28 -218
-3 -31 -7 -35 -35 -38 -40 -4 -63 26 -63 83 0 27 -19 82 -59 169 -62 137 -90
175 -232 316 -67 67 -93 83 -230 152 -85 42 -185 89 -224 104 -38 15 -97 39
-130 55 -90 41 -151 59 -239 69 -85 10 -108 15 -146 33 -55 25 -56 21 17 150
6 10 12 9 85 -8z m3914 -25 c28 -42 24 -67 -9 -54 -17 6 -47 57 -47 81 0 27
30 12 56 -27z m-112 -142 c15 -70 12 -82 -16 -92 -33 -12 -37 -8 -45 36 -3 24
0 44 12 62 23 35 41 33 49 -6z m120 3 c3 -5 0 -11 -8 -14 -15 -6 -26 1 -26 15
0 11 27 10 34 -1z m-4039 -41 c14 -5 81 -17 148 -25 139 -17 160 -22 237 -58
30 -14 94 -42 141 -61 153 -64 356 -172 407 -217 27 -24 71 -71 98 -104 26
-33 55 -65 64 -72 10 -7 23 -27 30 -45 7 -18 19 -47 26 -65 8 -17 14 -35 14
-41 0 -5 8 -20 18 -33 24 -32 42 -103 40 -161 -1 -36 -7 -52 -25 -68 -12 -11
-23 -26 -23 -33 0 -19 -58 -72 -106 -95 -22 -11 -72 -31 -110 -43 -38 -12 -88
-33 -111 -46 -23 -12 -49 -23 -58 -23 -9 0 -60 -14 -113 -30 -53 -17 -110 -34
-127 -39 -16 -5 -75 -23 -130 -39 -55 -17 -149 -45 -210 -63 -173 -50 -247
-75 -295 -102 -25 -14 -83 -37 -128 -51 -92 -29 -172 -63 -229 -99 -21 -13
-54 -29 -73 -37 -19 -8 -52 -25 -74 -38 -69 -43 -270 -102 -395 -116 -124 -15
-146 -13 -135 13 7 18 17 60 33 141 18 87 5 360 -19 424 -11 28 -20 61 -20 73
0 12 -5 34 -12 48 -10 22 -9 29 8 45 18 18 195 110 211 110 4 0 51 15 103 34
52 18 125 41 161 49 71 17 174 78 202 120 9 14 47 58 84 99 37 41 104 118 147
171 44 53 93 107 110 119 65 50 69 55 63 71 -4 10 -13 17 -21 17 -27 0 -166
-136 -221 -216 -11 -16 -50 -60 -87 -97 -37 -38 -78 -83 -90 -100 -29 -42 -47
-59 -83 -82 -58 -37 -81 -47 -155 -62 -41 -8 -93 -23 -115 -33 -22 -10 -69
-28 -105 -40 -36 -12 -106 -42 -157 -67 -50 -25 -96 -44 -101 -42 -6 2 -34 31
-63 64 -28 32 -63 65 -77 72 -44 23 -125 16 -199 -18 -125 -56 -191 -112 -232
-194 -12 -24 -27 -47 -32 -51 -9 -5 -77 -144 -92 -186 -11 -30 -22 -20 -40 35
-11 32 -18 79 -17 122 1 39 -1 106 -5 151 l-7 81 31 13 c17 7 55 29 84 49 69
47 75 50 267 122 91 34 181 69 200 79 19 10 54 21 77 25 24 4 73 18 110 32 38
14 82 28 98 33 27 6 120 50 198 92 15 9 50 36 78 62 27 25 53 46 57 46 4 0 24
16 46 35 21 19 42 35 46 35 4 0 19 11 33 24 39 36 180 119 308 180 100 48 116
53 130 40 22 -20 42 -17 59 8 44 65 72 78 125 58z m3725 -54 c21 -26 8 -60
-27 -71 -18 -5 -33 -13 -33 -18 0 -17 -27 -34 -90 -56 -79 -27 -143 -36 -205
-27 -37 6 -48 12 -56 33 -13 34 -7 38 30 19 41 -22 106 -20 171 5 30 11 69 24
85 29 56 15 65 22 75 61 11 41 29 49 50 25z m-6086 -601 c14 -13 26 -28 26
-33 0 -5 12 -15 28 -21 37 -16 82 -83 98 -145 7 -28 25 -89 39 -135 14 -46 25
-95 25 -110 0 -14 9 -39 20 -56 11 -16 20 -38 20 -47 0 -10 7 -39 16 -65 20
-58 24 -153 7 -153 -14 0 -141 51 -163 65 -45 30 -71 39 -130 45 -79 9 -100
30 -119 116 -7 32 -17 64 -22 70 -5 6 -11 60 -14 120 -2 60 -7 147 -11 194
l-6 85 46 48 c56 56 96 63 140 22z m321 -247 c41 -75 63 -237 44 -327 -5 -24
-2 -44 11 -70 21 -42 36 -141 21 -141 -19 0 -41 45 -41 81 0 21 -13 71 -30
112 -16 42 -30 80 -30 87 0 6 -7 22 -16 35 -9 14 -20 51 -24 82 -5 32 -18 84
-29 116 -11 32 -24 82 -27 110 l-7 52 49 -42 c28 -23 63 -65 79 -95z m699 -33
c19 -20 36 -79 36 -128 0 -20 4 -45 9 -55 5 -9 14 -44 20 -77 7 -33 14 -69 16
-79 3 -11 -1 -51 -7 -90 -6 -39 -12 -116 -13 -171 -3 -103 -18 -184 -39 -197
-24 -16 -63 -7 -111 26 -28 19 -86 56 -130 83 -44 26 -87 53 -96 58 -9 6 -35
23 -58 39 -42 29 -81 36 -115 21 -18 -8 -19 -4 -13 66 8 104 52 226 106 296
12 15 38 49 57 75 19 27 49 55 67 64 18 9 34 20 37 25 3 4 30 19 60 33 64 30
149 35 174 11z m157 -212 c58 -152 69 -499 19 -593 -22 -41 -101 -130 -116
-130 -16 0 -54 35 -54 50 0 6 13 10 30 10 24 0 32 6 44 33 18 44 36 181 35
277 0 41 5 99 11 129 13 68 13 138 0 146 -5 3 -10 28 -10 56 0 56 23 69 41 22z
m-1101 -258 c30 -19 62 -35 71 -35 9 0 22 -7 29 -15 11 -13 8 -15 -21 -15 -48
0 -103 17 -156 48 -61 36 -66 52 -16 52 26 0 55 -11 93 -35z m-96 -81 c42 -19
93 -38 114 -40 65 -9 170 -44 176 -60 8 -21 -12 -116 -29 -133 -21 -21 -84
-41 -133 -41 -38 0 -49 5 -83 41 -92 96 -131 158 -144 232 -9 48 0 48 99 1z
m453 -76 c9 -10 13 -21 10 -24 -3 -4 -1 -16 5 -27 9 -17 5 -25 -28 -54 -26
-22 -47 -33 -64 -31 -22 3 -25 7 -23 42 2 24 11 49 25 63 19 21 21 27 11 54
-11 27 -9 35 10 61 l22 30 8 -49 c5 -26 15 -56 24 -65z m204 -24 c7 -9 22 -20
34 -25 54 -26 171 -112 157 -117 -15 -5 -132 46 -167 73 -45 34 -75 65 -75 75
0 16 36 11 51 -6z m169 -212 c30 -15 60 -37 66 -49 6 -13 19 -32 29 -43 15
-16 16 -22 5 -37 -26 -36 -96 -94 -118 -100 -36 -9 -85 10 -99 37 -6 14 -35
71 -62 128 -46 92 -61 148 -45 164 5 5 81 -29 224 -100z"/>
<path d="M19343 3648 c-27 -13 -47 -60 -39 -92 17 -70 176 -47 176 26 0 22
-32 56 -66 68 -31 12 -43 12 -71 -2z"/>
<path d="M19796 3638 c-23 -33 -20 -53 15 -82 33 -28 95 -36 117 -14 16 16 15
58 -2 80 -30 40 -107 50 -130 16z"/>
<path d="M18835 3395 c-17 -18 -25 -37 -25 -60 0 -28 5 -37 31 -51 41 -21 92
-11 119 23 26 34 25 59 -5 88 -33 34 -85 34 -120 0z m85 -45 c0 -5 -9 -10 -20
-10 -11 0 -20 5 -20 10 0 6 9 10 20 10 11 0 20 -4 20 -10z"/>
<path d="M25573 3658 c-42 -30 -71 -84 -54 -101 10 -9 18 -6 37 18 13 17 36
42 51 56 14 15 23 32 19 38 -10 16 -17 14 -53 -11z"/>
<path d="M23436 3654 c-9 -8 -16 -23 -16 -32 0 -9 -31 -63 -70 -120 -38 -56
-73 -114 -76 -129 -8 -29 5 -57 27 -60 13 -2 59 60 74 99 5 11 17 15 43 14 20
-2 53 -3 73 -4 32 -2 37 -6 43 -32 3 -17 1 -42 -5 -57 -8 -22 -6 -30 10 -46
32 -32 51 -8 51 64 0 33 5 68 12 79 10 16 9 23 -10 43 -12 13 -22 29 -22 35 0
7 -4 20 -9 30 -4 9 -20 43 -35 75 -21 47 -30 57 -50 57 -14 0 -32 -7 -40 -16z
m63 -120 c16 -44 6 -57 -40 -52 -28 2 -33 7 -31 23 5 29 30 65 45 65 7 0 19
-16 26 -36z"/>
<path d="M25982 3604 c-33 -33 -34 -36 -18 -52 16 -16 18 -16 27 1 6 9 23 24
39 32 18 9 30 24 30 35 0 32 -38 24 -78 -16z"/>
<path d="M25794 3622 c-6 -4 -19 -22 -29 -39 -15 -25 -16 -36 -8 -44 9 -9 20
-5 47 17 38 32 42 44 24 62 -14 14 -19 14 -34 4z"/>
<path d="M23699 3593 c-33 -36 -49 -94 -49 -176 0 -75 13 -117 35 -117 16 0
20 15 29 95 10 82 20 79 96 -37 29 -43 43 -47 64 -16 l15 21 11 -29 c27 -74
61 -105 127 -117 30 -6 38 -2 93 40 2 2 7 25 10 50 5 43 8 48 38 55 27 7 33
13 30 31 -3 19 -12 23 -83 33 -81 12 -105 7 -105 -21 0 -8 15 -23 34 -34 41
-25 49 -43 36 -76 -7 -19 -17 -25 -39 -25 -43 0 -60 9 -76 41 -22 42 -18 70
16 123 41 61 88 96 135 100 46 4 58 30 22 47 -37 16 -125 -27 -174 -85 -21
-25 -42 -46 -46 -46 -12 0 -9 88 4 109 15 24 4 51 -21 51 -23 0 -51 -64 -51
-119 0 -21 -3 -41 -7 -44 -8 -8 -53 32 -53 47 0 5 -10 20 -21 33 -12 12 -22
37 -23 54 -1 42 -16 46 -47 12z"/>
<path d="M24585 3590 c-27 -11 -71 -60 -79 -87 -11 -36 21 -70 90 -93 34 -11
70 -27 80 -35 19 -13 18 -14 -3 -36 -18 -18 -36 -23 -101 -27 -50 -3 -87 0
-101 8 -17 9 -26 9 -37 -1 -34 -28 -4 -52 79 -64 56 -9 135 8 195 40 29 17 42
20 42 11 0 -8 -7 -19 -15 -26 -8 -7 -15 -23 -15 -36 0 -41 33 -29 60 22 36 65
68 78 139 53 22 -8 31 -17 31 -34 0 -29 33 -71 48 -61 15 9 15 95 1 156 -5 25
-23 64 -39 87 -18 24 -30 54 -30 72 0 39 -25 52 -45 23 -8 -11 -25 -22 -39
-26 -29 -7 -48 -36 -66 -98 -13 -49 -28 -59 -50 -34 -6 8 -42 26 -79 41 -38
14 -77 32 -87 39 -18 14 -18 15 6 41 24 25 29 26 104 24 61 -3 81 0 84 10 8
25 -29 41 -92 40 -34 0 -70 -4 -81 -9z m325 -170 c0 -5 -4 -10 -10 -10 -5 0
-10 5 -10 10 0 6 5 10 10 10 6 0 10 -4 10 -10z"/>
<path d="M26185 3581 c-50 -23 -73 -47 -57 -63 8 -8 22 -7 51 6 22 10 44 15
49 12 16 -9 25 12 18 40 -8 29 -10 29 -61 5z"/>
<path d="M25077 3564 c-4 -4 -7 -33 -7 -65 0 -63 -16 -186 -30 -231 -10 -35
16 -73 43 -63 14 6 17 20 17 84 0 97 8 111 46 83 25 -17 103 -98 142 -146 16
-20 31 -20 38 -1 6 16 -18 52 -81 120 -53 57 -59 72 -36 85 11 5 25 10 30 10
6 0 30 9 54 19 23 11 59 25 80 32 38 13 44 31 13 37 -9 2 -56 -9 -103 -23
-136 -43 -149 -41 -169 29 -9 30 -25 42 -37 30z"/>
<path d="M26457 3532 c-64 -3 -68 -4 -65 -25 2 -18 10 -23 46 -25 39 -3 42 -5
42 -33 0 -16 -7 -63 -15 -102 -8 -40 -16 -109 -17 -152 -3 -66 0 -80 12 -80
10 0 17 15 22 50 3 28 14 88 23 135 9 47 20 105 23 130 7 44 8 45 52 52 25 4
79 5 121 2 66 -4 78 -2 83 12 4 10 3 21 -2 26 -10 10 -212 16 -325 10z"/>
<path d="M25505 3448 c-8 -24 -31 -263 -27 -275 2 -7 12 -13 21 -13 14 0 19
18 30 98 7 53 15 114 18 135 3 22 0 43 -7 52 -15 18 -29 19 -35 3z"/>
<path d="M25730 3406 c-11 -25 -20 -51 -20 -58 0 -7 -11 -37 -25 -66 -29 -63
-33 -117 -8 -126 22 -9 27 -1 42 64 7 30 24 87 37 127 22 68 23 103 3 103 -5
0 -18 -20 -29 -44z"/>
<path d="M26123 3408 c-6 -7 -13 -26 -17 -43 -9 -41 -22 -88 -43 -162 -13 -47
-15 -65 -6 -74 19 -19 31 -2 53 74 12 39 30 98 41 131 14 44 16 62 8 72 -14
17 -24 18 -36 2z"/>
<path d="M25924 3399 c-3 -6 -9 -28 -11 -48 -2 -20 -13 -67 -24 -104 -22 -76
-22 -132 0 -132 10 0 20 24 32 75 9 41 22 96 29 121 18 63 -1 128 -26 88z"/>
<path d="M24263 2978 c-10 -13 -15 -32 -32 -133 -5 -27 -19 -77 -30 -110 -29
-79 -41 -127 -35 -137 11 -18 32 -6 44 25 33 83 63 147 71 147 5 0 20 -17 33
-37 34 -54 150 -153 179 -153 15 0 22 55 26 199 1 29 8 49 19 57 16 12 16 14
0 30 -16 16 -18 16 -42 0 -24 -15 -26 -22 -26 -85 0 -109 -11 -121 -67 -73
-43 37 -93 140 -99 205 -5 58 -24 87 -41 65z"/>
<path d="M24754 2887 c-56 -44 -69 -59 -77 -82 -3 -11 -13 -40 -22 -63 -26
-72 -5 -144 60 -201 72 -63 149 -30 180 77 4 13 18 27 32 33 33 12 107 11 120
-2 6 -6 21 -9 34 -7 32 4 38 42 10 57 -22 12 -272 18 -290 7 -19 -12 -12 -34
17 -48 37 -18 40 -50 6 -77 -36 -28 -60 -26 -94 7 -91 91 -6 282 126 282 38 0
46 -4 56 -25 6 -14 16 -24 22 -22 21 7 18 49 -5 73 -19 20 -32 24 -78 24 -48
0 -62 -5 -97 -33z"/>
<path d="M26192 2413 c-7 -60 -15 -135 -18 -168 -3 -33 -9 -76 -13 -95 -11
-53 -4 -70 29 -70 32 0 42 16 27 44 -11 22 -1 206 14 258 17 62 9 138 -15 138
-7 0 -16 -39 -24 -107z"/>
<path d="M23567 2274 c-43 -23 -28 -39 38 -41 81 -2 143 -12 151 -24 9 -15 4
-18 -77 -33 l-74 -15 -18 25 c-10 13 -24 24 -32 24 -21 0 -87 -200 -88 -269
-2 -64 3 -77 28 -68 11 5 15 20 15 55 0 48 11 95 33 140 8 17 19 22 47 22 21
0 43 6 49 14 6 7 30 17 53 20 61 10 124 41 130 63 10 38 -26 65 -118 89 -69
18 -102 17 -137 -2z"/>
<path d="M25379 2137 c-43 -166 -49 -195 -49 -237 0 -33 3 -40 19 -40 23 0 40
45 40 108 0 71 14 76 70 23 131 -124 166 -141 166 -81 0 27 -4 35 -23 40 -28
6 -121 80 -122 97 0 15 39 43 60 43 8 0 28 7 44 15 15 8 39 15 52 15 17 0 24
6 24 20 0 30 -44 26 -144 -12 -68 -26 -86 -37 -91 -56 -3 -13 -8 -22 -11 -19
-3 3 0 25 6 49 6 23 15 58 20 76 10 40 4 62 -19 62 -12 0 -22 -25 -42 -103z"/>
<path d="M24030 2205 c-5 -14 -10 -31 -10 -36 0 -6 -6 -20 -12 -32 -17 -30
-37 -106 -38 -140 0 -32 16 -66 39 -84 35 -27 115 -9 152 33 52 60 103 210 82
242 -18 29 -37 19 -45 -23 -19 -95 -29 -127 -50 -160 -51 -76 -138 -72 -138 7
0 17 14 60 31 96 30 64 35 112 12 120 -7 2 -17 -8 -23 -23z"/>
<path d="M24429 2207 c-43 -29 -48 -62 -15 -107 38 -54 59 -98 52 -115 -8 -21
-65 -19 -122 5 -54 23 -87 23 -92 -1 -5 -29 142 -73 208 -61 73 12 80 64 20
154 -42 63 -38 92 13 96 21 2 44 -2 52 -8 9 -8 15 -8 20 0 13 20 -6 48 -37 54
-49 10 -63 7 -99 -17z"/>
<path d="M24721 2164 c-50 -36 -98 -148 -87 -207 16 -87 137 -116 296 -70 40
12 67 28 98 60 37 38 42 49 42 89 0 66 -29 108 -87 128 -54 19 -141 21 -176 5
-17 -8 -30 -8 -44 -1 -15 8 -25 7 -42 -4z m241 -45 c51 -13 68 -33 68 -81 0
-32 -6 -46 -31 -69 -89 -83 -315 -75 -327 11 -4 27 47 130 64 130 8 0 12 -11
11 -26 -3 -38 18 -40 39 -5 34 57 73 66 176 40z"/>
<path d="M25820 2134 c-45 -20 -87 -60 -111 -106 -23 -45 -24 -60 -4 -103 18
-38 51 -55 103 -55 128 0 196 74 142 155 -32 49 -37 59 -47 90 -10 36 -33 41
-83 19z m58 -88 c32 -28 53 -71 46 -90 -6 -17 -63 -36 -106 -36 -34 0 -75 18
-83 37 -7 21 31 86 63 105 29 18 46 14 80 -16z"/>
<path d="M26187 1935 c-22 -22 -31 -55 -18 -68 9 -9 18 -4 36 18 25 31 29 55
9 62 -7 2 -19 -3 -27 -12z"/>
<path d="M21862 3658 c-28 -28 6 -68 59 -68 19 0 39 -4 45 -8 17 -11 51 -120
59 -189 8 -68 30 -99 64 -88 55 17 31 208 -36 282 -18 21 -33 41 -33 44 0 3
-16 13 -35 22 -41 20 -106 22 -123 5z"/>
<path d="M21750 3560 c-19 -16 -44 -29 -56 -30 -11 0 -28 -6 -37 -12 -22 -17
-12 -58 14 -58 29 0 23 -27 -11 -52 -18 -13 -30 -31 -30 -45 0 -26 16 -29 55
-11 24 11 29 9 46 -12 10 -14 16 -33 14 -42 -3 -10 -8 -27 -11 -38 -8 -30 22
-37 50 -11 21 20 25 21 59 6 20 -8 45 -15 56 -15 20 0 35 25 25 41 -3 5 2 16
10 25 25 24 21 106 -8 162 -31 60 -92 122 -120 122 -12 0 -37 -13 -56 -30z
m97 -76 c30 -32 43 -65 43 -105 0 -17 5 -39 10 -50 9 -16 7 -19 -8 -19 -24 0
-97 53 -113 81 -10 20 -6 89 7 111 10 16 37 8 61 -18z"/>
<path d="M3760 565 c0 -8 9 -15 20 -15 11 0 20 7 20 15 0 8 -9 15 -20 15 -11
0 -20 -7 -20 -15z"/>
<path d="M1788 139 c15 -6 30 -5 40 1 13 7 8 9 -23 9 -35 0 -37 -1 -17 -10z"/>
<path d="M1470 49 c0 -5 5 -7 10 -4 6 3 10 8 10 11 0 2 -4 4 -10 4 -5 0 -10
-5 -10 -11z"/>
</g>
</svg>
